<svg width="88" height="88" viewBox="0 0 88 88" fill="none" xmlns="http://www.w3.org/2000/svg">
<g id="Icon">
<rect id="Rectangle 229" width="88" height="88" rx="11" fill="#47C409" fill-opacity="0.05"/>
<g id="Group 1">
<circle id="Ellipse 96" opacity="0.15" cx="29" cy="40" r="12" fill="#47C409"/>
<g id="location">
<path id="Vector" d="M44.0008 47.6167C40.4508 47.6167 37.5508 44.7334 37.5508 41.1667C37.5508 37.6001 40.4508 34.7334 44.0008 34.7334C47.5508 34.7334 50.4508 37.6167 50.4508 41.1834C50.4508 44.7501 47.5508 47.6167 44.0008 47.6167ZM44.0008 37.2334C41.8341 37.2334 40.0508 39.0001 40.0508 41.1834C40.0508 43.3667 41.8174 45.1334 44.0008 45.1334C46.1841 45.1334 47.9508 43.3667 47.9508 41.1834C47.9508 39.0001 46.1674 37.2334 44.0008 37.2334Z" fill="#47C409"/>
<path id="Vector_2" d="M43.9988 61.9335C41.5322 61.9335 39.0488 61.0002 37.1155 59.1502C32.1988 54.4168 26.7655 46.8668 28.8155 37.8835C30.6655 29.7335 37.7822 26.0835 43.9988 26.0835C43.9988 26.0835 43.9988 26.0835 44.0155 26.0835C50.2322 26.0835 57.3488 29.7335 59.1988 37.9002C61.2322 46.8835 55.7988 54.4168 50.8822 59.1502C48.9488 61.0002 46.4655 61.9335 43.9988 61.9335ZM43.9988 28.5835C39.1488 28.5835 32.9155 31.1668 31.2655 38.4335C29.4655 46.2835 34.3988 53.0502 38.8655 57.3335C41.7488 60.1168 46.2655 60.1168 49.1488 57.3335C53.5988 53.0502 58.5322 46.2835 56.7655 38.4335C55.0988 31.1668 48.8488 28.5835 43.9988 28.5835Z" fill="#47C409"/>
</g>
</g>
</g>
</svg>
