<svg xmlns="http://www.w3.org/2000/svg" width="202" height="60" viewBox="0 0 202 60" fill="none">
  <path d="M200.658 52.916C200.659 53.6703 200.511 54.4175 200.223 55.1147C199.935 55.8119 199.512 56.4455 198.979 56.9793C198.446 57.513 197.813 57.9365 197.116 58.2254C196.419 58.5143 195.672 58.663 194.918 58.663H7.08294C5.55874 58.663 4.09697 58.0575 3.01919 56.9797C1.94142 55.9019 1.33594 54.4402 1.33594 52.916V7.08896C1.3362 5.5642 1.94155 4.10186 3.01906 3.02303C4.09658 1.94421 5.55818 1.33708 7.08294 1.33496H194.917C195.672 1.33575 196.419 1.48522 197.116 1.77484C197.813 2.06445 198.446 2.48854 198.979 3.02287C199.512 3.55721 199.935 4.19132 200.222 4.88899C200.51 5.58666 200.658 6.33422 200.657 7.08896V52.916H200.658Z" fill="white"/>
  <path d="M194.92 60H7.08C5.20248 59.9976 3.40258 59.2505 2.07526 57.9226C0.747928 56.5947 0.00158759 54.7945 0 52.917L0 7.091C0.000790747 5.2125 0.746621 3.411 2.07389 2.08167C3.40116 0.752333 5.2015 0.00370706 7.08 0L194.919 0C196.797 0.00502465 198.597 0.754041 199.924 2.08306C201.251 3.41208 201.998 5.21281 202 7.091V52.917C201.999 54.7946 201.252 56.595 199.925 57.9229C198.598 59.2509 196.798 59.9979 194.92 60Z" fill="#A6A6A6"/>
  <path d="M200.658 52.916C200.659 53.6703 200.511 54.4175 200.223 55.1147C199.935 55.8119 199.512 56.4455 198.979 56.9793C198.446 57.513 197.813 57.9365 197.116 58.2254C196.419 58.5143 195.672 58.663 194.918 58.663H7.08294C5.55874 58.663 4.09697 58.0575 3.01919 56.9797C1.94142 55.9019 1.33594 54.4402 1.33594 52.916V7.08896C1.3362 5.5642 1.94155 4.10186 3.01906 3.02303C4.09658 1.94421 5.55818 1.33708 7.08294 1.33496H194.917C195.672 1.33575 196.419 1.48522 197.116 1.77484C197.813 2.06445 198.446 2.48854 198.979 3.02287C199.512 3.55721 199.935 4.19132 200.222 4.88899C200.51 5.58666 200.658 6.33422 200.657 7.08896V52.916H200.658Z" fill="black"/>
  <path d="M45.2019 29.6853C45.2207 28.2178 45.6105 26.779 46.3348 25.5026C47.0592 24.2263 48.0947 23.1539 49.3449 22.3853C48.5511 21.2516 47.5039 20.3184 46.2866 19.6598C45.0693 19.0013 43.7153 18.6354 42.3319 18.5913C39.3809 18.2803 36.5179 20.3573 35.0139 20.3573C33.4809 20.3573 31.1649 18.6213 28.6699 18.6723C27.0564 18.7248 25.484 19.1946 24.1061 20.0358C22.7282 20.8771 21.5919 22.061 20.8079 23.4723C17.4079 29.3583 19.9439 38.0083 23.2009 42.7663C24.8299 45.0983 26.7339 47.6983 29.2269 47.6063C31.6649 47.5063 32.5759 46.0533 35.5179 46.0533C38.4329 46.0533 39.2889 47.6063 41.8299 47.5473C44.4469 47.5063 46.0939 45.2063 47.6669 42.8553C48.8381 41.1956 49.7389 39.3609 50.3359 37.4193C48.816 36.7758 47.5189 35.6994 46.606 34.3243C45.6932 32.9491 45.2049 31.3359 45.2019 29.6853Z" fill="white"/>
  <path d="M40.3225 15.4631C41.7495 13.7512 42.4526 11.5503 42.2825 9.32812C40.1031 9.55743 38.0899 10.5988 36.6435 12.2451C35.9363 13.0495 35.3947 13.9855 35.0496 14.9994C34.7046 16.0133 34.5628 17.0854 34.6325 18.1541C35.7228 18.1657 36.8014 17.9295 37.7871 17.4633C38.7728 16.9972 39.6397 16.3132 40.3225 15.4631Z" fill="white"/>
  <path d="M194.903 1.76712e-06H94.0684L133.568 60H194.908C196.789 60 198.593 59.2536 199.925 57.9247C201.256 56.5958 202.005 54.793 202.008 52.912V7.091C202.006 5.20866 201.256 3.4043 199.924 2.07459C198.592 0.744887 196.786 -0.00132534 194.903 1.76712e-06Z" fill="url(#paint0_linear_2343_12998)"/>
  <path d="M80.0738 47.2687H76.6668L74.7998 41.4057H68.3118L66.5338 47.2707H63.2168L69.6458 27.3057H73.6158L80.0738 47.2687ZM74.2368 38.9427L72.5488 33.7287C72.3701 33.1953 72.0345 31.9413 71.5418 29.9667H71.4868C71.2868 30.816 70.9708 32.07 70.5388 33.7287L68.8798 38.9427H74.2368Z" fill="white"/>
  <path d="M96.575 39.893C96.6903 42.0147 95.9727 44.0976 94.575 45.698C94.013 46.3122 93.3265 46.7994 92.5611 47.1271C91.7958 47.4547 90.9694 47.6153 90.137 47.598C89.3308 47.6641 88.5219 47.5089 87.7974 47.149C87.0729 46.7892 86.4605 46.2384 86.026 45.556V53.111H82.826V37.611C82.826 36.073 82.7864 34.4957 82.707 32.879H85.52L85.699 35.161H85.759C86.2436 34.4187 86.8949 33.7999 87.661 33.3539C88.4271 32.9079 89.2867 32.647 90.1715 32.592C91.0562 32.537 91.9416 32.6895 92.757 33.0373C93.5724 33.385 94.2953 33.9184 94.868 34.595C96.0559 36.0981 96.662 37.9792 96.575 39.893ZM93.316 40.01C93.3659 38.7842 93.0347 37.573 92.368 36.543C92.059 36.0929 91.6423 35.7271 91.1559 35.479C90.6696 35.2308 90.1289 35.1081 89.583 35.122C88.7971 35.1219 88.0365 35.4 87.436 35.907C86.7942 36.4305 86.3501 37.1571 86.177 37.967C86.0891 38.2847 86.0391 38.6116 86.028 38.941V41.341C86.0018 42.3153 86.3459 43.2634 86.991 43.994C87.3025 44.3472 87.688 44.6273 88.1201 44.8143C88.5523 45.0014 89.0204 45.0907 89.491 45.076C90.0389 45.0978 90.5835 44.9818 91.075 44.7386C91.5664 44.4954 91.989 44.1328 92.304 43.684C93.0233 42.598 93.3777 41.3111 93.316 40.01Z" fill="white"/>
  <path d="M113.136 39.8927C113.251 42.0144 112.533 44.0973 111.136 45.6977C110.573 46.312 109.886 46.7993 109.121 47.1269C108.355 47.4546 107.528 47.6151 106.696 47.5977C105.889 47.6638 105.08 47.5086 104.356 47.1487C103.632 46.7889 103.019 46.2381 102.585 45.5557V53.1107H99.3846V37.6107C99.3846 36.0727 99.345 34.4954 99.2656 32.8787H102.079L102.258 35.1607H102.318C102.802 34.4182 103.454 33.7992 104.22 33.3531C104.986 32.907 105.846 32.646 106.731 32.591C107.616 32.5361 108.502 32.6886 109.317 33.0365C110.133 33.3843 110.856 33.9179 111.429 34.5947C112.616 36.0982 113.222 37.979 113.136 39.8927ZM109.876 40.0097C109.925 38.7836 109.593 37.5724 108.926 36.5427C108.617 36.0927 108.201 35.7269 107.715 35.4788C107.229 35.2306 106.689 35.1078 106.144 35.1217C105.357 35.122 104.595 35.4 103.994 35.9067C103.352 36.4304 102.909 37.157 102.737 37.9667C102.649 38.2845 102.599 38.6113 102.587 38.9407V41.3407C102.561 42.3147 102.905 43.2622 103.549 43.9937C103.861 44.3477 104.247 44.6283 104.68 44.8153C105.114 45.0024 105.583 45.0913 106.055 45.0757C106.603 45.0977 107.147 44.9818 107.639 44.7386C108.13 44.4954 108.553 44.1327 108.868 43.6837C109.585 42.5971 109.939 41.3103 109.876 40.0097Z" fill="white"/>
  <path d="M131.65 41.668C131.676 42.4469 131.531 43.222 131.226 43.9388C130.92 44.6556 130.461 45.2967 129.88 45.817C128.351 47.0606 126.409 47.6845 124.441 47.565C122.635 47.6512 120.841 47.2197 119.271 46.321L120.011 43.655C121.409 44.4841 123.007 44.9147 124.632 44.9C125.636 44.9608 126.63 44.6729 127.445 44.085C127.772 43.826 128.033 43.4939 128.207 43.1156C128.382 42.7373 128.465 42.3234 128.45 41.907C128.458 41.5275 128.389 41.1504 128.246 40.7987C128.103 40.4471 127.89 40.1283 127.619 39.862C126.817 39.1644 125.879 38.6404 124.864 38.323C121.368 37.019 119.62 35.1123 119.619 32.603C119.602 31.8354 119.759 31.0738 120.08 30.3761C120.401 29.6785 120.876 29.0632 121.47 28.577C122.861 27.4773 124.603 26.9195 126.373 27.007C127.939 26.9519 129.494 27.2772 130.906 27.955L130.106 30.563C128.925 29.9384 127.605 29.6226 126.269 29.645C125.315 29.5879 124.373 29.8833 123.622 30.475C123.367 30.7013 123.163 30.98 123.025 31.2922C122.887 31.6044 122.818 31.9427 122.822 32.284C122.816 32.6586 122.895 33.0296 123.055 33.3686C123.214 33.7076 123.45 34.0054 123.742 34.239C124.621 34.9028 125.6 35.4224 126.642 35.778C128.076 36.284 129.373 37.1154 130.431 38.207C131.257 39.1675 131.692 40.4024 131.65 41.668Z" fill="white"/>
  <path d="M142.253 35.2723H138.727V42.2663C138.727 44.0443 139.35 44.9326 140.594 44.9313C141.072 44.9423 141.55 44.8922 142.015 44.7822L142.104 47.2113C141.302 47.4732 140.46 47.593 139.616 47.5653C139.068 47.5957 138.52 47.5081 138.009 47.3085C137.498 47.1089 137.036 46.8019 136.653 46.4082C135.835 45.2882 135.455 43.9072 135.586 42.5262V35.2663H133.486V32.8663H135.586V30.2292L138.728 29.2812V32.8663H142.254L142.253 35.2723Z" fill="white"/>
  <path d="M158.132 39.9523C158.209 41.944 157.53 43.8911 156.232 45.4033C155.566 46.1312 154.749 46.7046 153.839 47.0832C152.928 47.4619 151.945 47.6367 150.96 47.5953C150.015 47.6374 149.073 47.471 148.2 47.1081C147.327 46.7452 146.544 46.1946 145.908 45.4953C144.631 44.0313 143.958 42.1367 144.026 40.1953C143.946 38.1875 144.64 36.2256 145.966 34.7153C146.631 34.0016 147.443 33.4411 148.346 33.0726C149.249 32.7041 150.221 32.5365 151.196 32.5813C152.146 32.5423 153.094 32.7098 153.973 33.0724C154.853 33.4349 155.643 33.9839 156.29 34.6813C157.554 36.1389 158.213 38.0246 158.132 39.9523ZM154.816 40.0263C154.85 38.8356 154.553 37.6587 153.959 36.6263C153.688 36.1004 153.275 35.6609 152.766 35.3578C152.258 35.0546 151.675 34.9 151.084 34.9113C150.483 34.8944 149.89 35.0461 149.372 35.3493C148.853 35.6524 148.43 36.0949 148.151 36.6263C147.551 37.6774 147.254 38.8739 147.293 40.0833C147.258 41.2743 147.555 42.4514 148.151 43.4833C148.434 44.0044 148.853 44.439 149.364 44.7408C149.874 45.0426 150.457 45.2004 151.05 45.1975C151.643 45.1945 152.224 45.0308 152.732 44.7239C153.239 44.417 153.654 43.9782 153.932 43.4543C154.539 42.416 154.845 41.2289 154.816 40.0263Z" fill="white"/>
  <path d="M168.533 35.6843C168.201 35.6241 167.863 35.5943 167.525 35.5953C167.018 35.5715 166.514 35.6759 166.058 35.8987C165.602 36.1216 165.21 36.4557 164.917 36.8703C164.358 37.7103 164.078 38.7051 164.117 39.7133V47.2683H160.917V37.4053C160.917 35.7473 160.886 34.2363 160.824 32.8723H163.61L163.727 35.6273H163.816C164.119 34.7288 164.675 33.9366 165.416 33.3453C166.084 32.8459 166.895 32.5754 167.728 32.5743C167.996 32.5731 168.263 32.5928 168.528 32.6333V35.6853L168.533 35.6843Z" fill="white"/>
  <path d="M182.84 39.3893C182.848 39.8756 182.809 40.3616 182.723 40.8403H173.123C173.102 41.4529 173.215 42.0627 173.456 42.6264C173.696 43.1902 174.058 43.6941 174.515 44.1023C175.409 44.8004 176.522 45.1567 177.654 45.1073C178.98 45.1251 180.297 44.8945 181.537 44.4273L182.037 46.6463C180.507 47.2724 178.863 47.5754 177.21 47.5363C176.245 47.5891 175.279 47.4414 174.374 47.1025C173.469 46.7636 172.644 46.2409 171.95 45.5673C171.297 44.8567 170.792 44.0233 170.464 43.1157C170.136 42.208 169.992 41.2442 170.04 40.2803C169.97 38.318 170.602 36.3951 171.823 34.8573C172.422 34.1044 173.19 33.5031 174.065 33.102C174.939 32.7009 175.896 32.5112 176.857 32.5483C177.775 32.4973 178.69 32.6829 179.515 33.0872C180.341 33.4915 181.048 34.101 181.57 34.8573C182.452 36.2004 182.896 37.7837 182.84 39.3893ZM179.79 38.5593C179.833 37.696 179.617 36.8396 179.169 36.1003C178.906 35.6676 178.529 35.3147 178.08 35.0796C177.632 34.8444 177.127 34.7358 176.621 34.7653C176.123 34.756 175.63 34.8698 175.186 35.0965C174.741 35.3233 174.36 35.656 174.075 36.0653C173.53 36.7882 173.202 37.651 173.128 38.5533H179.79V38.5593Z" fill="white"/>
  <path d="M72.6952 20.1548H71.0192L70.1022 17.2728H66.9142L66.0392 20.1548H64.4082L67.5682 10.3408H69.5192L72.6952 20.1548ZM69.8262 16.0628L68.9962 13.4998C68.9092 13.2368 68.7482 12.6268 68.4962 11.6508H68.4662C68.3662 12.0728 68.2182 12.6848 67.9992 13.4998L67.1842 16.0628H69.8262Z" fill="white"/>
  <path d="M80.5959 13.0791L77.9149 20.1551H76.3879L73.7949 13.0791H75.4839L76.6929 16.8211C76.8929 17.4471 77.0709 18.0441 77.2019 18.6111H77.2459C77.3629 18.1021 77.5369 17.5051 77.7549 16.8211L78.9489 13.0791H80.5959Z" fill="white"/>
  <path d="M86.3005 20.1544L86.1835 19.3394H86.1395C85.9023 19.6599 85.5893 19.9166 85.2286 20.0866C84.8679 20.2565 84.4707 20.3345 84.0725 20.3134C83.7909 20.3286 83.5092 20.2858 83.2448 20.1877C82.9804 20.0895 82.739 19.9381 82.5355 19.7428C82.332 19.5475 82.1709 19.3125 82.062 19.0523C81.9531 18.7922 81.8988 18.5124 81.9025 18.2304C81.9025 16.4844 83.4165 15.5804 86.0375 15.5804V15.4494C86.0375 14.5174 85.5375 14.0494 84.5675 14.0494C83.9127 14.037 83.2691 14.2198 82.7185 14.5744L82.3985 13.5404C83.1354 13.1116 83.9784 12.8995 84.8305 12.9284C86.6795 12.9284 87.6125 13.9034 87.6125 15.8554V18.4614C87.6004 19.0262 87.6338 19.591 87.7125 20.1504H86.2975L86.3005 20.1544ZM86.0815 16.6304C84.3335 16.6304 83.4605 17.0534 83.4605 18.0574C83.4444 18.2041 83.4609 18.3525 83.5089 18.492C83.5569 18.6316 83.6351 18.7588 83.7381 18.8645C83.841 18.9702 83.9661 19.0518 84.1043 19.1035C84.2425 19.1552 84.3905 19.1756 84.5375 19.1634C84.9327 19.1753 85.3166 19.0307 85.6058 18.761C85.8949 18.4914 86.0659 18.1185 86.0815 17.7234V16.6304Z" fill="white"/>
  <path d="M91.1165 11.9138C90.9334 11.9041 90.757 11.8409 90.6093 11.7322C90.4616 11.6234 90.3489 11.4739 90.2852 11.3019C90.2214 11.1299 90.2094 10.943 90.2505 10.7642C90.2917 10.5855 90.3842 10.4227 90.5168 10.2959C90.6493 10.1691 90.8161 10.0839 90.9965 10.0507C91.1769 10.0175 91.3631 10.0378 91.5321 10.1091C91.7011 10.1805 91.8455 10.2997 91.9476 10.4521C92.0496 10.6045 92.1049 10.7834 92.1065 10.9668C92.1101 11.0958 92.0865 11.2242 92.0375 11.3436C91.9884 11.4629 91.9149 11.5707 91.8216 11.6599C91.7283 11.7491 91.6174 11.8178 91.496 11.8616C91.3745 11.9053 91.2453 11.9231 91.1165 11.9138ZM91.9325 20.1558H90.3605V13.0788H91.9325V20.1558Z" fill="white"/>
  <path d="M96.2946 20.155H94.7246V9.83203H96.2946V20.155Z" fill="white"/>
  <path d="M102.982 20.1553L102.865 19.3403H102.821C102.584 19.6608 102.271 19.9174 101.91 20.0872C101.549 20.257 101.151 20.3347 100.753 20.3133C100.472 20.3286 100.19 20.2861 99.9258 20.1881C99.6615 20.0902 99.4201 19.9391 99.2166 19.7441C99.0131 19.5491 98.8517 19.3144 98.7426 19.0545C98.6335 18.7947 98.5789 18.5151 98.5822 18.2333C98.5822 16.4873 100.096 15.5833 102.717 15.5833V15.4533C102.717 14.5213 102.217 14.0533 101.247 14.0533C100.592 14.041 99.9488 14.2237 99.3982 14.5783L99.0822 13.5443C99.8191 13.1155 100.662 12.9034 101.514 12.9323C103.363 12.9323 104.296 13.9073 104.296 15.8593V18.4653C104.286 19.03 104.319 19.5947 104.396 20.1543L102.982 20.1553ZM102.763 16.6313C101.015 16.6313 100.142 17.0543 100.142 18.0583C100.126 18.205 100.143 18.3534 100.191 18.4929C100.239 18.6325 100.317 18.7597 100.42 18.8654C100.523 18.9711 100.648 19.0527 100.786 19.1044C100.924 19.1561 101.072 19.1765 101.219 19.1643C101.614 19.1762 101.998 19.0316 102.287 18.7619C102.577 18.4923 102.748 18.1194 102.763 17.7243V16.6313Z" fill="white"/>
  <path d="M110.662 20.315C110.211 20.3367 109.763 20.2307 109.369 20.009C108.976 19.7874 108.653 19.4591 108.437 19.062H108.405L108.315 20.154H106.98C107.024 19.587 107.039 18.945 107.039 18.247V9.83203H108.613V14.114H108.643C108.874 13.7277 109.206 13.4129 109.605 13.2048C110.003 12.9966 110.452 12.9032 110.9 12.935C112.6 12.935 113.8 14.392 113.8 16.516C113.793 18.713 112.467 20.315 110.662 20.315ZM110.342 14.169C109.864 14.1888 109.412 14.3978 109.087 14.75C108.762 15.1023 108.591 15.5692 108.609 16.048V17.286C108.604 17.5149 108.643 17.7427 108.726 17.9562C108.809 18.1697 108.933 18.3646 109.092 18.5298C109.251 18.6949 109.441 18.827 109.651 18.9183C109.861 19.0097 110.087 19.0585 110.315 19.062C111.493 19.062 112.194 18.102 112.194 16.573C112.192 15.146 111.463 14.169 110.342 14.169Z" fill="white"/>
  <path d="M117.692 20.155H116.121V9.83203H117.692V20.155Z" fill="white"/>
  <path d="M126.25 16.9949H121.529C121.518 17.2847 121.569 17.5736 121.678 17.8422C121.788 18.1107 121.954 18.3526 122.165 18.5515C122.376 18.7505 122.628 18.902 122.902 18.9957C123.177 19.0894 123.468 19.1232 123.757 19.0949C124.408 19.101 125.054 18.9875 125.664 18.7599L125.909 19.8519C125.157 20.1593 124.349 20.3081 123.537 20.2889C123.061 20.3254 122.583 20.2579 122.136 20.0911C121.689 19.9242 121.284 19.662 120.948 19.3226C120.613 18.9832 120.356 18.5748 120.194 18.1258C120.032 17.6769 119.971 17.1981 120.013 16.7229C120.013 14.5529 121.354 12.9229 123.36 12.9229C125.16 12.9229 126.302 14.2629 126.302 16.2869C126.313 16.5241 126.296 16.7618 126.25 16.9949ZM124.808 15.8739C124.808 14.7819 124.254 14.0099 123.249 14.0099C122.78 14.0469 122.343 14.2594 122.024 14.605C121.705 14.9505 121.528 15.4037 121.529 15.8739H124.808Z" fill="white"/>
  <path d="M135.781 20.3129C135.311 20.3198 134.846 20.2286 134.414 20.045C133.982 19.8614 133.593 19.5895 133.272 19.2468C132.951 18.904 132.706 18.498 132.551 18.0547C132.396 17.6115 132.336 17.1408 132.374 16.6729C132.332 16.1894 132.394 15.7027 132.553 15.2446C132.713 14.7864 132.967 14.3671 133.3 14.0141C133.633 13.661 134.037 13.3822 134.485 13.1959C134.933 13.0096 135.415 12.92 135.9 12.9329C136.369 12.922 136.835 13.0102 137.268 13.1915C137.701 13.3729 138.091 13.6434 138.413 13.9855C138.734 14.3276 138.98 14.7335 139.134 15.1769C139.288 15.6203 139.347 16.0912 139.307 16.5589C139.347 17.0427 139.285 17.5295 139.125 17.9879C138.965 18.4463 138.711 18.866 138.379 19.2198C138.046 19.5737 137.643 19.8538 137.196 20.0421C136.748 20.2304 136.266 20.3226 135.781 20.3129ZM135.841 14.0799C134.705 14.0799 133.977 15.1419 133.977 16.6279C133.977 18.0849 134.72 19.1469 135.826 19.1469C136.932 19.1469 137.673 18.0109 137.673 16.5979C137.675 15.1599 136.952 14.0819 135.841 14.0819V14.0799Z" fill="white"/>
  <path d="M147.761 20.1554H146.19V16.0924C146.19 14.8414 145.71 14.2134 144.763 14.2134C144.545 14.221 144.33 14.2722 144.132 14.364C143.934 14.4558 143.757 14.5863 143.61 14.7478C143.463 14.9093 143.35 15.0986 143.278 15.3045C143.206 15.5103 143.175 15.7286 143.189 15.9464V20.1554H141.616V15.1024C141.616 14.4764 141.599 13.8024 141.557 13.0784H142.94L143.016 14.1704H143.06C143.29 13.7838 143.619 13.4655 144.013 13.248C144.407 13.0304 144.852 12.9215 145.302 12.9324C146.786 12.9324 147.761 14.0684 147.761 15.9164V20.1554Z" fill="white"/>
  <path d="M158.05 14.2576H156.32V17.6936C156.32 18.5683 156.625 19.0053 157.235 19.0046C157.47 19.0065 157.705 18.9817 157.935 18.9306L157.98 20.1256C157.587 20.2561 157.173 20.3157 156.759 20.3016C155.52 20.3016 154.78 19.6176 154.78 17.8256V14.2576H153.748V13.0736H154.78V11.7736L156.322 11.3066V13.0736H158.052L158.05 14.2576Z" fill="white"/>
  <path d="M166.376 20.155H164.802V16.122C164.802 14.856 164.322 14.215 163.375 14.215C163.159 14.2098 162.944 14.2504 162.744 14.3341C162.544 14.4178 162.364 14.5427 162.216 14.7007C162.067 14.8587 161.954 15.0462 161.883 15.251C161.812 15.4558 161.786 15.6732 161.804 15.889V20.155H160.23V9.83203H161.804V14.079H161.834C162.054 13.7148 162.367 13.416 162.741 13.2136C163.114 13.0112 163.536 12.9126 163.96 12.928C165.46 12.928 166.376 14.092 166.376 15.942V20.155Z" fill="white"/>
  <path d="M174.412 16.9949H169.693C169.681 17.2847 169.732 17.5737 169.842 17.8423C169.951 18.1109 170.117 18.3529 170.328 18.5519C170.539 18.7509 170.791 18.9024 171.065 18.996C171.34 19.0897 171.631 19.1234 171.92 19.0949C172.571 19.1012 173.217 18.9877 173.827 18.7599L174.073 19.8519C173.32 20.1594 172.512 20.3082 171.699 20.2889C171.223 20.3254 170.745 20.2579 170.298 20.0911C169.851 19.9242 169.446 19.662 169.111 19.3226C168.775 18.9832 168.518 18.5748 168.356 18.1258C168.195 17.6769 168.133 17.1981 168.175 16.7229C168.175 14.5529 169.516 12.9229 171.522 12.9229C173.327 12.9229 174.464 14.2629 174.464 16.2869C174.474 16.5241 174.457 16.7617 174.412 16.9949ZM172.97 15.8739C172.97 14.7819 172.418 14.0099 171.413 14.0099C170.944 14.0467 170.507 14.2591 170.188 14.6048C169.869 14.9504 169.693 15.4037 169.694 15.8739H172.97Z" fill="white"/>
  <defs>
    <linearGradient id="paint0_linear_2343_12998" x1="148.038" y1="1.38" x2="148.038" y2="55.44" gradientUnits="userSpaceOnUse">
      <stop stop-color="#1A1A1A" stop-opacity="0.102"/>
      <stop offset="0.123" stop-color="#212121" stop-opacity="0.149"/>
      <stop offset="0.308" stop-color="#353535" stop-opacity="0.227"/>
      <stop offset="0.532" stop-color="#575757" stop-opacity="0.318"/>
      <stop offset="0.783" stop-color="#858585" stop-opacity="0.42"/>
      <stop offset="1" stop-color="#B3B3B3" stop-opacity="0.51"/>
    </linearGradient>
  </defs>
</svg>