<svg width="88" height="88" viewBox="0 0 88 88" fill="none" xmlns="http://www.w3.org/2000/svg">
<g id="Icon">
<rect id="Rectangle 229" width="88" height="88" rx="11" fill="#47C409" fill-opacity="0.05"/>
<g id="Group 1">
<circle id="Ellipse 96" opacity="0.15" cx="33" cy="40" r="12" fill="#47C409"/>
<g id="Group 626645">
<path id="Vector" d="M52.334 59.4168H35.6673C29.584 59.4168 26.084 55.9168 26.084 49.8335V38.1668C26.084 32.0835 29.584 28.5835 35.6673 28.5835H52.334C58.4173 28.5835 61.9173 32.0835 61.9173 38.1668V49.8335C61.9173 55.9168 58.4173 59.4168 52.334 59.4168ZM35.6673 31.0835C30.9007 31.0835 28.584 33.4002 28.584 38.1668V49.8335C28.584 54.6002 30.9007 56.9168 35.6673 56.9168H52.334C57.1007 56.9168 59.4173 54.6002 59.4173 49.8335V38.1668C59.4173 33.4002 57.1007 31.0835 52.334 31.0835H35.6673Z" fill="#47C409"/>
<path id="Vector_2" d="M44 45.4499C42.6 45.4499 41.1833 45.0166 40.1 44.1333L34.8833 39.9666C34.35 39.5333 34.25 38.7499 34.6833 38.2166C35.1166 37.6833 35.9 37.5833 36.4333 38.0166L41.6499 42.1833C42.9166 43.2 45.0666 43.2 46.3333 42.1833L51.55 38.0166C52.0833 37.5833 52.8833 37.6666 53.3 38.2166C53.7333 38.7499 53.65 39.55 53.1 39.9666L47.8833 44.1333C46.8166 45.0166 45.4 45.4499 44 45.4499Z" fill="#47C409"/>
</g>
</g>
</g>
</svg>
