<svg xmlns="http://www.w3.org/2000/svg" width="203" height="60" viewBox="0 0 203 60" fill="none">
  <path fill-rule="evenodd" clip-rule="evenodd" d="M195.479 60H7.521C5.53075 59.9974 3.62245 59.207 2.21317 57.8017C0.803876 56.3963 0.00819079 54.4902 0 52.5L0 7.5C0.00582311 5.50903 0.80075 3.60158 2.21055 2.19571C3.62035 0.789846 5.53002 0.000256172 7.521 0L195.479 0C197.47 0.000783659 199.379 0.790544 200.789 2.1963C202.199 3.60205 202.994 5.50919 203 7.5V52.5C202.991 54.49 202.195 56.3956 200.786 57.8008C199.377 59.206 197.469 59.9966 195.479 60Z" fill="black"/>
  <path fill-rule="evenodd" clip-rule="evenodd" d="M195.479 1.2C197.151 1.20183 198.755 1.8655 199.939 3.04599C201.124 4.22647 201.793 5.82778 201.8 7.5V52.5C201.796 54.1735 201.127 55.777 199.942 56.9582C198.756 58.1394 197.151 58.8019 195.477 58.8H7.521C5.84876 58.7982 4.24523 58.1345 3.06082 56.954C1.8764 55.7735 1.2074 54.1722 1.2 52.5V7.5C1.20424 5.8268 1.87223 4.22365 3.05733 3.04249C4.24243 1.86132 5.8478 1.19867 7.521 1.2H195.479ZM195.479 0H7.521C5.53075 0.0026259 3.62245 0.792979 2.21317 2.19833C0.803876 3.60369 0.00819079 5.50976 0 7.5V52.5C0.00582311 54.491 0.80075 56.3984 2.21055 57.8043C3.62035 59.2102 5.53002 59.9997 7.521 60H195.479C197.47 59.9992 199.379 59.2095 200.789 57.8037C202.199 56.398 202.994 54.4908 203 52.5V7.5C202.991 5.51001 202.195 3.60439 200.786 2.1992C199.377 0.79402 197.469 0.00341354 195.479 0Z" fill="#A6A6A6"/>
  <path d="M106.974 19.8477C106.339 19.8626 105.708 19.745 105.121 19.5022C104.535 19.2594 104.005 18.8968 103.566 18.4377C103.12 17.984 102.769 17.4462 102.532 16.8554C102.296 16.2647 102.179 15.6329 102.189 14.9967C102.174 14.3602 102.288 13.7273 102.525 13.1364C102.761 12.5454 103.116 12.0086 103.566 11.5587C104.004 11.0999 104.532 10.7374 105.117 10.4946C105.703 10.2518 106.332 10.134 106.966 10.1487C107.601 10.1367 108.231 10.2557 108.817 10.4983C109.404 10.7409 109.934 11.1019 110.374 11.5587C111.257 12.4852 111.75 13.7161 111.75 14.9962C111.75 16.2762 111.257 17.5072 110.374 18.4337C109.938 18.8944 109.41 19.2584 108.824 19.502C108.239 19.7456 107.608 19.8634 106.974 19.8477ZM66.5741 19.8477C65.9394 19.857 65.3093 19.7386 64.7212 19.4995C64.1332 19.2603 63.5993 18.9054 63.1512 18.4557C62.4652 17.7793 61.9962 16.9138 61.8042 15.9698C61.6123 15.0257 61.706 14.0459 62.0733 13.1553C62.4406 12.2647 63.0649 11.5037 63.8665 10.9695C64.6682 10.4352 65.6108 10.1519 66.5741 10.1557C67.2323 10.1557 67.8832 10.2919 68.4861 10.5557C69.0458 10.7839 69.5442 11.14 69.9412 11.5957L70.0312 11.7037L69.0171 12.6987L68.9122 12.5757C68.6249 12.2367 68.2631 11.9688 67.855 11.7929C67.447 11.6169 67.0038 11.5378 66.5601 11.5617C66.1249 11.5562 65.6929 11.6382 65.29 11.8028C64.887 11.9673 64.5212 12.2111 64.2142 12.5197C63.5796 13.1941 63.2264 14.0852 63.2264 15.0112C63.2264 15.9372 63.5796 16.8283 64.2142 17.5027C64.853 18.1171 65.7048 18.4603 66.5911 18.4603C67.4774 18.4603 68.3294 18.1171 68.9682 17.5027C69.3671 17.0753 69.6096 16.5255 69.6562 15.9427H66.4062V14.5427H71.0522L71.0712 14.6697C71.1094 14.9012 71.1317 15.1351 71.1381 15.3697C71.1641 15.938 71.0748 16.5056 70.8754 17.0384C70.6761 17.5712 70.3709 18.0581 69.9782 18.4697C69.5382 18.9248 69.0077 19.2826 68.4208 19.52C67.834 19.7573 67.2039 19.869 66.5712 19.8477H66.5741ZM120.294 19.6477H118.861L114.473 12.6267L114.511 13.8907V19.6477H113.078V10.3477H114.713L114.758 10.4187L118.884 17.0317L118.847 15.7707V10.3477H120.295L120.294 19.6477ZM96.2122 19.6477H94.7602V11.7477H92.2382V10.3477H98.7201V11.7477H96.2032V19.6477H96.2122ZM91.0612 19.6477H89.6132V10.3477H91.0612V19.6477ZM82.9252 19.6477H81.4771V11.7477H78.9601V10.3477H85.4382V11.7477H82.9202L82.9252 19.6477ZM78.0431 19.6327H72.4921V10.3477H78.0431V11.7477H73.9432V14.2987H77.6431V15.6827H73.9432V18.2337H78.0431V19.6327ZM104.632 17.4747C104.936 17.7883 105.301 18.0364 105.704 18.2037C106.107 18.371 106.541 18.4541 106.977 18.4477C107.414 18.4588 107.849 18.3779 108.253 18.2103C108.657 18.0427 109.021 17.7921 109.322 17.4747C109.937 16.7966 110.278 15.9138 110.278 14.9982C110.278 14.0826 109.937 13.1998 109.322 12.5217C109.018 12.2085 108.653 11.9606 108.249 11.7933C107.846 11.626 107.413 11.5428 106.976 11.5487C106.539 11.5372 106.105 11.618 105.702 11.7856C105.299 11.9533 104.935 12.2041 104.635 12.5217C104.02 13.1994 103.679 14.0814 103.677 14.9966C103.676 15.9119 104.014 16.7951 104.627 17.4747H104.632Z" fill="white"/>
  <path fill-rule="evenodd" clip-rule="evenodd" d="M101.864 32.634C100.603 32.6376 99.3704 33.0149 98.3232 33.7183C97.2761 34.4217 96.4609 35.4197 95.9806 36.5861C95.5003 37.7526 95.3765 39.0353 95.6248 40.2721C95.873 41.5089 96.4824 42.6443 97.3756 43.5351C98.2689 44.4258 99.4061 45.0318 100.644 45.2766C101.881 45.5214 103.163 45.394 104.328 44.9104C105.493 44.4269 106.489 43.6088 107.19 42.5597C107.89 41.5106 108.264 40.2774 108.264 39.016C108.277 38.1726 108.121 37.3352 107.804 36.5536C107.487 35.7719 107.016 35.0622 106.419 34.4666C105.821 33.871 105.11 33.4018 104.328 33.0869C103.545 32.7721 102.707 32.618 101.864 32.634ZM101.864 42.8679C101.087 42.9238 100.312 42.7445 99.6381 42.3532C98.9646 41.962 98.4245 41.377 98.0881 40.6745C97.7518 39.972 97.6349 39.1846 97.7524 38.4146C97.87 37.6447 98.2166 36.928 98.7472 36.3579C99.2778 35.7877 99.9679 35.3906 100.727 35.2182C101.487 35.0457 102.281 35.106 103.005 35.3911C103.73 35.6762 104.353 36.1729 104.791 36.8166C105.23 37.4603 105.464 38.2211 105.464 39C105.487 39.4917 105.412 39.9832 105.243 40.4455C105.074 40.9078 104.814 41.3317 104.479 41.692C104.143 42.0524 103.739 42.3421 103.29 42.5441C102.841 42.746 102.356 42.8561 101.864 42.8679ZM87.9 32.634C86.6386 32.6376 85.4064 33.0149 84.3593 33.7183C83.3121 34.4217 82.4969 35.4197 82.0166 36.5861C81.5363 37.7526 81.4125 39.0353 81.6608 40.2721C81.909 41.5089 82.5184 42.6443 83.4116 43.5351C84.3049 44.4258 85.4419 45.0318 86.6794 45.2766C87.9169 45.5214 89.1993 45.394 90.3644 44.9104C91.5295 44.4269 92.5251 43.6088 93.2256 42.5597C93.9261 41.5106 94.2999 40.2774 94.2999 39.016C94.3135 38.1727 94.1572 37.3353 93.8402 36.5537C93.5232 35.7722 93.0521 35.0625 92.455 34.4669C91.8578 33.8714 91.1468 33.4021 90.3644 33.0872C89.582 32.7723 88.7433 32.6182 87.9 32.634ZM87.9 42.8679C87.1232 42.9238 86.3474 42.7445 85.674 42.3532C85.0005 41.962 84.4605 41.377 84.1241 40.6745C83.7878 39.972 83.6708 39.1846 83.7883 38.4146C83.9059 37.6447 84.2526 36.928 84.7832 36.3579C85.3138 35.7877 86.0039 35.3906 86.7634 35.2182C87.5229 35.0457 88.3167 35.106 89.0415 35.3911C89.7663 35.6762 90.3884 36.1729 90.8269 36.8166C91.2654 37.4603 91.5 38.2211 91.5 39C91.5235 39.4916 91.4484 39.9831 91.2792 40.4453C91.11 40.9076 90.8501 41.3314 90.5148 41.6917C90.1795 42.0521 89.7755 42.3418 89.3267 42.5438C88.8778 42.7458 88.3921 42.856 87.9 42.8679ZM71.2849 34.583V37.283H77.7679C77.6714 38.5481 77.1552 39.7447 76.301 40.6829C75.6529 41.3451 74.8728 41.8637 74.0115 42.2051C73.1501 42.5465 72.2268 42.7032 71.301 42.665C69.3915 42.665 67.5601 41.9064 66.2098 40.5561C64.8596 39.2059 64.101 37.3745 64.101 35.465C64.101 33.5554 64.8596 31.7241 66.2098 30.3738C67.5601 29.0235 69.3915 28.265 71.301 28.265C73.1189 28.2433 74.8723 28.9381 76.182 30.199L78.098 28.284C77.2069 27.3992 76.1478 26.7015 74.9832 26.232C73.8185 25.7624 72.5715 25.5306 71.3159 25.55C68.6903 25.55 66.1722 26.593 64.3156 28.4496C62.4589 30.3062 61.416 32.8243 61.416 35.45C61.416 38.0756 62.4589 40.5937 64.3156 42.4503C66.1722 44.307 68.6903 45.35 71.3159 45.35C72.6003 45.4031 73.8813 45.1824 75.0739 44.7026C76.2664 44.2228 77.3432 43.4948 78.2329 42.567C79.812 40.8432 80.655 38.5706 80.5819 36.234C80.5891 35.6693 80.5389 35.1055 80.432 34.551H71.282L71.2849 34.583ZM139.249 36.6829C138.866 35.5258 138.136 34.5147 137.158 33.7872C136.18 33.0597 135.002 32.6511 133.784 32.617C132.964 32.6223 132.154 32.7938 131.403 33.1212C130.651 33.4485 129.974 33.9248 129.411 34.5214C128.849 35.1179 128.414 35.8223 128.131 36.5919C127.849 37.3615 127.726 38.1804 127.769 38.999C127.749 39.8383 127.899 40.6729 128.21 41.4528C128.521 42.2328 128.986 42.942 129.577 43.5379C130.168 44.1339 130.874 44.6043 131.651 44.921C132.429 45.2377 133.262 45.3941 134.102 45.3809C135.153 45.3873 136.19 45.1317 137.118 44.6373C138.046 44.1429 138.837 43.4252 139.418 42.549L137.252 41.098C136.928 41.6395 136.468 42.0872 135.919 42.3969C135.369 42.7066 134.748 42.8676 134.117 42.864C133.466 42.8883 132.823 42.717 132.27 42.3723C131.718 42.0276 131.281 41.5252 131.017 40.93L139.549 37.395L139.249 36.685V36.6829ZM130.549 38.815C130.52 38.3511 130.583 37.886 130.735 37.4468C130.887 37.0076 131.126 36.6032 131.436 36.257C131.746 35.9109 132.122 35.6301 132.542 35.4309C132.962 35.2318 133.418 35.1182 133.882 35.0969C134.366 35.0635 134.849 35.1738 135.27 35.414C135.691 35.6542 136.032 36.0136 136.25 36.447L130.549 38.815ZM123.618 44.9979H126.418V26.249H123.618V44.9979ZM119.018 34.049H118.918C118.492 33.5837 117.971 33.215 117.39 32.9679C116.81 32.7207 116.183 32.6007 115.552 32.616C113.905 32.6812 112.347 33.3815 111.204 34.5701C110.062 35.7587 109.423 37.3433 109.423 38.992C109.423 40.6406 110.062 42.2252 111.204 43.4138C112.347 44.6024 113.905 45.3027 115.552 45.3679C116.184 45.3817 116.812 45.2593 117.393 45.0089C117.974 44.7586 118.494 44.3861 118.918 43.917H119.018V44.8339C119.018 47.2689 117.718 48.582 115.618 48.582C114.917 48.5651 114.238 48.3406 113.665 47.937C113.092 47.5334 112.652 46.9689 112.401 46.315L109.966 47.332C110.427 48.4496 111.211 49.4046 112.217 50.0755C113.223 50.7463 114.406 51.1026 115.615 51.099C118.899 51.099 121.682 49.165 121.682 44.448V32.998H119.034V34.049H119.018ZM115.801 42.866C114.833 42.7835 113.93 42.3404 113.273 41.6245C112.615 40.9086 112.25 39.972 112.25 39C112.25 38.0279 112.615 37.0913 113.273 36.3754C113.93 35.6595 114.833 35.2165 115.801 35.134C116.282 35.1574 116.754 35.2775 117.187 35.487C117.621 35.6966 118.008 35.9913 118.325 36.3537C118.642 36.7161 118.884 37.1387 119.034 37.5963C119.185 38.0538 119.241 38.537 119.201 39.017C119.243 39.4958 119.187 39.9782 119.037 40.4348C118.887 40.8914 118.645 41.3127 118.327 41.6729C118.009 42.0332 117.62 42.325 117.186 42.5304C116.751 42.7359 116.279 42.8507 115.799 42.8679L115.801 42.866ZM152.364 26.249H145.664V44.997H148.464V37.897H152.364C153.156 37.941 153.949 37.823 154.694 37.5503C155.439 37.2775 156.12 36.8556 156.696 36.3105C157.273 35.7654 157.732 35.1084 158.045 34.3798C158.359 33.6512 158.521 32.8662 158.521 32.073C158.521 31.2797 158.359 30.4947 158.045 29.7661C157.732 29.0375 157.273 28.3806 156.696 27.8355C156.12 27.2903 155.439 26.8684 154.694 26.5957C153.949 26.3229 153.156 26.2049 152.364 26.249ZM152.446 35.279H148.464V28.849H152.448C152.877 28.8383 153.304 28.9135 153.704 29.0704C154.104 29.2273 154.468 29.4625 154.775 29.7623C155.082 30.0621 155.327 30.4204 155.494 30.816C155.66 31.2116 155.746 31.6367 155.746 32.066C155.746 32.4953 155.66 32.9203 155.494 33.3159C155.327 33.7116 155.082 34.0699 154.775 34.3697C154.468 34.6694 154.104 34.9047 153.704 35.0615C153.304 35.2184 152.877 35.2937 152.448 35.283L152.446 35.279ZM169.746 32.5969C168.725 32.5384 167.708 32.778 166.82 33.2867C165.933 33.7954 165.212 34.5511 164.746 35.462L167.23 36.494C167.476 36.0414 167.848 35.6697 168.3 35.4241C168.753 35.1785 169.268 35.0693 169.781 35.1099C170.492 35.0412 171.202 35.2567 171.755 35.7094C172.308 36.162 172.66 36.815 172.733 37.526V37.726C171.833 37.254 170.831 37.0075 169.815 37.008C167.133 37.008 164.415 38.474 164.415 41.224C164.415 43.742 166.615 45.358 169.065 45.358C169.769 45.399 170.471 45.2506 171.098 44.9282C171.725 44.6058 172.254 44.1213 172.63 43.525H172.73V44.976H175.43V37.794C175.432 34.449 172.949 32.6 169.75 32.6L169.746 32.5969ZM169.394 42.865C168.477 42.865 167.194 42.416 167.194 41.265C167.194 39.814 168.794 39.265 170.16 39.265C171.052 39.2375 171.935 39.4562 172.711 39.897C172.613 40.7098 172.224 41.4594 171.614 42.006C171.005 42.5526 170.217 42.859 169.399 42.8679L169.394 42.865ZM185.28 32.997L182.063 41.129H181.963L178.63 32.997H175.615L180.615 44.365L177.765 50.6829H180.683L188.378 32.997H185.28ZM160.061 44.997H162.861V26.249H160.061V44.997Z" fill="white"/>
  <path fill-rule="evenodd" clip-rule="evenodd" d="M15.6513 11.2992C15.1634 11.8929 14.9187 12.6493 14.9663 13.4162V46.5842C14.9393 46.9631 14.9873 47.3435 15.1074 47.7039C15.2275 48.0642 15.4174 48.3973 15.6662 48.6842L15.7822 48.7842L34.3663 30.1992V29.7842L15.7663 11.1992L15.6513 11.2992Z" fill="url(#paint0_linear_2343_13029)"/>
  <path fill-rule="evenodd" clip-rule="evenodd" d="M40.4891 36.415L34.2891 30.215V29.785L40.4891 23.585L40.6241 23.6669L47.9561 27.834C50.0561 29.016 50.0561 30.969 47.9561 32.166L40.6241 36.3329L40.4891 36.415Z" fill="url(#paint1_linear_2343_13029)"/>
  <path fill-rule="evenodd" clip-rule="evenodd" d="M40.6824 36.333L34.3504 30L15.6504 48.7C16.3354 49.433 17.4834 49.516 18.7664 48.8L40.6824 36.332" fill="url(#paint2_linear_2343_13029)"/>
  <path fill-rule="evenodd" clip-rule="evenodd" d="M40.6824 23.6668L18.7664 11.2178C17.4834 10.4848 16.3314 10.5858 15.6504 11.3178L34.3504 29.9988L40.6824 23.6668Z" fill="url(#paint3_linear_2343_13029)"/>
  <path opacity="0.2" fill-rule="evenodd" clip-rule="evenodd" d="M40.549 36.1982L18.782 48.5652C18.3529 48.8967 17.8267 49.0777 17.2846 49.0804C16.7424 49.0831 16.2144 48.9073 15.782 48.5802L15.666 48.6962L15.782 48.7962C16.2148 49.1223 16.7426 49.2975 17.2845 49.2948C17.8265 49.2921 18.3525 49.1117 18.782 48.7812L40.698 36.3322L40.549 36.1982Z" fill="black"/>
  <path opacity="0.12" fill-rule="evenodd" clip-rule="evenodd" d="M47.9459 31.9489L40.4609 36.2L40.5959 36.335L47.928 32.168C48.3591 31.9801 48.7318 31.6801 49.0074 31.2991C49.2831 30.9181 49.4515 30.4702 49.495 30.002C49.4119 30.4269 49.2276 30.8256 48.958 31.1645C48.6884 31.5034 48.3413 31.7724 47.9459 31.9489Z" fill="black"/>
  <path opacity="0.25" fill-rule="evenodd" clip-rule="evenodd" d="M18.7668 11.4354L48.0148 28.0514C48.4111 28.2298 48.7597 28.4993 49.032 28.838C49.3043 29.1768 49.4927 29.5751 49.5818 30.0005C49.5384 29.5322 49.3701 29.0842 49.0944 28.7032C48.8188 28.3222 48.4459 28.0222 48.0148 27.8344L18.7668 11.2184C16.6668 10.0184 14.9668 11.0185 14.9668 13.4185V13.6354C14.9668 11.2334 16.6668 10.2494 18.7668 11.4354Z" fill="white"/>
  <defs>
    <linearGradient id="paint0_linear_2343_13029" x1="62.9338" y1="50.0997" x2="60.6664" y2="49.7833" gradientUnits="userSpaceOnUse">
      <stop stop-color="#00A0FF"/>
      <stop offset="0.007" stop-color="#00A1FF"/>
      <stop offset="0.26" stop-color="#00BEFF"/>
      <stop offset="0.512" stop-color="#00D2FF"/>
      <stop offset="0.76" stop-color="#00DFFF"/>
      <stop offset="1" stop-color="#00E3FF"/>
    </linearGradient>
    <linearGradient id="paint1_linear_2343_13029" x1="64.0109" y1="47.6926" x2="60.048" y2="47.6926" gradientUnits="userSpaceOnUse">
      <stop stop-color="#FFE000"/>
      <stop offset="0.409" stop-color="#FFBD00"/>
      <stop offset="0.775" stop-color="#FFA500"/>
      <stop offset="1" stop-color="#FF9C00"/>
    </linearGradient>
    <linearGradient id="paint2_linear_2343_13029" x1="63.862" y1="48.2536" x2="62.348" y2="44.9512" gradientUnits="userSpaceOnUse">
      <stop stop-color="#FF3A44"/>
      <stop offset="1" stop-color="#C31162"/>
    </linearGradient>
    <linearGradient id="paint3_linear_2343_13029" x1="62.1098" y1="51.075" x2="62.7929" y2="49.6044" gradientUnits="userSpaceOnUse">
      <stop stop-color="#32A071"/>
      <stop offset="0.068" stop-color="#2DA771"/>
      <stop offset="0.476" stop-color="#15CF74"/>
      <stop offset="0.801" stop-color="#06E775"/>
      <stop offset="1" stop-color="#00F076"/>
    </linearGradient>
  </defs>
</svg>