<svg width="98" height="99" viewBox="0 0 98 99" fill="none" xmlns="http://www.w3.org/2000/svg">
<g filter="url(#filter0_d_7395_15241)">
<path d="M68.1221 17.5869H29.3897C24.2039 17.5869 20 21.7908 20 26.9766V65.709C20 70.8948 24.2039 75.0987 29.3897 75.0987H68.1221C73.3078 75.0987 77.5117 70.8948 77.5117 65.709V26.9766C77.5117 21.7908 73.3078 17.5869 68.1221 17.5869Z" fill="white"/>
</g>
<mask id="mask0_7395_15241" style="mask-type:luminance" maskUnits="userSpaceOnUse" x="20" y="17" width="58" height="59">
<path d="M68.1221 17.5869H29.3897C24.2039 17.5869 20 21.7908 20 26.9766V65.709C20 70.8948 24.2039 75.0987 29.3897 75.0987H68.1221C73.3078 75.0987 77.5117 70.8948 77.5117 65.709V26.9766C77.5117 21.7908 73.3078 17.5869 68.1221 17.5869Z" fill="white"/>
</mask>
<g mask="url(#mask0_7395_15241)">
<mask id="mask1_7395_15241" style="mask-type:luminance" maskUnits="userSpaceOnUse" x="-743" y="-457" width="1386" height="885">
<path d="M642.189 -456.591H-742.451V427.912H642.189V-456.591Z" fill="white"/>
</mask>
<g mask="url(#mask1_7395_15241)">
<path d="M79.3306 9.35556C80.6921 10.0409 82.7343 11.6294 84.5496 12.5416H84.7858C84.9954 12.6531 85.2292 12.7114 85.4666 12.7114C85.704 12.7114 85.9377 12.6531 86.1473 12.5416C88.6433 12.0786 91.3663 8.6748 92.2647 8.6748C93.3993 8.6748 92.7278 12.0878 92.7278 12.0878L94.3162 13.9077C94.3162 13.9077 95.2424 14.3708 96.3584 14.8339C96.3584 16.6539 97.0392 17.7884 99.5352 19.3815C103.847 22.1091 111.335 24.3828 113.831 23.2483C114.375 22.9118 114.826 22.4444 115.143 21.8887C115.461 21.3329 115.633 20.7066 115.646 20.0669L117.688 19.8307L120.638 16.8762H123.815L125.403 15.5147L127.219 15.2785L127.9 16.8715L131.757 17.5522L134.253 18.4784L135.842 18.9415L136.305 21.2199H137.893L139.481 23.2668L142.658 23.7299L142.894 28.0505V29.4166L141.306 32.1489L140.843 36.928L141.524 47.3892L144.7 47.8523L144.937 50.8114L141.76 54.6782L141.996 54.9144L146.08 61.055H148.803V66.0054H150.846C150.846 66.0054 151.526 68.2792 150.383 68.733C149.248 69.4184 146.298 68.9692 145.617 70.326C145.381 71.0068 144.691 73.2806 144.261 74.8736C136.541 75.1098 127.696 74.4105 126.557 71.4606C126.301 70.9771 125.906 70.5817 125.422 70.326C122.245 67.8254 113.845 68.2792 113.169 67.5938C112.492 66.9084 103.865 62.5924 103.638 60.5409C103.402 58.7256 102.281 51.4412 96.6039 53.2612C95.8322 53.531 95.0748 53.8401 94.3347 54.1873L91.3849 49.186C91.3849 49.186 90.7041 45.773 90.0234 43.2677C89.3426 40.7623 84.8043 39.8547 84.8043 39.8547L83.6698 36.2148L81.1737 34.6218L82.7621 33.941L82.9983 30.0742L84.5867 28.2589L85.2674 26.212L81.6368 25.5267L80.9514 24.1652L79.8168 20.2984L78.8906 17.117L77.9645 14.6163C77.9645 14.6163 76.603 9.61027 77.9645 8.70261C78.3969 8.96539 78.8545 9.18413 79.3306 9.35556Z" fill="#F2F2F2"/>
<path d="M86.103 58.045L88.826 58.2812L90.8682 60.555H93.3643C94.4988 62.3749 96.0873 64.6487 97.4487 67.1587C99.344 71.7203 102.394 75.7102 106.298 78.7359L106.062 79.199L109.239 84.205L117.408 85.1312L119.677 86.4927C120.538 87.0689 121.24 87.8524 121.719 88.7711C122.4 90.3641 116.954 97.4124 116.954 97.4124L107.651 100.145L106.97 100.381L95.1703 102.655L89.0575 108.568L87.923 107.434L74.3081 106.294L73.6274 110.161L70.9044 111.087C68.1814 105.174 63.8701 99.5102 59.1049 91.0727C51.8436 78.3377 46.4069 62.1851 42.3132 62.412H40.4979L40.2617 56.7253L40.7248 55.799C41.651 56.9383 44.5823 56.9383 45.4854 56.9383C46.6199 56.9383 47.3007 55.1183 51.1629 53.5253C55.025 51.9323 50.6997 48.5193 49.5744 47.607C48.4491 46.6947 50.0376 45.7871 53.8858 45.3332C55.2341 45.0785 56.5993 44.9237 57.9703 44.8701C59.9972 44.8058 62.0129 45.1949 63.8701 46.0093C69.4065 49.3701 74.7143 53.0938 79.7587 57.1559L86.103 58.045Z" fill="#F2F2F2"/>
<path d="M91.3115 49.6164L94.2614 54.6224L94.0252 54.8586C91.983 53.9324 89.26 52.8117 88.8062 53.4971C88.3524 54.1825 86.9908 56.6832 86.0832 57.8177L79.9565 57.3547C74.9122 53.2945 69.6061 49.571 64.0725 46.2081C62.2148 45.3956 60.1992 45.008 58.1727 45.0735L56.3574 38.4698C63.1649 34.3761 65.8878 33.2369 65.8878 28.9163C65.8878 24.5956 66.124 24.3687 67.7032 23.2295C68.6293 22.5441 70.88 20.7288 72.4684 19.3627C73.0091 19.3112 73.5543 19.3923 74.0567 19.5989C75.7953 20.3177 77.6304 20.7765 79.5027 20.9604L80.6373 24.8272L81.318 26.1933L84.9486 26.8787L84.2679 28.9255L82.6795 30.7455L82.4433 34.6123L80.8549 35.2977L83.351 36.8907L84.4856 40.5306C84.4856 40.5306 89.0238 41.4568 89.7 43.9436C90.4907 45.7531 91.0328 47.6614 91.3115 49.6164Z" fill="#F2F2F2"/>
<path d="M72.6666 19.3662C69.7352 19.7804 66.8486 20.4657 64.0438 21.4131C61.5477 21.8762 59.2786 23.6869 57.9264 23.0061C56.855 22.6309 55.7184 22.4784 54.586 22.558C53.4536 22.6376 52.3495 22.9477 51.3412 23.4692L48.4099 22.0985L49.0906 25.7384L47.4837 25.9884L46.8029 25.7523C46.8015 25.5728 46.7591 25.396 46.6788 25.2355C46.5985 25.0749 46.4826 24.9349 46.3399 24.8261C45.1641 23.9599 43.7521 23.4731 42.2923 23.4309C40.8326 23.3887 39.3947 23.7931 38.1709 24.5899C35.9018 26.1783 35.448 27.0906 32.2712 25.2753C31.2022 24.4004 29.895 23.8673 28.5191 23.7451C27.1433 23.6228 25.7625 23.9172 24.5561 24.5899C22.1137 25.0682 19.5823 24.7522 17.3324 23.6881C15.0825 22.624 13.2324 20.8677 12.0526 18.6763C10.6912 14.8095 8.42203 13.8972 8.42203 12.3088C8.42203 10.9473 9.78352 5.48281 7.06055 3.43595L8.87585 1.61598L9.80202 0.0229371L8.87585 -2.25082L11.3719 -3.6123L12.9603 -2.92692H15.6833C15.6833 -2.69074 15.9194 -2.69075 15.9194 -2.46384C16.8795 -1.29428 18.0302 -0.295375 19.3232 0.490684C21.8192 0.953774 26.8113 2.53752 29.0805 0.726837C31.3496 -1.08385 32.4842 -3.13996 35.6656 -3.13996C40.4179 -2.66362 45.0784 -1.51448 49.5074 0.27301C54.7687 1.73143 60.3165 1.81277 65.6183 0.509198C65.9817 0.179116 66.2938 -0.203287 66.5445 -0.625387H71.9904L74.9403 1.64841L74.7041 5.96904L77.2002 6.65442L79.6963 7.58059L79.0155 9.40053C78.7662 9.28673 78.4954 9.22783 78.2213 9.22783C77.9473 9.22783 77.6764 9.28673 77.4271 9.40053C76.0657 10.3267 77.4271 15.3142 77.4271 15.3142L78.3533 17.8149L79.2795 20.9963C77.4067 20.812 75.5716 20.3516 73.8335 19.6302C73.8011 19.3662 73.3473 19.3662 72.6666 19.3662Z" fill="#F2F2F2"/>
<path d="M56.5745 38.4787C49.9894 42.5724 49.5402 43.2531 46.5903 42.1186C46.3144 42.045 46.0592 41.9087 45.8447 41.7203C45.5224 41.4387 45.3075 41.0542 45.2365 40.6321C45.1656 40.21 45.2431 39.7763 45.4557 39.4049C45.8372 38.3652 46.4593 37.4306 47.271 36.6773C47.7458 36.1113 48.0253 35.4071 48.0679 34.6695C48.1104 33.932 47.9138 33.2004 47.5072 32.5835C46.9273 32.3768 46.3103 32.2947 45.6966 32.3427C46.6355 30.2754 47.0262 28.0012 46.8311 25.7391L47.5119 25.5029L49.1003 25.2667L48.4149 21.6268L51.3648 23.0161C53.4322 22.0728 55.7708 21.9083 57.9499 22.553C59.5383 23.2384 61.8075 21.4138 64.0627 20.96C66.8891 20.09 69.7696 19.4062 72.6854 18.9131C71.097 20.2746 68.8279 22.0945 67.9202 22.7799C66.3318 23.9145 66.1096 24.146 66.1096 28.4667C66.1049 33.0188 63.3773 34.385 56.5745 38.4787Z" fill="#F2F2F2"/>
<path d="M56.561 38.4824L58.3763 45.0861C57.0045 45.1281 55.6383 45.283 54.2919 45.5492C50.4343 46.2346 48.8459 46.9384 49.9805 47.8276C51.1151 48.7167 55.4265 52.1482 51.5689 53.7412C47.7114 55.3343 47.0306 57.1542 45.8961 57.1542C44.9699 57.1542 42.0339 57.1542 41.1309 56.0197L43.8538 50.5598L44.3169 43.7385L44.5702 42.2861C45.068 41.436 45.0151 41.436 45.8122 41.436C46.066 41.7871 46.4349 42.0382 46.8547 42.1455C49.5221 43.03 49.9805 42.5808 56.561 38.4824Z" fill="#999999"/>
<path d="M49.0448 88.5272L3.43505 88.0642V55.7729L2.75429 55.0921L1.82812 53.0406L2.96267 51.2253L2.72652 48.4931L5.22259 45.0801C13.1646 48.2661 19.0644 49.8546 21.1112 49.1738C25.3176 47.0596 30.112 46.4187 34.7261 47.3539C35.4128 47.7009 36.1852 47.8418 36.9502 47.7597C37.7152 47.6775 38.4401 47.3757 39.0374 46.8908C39.7285 49.5861 40.2589 52.32 40.6258 55.0782C40.6258 55.3144 40.862 55.5413 40.862 55.7589L40.3989 56.6851L40.6351 62.3719C37.9121 62.6081 36.5506 61.9088 35.8699 60.325C34.9437 58.2735 30.1971 53.0453 32.6931 58.732C34.7053 63.1239 37.137 67.3111 39.9544 71.2354C41.9873 75.5607 46.3219 82.1644 49.0448 88.5272Z" fill="#F2F2F2"/>
<path d="M47.4769 32.5635C47.8871 33.1791 48.0859 33.9114 48.0433 34.6498C48.0007 35.3883 47.719 36.0929 47.2407 36.6572C46.4288 37.4122 45.8067 38.3484 45.4254 39.3895L43.1562 39.1533C43.837 37.3333 44.9716 34.8326 45.6523 32.3273C46.2704 32.2764 46.8922 32.3569 47.4769 32.5635Z" fill="#F2F2F2"/>
<path d="M44.0717 43.9377L43.6086 50.7497L40.8949 56.2003C40.8073 56.1113 40.7408 56.0036 40.7004 55.8854C40.6597 55.768 40.6455 55.6431 40.6587 55.5196C40.2918 52.7614 39.7614 50.0274 39.0703 47.3321C40.3764 46.2792 41.327 44.85 41.7933 43.2384L43.1372 39.418H44.5707L44.0717 43.9377Z" fill="#F2F2F2"/>
<path d="M40.8863 28.0068C41.1224 28.243 40.8862 28.6922 40.6501 29.1414C40.4139 29.3775 40.187 29.8267 39.7239 30.0675C38.5893 30.7529 37.6817 31.6606 36.5471 32.3413C36.3704 32.3653 36.2072 32.4486 36.084 32.5775C35.7365 32.7639 35.3425 32.8459 34.9495 32.8137C34.1642 32.8812 33.3762 32.7204 32.6803 32.3506C32.3251 32.1626 32.0562 31.845 31.9294 31.4637C31.8026 31.0824 31.8277 30.6669 31.9996 30.3037C32.2427 29.9991 32.5544 29.7563 32.9094 29.5953C33.2644 29.4343 33.6524 29.3597 34.0418 29.3775C34.9679 29.3775 35.8571 29.1414 36.9917 29.1414C37.3858 29.1976 37.7872 29.114 38.1262 28.9052L39.4877 28.2198C39.6785 28.0625 39.9079 27.9589 40.1522 27.9198C40.3964 27.8807 40.6466 27.9075 40.877 27.9975L40.8863 28.0068Z" fill="#F2F2F2"/>
</g>
<path d="M29.3896 18.0869H68.1221C73.0317 18.0869 77.0117 22.0669 77.0117 26.9766V65.709C77.0117 70.6186 73.0317 74.5986 68.1221 74.5986H29.3896C24.48 74.5986 20.5 70.6186 20.5 65.709V26.9766C20.5 22.067 24.48 18.0869 29.3896 18.0869Z" stroke="#F2F2F2"/>
</g>
<defs>
<filter id="filter0_d_7395_15241" x="0" y="0.586914" width="97.5117" height="97.5117" filterUnits="userSpaceOnUse" color-interpolation-filters="sRGB">
<feFlood flood-opacity="0" result="BackgroundImageFix"/>
<feColorMatrix in="SourceAlpha" type="matrix" values="0 0 0 0 0 0 0 0 0 0 0 0 0 0 0 0 0 0 127 0" result="hardAlpha"/>
<feOffset dy="3"/>
<feGaussianBlur stdDeviation="10"/>
<feComposite in2="hardAlpha" operator="out"/>
<feColorMatrix type="matrix" values="0 0 0 0 0 0 0 0 0 0 0 0 0 0 0 0 0 0 0.08 0"/>
<feBlend mode="normal" in2="BackgroundImageFix" result="effect1_dropShadow_7395_15241"/>
<feBlend mode="normal" in="SourceGraphic" in2="effect1_dropShadow_7395_15241" result="shape"/>
</filter>
</defs>
</svg>
