<svg width="33" height="33" viewBox="0 0 33 33" fill="none" xmlns="http://www.w3.org/2000/svg">
<path d="M15.8125 29.9062C8.04375 29.9062 1.71875 23.5812 1.71875 15.8125C1.71875 8.04375 8.04375 1.71875 15.8125 1.71875C23.5812 1.71875 29.9062 8.04375 29.9062 15.8125C29.9062 23.5812 23.5812 29.9062 15.8125 29.9062ZM15.8125 3.78125C9.17125 3.78125 3.78125 9.185 3.78125 15.8125C3.78125 22.44 9.17125 27.8438 15.8125 27.8438C22.4538 27.8438 27.8438 22.44 27.8438 15.8125C27.8438 9.185 22.4538 3.78125 15.8125 3.78125Z" fill="white"/>
<path d="M30.2505 31.2817C29.9892 31.2817 29.728 31.1855 29.5217 30.9792L26.7717 28.2292C26.373 27.8305 26.373 27.1705 26.7717 26.7717C27.1705 26.373 27.8305 26.373 28.2292 26.7717L30.9792 29.5217C31.378 29.9205 31.378 30.5805 30.9792 30.9792C30.773 31.1855 30.5117 31.2817 30.2505 31.2817Z" fill="white"/>
</svg>
