<svg width="60" height="60" viewBox="0 0 60 60" fill="none" xmlns="http://www.w3.org/2000/svg">
<g id="3">
<circle id="Ellipse" cx="30" cy="30" r="30" fill="#222222"/>
<g id="Group 626648">
<path id="Vector" d="M19.8184 38.542L19.8949 38.7629C19.8853 38.7389 19.8566 38.6621 19.8184 38.542ZM22.9214 33.505C23.06 32.3094 23.5286 31.6419 24.4083 30.9553C25.6706 30.0285 27.2436 30.5519 27.2436 30.5519V27.4356C27.6261 27.426 28.0086 27.45 28.3863 27.5076V31.5171C28.3863 31.5171 26.8133 30.9937 25.551 31.9204C24.6713 32.6071 24.2027 33.2745 24.0641 34.4702C24.0593 35.1184 24.1741 35.9683 24.7095 36.6982C24.5757 36.6261 24.4418 36.5445 24.3031 36.4533C23.1317 35.6274 22.9166 34.3837 22.9214 33.505ZM34.8936 21.6735C34.0282 20.6796 33.6982 19.6712 33.5787 18.9653H34.6688C34.6688 18.9653 34.4537 20.8188 36.0363 22.6387L36.0602 22.6627C35.6299 22.3842 35.2378 22.0481 34.8936 21.6735ZM40.1481 24.4969V28.4248C40.1481 28.4248 38.7568 28.3671 37.724 28.0934C36.2849 27.7093 35.3621 27.1187 35.3621 27.1187C35.3621 27.1187 34.7214 26.6961 34.6736 26.6673V34.7823C34.6736 35.2336 34.5541 36.362 34.1955 37.3032C33.7269 38.5324 33.0002 39.3439 32.8663 39.5072C32.8663 39.5072 31.9818 40.602 30.4279 41.3367C29.027 41.9993 27.7934 41.9849 27.4253 41.9993C27.4253 41.9993 25.2976 42.0857 23.3804 40.7845C22.9644 40.4963 22.5771 40.1698 22.2233 39.8097L22.2329 39.8193C24.1501 41.1254 26.2778 41.0341 26.2778 41.0341C26.6459 41.0197 27.8795 41.0341 29.2804 40.3715C30.8343 39.6368 31.7188 38.542 31.7188 38.542C31.8527 38.3788 32.5794 37.5673 33.048 36.338C33.4066 35.3969 33.5261 34.2685 33.5261 33.8171V25.707C33.5787 25.7358 34.2146 26.1583 34.2146 26.1583C34.2146 26.1583 35.1374 26.749 36.5765 27.1331C37.6093 27.4068 39.0006 27.4644 39.0006 27.4644V24.3865C39.4787 24.4969 39.8852 24.5258 40.1481 24.4969Z" fill="#EE1D52"/>
<path id="Vector_2" d="M39.0009 24.3817V27.4596C39.0009 27.4596 37.6096 27.402 36.5768 27.1283C35.1377 26.7442 34.2149 26.1535 34.2149 26.1535C34.2149 26.1535 33.5742 25.731 33.5264 25.7022V33.8171C33.5264 34.2685 33.4069 35.3969 33.0483 36.338C32.5797 37.5673 31.853 38.3788 31.7191 38.542C31.7191 38.542 30.8346 39.6368 29.2807 40.3715C27.8798 41.0341 26.6462 41.0197 26.2781 41.0341C26.2781 41.0341 24.1504 41.1206 22.2331 39.8193L22.2236 39.8097C22.0228 39.6032 21.8315 39.3871 21.6546 39.1615C21.0426 38.3788 20.6697 37.4568 20.5741 37.1928V37.1879C20.4211 36.7318 20.1055 35.6274 20.1485 34.5662C20.225 32.6887 20.8561 31.5315 21.0235 31.2434C21.4634 30.4559 22.0419 29.75 22.7208 29.1594C23.3233 28.6504 24.007 28.2423 24.7385 27.959C25.5322 27.6229 26.3832 27.4452 27.2439 27.4308V30.5471C27.2439 30.5471 25.6708 30.0237 24.4086 30.9505C23.5288 31.6371 23.0603 32.3046 22.9216 33.5002C22.9169 34.3789 23.132 35.6226 24.3082 36.4533C24.4468 36.5445 24.5807 36.6261 24.7146 36.6982C24.9202 36.9767 25.1688 37.2216 25.4557 37.4232C26.608 38.1867 27.569 38.2395 28.8025 37.745C29.6249 37.4136 30.2417 36.6694 30.5286 35.8387C30.7102 35.3201 30.7055 34.8015 30.7055 34.2637V18.9653H33.5742C33.6937 19.6712 34.0189 20.6796 34.889 21.6735C35.2381 22.0481 35.6301 22.3842 36.0557 22.6627C36.18 22.8019 36.8254 23.4742 37.6574 23.8919C38.0829 24.108 38.5371 24.2713 39.0009 24.3817Z" fill="white"/>
<path id="Vector_3" d="M19.4297 36.2422L19.5014 36.4487C19.4919 36.4247 19.4632 36.3527 19.4297 36.2422Z" fill="#69C9D0"/>
<path id="Vector_4" d="M24.7375 27.9637C24.0012 28.247 23.3223 28.6552 22.7198 29.1641C22.0361 29.7548 21.4624 30.4654 21.0225 31.2529C20.8551 31.541 20.224 32.6934 20.1475 34.5757C20.1045 35.6417 20.4248 36.7413 20.5731 37.1975V37.2023C20.6687 37.4615 21.0416 38.3883 21.6536 39.171C21.8305 39.3967 22.0218 39.6127 22.2226 39.8192C21.5723 39.3678 20.9986 38.8252 20.5061 38.2058C19.8989 37.4327 19.526 36.5156 19.4303 36.2467V36.2371C19.2773 35.7809 18.957 34.6765 19.0048 33.6106C19.0813 31.7331 19.7124 30.5758 19.8798 30.2877C20.3197 29.5003 20.8934 28.7896 21.5771 28.199C22.1795 27.69 22.8633 27.2819 23.5948 26.9986C24.0538 26.8065 24.5319 26.6672 25.0196 26.576C25.7559 26.4464 26.5066 26.4367 27.2476 26.5424V27.4355C26.3822 27.4499 25.5312 27.6276 24.7375 27.9637Z" fill="#69C9D0"/>
<path id="Vector_5" d="M33.5764 18.9652H30.7077V34.2635C30.7077 34.8013 30.7077 35.3199 30.5308 35.8385C30.2391 36.6644 29.6223 37.4135 28.8047 37.7448C27.5712 38.2442 26.6054 38.1865 25.4579 37.4231C25.171 37.2262 24.9224 36.9813 24.7168 36.7028C25.6969 37.2262 26.5719 37.2166 27.6572 36.7796C28.4796 36.4483 29.0964 35.6992 29.3833 34.8733C29.565 34.3547 29.5602 33.8362 29.5602 33.2984V18H33.5238C33.519 18 33.476 18.3793 33.5764 18.9652ZM38.9983 23.5316V24.3815C38.5345 24.2711 38.0803 24.1078 37.6548 23.8917C36.8276 23.4788 36.1822 22.8017 36.0531 22.6625C36.2013 22.7585 36.3495 22.845 36.5073 22.9266C37.5209 23.4308 38.5106 23.5844 38.9983 23.5316Z" fill="#69C9D0"/>
</g>
</g>
</svg>
