<svg width="88" height="88" viewBox="0 0 88 88" fill="none" xmlns="http://www.w3.org/2000/svg">
<rect width="88" height="88" rx="11" fill="#47C409" fill-opacity="0.05"/>
<path fill-rule="evenodd" clip-rule="evenodd" d="M57.1718 27.8131C53.4116 24.0665 48.4111 22.0023 43.0835 22C32.1058 22 23.1713 30.8912 23.1669 41.8198C23.1656 45.3131 24.0825 48.7229 25.8255 51.729L23 62L33.558 59.2437C36.467 60.8228 39.7421 61.6552 43.0754 61.6563H43.0836C54.0601 61.6563 62.9954 52.764 63 41.8352C63.0019 36.5394 60.932 31.5595 57.1718 27.8131ZM43.0836 58.3089H43.0769C40.1066 58.3078 37.1932 57.5135 34.6517 56.0124L34.0472 55.6556L27.7819 57.2911L29.4542 51.2118L29.0606 50.5882C27.4036 47.9654 26.5283 44.9338 26.5297 41.8207C26.5333 32.7375 33.9592 25.3476 43.0903 25.3476C47.5116 25.3492 51.6681 27.0649 54.7934 30.1791C57.9188 33.2932 59.6388 37.4322 59.637 41.8343C59.6334 50.9183 52.2075 58.3089 43.0836 58.3089ZM52.1636 45.9701C51.666 45.7224 49.2195 44.5242 48.7633 44.3588C48.3072 44.1939 47.9753 44.1111 47.6437 44.6069C47.312 45.1028 46.3581 46.2182 46.0678 46.5489C45.7775 46.8792 45.4872 46.9208 44.9897 46.6727C44.4919 46.4249 42.8886 45.9018 40.9877 44.2145C39.5084 42.9013 38.5096 41.2795 38.2193 40.7835C37.929 40.2877 38.1883 40.0197 38.4376 39.7728C38.6614 39.5508 38.9352 39.1942 39.1841 38.905C39.4331 38.6159 39.5158 38.4092 39.6818 38.0787C39.8477 37.7482 39.7648 37.4589 39.6402 37.2112C39.5158 36.9631 38.5206 34.5253 38.1059 33.5336C37.702 32.5681 37.2917 32.6987 36.9862 32.6835C36.6963 32.6692 36.3642 32.6659 36.0324 32.6659C35.7007 32.6659 35.1616 32.7899 34.7054 33.2857C34.2493 33.7816 32.9637 34.9798 32.9637 37.4176C32.9637 39.8553 34.7468 42.2102 34.9957 42.5408C35.2444 42.8713 38.5049 47.8737 43.4968 50.0191C44.6839 50.5295 45.6109 50.834 46.3337 51.0625C47.526 51.4395 48.6108 51.3861 49.4681 51.2587C50.4243 51.1165 52.4123 50.0605 52.827 48.9037C53.2417 47.7467 53.2417 46.755 53.1173 46.5485C52.993 46.3422 52.6613 46.2182 52.1636 45.9701Z" fill="#47C409"/>
<circle opacity="0.15" cx="29" cy="28" r="12" fill="#47C409"/>
</svg>
