<svg width="24" height="24" viewBox="0 0 24 24" fill="none" xmlns="http://www.w3.org/2000/svg">
<g id="User contact 1">
<g id="Group 626427">
<path id="Vector" fill-rule="evenodd" clip-rule="evenodd" d="M11.4004 2.90385C6.37639 2.90385 2.30424 6.97695 2.30424 12C2.30424 17.0241 6.37634 21.0962 11.4004 21.0962C16.4245 21.0962 20.4966 17.0241 20.4966 12C20.4966 6.97695 16.4243 2.90385 11.4004 2.90385ZM0.650391 12C0.650391 6.06367 5.46288 1.25 11.4004 1.25C17.3379 1.25 22.1504 6.06367 22.1504 12C22.1504 17.9374 17.3378 22.75 11.4004 22.75C5.46294 22.75 0.650391 17.9374 0.650391 12Z" fill="#FE360A"/>
<path id="Vector_2" fill-rule="evenodd" clip-rule="evenodd" d="M8.4359 16.9099C6.02301 16.9099 4.87996 17.7961 4.40095 18.6366C4.1748 19.0333 3.66981 19.1716 3.27304 18.9455C2.87627 18.7193 2.73797 18.2143 2.96411 17.8176C3.80957 16.3343 5.5907 15.2561 8.4359 15.2561C11.2941 15.2561 13.0781 16.3287 13.9245 17.8185C14.1501 18.2155 14.0111 18.7204 13.614 18.9459C13.2169 19.1715 12.7122 19.0325 12.4865 18.6355C12.0086 17.7943 10.8674 16.9099 8.4359 16.9099Z" fill="#FE360A"/>
<path id="Vector_3" fill-rule="evenodd" clip-rule="evenodd" d="M8.44337 8.08158C7.24479 8.08158 6.27299 9.05338 6.27299 10.252C6.27299 11.4506 7.24479 12.4224 8.44337 12.4224C9.64198 12.4224 10.6138 11.4506 10.6138 10.252C10.6138 9.05339 9.64198 8.08158 8.44337 8.08158ZM4.61914 10.252C4.61914 8.13999 6.33139 6.42773 8.44337 6.42773C10.5553 6.42773 12.2676 8.13999 12.2676 10.252C12.2676 12.3639 10.5553 14.0762 8.44337 14.0762C6.33139 14.0762 4.61914 12.3639 4.61914 10.252Z" fill="#FE360A"/>
<path id="Vector_4" fill-rule="evenodd" clip-rule="evenodd" d="M11.5503 21.3187C11.6353 20.6954 11.9556 20.0265 12.6244 19.5032C13.3024 18.9728 14.3985 18.5464 16.0997 18.5464C17.239 18.5464 18.1076 18.735 18.7588 19.0155C19.1782 19.1962 19.6646 19.0027 19.8453 18.5832C20.026 18.1638 19.8326 17.6773 19.413 17.4966C18.5175 17.1108 17.4189 16.8926 16.0997 16.8926C14.1236 16.8926 12.6406 17.3906 11.6053 18.2007C10.568 19.0124 10.0406 20.0916 9.90738 21.1274C9.9055 21.1415 9.90407 21.1556 9.90308 21.1698L9.85401 21.8094C9.81917 22.2648 10.16 22.6622 10.6154 22.697C11.0708 22.732 11.4682 22.3911 11.503 21.9357L11.5503 21.3187Z" fill="#FE360A"/>
<path id="Vector_5" fill-rule="evenodd" clip-rule="evenodd" d="M16.2022 11.367C15.4259 11.367 14.7964 11.9965 14.7964 12.7729C14.7964 13.5492 15.4259 14.1787 16.2022 14.1787C16.9786 14.1787 17.6081 13.5492 17.6081 12.7729C17.6081 11.9965 16.9786 11.367 16.2022 11.367ZM13.1426 12.7729C13.1426 11.0831 14.5125 9.71313 16.2022 9.71313C17.892 9.71313 19.2619 11.0831 19.2619 12.7729C19.2619 14.4626 17.892 15.8325 16.2022 15.8325C14.5125 15.8325 13.1426 14.4626 13.1426 12.7729Z" fill="#FE360A"/>
</g>
</g>
</svg>
