<svg width="30" height="30" viewBox="0 0 30 30" fill="none" xmlns="http://www.w3.org/2000/svg">
<g id="vuesax/outline/calendar">
<g id="calendar">
<path id="Vector" d="M10 7.1875C9.4875 7.1875 9.0625 6.7625 9.0625 6.25V2.5C9.0625 1.9875 9.4875 1.5625 10 1.5625C10.5125 1.5625 10.9375 1.9875 10.9375 2.5V6.25C10.9375 6.7625 10.5125 7.1875 10 7.1875Z" fill="#292D32"/>
<path id="Vector_2" d="M20 7.1875C19.4875 7.1875 19.0625 6.7625 19.0625 6.25V2.5C19.0625 1.9875 19.4875 1.5625 20 1.5625C20.5125 1.5625 20.9375 1.9875 20.9375 2.5V6.25C20.9375 6.7625 20.5125 7.1875 20 7.1875Z" fill="#292D32"/>
<path id="Vector_3" d="M10.625 18.1254C10.4625 18.1254 10.3 18.0879 10.15 18.0254C9.9875 17.9629 9.8625 17.8754 9.7375 17.7629C9.5125 17.5254 9.375 17.2129 9.375 16.8754C9.375 16.7129 9.4125 16.5504 9.475 16.4004C9.5375 16.2504 9.625 16.1129 9.7375 15.9879C9.8625 15.8754 9.9875 15.7879 10.15 15.7254C10.6 15.5379 11.1625 15.6379 11.5125 15.9879C11.7375 16.2254 11.875 16.5504 11.875 16.8754C11.875 16.9504 11.8625 17.0379 11.85 17.1254C11.8375 17.2004 11.8125 17.2754 11.775 17.3504C11.75 17.4254 11.7125 17.5004 11.6625 17.5754C11.625 17.6379 11.5625 17.7004 11.5125 17.7629C11.275 17.9879 10.95 18.1254 10.625 18.1254Z" fill="#292D32"/>
<path id="Vector_4" d="M15 18.1261C14.8375 18.1261 14.675 18.0886 14.525 18.0261C14.3625 17.9636 14.2375 17.8761 14.1125 17.7636C13.8875 17.5261 13.75 17.2136 13.75 16.8761C13.75 16.7136 13.7875 16.5511 13.85 16.4011C13.9125 16.2511 14 16.1136 14.1125 15.9886C14.2375 15.8761 14.3625 15.7885 14.525 15.726C14.975 15.526 15.5375 15.6386 15.8875 15.9886C16.1125 16.2261 16.25 16.5511 16.25 16.8761C16.25 16.9511 16.2375 17.0386 16.225 17.1261C16.2125 17.2011 16.1875 17.2761 16.15 17.3511C16.125 17.4261 16.0875 17.5011 16.0375 17.5761C16 17.6386 15.9375 17.7011 15.8875 17.7636C15.65 17.9886 15.325 18.1261 15 18.1261Z" fill="#292D32"/>
<path id="Vector_5" d="M19.375 18.1261C19.2125 18.1261 19.05 18.0886 18.9 18.0261C18.7375 17.9636 18.6125 17.8761 18.4875 17.7636C18.4375 17.7011 18.3875 17.6386 18.3375 17.5761C18.2875 17.5011 18.25 17.4261 18.225 17.3511C18.1875 17.2761 18.1625 17.2011 18.15 17.1261C18.1375 17.0386 18.125 16.9511 18.125 16.8761C18.125 16.5511 18.2625 16.2261 18.4875 15.9886C18.6125 15.8761 18.7375 15.7885 18.9 15.726C19.3625 15.526 19.9125 15.6386 20.2625 15.9886C20.4875 16.2261 20.625 16.5511 20.625 16.8761C20.625 16.9511 20.6125 17.0386 20.6 17.1261C20.5875 17.2011 20.5625 17.2761 20.525 17.3511C20.5 17.4261 20.4625 17.5011 20.4125 17.5761C20.375 17.6386 20.3125 17.7011 20.2625 17.7636C20.025 17.9886 19.7 18.1261 19.375 18.1261Z" fill="#292D32"/>
<path id="Vector_6" d="M10.625 22.499C10.4625 22.499 10.3 22.4615 10.15 22.399C10 22.3365 9.8625 22.249 9.7375 22.1365C9.5125 21.899 9.375 21.574 9.375 21.249C9.375 21.0865 9.4125 20.924 9.475 20.774C9.5375 20.6115 9.625 20.474 9.7375 20.3615C10.2 19.899 11.05 19.899 11.5125 20.3615C11.7375 20.599 11.875 20.924 11.875 21.249C11.875 21.574 11.7375 21.899 11.5125 22.1365C11.275 22.3615 10.95 22.499 10.625 22.499Z" fill="#292D32"/>
<path id="Vector_7" d="M15 22.499C14.675 22.499 14.35 22.3615 14.1125 22.1365C13.8875 21.899 13.75 21.574 13.75 21.249C13.75 21.0865 13.7875 20.924 13.85 20.774C13.9125 20.6115 14 20.474 14.1125 20.3615C14.575 19.899 15.425 19.899 15.8875 20.3615C16 20.474 16.0875 20.6115 16.15 20.774C16.2125 20.924 16.25 21.0865 16.25 21.249C16.25 21.574 16.1125 21.899 15.8875 22.1365C15.65 22.3615 15.325 22.499 15 22.499Z" fill="#292D32"/>
<path id="Vector_8" d="M19.375 22.5011C19.05 22.5011 18.725 22.3636 18.4875 22.1386C18.375 22.0261 18.2875 21.8886 18.225 21.7261C18.1625 21.5761 18.125 21.4136 18.125 21.2511C18.125 21.0886 18.1625 20.9261 18.225 20.7761C18.2875 20.6136 18.375 20.4761 18.4875 20.3636C18.775 20.0761 19.2125 19.9386 19.6125 20.0261C19.7 20.0386 19.775 20.0636 19.85 20.1011C19.925 20.1261 20 20.1636 20.075 20.2136C20.1375 20.2511 20.2 20.3136 20.2625 20.3636C20.4875 20.6011 20.625 20.9261 20.625 21.2511C20.625 21.5761 20.4875 21.9011 20.2625 22.1386C20.025 22.3636 19.7 22.5011 19.375 22.5011Z" fill="#292D32"/>
<path id="Vector_9" d="M25.625 12.3H4.375C3.8625 12.3 3.4375 11.875 3.4375 11.3625C3.4375 10.85 3.8625 10.425 4.375 10.425H25.625C26.1375 10.425 26.5625 10.85 26.5625 11.3625C26.5625 11.875 26.1375 12.3 25.625 12.3Z" fill="#292D32"/>
<path id="Vector_10" d="M20 28.4375H10C5.4375 28.4375 2.8125 25.8125 2.8125 21.25V10.625C2.8125 6.0625 5.4375 3.4375 10 3.4375H20C24.5625 3.4375 27.1875 6.0625 27.1875 10.625V21.25C27.1875 25.8125 24.5625 28.4375 20 28.4375ZM10 5.3125C6.425 5.3125 4.6875 7.05 4.6875 10.625V21.25C4.6875 24.825 6.425 26.5625 10 26.5625H20C23.575 26.5625 25.3125 24.825 25.3125 21.25V10.625C25.3125 7.05 23.575 5.3125 20 5.3125H10Z" fill="#292D32"/>
</g>
</g>
</svg>
