<svg width="24" height="24" viewBox="0 0 24 24" fill="none" xmlns="http://www.w3.org/2000/svg">
<g id="User contact 1">
<g id="Group 626419">
<path id="Vector" fill-rule="evenodd" clip-rule="evenodd" d="M4.64757 6.52994C4.04351 7.10298 3.65392 7.99306 3.65392 9.27859V18.0748C3.65392 19.3941 4.04655 20.3076 4.65318 20.894C5.26426 21.4848 6.19756 21.845 7.47344 21.845H15.6861C16.9712 21.845 17.9028 21.4894 18.5089 20.911C19.1091 20.338 19.4959 19.4458 19.4959 18.1521V9.27859L19.496 9.27586C19.5002 7.98835 19.1159 7.09944 18.5174 6.52822C17.9125 5.95099 16.9811 5.59533 15.6957 5.59533H13.5189C13.0622 5.59533 12.6919 5.22508 12.6919 4.76837C12.6919 4.31165 13.0622 3.94141 13.5189 3.94141H15.6957C17.2781 3.94141 18.665 4.38286 19.6593 5.33175C20.6596 6.28639 21.155 7.65213 21.1498 9.28003V18.1521C21.1498 19.7841 20.6521 21.1517 19.6508 22.1073C18.6554 23.0573 17.2686 23.4989 15.6861 23.4989H7.47344C5.89127 23.4989 4.50133 23.0476 3.50368 22.0832C2.50158 21.1145 2 19.7295 2 18.0748V9.27859C2 7.64813 2.50462 6.28311 3.50928 5.33004C4.50737 4.3832 5.8952 3.94141 7.47344 3.94141H9.63098C10.0877 3.94141 10.4579 4.31165 10.4579 4.76837C10.4579 5.22508 10.0877 5.59533 9.63098 5.59533H7.47344C6.19363 5.59533 5.25822 5.95065 4.64757 6.52994Z" fill="#FE360A"/>
<path id="Vector_2" fill-rule="evenodd" clip-rule="evenodd" d="M10.6259 3.65392C10.5345 3.65392 10.4605 3.72784 10.4605 3.81934V5.93606C10.4605 6.02757 10.5345 6.10148 10.6259 6.10148H12.5292C12.6207 6.10148 12.6947 6.02757 12.6947 5.93606V3.81934C12.6947 3.72784 12.6207 3.65392 12.5292 3.65392H10.6259ZM8.80664 3.81934C8.80664 2.8144 9.62101 2 10.6259 2H12.5292C13.5342 2 14.3486 2.8144 14.3486 3.81934V5.93606C14.3486 6.941 13.5342 7.7554 12.5292 7.7554H10.6259C9.62101 7.7554 8.80664 6.941 8.80664 5.93606V3.81934Z" fill="#FE360A"/>
<path id="Vector_3" fill-rule="evenodd" clip-rule="evenodd" d="M9.32179 17.9369C8.93985 18.2828 8.79259 18.716 8.79259 19.091C8.79259 19.5477 8.42236 19.918 7.96563 19.918C7.50892 19.918 7.13867 19.5477 7.13867 19.091C7.13867 18.2859 7.45699 17.3946 8.21126 16.7112C8.96763 16.026 10.0873 15.6152 11.579 15.6152C13.0691 15.6152 14.1884 16.0228 14.9448 16.7052C15.6999 17.3864 16.0182 18.276 16.0182 19.0813C16.0182 19.538 15.6479 19.9083 15.1912 19.9083C14.7345 19.9083 14.3643 19.538 14.3643 19.0813C14.3643 18.7066 14.2175 18.2765 13.8369 17.9332C13.4578 17.5911 12.7709 17.2692 11.579 17.2692C10.3885 17.2692 9.70154 17.5928 9.32179 17.9369Z" fill="#FE360A"/>
<path id="Vector_4" fill-rule="evenodd" clip-rule="evenodd" d="M11.578 10.234C10.7602 10.234 10.0972 10.8969 10.0972 11.7148C10.0972 12.5326 10.7602 13.1955 11.578 13.1955C12.3958 13.1955 13.0587 12.5326 13.0587 11.7148C13.0587 10.8969 12.3958 10.234 11.578 10.234ZM8.44336 11.7148C8.44336 9.98346 9.84671 8.58008 11.578 8.58008C13.3093 8.58008 14.7127 9.98346 14.7127 11.7148C14.7127 13.446 13.3093 14.8494 11.578 14.8494C9.84671 14.8494 8.44336 13.446 8.44336 11.7148Z" fill="#FE360A"/>
</g>
</g>
</svg>
