<svg width="24" height="24" viewBox="0 0 24 24" fill="none" xmlns="http://www.w3.org/2000/svg">
<g id="vuesax/outline/chart">
<g id="chart">
<path id="Vector" d="M21 22.75H3C2.59 22.75 2.25 22.41 2.25 22C2.25 21.59 2.59 21.25 3 21.25H21C21.41 21.25 21.75 21.59 21.75 22C21.75 22.41 21.41 22.75 21 22.75Z" fill="#FE360A"/>
<path id="Vector_2" d="M5.59998 19.7509H4C3.04 19.7509 2.25 18.9609 2.25 18.0009V9.38086C2.25 8.42086 3.04 7.63086 4 7.63086H5.59998C6.55998 7.63086 7.34998 8.42086 7.34998 9.38086V18.0009C7.34998 18.9609 6.55998 19.7509 5.59998 19.7509ZM4 9.12085C3.86 9.12085 3.75 9.23085 3.75 9.37085V18.0009C3.75 18.1409 3.86 18.2509 4 18.2509H5.59998C5.73998 18.2509 5.84998 18.1409 5.84998 18.0009V9.38086C5.84998 9.24086 5.73998 9.13086 5.59998 9.13086H4V9.12085Z" fill="#FE360A"/>
<path id="Vector_3" d="M12.7992 19.7495H11.1992C10.2392 19.7495 9.44922 18.9595 9.44922 17.9995V6.18945C9.44922 5.22945 10.2392 4.43945 11.1992 4.43945H12.7992C13.7592 4.43945 14.5492 5.22945 14.5492 6.18945V17.9995C14.5492 18.9595 13.7592 19.7495 12.7992 19.7495ZM11.1992 5.93945C11.0592 5.93945 10.9492 6.04945 10.9492 6.18945V17.9995C10.9492 18.1395 11.0592 18.2495 11.1992 18.2495H12.7992C12.9392 18.2495 13.0492 18.1395 13.0492 17.9995V6.18945C13.0492 6.04945 12.9392 5.93945 12.7992 5.93945H11.1992Z" fill="#FE360A"/>
<path id="Vector_4" d="M20.0004 19.75H18.4004C17.4404 19.75 16.6504 18.96 16.6504 18V3C16.6504 2.04 17.4404 1.25 18.4004 1.25H20.0004C20.9604 1.25 21.7504 2.04 21.7504 3V18C21.7504 18.96 20.9604 19.75 20.0004 19.75ZM18.4004 2.75C18.2604 2.75 18.1504 2.86 18.1504 3V18C18.1504 18.14 18.2604 18.25 18.4004 18.25H20.0004C20.1404 18.25 20.2504 18.14 20.2504 18V3C20.2504 2.86 20.1404 2.75 20.0004 2.75H18.4004Z" fill="#FE360A"/>
</g>
</g>
</svg>
