<svg width="24" height="24" viewBox="0 0 24 24" fill="none" xmlns="http://www.w3.org/2000/svg">
<g id="User contact 1">
<g id="Group 626439">
<path id="Vector" d="M9.96043 22.7502C8.02216 22.7498 6.14656 22.0637 4.66558 20.8133C3.18461 19.563 2.19376 17.8289 1.86844 15.9182C1.54312 14.0075 1.9043 12.0432 2.88805 10.3732C3.8718 8.70322 5.41467 7.43509 7.24358 6.79333C7.34609 6.75714 7.45474 6.74148 7.5633 6.74727C7.67187 6.75306 7.77823 6.78017 7.87632 6.82706C7.97441 6.87396 8.06229 6.93971 8.13497 7.02056C8.20764 7.10142 8.26367 7.1958 8.29987 7.29832C8.33607 7.40084 8.35173 7.50949 8.34594 7.61805C8.34015 7.72661 8.31304 7.83298 8.26614 7.93107C8.21925 8.02915 8.1535 8.11703 8.07265 8.1897C7.99178 8.26237 7.89739 8.31842 7.79488 8.35462C6.33354 8.86628 5.1005 9.87872 4.31422 11.2125C3.52795 12.5464 3.23919 14.1155 3.49912 15.6418C3.75906 17.1681 4.55093 18.5532 5.73438 19.5515C6.91783 20.5499 8.41647 21.0971 9.96484 21.0963C10.9761 21.102 11.9749 20.8711 12.8811 20.4222C13.7875 19.9733 14.5763 19.3186 15.1846 18.5107C15.317 18.3352 15.5137 18.2196 15.7314 18.1891C15.9492 18.1588 16.1701 18.2162 16.3456 18.3486C16.521 18.4811 16.6367 18.6778 16.667 18.8956C16.6974 19.1133 16.6401 19.3342 16.5077 19.5096C15.7447 20.5229 14.7552 21.3437 13.6183 21.9065C12.4815 22.4691 11.2289 22.758 9.96043 22.7502Z" fill="#FE360A"/>
<path id="Vector_2" d="M11.5203 6.2514C11.0257 6.2514 10.5422 6.10474 10.1309 5.82996C9.71965 5.55518 9.39924 5.16462 9.20992 4.70768C9.02061 4.25073 8.9711 3.74792 9.06758 3.26283C9.16405 2.77774 9.40233 2.33216 9.75196 1.98244C10.1017 1.6327 10.5473 1.39454 11.0324 1.29805C11.5174 1.20156 12.0203 1.25108 12.4773 1.44035C12.9342 1.62963 13.3247 1.95015 13.5995 2.36139C13.8743 2.77263 14.021 3.25612 14.021 3.75071C14.0204 4.41376 13.7567 5.04948 13.2879 5.51832C12.8191 5.98717 12.1833 6.25082 11.5203 6.2514ZM11.5203 2.9039C11.3528 2.9039 11.1891 2.95356 11.0498 3.04661C10.9106 3.13966 10.802 3.27192 10.7379 3.42666C10.6738 3.58138 10.6571 3.75165 10.6897 3.9159C10.7224 4.08017 10.8031 4.23105 10.9215 4.34947C11.0399 4.4679 11.1907 4.54855 11.355 4.58122C11.5193 4.6139 11.6896 4.59713 11.8444 4.53304C11.9991 4.46895 12.1313 4.36041 12.2243 4.22115C12.3174 4.0819 12.3671 3.91819 12.3671 3.75071C12.3668 3.52621 12.2775 3.31099 12.1187 3.15225C11.96 2.99351 11.7448 2.9042 11.5203 2.9039Z" fill="#FE360A"/>
<path id="Vector_3" d="M19.6698 18.5619C19.5417 18.5629 19.4153 18.534 19.3005 18.4776C19.1856 18.4211 19.0855 18.3387 19.0082 18.2367L17.1977 15.865C17.0546 15.6795 16.8708 15.5292 16.6605 15.4258C16.4503 15.3225 16.2192 15.2686 15.9849 15.2685H13.7885C13.0128 15.2681 12.2641 14.9837 11.6839 14.4688C11.1036 13.954 10.7321 13.2446 10.6395 12.4745L10.4101 10.5637C10.3669 10.2045 10.4038 9.84035 10.5183 9.49715C10.6326 9.15399 10.8216 8.84044 11.0717 8.57902C11.3185 8.31497 11.6215 8.10981 11.9584 7.9787C12.2952 7.84757 12.6573 7.79386 13.0178 7.82153L15.6839 8.00237C15.7925 8.00937 15.8988 8.03776 15.9963 8.08593C16.094 8.1341 16.1812 8.20108 16.253 8.28305C16.3247 8.365 16.3795 8.46033 16.4143 8.56354C16.4491 8.66674 16.4631 8.7758 16.4557 8.88445C16.4395 9.10319 16.3379 9.30679 16.1729 9.45123C16.0078 9.59566 15.7925 9.66931 15.5735 9.65627L12.9075 9.47543C12.79 9.46876 12.6724 9.48746 12.5628 9.53026C12.4532 9.57308 12.3542 9.63899 12.2724 9.72353C12.191 9.80837 12.1296 9.91025 12.0928 10.0219C12.056 10.1335 12.0446 10.252 12.0596 10.3685L12.2889 12.2793C12.3326 12.648 12.5101 12.9878 12.7878 13.2344C13.0654 13.4809 13.4237 13.617 13.7951 13.6168H15.9914C16.4791 13.618 16.9598 13.731 17.397 13.947C17.834 14.1629 18.2159 14.4762 18.5131 14.8627L20.3235 17.2355C20.4173 17.3583 20.4748 17.505 20.4894 17.6588C20.5041 17.8127 20.4753 17.9675 20.4064 18.1058C20.3376 18.2442 20.2313 18.3604 20.0998 18.4414C19.9681 18.5225 19.8165 18.5649 19.662 18.5641L19.6698 18.5619Z" fill="#FE360A"/>
</g>
</g>
</svg>
