<svg width="24" height="24" viewBox="0 0 24 24" fill="none" xmlns="http://www.w3.org/2000/svg">
<path d="M18.779 12.683C18.7576 11.7512 18.9972 10.8319 19.4705 10.029C19.9439 9.22605 20.6323 8.57143 21.458 8.139C20.9376 7.41704 20.2568 6.82557 19.4693 6.41106C18.6817 5.99654 17.8088 5.77026 16.919 5.75C15.019 5.6 12.938 6.859 12.177 6.859C11.377 6.859 9.53002 5.803 8.08302 5.803C5.09402 5.85 1.91602 8.187 1.91602 12.94C1.92995 14.4231 2.19086 15.8936 2.68802 17.291C3.37402 19.257 5.84902 24.08 8.43202 23.999C9.78202 23.967 10.732 23.04 12.494 23.04C14.194 23.04 15.082 23.999 16.588 23.999C19.188 23.961 21.432 19.578 22.088 17.607C21.1098 17.208 20.2727 16.5265 19.6838 15.6493C19.0949 14.7722 18.781 13.7395 18.782 12.683H18.779ZM15.746 3.883C16.22 3.36161 16.5796 2.74674 16.8016 2.07797C17.0236 1.4092 17.1031 0.701355 17.035 0C15.6322 0.150083 14.3355 0.816646 13.397 1.87C12.9161 2.38367 12.5461 2.99086 12.3101 3.65374C12.074 4.31661 11.977 5.02099 12.025 5.723C12.7477 5.73827 13.4635 5.57921 14.1117 5.25928C14.7599 4.93934 15.3216 4.46795 15.749 3.885L15.746 3.883Z" fill="#222222"/>
</svg>
