<svg width="23" height="29" viewBox="0 0 23 29" fill="none" xmlns="http://www.w3.org/2000/svg">
<path fill-rule="evenodd" clip-rule="evenodd" d="M14.6709 6.2288C13.2453 4.43149 10.9339 4.43149 9.5085 6.2288L5.30584 11.5278C3.02131 14.4082 3.02131 19.0785 5.30584 21.959C7.59036 24.8394 11.2943 24.8394 13.5788 21.959L19.6141 14.3493C19.8882 14.0036 20.3327 14.0036 20.6069 14.3493C20.881 14.6949 20.881 15.2553 20.6069 15.601L14.5716 23.2107C11.7387 26.7824 7.14588 26.7824 4.31308 23.2107C1.48028 19.6389 1.48028 13.8478 4.31308 10.2761L8.51575 4.97706C10.4895 2.48844 13.6898 2.48844 15.6636 4.97706C17.6373 7.4657 17.6373 11.5009 15.6636 13.9896L11.5641 19.1584C10.4325 20.5852 8.59625 20.5867 7.46409 19.1592C6.33141 17.731 6.33235 15.4158 7.46409 13.9887L11.3325 9.11113C11.6067 8.76548 12.0512 8.76548 12.3252 9.11113C12.5994 9.45679 12.5994 10.0172 12.3252 10.3629L8.45685 15.2404C7.87311 15.9764 7.87272 17.171 8.45685 17.9075C9.04016 18.643 9.98758 18.6429 10.5714 17.9066L14.6709 12.7378C16.0963 10.9405 16.0963 8.02612 14.6709 6.2288Z" fill="#47C409"/>
</svg>
