<svg width="29" height="29" viewBox="0 0 29 29" fill="none" xmlns="http://www.w3.org/2000/svg">
<path d="M3.625 3.625L6.07041 4.04824L7.20259 17.5368C7.29312 18.6384 8.21367 19.4837 9.31881 19.4802H22.1443C23.1989 19.4825 24.0936 18.7066 24.2429 17.6626L25.3586 9.9525C25.4832 9.09073 24.8848 8.29127 24.0242 8.16664C23.9489 8.15606 6.46309 8.15018 6.46309 8.15018" stroke="#999999" stroke-linecap="round" stroke-linejoin="round"/>
<path d="M16.998 12.4961H20.2582" stroke="#999999" stroke-linecap="round" stroke-linejoin="round"/>
<path fill-rule="evenodd" clip-rule="evenodd" d="M8.80363 23.5547C9.15751 23.5547 9.4432 23.8416 9.4432 24.1943C9.4432 24.5481 9.15751 24.835 8.80363 24.835C8.44975 24.835 8.16406 24.5481 8.16406 24.1943C8.16406 23.8416 8.44975 23.5547 8.80363 23.5547Z" fill="#555555" stroke="#999999" stroke-linecap="round" stroke-linejoin="round"/>
<path fill-rule="evenodd" clip-rule="evenodd" d="M22.0653 23.5547C22.4192 23.5547 22.7061 23.8416 22.7061 24.1943C22.7061 24.5481 22.4192 24.835 22.0653 24.835C21.7115 24.835 21.4258 24.5481 21.4258 24.1943C21.4258 23.8416 21.7115 23.5547 22.0653 23.5547Z" fill="#555555" stroke="#999999" stroke-linecap="round" stroke-linejoin="round"/>
</svg>
