<svg width="37" height="37" viewBox="0 0 37 37" fill="none" xmlns="http://www.w3.org/2000/svg">
<path d="M11.1065 29.4287C11.8346 29.4289 12.4219 30.0197 12.4219 30.7451C12.4215 31.471 11.8349 32.0623 11.1065 32.0625C10.378 32.0625 9.79059 31.4711 9.79011 30.7451C9.79011 30.0196 10.3783 29.4287 11.1065 29.4287ZM28.0274 29.4287C28.7541 29.4292 29.3448 30.0187 29.3448 30.7451C29.3443 31.4721 28.7544 32.0621 28.0274 32.0625C27.2989 32.0625 26.7115 31.4712 26.711 30.7451C26.711 30.0196 27.2992 29.4287 28.0274 29.4287ZM4.58503 4.00781L7.70515 4.54688L7.7862 4.56836C7.96917 4.63288 8.10153 4.79966 8.11823 4.99805L8.51862 9.77344H9.08015C9.69031 9.77367 10.5623 9.77396 11.6085 9.77441C13.7015 9.77533 16.4936 9.77752 19.2882 9.7793C22.0825 9.78108 24.8804 9.78255 26.9854 9.78516C28.0376 9.78646 28.9178 9.78854 29.5372 9.79004C29.8467 9.79079 30.0926 9.79119 30.2618 9.79199C30.3458 9.79239 30.4121 9.79255 30.4581 9.79297C30.4808 9.79318 30.5006 9.7937 30.5147 9.79395C30.5213 9.79404 30.5288 9.79375 30.5352 9.79395C30.5385 9.79408 30.5444 9.79465 30.5499 9.79492C30.553 9.79511 30.559 9.79565 30.5626 9.7959C30.5688 9.79643 30.5851 9.79843 30.5958 9.7998H30.5987L30.8507 9.84961C32.0017 10.1379 32.7984 11.2018 32.7481 12.3887L32.7237 12.6445L31.3009 22.4814C31.075 24.0588 29.7225 25.2314 28.128 25.2285V25.2295H11.7647V25.2285C10.0947 25.2331 8.70357 23.9557 8.56648 22.291L7.15437 5.46582L4.41511 4.99219L4.31745 4.96582C4.10079 4.88114 3.96678 4.65315 4.00788 4.41504C4.04912 4.17695 4.25196 4.00702 4.48444 4L4.58503 4.00781ZM9.56257 22.208V22.209L9.59089 22.4199C9.77776 23.4603 10.6856 24.2328 11.7628 24.2295H28.129C29.2245 24.2317 30.1553 23.4246 30.3106 22.3389L31.7344 12.501L31.7491 12.3477C31.7813 11.5896 31.2385 10.9146 30.4766 10.793C30.469 10.7929 30.4596 10.7931 30.4493 10.793C30.4055 10.7926 30.3408 10.7924 30.2569 10.792C30.0889 10.7912 29.8445 10.7908 29.5352 10.79C28.9164 10.7885 28.0367 10.7865 26.9844 10.7852C24.8797 10.7826 22.0816 10.7811 19.2872 10.7793C16.4929 10.7775 13.7013 10.7753 11.6085 10.7744C10.5625 10.774 9.69031 10.7737 9.08015 10.7734C8.89687 10.7734 8.73632 10.7735 8.60261 10.7734L9.56257 22.208ZM25.8233 15.3271C26.0508 15.3741 26.2217 15.576 26.2217 15.8174C26.2217 16.0587 26.0508 16.2607 25.8233 16.3076L25.7217 16.3174H21.5626C21.2864 16.3174 21.0626 16.0935 21.0626 15.8174C21.0626 15.5412 21.2864 15.3174 21.5626 15.3174H25.7217L25.8233 15.3271Z" fill="#999999"/>
</svg>
