<svg width="60" height="15" viewBox="0 0 60 15" fill="none" xmlns="http://www.w3.org/2000/svg">
<path d="M5.98085 0.000232541C2.70731 -0.0283566 0.0289614 2.58279 0.000161888 5.83242C-0.0286376 9.32982 3.79209 12.4556 5.84645 15C7.94882 12.5032 11.8271 9.43465 11.8559 5.93724C11.8847 2.68761 9.25439 0.0288217 5.98085 0.000232541ZM7.02723 10.3304C4.67528 10.9308 2.28492 9.52995 1.68013 7.2047C1.07534 4.86992 2.48652 2.49702 4.82887 1.89665C7.18083 1.29627 9.57118 2.69714 10.176 5.02239C10.7808 7.35717 9.36959 9.73007 7.02723 10.3304Z" fill="#D2AF21"/>
<path d="M5.58759 7.4347C4.19561 6.57703 2.54444 6.81527 2.06445 6.90104C2.07405 6.96774 2.09325 7.02492 2.11245 7.09163C2.36205 8.0446 2.93804 8.82604 3.69642 9.34064C4.64681 7.91119 5.58759 7.4347 5.58759 7.4347Z" fill="#D2AF21"/>
<path d="M8.5931 6.5185C8.5931 6.5185 6.61554 4.11701 3.4668 6.5185C3.80279 6.53756 4.46518 6.53756 5.16597 6.89969C5.35796 6.72815 6.55794 5.40352 8.5931 6.5185Z" fill="#D2AF21"/>
<path d="M6.91153 9.90206C8.3995 9.52087 9.47468 8.33919 9.77228 6.93832C9.09069 6.71913 6.46034 6.16641 4.05078 9.55899C4.89557 10.0069 5.91315 10.1594 6.91153 9.90206Z" fill="#D2AF21"/>
<path d="M53.3468 13.6077C53.2953 13.6588 53.2695 13.7227 53.2695 13.7994C53.2695 13.876 53.2953 13.9399 53.3468 13.991C53.3982 14.0421 53.4626 14.0677 53.5398 14.0677C53.617 14.0677 53.6814 14.0421 53.7329 13.991C53.7844 13.9399 53.8101 13.876 53.8101 13.7994C53.8101 13.7227 53.7844 13.6588 53.7329 13.6077C53.6299 13.4927 53.4497 13.4927 53.3468 13.6077Z" fill="#D2AF21"/>
<path d="M55.5088 13.5568L55.3157 13.429C55.2771 13.4035 55.2385 13.4162 55.2127 13.4418L55.1999 13.4674C55.084 13.6079 54.9553 13.6718 54.7751 13.6718C54.685 13.6718 54.5949 13.6462 54.5177 13.6079C54.4405 13.5696 54.389 13.5057 54.3375 13.429C54.2989 13.3524 54.2732 13.2757 54.2732 13.1863C54.2732 13.0585 54.3118 12.9435 54.4148 12.8541C54.5049 12.7646 54.6336 12.7135 54.7751 12.7135C54.9553 12.7135 55.0969 12.7774 55.1999 12.918L55.2127 12.9435C55.2385 12.9818 55.29 12.9818 55.3157 12.9691L55.5088 12.8413C55.5474 12.8157 55.5602 12.7646 55.5345 12.7263L55.5216 12.7008C55.4701 12.6113 55.4058 12.5474 55.3414 12.4836C55.2642 12.4325 55.187 12.3813 55.084 12.3558C54.9811 12.3175 54.8781 12.3047 54.7751 12.3047C54.6078 12.3047 54.4534 12.343 54.3118 12.4197C54.1702 12.4963 54.0544 12.6113 53.9772 12.7391C53.8999 12.8796 53.8613 13.0202 53.8613 13.1863C53.8613 13.429 53.9514 13.6335 54.1187 13.7995C54.2861 13.9656 54.5049 14.0551 54.7623 14.0551C54.9296 14.0551 55.0712 14.0167 55.2127 13.9529C55.3414 13.889 55.4573 13.7868 55.5345 13.6718L55.5474 13.6462C55.5602 13.6334 55.5602 13.6079 55.5602 13.5823C55.5345 13.5951 55.5216 13.5696 55.5088 13.5568Z" fill="#D2AF21"/>
<path d="M56.4483 12.3301C56.1909 12.3301 55.9849 12.4195 55.8176 12.6112C55.6632 12.7773 55.5859 12.9817 55.5859 13.2117C55.5859 13.4416 55.6632 13.6461 55.8305 13.8122C55.9849 13.991 56.2037 14.0805 56.4483 14.0805C56.6928 14.0805 56.9116 13.991 57.0661 13.8122C57.2205 13.6461 57.3106 13.4416 57.3106 13.2117C57.3106 12.9817 57.2334 12.7773 57.0789 12.6112C56.9116 12.4195 56.7057 12.3301 56.4483 12.3301ZM56.4483 12.7389C56.577 12.7389 56.6671 12.7773 56.7572 12.8795C56.8473 12.9689 56.8859 13.0839 56.8859 13.2117C56.8859 13.3011 56.8601 13.3778 56.8215 13.4544C56.7829 13.5311 56.7314 13.5822 56.6671 13.6205C56.5384 13.6972 56.3582 13.6972 56.2166 13.6205C56.1522 13.5822 56.1008 13.5311 56.0621 13.4544C56.0235 13.3778 55.9978 13.3011 55.9978 13.2244C55.9978 13.0967 56.0364 12.9817 56.1265 12.8922C56.2166 12.79 56.3324 12.7389 56.4483 12.7389Z" fill="#D2AF21"/>
<path d="M59.5108 12.4323C59.4207 12.3684 59.3049 12.3429 59.1891 12.3429C59.0603 12.3429 58.9445 12.3812 58.8287 12.4451C58.7772 12.4834 58.7257 12.5217 58.6742 12.5728C58.6614 12.5601 58.6485 12.5345 58.6356 12.5217C58.5841 12.4578 58.5198 12.4195 58.4426 12.3812C58.3653 12.3429 58.2881 12.3301 58.198 12.3301C58.0693 12.3301 57.9535 12.3684 57.8505 12.4323C57.8376 12.4323 57.8376 12.4451 57.8248 12.4451C57.8248 12.394 57.7862 12.3684 57.7475 12.3684H57.503C57.4644 12.3684 57.4258 12.4067 57.4258 12.4451V13.9527C57.4258 14.0038 57.4644 14.0294 57.503 14.0294H57.7475C57.7862 14.0294 57.8248 13.991 57.8248 13.9527V13.3139C57.8248 13.1094 57.8505 13.0072 57.8634 12.9561C57.8891 12.8922 57.9277 12.8411 57.9921 12.8028C58.0436 12.7645 58.1079 12.7389 58.1723 12.7389C58.2238 12.7389 58.2624 12.7517 58.301 12.7773C58.3396 12.8028 58.3525 12.8284 58.3653 12.8667C58.3782 12.8922 58.3911 12.9689 58.3911 13.1861V13.9527C58.3911 14.0038 58.4297 14.0294 58.4683 14.0294H58.7128C58.7514 14.0294 58.7901 13.991 58.7901 13.9527V13.3522C58.7901 13.1094 58.8158 13.0072 58.8287 12.9561C58.8544 12.8922 58.893 12.8411 58.9445 12.79C58.996 12.7517 59.0603 12.7262 59.1247 12.7262C59.1762 12.7262 59.2148 12.7389 59.2534 12.7645C59.292 12.79 59.3049 12.8156 59.3178 12.8539C59.3306 12.8795 59.3435 12.9434 59.3435 13.135V13.9527C59.3435 14.0038 59.3821 14.0294 59.4207 14.0294H59.6781C59.7167 14.0294 59.7554 13.991 59.7554 13.9527V13.135C59.7554 12.9434 59.7296 12.79 59.691 12.6878C59.6781 12.5728 59.6138 12.4834 59.5108 12.4323Z" fill="#D2AF21"/>
<path d="M21.1954 7.5011C21.0666 7.38611 20.9122 7.2839 20.7191 7.19446C20.8607 7.0667 20.9766 6.92615 21.0795 6.76006C21.2597 6.45342 21.3627 6.09568 21.3627 5.72516C21.3627 5.32908 21.2597 4.94579 21.0409 4.6136C20.8221 4.28141 20.539 4.02588 20.1657 3.87256C19.8053 3.71924 19.3291 3.64258 18.6985 3.64258H17.0768C17.0124 3.64258 16.9609 3.69368 16.9609 3.75757V11.4107C16.9609 11.4746 17.0124 11.5257 17.0768 11.5257H19.2648C20.0627 11.5257 20.7191 11.2957 21.2082 10.8358C21.6973 10.3758 21.9547 9.80088 21.9547 9.1365C21.9547 8.80431 21.8904 8.49767 21.7617 8.21659C21.633 7.94828 21.4399 7.70552 21.1954 7.5011ZM19.8568 6.249C19.7539 6.40232 19.5994 6.51731 19.4192 6.59397C19.2133 6.67062 18.8658 6.72173 18.3896 6.72173H18.2609V4.95856H18.8272C19.2776 4.95856 19.5865 5.03522 19.7667 5.17577C19.934 5.31631 20.0113 5.49518 20.0113 5.73793C20.0241 5.91681 19.9598 6.09568 19.8568 6.249ZM18.2609 8.02494H18.3896C18.9816 8.02494 19.4063 8.05049 19.638 8.1016C19.9469 8.17826 20.1914 8.3188 20.3716 8.51045C20.539 8.7021 20.6162 8.9193 20.6162 9.17483C20.6162 9.37926 20.5518 9.55813 20.436 9.737C20.3202 9.91587 20.1528 10.0436 19.9598 10.1203C19.741 10.2097 19.3806 10.2608 18.8915 10.2608H18.2737V8.02494H18.2609Z" fill="#D2AF21"/>
<path d="M25.7858 5.41602C24.8591 5.41602 24.0868 5.74821 23.4819 6.42537C22.9285 7.02586 22.6582 7.75413 22.6582 8.57183C22.6582 9.40231 22.9542 10.1306 23.5334 10.7566C24.1126 11.3827 24.8848 11.7021 25.7986 11.7021C26.7124 11.7021 27.4718 11.3827 28.0638 10.7566C28.643 10.1433 28.939 9.40231 28.939 8.57183C28.939 7.75413 28.6559 7.02586 28.1153 6.42537C27.4847 5.74821 26.6996 5.41602 25.7858 5.41602ZM25.7729 6.6809C26.2748 6.6809 26.6996 6.85977 27.0599 7.23029C27.4332 7.60081 27.6134 8.04799 27.6134 8.5846C27.6134 8.92957 27.5233 9.24899 27.3688 9.54285C27.2015 9.83671 26.9827 10.0539 26.6996 10.22C26.4164 10.3733 26.1075 10.4628 25.7729 10.4628C25.4382 10.4628 25.1294 10.3861 24.8462 10.22C24.563 10.0667 24.3442 9.83671 24.1769 9.54285C24.0096 9.24899 23.9324 8.92957 23.9324 8.5846C23.9324 8.04799 24.1126 7.61359 24.473 7.23029C24.8462 6.85977 25.2709 6.6809 25.7729 6.6809Z" fill="#D2AF21"/>
<path d="M32.315 5.41797C31.3884 5.41797 30.6161 5.75016 30.0112 6.42732C29.4578 7.02782 29.1875 7.75608 29.1875 8.57378C29.1875 9.40426 29.4835 10.1325 30.0627 10.7586C30.6419 11.3846 31.4141 11.704 32.3279 11.704C33.2417 11.704 34.0011 11.3846 34.5931 10.7586C35.1723 10.1453 35.4683 9.40426 35.4683 8.57378C35.4683 7.75608 35.1852 7.02782 34.6446 6.42732C34.014 5.75016 33.2417 5.41797 32.315 5.41797ZM32.315 6.68285C32.817 6.68285 33.2417 6.86172 33.615 7.23224C33.9882 7.60276 34.1684 8.04994 34.1684 8.58656C34.1684 8.93152 34.0783 9.25094 33.9239 9.5448C33.7566 9.83866 33.5378 10.0559 33.2546 10.222C32.9714 10.3753 32.6626 10.4647 32.3279 10.4647C31.9933 10.4647 31.6844 10.3881 31.4012 10.222C31.1181 10.0686 30.8993 9.83866 30.732 9.5448C30.5647 9.25094 30.4874 8.93152 30.4874 8.58656C30.4874 8.04994 30.6676 7.61554 31.028 7.23224C31.3755 6.86172 31.8002 6.68285 32.315 6.68285Z" fill="#D2AF21"/>
<path d="M38.1598 8.43281L41.2487 5.77529C41.2873 5.73696 41.3002 5.68585 41.2873 5.64752C41.2745 5.59641 41.223 5.57086 41.1715 5.57086H39.627C39.6013 5.57086 39.5627 5.58364 39.5498 5.59641L37.4519 7.41069V3.60327C37.4519 3.53939 37.4004 3.48828 37.3361 3.48828H36.2936C36.2292 3.48828 36.1777 3.53939 36.1777 3.60327V11.4481C36.1777 11.512 36.2292 11.5631 36.2936 11.5631H37.3361C37.4004 11.5631 37.4519 11.512 37.4519 11.4481V9.49327L39.7686 11.5375C39.7944 11.5631 39.8201 11.5631 39.8458 11.5631H41.3388C41.3903 11.5631 41.4289 11.5375 41.4547 11.4864C41.4675 11.4353 41.4547 11.3842 41.4289 11.3586L38.1598 8.43281Z" fill="#D2AF21"/>
<path d="M46.8463 5.55851H45.8166C45.7523 5.55851 45.7008 5.60962 45.7008 5.6735V6.09513C45.5335 5.95458 45.3533 5.82682 45.1731 5.73738C44.7741 5.53296 44.3108 5.41797 43.8217 5.41797C42.9723 5.41797 42.2258 5.72461 41.6208 6.33788C41.0159 6.95116 40.707 7.6922 40.707 8.53545C40.707 9.40426 41.0159 10.1581 41.608 10.7586C42.2129 11.3718 42.9465 11.6785 43.796 11.6785C44.2722 11.6785 44.7226 11.5763 45.1216 11.3846C45.3147 11.2824 45.5078 11.1674 45.6879 11.0141V11.423C45.6879 11.4868 45.7394 11.5379 45.8038 11.5379H46.8334C46.8978 11.5379 46.9493 11.4868 46.9493 11.423V5.6735C46.9621 5.60962 46.9106 5.55851 46.8463 5.55851ZM43.8603 10.4647C43.5386 10.4647 43.2297 10.3753 42.9336 10.2092C42.6505 10.0431 42.4188 9.80033 42.2515 9.50647C42.0842 9.19983 41.9941 8.88042 41.9941 8.56101C41.9941 8.22881 42.0842 7.9094 42.2515 7.60276C42.4188 7.3089 42.6505 7.06615 42.9336 6.91283C43.2168 6.74673 43.5386 6.67007 43.8732 6.67007C44.4009 6.67007 44.8385 6.84895 45.1989 7.21947C45.5592 7.58999 45.7394 8.03717 45.7394 8.58656C45.7394 8.9443 45.6622 9.27649 45.4949 9.55758C45.3404 9.83866 45.1088 10.0686 44.8127 10.222C44.5167 10.3881 44.195 10.4647 43.8603 10.4647Z" fill="#D2AF21"/>
<path d="M53.8223 5.55957H52.7798C52.7155 5.55957 52.664 5.61067 52.664 5.67456V6.08341C52.4709 5.91731 52.265 5.78955 52.0591 5.68733C51.673 5.49569 51.2354 5.40625 50.7978 5.40625C50.2572 5.40625 49.7424 5.54679 49.2533 5.82788C48.7642 6.10896 48.3781 6.49226 48.1078 6.96499C47.8375 7.43772 47.696 7.96156 47.696 8.51096C47.696 9.06035 47.8247 9.57141 48.0949 10.0314C48.3652 10.4913 48.7385 10.8618 49.2276 11.1429C49.7166 11.4112 50.2315 11.5518 50.7849 11.5518C51.2482 11.5518 51.6987 11.4496 52.1234 11.2579C52.3165 11.1685 52.4967 11.0535 52.664 10.9385C52.6383 11.2707 52.5868 11.5134 52.4967 11.6795C52.3808 11.8967 52.1878 12.0756 51.9175 12.2289C51.6343 12.3823 51.274 12.4589 50.8492 12.4589C50.4116 12.4589 50.0513 12.3823 49.7681 12.2289C49.485 12.0884 49.2533 11.8584 49.086 11.539L49.0345 11.4496C49.0088 11.4112 48.9701 11.3857 48.9315 11.3857H47.8118C47.7732 11.3857 47.7346 11.4112 47.7088 11.4368C47.6831 11.4751 47.6831 11.5134 47.696 11.5518L47.8118 11.7945C48.0177 12.2545 48.2623 12.6122 48.5197 12.855C48.7771 13.0977 49.1246 13.3022 49.5364 13.4427C49.9354 13.5833 50.3988 13.6599 50.9007 13.6599C51.5829 13.6599 52.1878 13.5066 52.6897 13.2127C53.2046 12.9061 53.5649 12.4717 53.7709 11.9223C53.9124 11.539 53.9897 10.9513 53.9897 10.1591V5.67456C53.9511 5.61067 53.8996 5.55957 53.8223 5.55957ZM52.7026 8.51096C52.7026 9.06035 52.5353 9.49475 52.2007 9.82694C51.866 10.1591 51.4155 10.3252 50.8492 10.3252C50.2829 10.3252 49.8453 10.1591 49.4978 9.82694C49.1503 9.49475 48.983 9.07312 48.983 8.56206C48.983 8.21709 49.0731 7.89768 49.2404 7.6166C49.4077 7.32274 49.6394 7.09276 49.9354 6.93944C50.2315 6.77334 50.5532 6.69668 50.9007 6.69668C51.2354 6.69668 51.5443 6.77334 51.8274 6.93944C52.1106 7.09276 52.3294 7.32273 52.4838 7.59104C52.6254 7.8338 52.7026 8.15321 52.7026 8.51096Z" fill="#D2AF21"/>
<path d="M54.7233 11.5516H55.7786C55.843 11.5516 55.8945 11.5005 55.8945 11.4366V9.44348C55.8945 8.53635 55.9331 7.93585 56.0103 7.65476C56.1133 7.3098 56.242 7.05426 56.4222 6.90095C56.5895 6.7604 56.7439 6.68374 56.9113 6.68374C56.937 6.68374 57.0142 6.69652 57.1687 6.7604L57.2974 6.81151C57.3489 6.83706 57.4132 6.81151 57.4518 6.7604L57.9924 5.90437C58.0052 5.87882 58.0181 5.84049 58.0053 5.81494C57.9924 5.77661 57.9795 5.75105 57.9409 5.73828L57.7865 5.64884C57.529 5.5083 57.2716 5.43164 57.0271 5.43164C56.7182 5.43164 56.4093 5.52108 56.1261 5.71272C56.0489 5.76383 55.9717 5.81494 55.8945 5.87882V5.68717C55.8945 5.62329 55.843 5.57218 55.7786 5.57218H54.7233C54.6589 5.57218 54.6074 5.62329 54.6074 5.68717V11.4366C54.6074 11.5005 54.6589 11.5516 54.7233 11.5516Z" fill="#D2AF21"/>
<path d="M59.151 5.00967C59.3827 5.00967 59.5886 4.92023 59.756 4.76691C59.9233 4.60082 60.0005 4.39639 60.0005 4.17919C60.0005 3.94921 59.9104 3.74479 59.756 3.57869C59.5886 3.4126 59.3827 3.33594 59.151 3.33594C58.9194 3.33594 58.7134 3.42537 58.559 3.57869C58.3917 3.74479 58.3145 3.94921 58.3145 4.17919C58.3145 4.40917 58.4046 4.61359 58.559 4.76691C58.7263 4.92023 58.9322 5.00967 59.151 5.00967Z" fill="#D2AF21"/>
<path d="M59.5102 5.58594H58.8023C58.6608 5.58594 58.5449 5.70093 58.5449 5.84147V11.3482C58.5449 11.4887 58.6608 11.6037 58.8023 11.6037H59.5102C59.6518 11.6037 59.7676 11.4887 59.7676 11.3482V5.84147C59.7676 5.70093 59.6518 5.58594 59.5102 5.58594Z" fill="#D2AF21"/>
</svg>
