<svg width="778" height="825" viewBox="0 0 778 825" fill="none" xmlns="http://www.w3.org/2000/svg">
<path d="M728.412 281.9C716.18 283.795 711.012 279.834 703.948 264.161C700.502 267.089 697.229 269.845 692.922 273.634C690.51 268.295 688.615 263.817 686.547 259.339C684.652 254.861 682.585 254 678.278 257.445C675.349 259.856 669.836 262.439 667.424 261.061C664.667 259.684 663.289 254.173 662.944 250.211C662.428 244.7 662.944 242.289 654.847 242.117C646.061 241.945 637.274 235.745 627.454 231.784C625.903 241.6 624.353 251.245 622.63 261.061C618.323 262.095 614.016 262.956 609.708 264.161C596.098 267.778 587.828 265.195 579.559 253.484C574.046 245.734 569.566 237.123 563.364 226.617C574.735 223.689 584.555 220.589 594.72 218.867C604.023 217.317 621.941 203.367 624.353 194.239C624.525 193.378 624.697 192.517 624.697 191.828C622.974 182.701 621.252 173.745 619.356 163.584C617.806 163.584 614.532 164.101 611.604 163.412C606.091 162.378 601.267 160.484 598.855 154.284C597.821 151.701 594.375 148.945 591.619 148.256C577.664 144.984 574.562 142.228 573.356 128.623C573.012 123.456 573.184 118.29 573.356 113.123C573.356 111.573 573.529 110.195 573.529 107.956C541.312 89.012 505.993 74.7176 468.435 65.9343C465.162 74.8898 459.476 79.8843 449.139 81.262C443.626 81.9509 438.285 87.8065 433.978 92.2842C425.709 101.24 418.473 110.884 410.72 120.529C399.005 115.706 394.697 106.062 390.563 95.5564C385.394 82.4676 386.945 70.2399 393.319 58.3566C393.836 57.4954 394.697 56.8066 395.731 56.1177C391.424 56.6343 386.772 56.6343 382.121 56.6343H380.915C381.604 57.151 382.121 57.6677 382.465 58.3566C383.499 59.9066 382.81 64.0399 381.432 65.4176C374.712 71.4454 367.477 76.7843 360.413 82.4676C350.593 70.5843 343.357 68.6899 327.851 73.1676C324.405 74.2009 318.548 74.8898 316.825 72.9954C310.623 66.451 306.143 70.5843 301.319 73.8565C295.462 77.8176 290.121 82.2954 283.919 85.7398C274.615 90.9064 273.754 108.473 278.061 115.19C279.267 117.084 283.574 118.634 285.814 117.945C295.634 115.534 304.42 110.884 309.761 101.929C312.001 98.1398 314.068 98.4842 318.375 98.8286C323.544 99.1731 329.746 96.9342 334.053 93.8342C343.529 86.7731 344.907 86.2565 353.177 94.5231C354.727 96.0731 356.278 98.1398 358.173 99.3453C364.375 102.79 364.203 107.268 360.93 112.606C358.69 116.223 357.139 120.184 354.9 124.834C358.518 125.695 361.619 126.384 365.065 127.073C364.548 131.034 364.375 134.995 363.342 138.612C359.724 151.528 350.765 162.034 336.465 150.323C331.641 146.362 325.439 147.567 322.51 153.078C318.031 161.862 309.934 162.551 302.353 162.206C285.125 161.345 269.447 166.34 254.458 174.09C252.735 174.951 250.495 176.501 249.117 176.156C238.608 172.712 232.233 180.634 224.48 184.767C216.9 188.901 209.147 192.862 201.222 196.306C196.226 198.545 193.297 200.784 192.952 207.328C192.091 218.867 189.162 230.234 186.922 242.462C177.447 238.328 175.724 230.406 174.69 223.862C172.106 207.328 164.353 204.573 152.466 202.334C130.585 198.201 102.158 211.634 93.0274 231.095C89.4094 238.845 89.4094 249.006 90.2708 257.789C90.96 265.539 100.436 269.5 109.394 266.573C114.735 264.85 120.248 264.678 121.454 270.189C122.143 273.806 118.525 278.456 116.114 282.417C115.08 284.139 112.496 285 110.773 286.378C105.26 290.856 104.915 295.506 110.773 299.639C114.908 302.567 115.252 304.978 114.046 309.972C108.878 330.983 119.042 347.344 140.061 352.856C148.158 354.922 153.844 351.133 159.012 345.106C162.458 340.972 165.042 334.945 172.106 336.15C174.001 336.495 176.068 336.839 177.619 337.7C187.612 342.694 197.259 348.55 207.424 353.028C216.728 357.161 225.859 360.433 232.233 369.389C234.818 373.005 239.986 375.072 244.293 376.622C262.728 383.683 276.683 395.911 286.675 412.616C293.222 423.639 299.252 435.005 305.282 446.372C308.383 452.055 312.173 455.5 318.892 457.05C333.192 460.15 346.802 466.005 357.656 476.338C368.166 486.327 369.544 496.144 361.791 508.544C358.69 513.711 353.521 517.499 350.076 522.494C345.941 528.694 341.289 535.066 339.222 542.127C334.226 558.316 325.611 572.438 314.585 584.838C309.761 590.349 301.492 594.482 294.256 595.86C281.679 598.099 274.788 606.194 268.413 615.494C263.072 623.416 256.698 630.821 252.563 639.26C246.016 652.349 233.267 657.86 222.413 665.438C205.874 676.804 193.986 691.96 188.645 710.732C186.233 719.171 190.54 729.504 191.746 738.804C192.608 745.349 193.814 751.893 194.848 758.954C175.207 751.376 162.803 737.254 153.499 720.549C149.881 714.004 149.537 705.565 147.814 697.988C146.608 692.477 146.608 686.621 144.54 681.627C138.855 668.021 140.922 654.243 142.99 640.638C144.196 632.716 144.368 625.31 143.507 617.044C142.128 605.332 145.402 593.105 146.78 581.049C147.469 575.194 148.848 569.338 149.364 563.483C149.881 557.971 147.814 553.666 144.885 548.672C141.612 542.816 141.267 534.722 141.612 527.66C141.956 523.183 142.301 520.944 138.166 518.016C122.833 507.338 108.878 493.216 102.848 476.683C95.4394 456.016 89.2371 432.766 105.604 411.411C113.185 401.422 120.593 390.744 124.9 379.033C130.758 363.189 126.967 355.956 115.597 349.239C108.361 345.106 103.709 338.906 103.02 330.467C102.331 321.856 98.3682 315.656 91.9937 310.317C88.2034 307.217 85.9637 304.117 88.548 298.606C90.7877 293.439 88.7203 289.65 82.8626 286.895C71.3195 281.556 58.9151 276.045 56.1585 262.095C54.7802 255.378 54.7802 246.767 58.0536 241.084C73.5592 213.356 93.1997 188.384 115.597 165.995C122.66 158.934 130.069 152.045 137.649 145.501C55.6417 215.25 3.43945 319.1 3.43945 435.178C3.43945 644.255 172.967 813.721 382.121 813.721C464.817 813.721 541.312 787.198 603.506 742.249L604.023 737.771C606.263 732.432 608.33 727.093 610.57 721.754C614.877 712.282 619.012 702.638 623.664 693.51C627.971 685.243 626.765 676.804 624.18 669.054C617.634 648.56 625.903 632.716 638.652 618.249C639.169 617.732 639.686 617.216 640.031 616.527C646.75 608.949 654.158 601.888 654.158 591.038C654.158 582.427 653.641 572.955 650.368 565.205C649.506 563.138 648.817 561.072 648.128 559.005C644.855 546.777 647.266 535.41 652.607 524.044C652.78 523.527 653.124 523.01 653.297 522.494C656.742 514.399 657.776 506.133 656.742 497.866C656.57 495.972 656.225 494.077 655.708 492.183C655.192 490.288 652.09 487.188 651.918 487.188C641.926 493.561 635.034 483.227 626.42 482.711C615.049 482.022 603.506 480.127 592.48 481.677C580.765 483.4 570.083 481.161 561.469 474.788C545.619 463.077 530.802 449.644 515.986 436.555C513.229 434.144 511.851 429.15 511.334 425.361C509.611 407.278 514.263 390.055 518.915 372.833C521.843 362.156 523.566 351.994 522.016 340.456C520.637 329.089 529.596 320.822 538.383 314.278C541.656 311.867 546.136 310.833 549.754 308.767C553.544 306.528 558.368 304.633 560.607 301.189C574.218 280.522 595.409 277.767 616.944 278.111C633.828 278.456 651.229 279.317 667.252 283.795C678.622 286.895 688.787 295.506 698.435 302.911C706.705 309.111 714.63 313.761 725.484 312.556C730.48 312.039 735.648 313.245 740.645 313.933C737.199 302.911 733.064 292.234 728.412 281.9ZM156.428 269.673C158.84 259.856 167.627 255.378 174.001 260.2C182.271 266.4 191.23 268.984 201.394 269.328C203.806 269.5 206.046 271.05 208.458 272.084C208.113 273.289 207.941 274.322 207.597 275.528C190.54 273.461 173.657 271.567 156.428 269.673ZM228.788 300.5C217.934 299.467 207.769 298.434 196.743 297.4C207.597 288.961 218.278 283.795 230.855 295.506C230.166 297.228 229.304 299.295 228.788 300.5ZM472.742 108.817C471.364 112.262 469.641 117.945 467.229 118.462C462.922 119.323 457.926 117.429 453.619 115.534C449.312 113.812 445.694 110.712 441.731 108.129C442.076 107.095 442.593 105.89 442.937 104.856C450.173 102.101 457.409 98.8286 464.817 96.9342C467.574 96.2453 471.881 98.312 474.293 100.551C475.327 101.929 473.776 106.234 472.742 108.817ZM552.165 173.056C550.615 170.128 549.409 167.373 547.858 164.445C554.922 161.345 558.023 156.523 555.956 148.773C555.784 148.084 561.469 144.812 561.986 145.328C572.667 155.317 586.45 161.862 591.963 177.534C594.72 185.284 591.102 187.695 587.139 190.795C578.525 197.339 568.877 193.723 566.637 183.389C565.604 179.084 565.087 174.606 564.225 168.923C559.746 170.301 556.128 171.506 552.165 173.056Z" fill="#EEEEEE"/>
<path fill-rule="evenodd" clip-rule="evenodd" d="M387.755 46.319L387.794 46.3188L389.089 46.3189C393.678 46.3189 398.485 46.3189 403.324 46.4977C428.97 47.3826 453.928 50.7429 478.016 56.4081C650.036 96.7439 778 250.999 778 435.177C778 649.951 603.852 824.035 389 824.035C174.148 824.035 0 649.951 0 435.177C0 314.418 54.9888 206.544 141.427 135.259C141.57 135.135 141.714 135.016 141.858 134.903C142.122 134.697 142.375 134.519 142.609 134.366C209.268 79.5885 294.745 46.6718 387.755 46.319ZM143.779 133.697C143.8 133.686 143.807 133.683 143.79 133.691C143.789 133.692 143.784 133.694 143.779 133.697ZM389 66.9488H387.814C299.553 67.2882 218.525 98.5634 155.382 150.576C155.239 150.699 155.096 150.817 154.951 150.93C154.69 151.134 154.439 151.311 154.207 151.463C72.5303 218.992 20.6374 320.988 20.6374 435.177C20.6374 638.557 185.545 803.405 389 803.405C592.455 803.405 757.363 638.557 757.363 435.177C757.363 260.79 636.203 114.69 473.303 76.4928L473.296 76.4912C450.529 71.1361 426.909 67.9528 402.599 67.1148L402.573 67.1139C398.144 66.9499 393.683 66.9488 389 66.9488Z" fill="#F2F2F2"/>
<path d="M568.683 0C605.663 0 635.57 30.5251 635.57 68.269C635.57 98.3816 593.134 157.988 575.756 181.088C572.118 186.038 564.843 186.038 561.206 181.088C543.828 157.988 501.392 98.3816 501.392 68.269C501.796 30.5251 531.703 0 568.683 0Z" fill="#47C409"/>
<path d="M566.989 95.3827C581.81 95.3827 593.825 83.3724 593.825 68.5569C593.825 53.7413 581.81 41.731 566.989 41.731C552.168 41.731 540.153 53.7413 540.153 68.5569C540.153 83.3724 552.168 95.3827 566.989 95.3827Z" fill="white"/>
<path fill-rule="evenodd" clip-rule="evenodd" d="M530.42 206.877C530.61 215.105 524.091 221.93 515.859 222.12C514.945 222.141 514.034 222.166 513.124 222.195C504.894 222.456 498.011 215.999 497.749 207.773C497.488 199.546 503.948 192.665 512.177 192.404C513.173 192.372 514.171 192.345 515.171 192.321C523.402 192.131 530.23 198.648 530.42 206.877ZM552.253 208.066C553.294 199.902 560.76 194.127 568.928 195.168C569.426 195.231 569.926 195.296 570.425 195.362C578.589 196.436 584.336 203.921 583.262 212.082C582.188 220.242 574.699 225.987 566.535 224.914C566.075 224.853 565.615 224.794 565.156 224.735C556.988 223.694 551.211 216.231 552.253 208.066ZM476.048 210.183C477.62 218.262 472.342 226.085 464.259 227.656C463.361 227.831 462.466 228.009 461.573 228.191C453.505 229.836 445.631 224.631 443.986 216.566C442.341 208.501 447.548 200.63 455.616 198.986C456.597 198.786 457.581 198.59 458.568 198.398C466.651 196.827 474.477 202.103 476.048 210.183ZM423.012 222.66C425.947 230.351 422.089 238.963 414.396 241.896C413.543 242.221 412.692 242.55 411.845 242.882C404.178 245.885 395.529 242.106 392.525 234.443C389.521 226.779 393.301 218.132 400.967 215.13C401.898 214.765 402.832 214.404 403.769 214.047C411.463 211.113 420.078 214.97 423.012 222.66ZM372.899 244.027C377.09 251.112 374.741 260.252 367.654 264.441C366.871 264.904 366.092 265.369 365.317 265.836C358.266 270.087 349.103 267.82 344.85 260.772C340.598 253.724 342.866 244.564 349.916 240.313C350.766 239.801 351.62 239.291 352.478 238.784C359.566 234.595 368.708 236.942 372.899 244.027ZM327.074 273.504C332.383 279.795 331.585 289.198 325.292 294.505C324.594 295.094 323.9 295.685 323.21 296.276C316.964 301.639 307.552 300.925 302.187 294.681C296.822 288.437 297.537 279.028 303.783 273.665C304.539 273.016 305.3 272.369 306.065 271.723C312.358 266.416 321.764 267.213 327.074 273.504ZM286.788 310.19C293.114 315.458 293.97 324.856 288.7 331.18C288.122 331.873 287.549 332.567 286.984 333.26C281.776 339.636 272.385 340.585 266.006 335.38C259.628 330.175 258.679 320.786 263.886 314.41C264.514 313.641 265.149 312.871 265.791 312.101C271.061 305.777 280.462 304.922 286.788 310.19ZM253.74 353.522C261.105 357.202 264.092 366.153 260.411 373.516C260.219 373.901 260.029 374.285 259.841 374.668C256.219 382.06 247.289 385.117 239.894 381.497C232.5 377.876 229.441 368.949 233.063 361.557C233.286 361.102 233.511 360.647 233.739 360.191C237.42 352.828 246.375 349.843 253.74 353.522Z" fill="#47C409"/>
<path d="M233.34 62.5928C289.221 62.5928 334.414 106.903 334.414 161.693C334.414 205.405 270.288 291.93 244.027 325.463C238.531 332.648 227.538 332.648 222.042 325.463C195.781 291.93 131.655 205.405 131.655 161.693C132.266 106.903 177.459 62.5928 233.34 62.5928Z" fill="#47C409"/>
<path d="M233.033 202.683C254.441 202.683 271.796 184.668 271.796 162.444C271.796 140.221 254.441 122.206 233.033 122.206C211.625 122.206 194.271 140.221 194.271 162.444C194.271 184.668 211.625 202.683 233.033 202.683Z" fill="white"/>
</svg>
