<svg width="35" height="35" viewBox="0 0 35 35" fill="none" xmlns="http://www.w3.org/2000/svg">
<path d="M22.2697 4.82233C23.1087 5.15627 23.7019 5.75819 24.2337 6.64062L24.4089 6.94517L25.059 8.1917L25.0804 8.22651L25.0998 8.25681L25.155 8.33229C25.4512 8.65501 25.9469 8.84997 26.274 8.84997C29.2709 8.84997 31.7186 11.2035 31.8687 14.1623L31.876 14.4505V22.7808C31.876 26.6218 28.8426 29.7562 25.0414 29.9186L24.7316 29.9252H10.2704C6.4284 29.9252 3.29484 26.8922 3.13258 23.0907L3.12598 22.7808V14.4505C3.12598 11.3578 5.63438 8.84997 8.72791 8.84997C9.0539 8.84997 9.55028 8.65473 9.84692 8.33229L9.85714 8.32024L9.86993 8.30348L9.94386 8.19009L10.5921 6.94557C11.1699 5.89544 11.7985 5.19344 12.7312 4.8222C14.4404 4.14258 20.5618 4.14258 22.2697 4.82233ZM13.5282 6.82573C13.21 6.9524 12.9219 7.2456 12.6144 7.75388L12.4813 7.98503L11.928 9.05467L11.7918 9.3011C11.6782 9.49017 11.5645 9.64978 11.4347 9.79123C10.7728 10.5106 9.82252 10.9262 8.97778 10.9958L8.72791 11.0062L8.49203 11.0142C6.77719 11.1301 5.40616 12.5008 5.29018 14.2147L5.28223 14.4505V22.7808C5.28223 25.4434 7.3691 27.6194 9.99667 27.7615L10.2704 27.7689H24.7316C27.3937 27.7689 29.5702 25.6812 29.7123 23.0544L29.7197 22.7808V14.4505C29.7197 12.628 28.3027 11.1354 26.5099 11.0142L26.274 11.0062L26.0237 10.9958C25.1777 10.9261 24.2274 10.5105 23.5664 9.79028C23.4383 9.65069 23.3252 9.49223 23.2122 9.30475L23.1851 9.25828L23.1527 9.20056L22.9858 8.88755L22.5202 7.98543C22.2058 7.41459 21.9179 7.06571 21.607 6.89038L21.4723 6.82573L21.3007 6.76871C19.8213 6.35056 14.6754 6.36957 13.5282 6.82573ZM17.5005 13.2239C20.6202 13.2239 23.1485 15.7521 23.1485 18.8718C23.1485 21.9915 20.6202 24.5197 17.5005 24.5197C14.3809 24.5197 11.8526 21.9915 11.8526 18.8718C11.8526 15.7521 14.3809 13.2239 17.5005 13.2239ZM17.5005 15.3801C15.5717 15.3801 14.0089 16.943 14.0089 18.8718C14.0089 20.8006 15.5717 22.3635 17.5005 22.3635C19.4294 22.3635 20.9922 20.8006 20.9922 18.8718C20.9922 16.943 19.4294 15.3801 17.5005 15.3801ZM25.4134 12.219C26.2073 12.219 26.8509 12.8626 26.8509 13.6565C26.8509 14.3937 26.296 15.0013 25.581 15.0844L25.4134 15.094C24.6066 15.094 23.963 14.4504 23.963 13.6565C23.963 12.9193 24.5179 12.3117 25.2328 12.2287L25.4134 12.219Z" fill="white"/>
</svg>
