<svg width="81" height="81" viewBox="0 0 81 81" fill="none" xmlns="http://www.w3.org/2000/svg">
<path d="M45.1295 2.07001C47.587 0.869524 50.4148 0.670893 53.016 1.5161C55.6171 2.36131 57.788 4.18415 59.0704 6.59987C59.8225 8.01695 60.8881 9.24373 62.186 10.1867C63.484 11.1297 64.98 11.7639 66.5602 12.0414C69.2538 12.5148 71.6581 14.0163 73.2655 16.229C74.8729 18.4417 75.5577 21.1924 75.1752 23.9004C74.9507 25.4891 75.0916 27.108 75.5874 28.6339C76.0832 30.1598 76.9207 31.5524 78.0361 32.7057C79.9373 34.6719 81 37.3 81 40.035C81 42.77 79.9373 45.3979 78.0361 47.364C76.9207 48.5173 76.0832 49.91 75.5874 51.4359C75.0916 52.9618 74.9507 54.5807 75.1752 56.1693C75.5577 58.8774 74.8729 61.628 73.2655 63.8407C71.6581 66.0534 69.2538 67.555 66.5602 68.0284C64.9799 68.306 63.4838 68.9405 62.1859 69.8837C60.8879 70.8269 59.8224 72.0538 59.0704 73.4711C57.788 75.8869 55.6171 77.7099 53.016 78.5551C50.4148 79.4003 47.587 79.2017 45.1295 78.0012C43.6881 77.2968 42.1049 76.9307 40.5006 76.9307C38.8963 76.9307 37.3132 77.2968 35.8717 78.0012C33.4143 79.2017 30.5864 79.4003 27.9853 78.5551C25.3842 77.7099 23.2133 75.8869 21.9309 73.4711C21.1787 72.0537 20.1129 70.8266 18.8148 69.8834C17.5166 68.9401 16.0202 68.3058 14.4397 68.0284C11.746 67.555 9.3419 66.0534 7.7345 63.8407C6.12711 61.628 5.44229 58.8774 5.82477 56.1693C6.04927 54.5807 5.90822 52.9618 5.41244 51.4359C4.91666 49.91 4.07925 48.5173 2.96387 47.364C1.06272 45.3979 0 42.77 0 40.035C0 37.3 1.06272 34.6719 2.96387 32.7057C4.07925 31.5524 4.91666 30.1598 5.41244 28.6339C5.90822 27.108 6.04927 25.4891 5.82477 23.9004C5.44229 21.1924 6.12711 18.4417 7.7345 16.229C9.3419 14.0163 11.746 12.5148 14.4397 12.0414C16.0201 11.7641 17.5164 11.1299 18.8146 10.1869C20.1128 9.24388 21.1786 8.0171 21.9309 6.59987C23.2133 4.18415 25.3842 2.36131 27.9853 1.5161C30.5864 0.670893 33.4143 0.869524 35.8717 2.07001C37.3132 2.77435 38.8963 3.14032 40.5006 3.14032C42.1049 3.14032 43.6881 2.77435 45.1295 2.07001Z" fill="#47C409"/>
<path d="M56.1432 28.8493C55.4769 28.1832 54.5734 27.8091 53.6314 27.8091C52.6893 27.8091 51.7858 28.1832 51.1195 28.8493L36.2233 43.7454L29.8843 37.4064C29.5545 37.0764 29.1629 36.8146 28.7319 36.636C28.3009 36.4574 27.839 36.3656 27.3725 36.3656C26.9059 36.3656 26.4439 36.4574 26.0129 36.636C25.5819 36.8146 25.1904 37.0764 24.8606 37.4064C24.1946 38.0726 23.8203 38.9761 23.8203 39.9182C23.8203 40.8603 24.1946 41.7638 24.8606 42.43L33.613 51.1838C33.9558 51.5268 34.363 51.7989 34.8109 51.9845C35.2589 52.1701 35.739 52.2656 36.2239 52.2656C36.7088 52.2656 37.189 52.1701 37.637 51.9845C38.085 51.7989 38.492 51.5268 38.8348 51.1838L41.0129 49.0057L56.1444 33.8742C56.4744 33.5442 56.736 33.1524 56.9145 32.7213C57.093 32.2902 57.1847 31.8282 57.1846 31.3616C57.1845 30.8949 57.0926 30.4329 56.9139 30.0018C56.7351 29.5708 56.4733 29.1791 56.1432 28.8493Z" fill="white"/>
</svg>
