<svg width="21" height="22" viewBox="0 0 21 22" fill="none" xmlns="http://www.w3.org/2000/svg">
<path d="M10.4975 21.2107C7.8076 21.2107 5.11897 20.1764 3.07099 18.1079C-1.02366 13.9721 -1.02366 7.24262 3.07099 3.1055C5.05464 1.10323 7.69207 0 10.4975 0C13.303 0 15.9404 1.10323 17.9241 3.10682C19.9077 5.11041 21 7.77435 21 10.608C21 13.4417 19.9077 16.1056 17.9241 18.1092C15.8761 20.1778 13.1875 21.2107 10.4975 21.2107ZM4.00045 17.1717C7.58311 20.7904 13.4133 20.7904 16.9972 17.1717C18.7328 15.4187 19.6885 13.0876 19.6885 10.608C19.6885 8.12839 18.7328 5.79728 16.9972 4.04431C15.2617 2.29133 12.9538 1.326 10.4989 1.326C8.0439 1.326 5.73598 2.29133 4.00045 4.04431C0.417801 7.66296 0.417801 13.5517 4.00045 17.1717Z" fill="#47C409"/>
<path d="M14.1103 14.9188C13.9422 14.9188 13.7742 14.8538 13.6455 14.7252L6.42247 7.42951C6.16647 7.17094 6.16647 6.75059 6.42247 6.49202C6.67846 6.23345 7.09462 6.23345 7.35062 6.49202L14.5737 13.7877C14.8297 14.0463 14.8297 14.4666 14.5737 14.7252C14.445 14.8551 14.2783 14.9188 14.1103 14.9188Z" fill="#47C409"/>
<path d="M6.88622 14.9188C6.71818 14.9188 6.55015 14.8538 6.42149 14.7252C6.16549 14.4666 6.16549 14.0463 6.42149 13.7877L13.6446 6.49202C13.9006 6.23345 14.3167 6.23345 14.5727 6.49202C14.8287 6.75059 14.8287 7.17094 14.5727 7.42951L7.34965 14.7252C7.22099 14.8551 7.05295 14.9188 6.88622 14.9188Z" fill="#47C409"/>
</svg>
