<svg width="24" height="24" viewBox="0 0 24 24" fill="none" xmlns="http://www.w3.org/2000/svg">
<path fill-rule="evenodd" clip-rule="evenodd" d="M11.2422 15.6215V16.0415C11.2422 16.4555 11.5782 16.7915 11.9922 16.7915C12.4062 16.7915 12.7422 16.4555 12.7422 16.0415V15.6215H12.7952C13.9832 15.6215 14.9502 14.6525 14.9502 13.4615C14.9502 12.2755 13.9832 11.3105 12.7952 11.3105H11.1892C10.8282 11.3105 10.5352 11.0155 10.5352 10.6505C10.5352 10.2925 10.8282 10.0015 11.1892 10.0015H13.7982C14.2122 10.0015 14.5482 9.66555 14.5482 9.25155C14.5482 8.83755 14.2122 8.50155 13.7982 8.50155H12.7422V8.06055C12.7422 7.64655 12.4062 7.31055 11.9922 7.31055C11.5782 7.31055 11.2422 7.64655 11.2422 8.06055V8.50155H11.1892C10.0012 8.50155 9.03516 9.46555 9.03516 10.6505C9.03516 11.8425 10.0012 12.8105 11.1892 12.8105H12.7952C13.1562 12.8105 13.4502 13.1025 13.4502 13.4615C13.4502 13.8255 13.1562 14.1215 12.7952 14.1215H10.1862C9.77216 14.1215 9.43616 14.4575 9.43616 14.8715C9.43616 15.2855 9.77216 15.6215 10.1862 15.6215H11.2422Z" fill="#424242"/>
<path fill-rule="evenodd" clip-rule="evenodd" d="M21.75 6.74211C21.724 6.46711 21.548 6.22811 21.293 6.12211L18.588 4.98911C18.361 4.89411 18.099 4.91811 17.89 5.05211C17.682 5.18611 17.554 5.41511 17.548 5.66311L17.479 8.64311C17.473 8.92311 17.622 9.18311 17.867 9.31811C17.98 9.38011 18.104 9.41111 18.229 9.41111C18.375 9.41111 18.519 9.36911 18.645 9.28511L19.328 8.83011C20.622 11.7661 20.085 15.3411 17.712 17.7321C15.856 19.5991 13.196 20.4331 10.606 19.9721C10.2 19.9041 9.809 20.1711 9.736 20.5791C9.663 20.9861 9.934 21.3761 10.342 21.4491C10.901 21.5501 11.463 21.5981 12.022 21.5981C14.535 21.5981 16.974 20.6031 18.776 18.7891C21.656 15.8881 22.261 11.5161 20.592 7.98811L21.419 7.43711C21.649 7.28411 21.776 7.01711 21.75 6.74211Z" fill="#424242"/>
<path fill-rule="evenodd" clip-rule="evenodd" d="M6.13244 14.8045C5.88544 14.6695 5.58744 14.6815 5.35444 14.8375L4.67244 15.2925C3.37944 12.3565 3.91544 8.78147 6.28744 6.39047C8.14244 4.52547 10.7984 3.68847 13.3934 4.15047C13.7994 4.22747 14.1914 3.95147 14.2634 3.54347C14.3364 3.13647 14.0654 2.74647 13.6574 2.67347C10.5764 2.12547 7.42444 3.11747 5.22344 5.33347C2.34444 8.23547 1.73944 12.6075 3.40844 16.1345L2.58044 16.6865C2.35044 16.8395 2.22344 17.1075 2.24944 17.3815C2.27644 17.6575 2.45144 17.8955 2.70644 18.0015L5.41144 19.1335C5.50544 19.1725 5.60344 19.1925 5.70144 19.1925C5.84444 19.1925 5.98644 19.1515 6.10944 19.0715C6.31744 18.9365 6.44544 18.7075 6.45144 18.4595L6.52044 15.4795C6.52744 15.2005 6.37744 14.9395 6.13244 14.8045Z" fill="#424242"/>
</svg>
