<svg width="36" height="36" viewBox="0 0 36 36" fill="none" xmlns="http://www.w3.org/2000/svg">
<path fill-rule="evenodd" clip-rule="evenodd" d="M23.6338 5.5C24.6995 5.50014 25.7009 5.9937 26.3496 6.8291L26.4746 7.00098L30.9014 13.4854C31.7995 14.8005 31.6767 16.5612 30.6045 17.7393L19.6455 29.7793L19.5352 29.8936C18.9876 30.4342 18.2763 30.7079 17.5606 30.7227C17.5406 30.724 17.5205 30.7275 17.5 30.7275C17.4898 30.7275 17.4798 30.725 17.4698 30.7246C16.6954 30.7165 15.9238 30.4031 15.3565 29.7793L4.39651 17.7373L4.20608 17.5107C3.37153 16.4207 3.26837 14.9339 3.94143 13.7373L4.09768 13.4854L8.51077 7.00293L8.63577 6.83105C9.28451 5.99529 10.2873 5.50008 11.3535 5.5H23.6338ZM12.7715 15.916C12.8006 16.3272 12.8646 16.721 12.9649 17.0596L13.0215 17.2344L17.2823 29.2764C17.3608 29.4988 17.4414 29.6285 17.5 29.6943C17.5438 29.6451 17.6009 29.5606 17.6592 29.4277L17.7178 29.2764L17.7188 29.2754L21.9785 17.2354C22.111 16.8606 22.1934 16.4002 22.2276 15.916H12.7715ZM4.55081 15.916C4.6233 16.2683 4.77377 16.6066 5.001 16.9033L5.13577 17.0645L16.0957 29.1064C16.1276 29.1415 16.1616 29.174 16.1953 29.2061L12.0791 17.5674L12.0098 17.3545C11.8803 16.9208 11.803 16.426 11.7715 15.916H4.55081ZM23.2315 15.916C23.1948 16.5122 23.0913 17.0876 22.9209 17.5693L18.8028 29.2061L18.9053 29.1064L29.8643 17.0654C30.1673 16.7325 30.3622 16.3339 30.4483 15.916H23.2315ZM23.0313 13.6387C23.1362 14.0328 23.2009 14.4689 23.2295 14.916H30.4444C30.3798 14.6125 30.2586 14.3173 30.0752 14.0488L25.6485 7.56445L25.5606 7.44238C25.1007 6.85004 24.39 6.50014 23.6338 6.5H21.1406L23.0313 13.6387ZM12.9346 13.8945L12.8867 14.0938C12.8301 14.3539 12.7942 14.6321 12.7735 14.916H22.2246C22.1984 14.5583 22.1482 14.2099 22.0645 13.8955L20.1065 6.5H14.8867L12.9346 13.8945ZM11.3535 6.5C10.547 6.50009 9.79098 6.90038 9.33694 7.56641L4.92385 14.0488L4.8135 14.2275C4.69052 14.4462 4.6042 14.6785 4.55374 14.916H11.7725C11.7955 14.5553 11.8397 14.2014 11.9121 13.8711L11.9678 13.6396L13.8526 6.5H11.3535Z"/>
</svg>
