<svg width="32" height="32" viewBox="0 0 32 32" stroke="currentColor" xmlns="http://www.w3.org/2000/svg">
<path d="M5.13766 15.4695L14.8788 26.1719C15.7246 27.102 17.188 27.102 18.0337 26.1719L27.7762 15.4682C28.5909 14.5744 28.6842 13.2382 28.0032 12.238L24.0802 6.47557C23.5938 5.76208 22.7844 5.33398 21.9204 5.33398H11.0052C10.1412 5.33398 9.33301 5.76078 8.84653 6.47428L4.91193 12.238C4.22956 13.2369 4.32298 14.5744 5.13766 15.4695Z"  stroke-linecap="round" stroke-linejoin="round"/>
<path d="M19.1222 5.33398L20.9449 12.238C21.2094 13.2382 21.1732 14.5744 20.8566 15.4682L17.07 26.1719C16.7417 27.102 16.1722 27.102 15.844 26.1719L12.0573 15.4695C11.7408 14.5744 11.7044 13.2369 11.9704 12.238L13.7982 5.33398"  stroke-linecap="round" stroke-linejoin="round"/>
<path d="M4.4668 13.7031H28.4441"  stroke-linecap="round" stroke-linejoin="round"/>
</svg>
