<svg width="565" height="802" viewBox="0 0 565 802" fill="none" xmlns="http://www.w3.org/2000/svg">
<path d="M497.572 591.74H66.7882C29.9021 591.74 0 621.642 0 658.528V734.667C0 771.553 29.9021 801.455 66.7882 801.455H497.572C534.458 801.455 564.36 771.553 564.36 734.667V658.528C564.36 621.642 534.458 591.74 497.572 591.74Z" fill="#F2F2F2"/>
<path opacity="0.3" d="M501.367 635.042H206.277C200.205 635.042 195.283 639.963 195.283 646.034C195.283 652.104 200.205 657.025 206.277 657.025H501.367C507.438 657.025 512.36 652.104 512.36 646.034C512.36 639.963 507.438 635.042 501.367 635.042Z" fill="#222222"/>
<path opacity="0.3" d="M418.526 675.232H206.987C200.916 675.232 195.994 680.154 195.994 686.224C195.994 692.295 200.916 697.216 206.987 697.216H418.526C424.597 697.216 429.519 692.295 429.519 686.224C429.519 680.154 424.597 675.232 418.526 675.232Z" fill="#222222"/>
<path opacity="0.15" d="M275.99 735.342H207.302C201.23 735.342 196.309 740.263 196.309 746.333C196.309 752.404 201.23 757.325 207.302 757.325H275.99C282.062 757.325 286.984 752.404 286.984 746.333C286.984 740.263 282.062 735.342 275.99 735.342Z" fill="#222222"/>
<path d="M101.555 721.055C129.978 721.055 153.019 698.089 153.019 669.759C153.019 641.428 129.978 618.462 101.555 618.462C73.1328 618.462 50.0918 641.428 50.0918 669.759C50.0918 698.089 73.1328 721.055 101.555 721.055Z" fill="#999999"/>
<path d="M93.3038 688.785C94.243 689.723 95.5163 690.25 96.8438 690.25C98.1712 690.25 99.4445 689.723 100.384 688.785L125.429 663.739C126.326 662.792 126.818 661.532 126.8 660.228C126.782 658.923 126.256 657.678 125.334 656.755C124.412 655.832 123.166 655.306 121.862 655.288C120.557 655.269 119.297 655.76 118.349 656.656L96.8438 678.159L85.3564 666.674C84.8962 666.188 84.3431 665.799 83.7299 665.53C83.1168 665.261 82.4557 665.118 81.7863 665.109C81.1168 665.1 80.4523 665.225 79.832 665.477C79.2118 665.729 78.6487 666.103 78.1754 666.576C77.7021 667.05 77.3281 667.614 77.0764 668.234C76.8246 668.854 76.7 669.519 76.7095 670.188C76.719 670.858 76.8626 671.519 77.1318 672.132C77.401 672.745 77.7899 673.297 78.2765 673.757L93.3038 688.785Z" fill="white"/>
<path d="M497.572 347.716H66.7882C29.9021 347.716 0 377.618 0 414.504V490.642C0 527.529 29.9021 557.431 66.7882 557.431H497.572C534.458 557.431 564.36 527.529 564.36 490.642V414.504C564.36 377.618 534.458 347.716 497.572 347.716Z" fill="#F2F2F2"/>
<path opacity="0.3" d="M501.367 391.076H206.277C200.205 391.076 195.283 395.997 195.283 402.068C195.283 408.138 200.205 413.059 206.277 413.059H501.367C507.438 413.059 512.36 408.138 512.36 402.068C512.36 395.997 507.438 391.076 501.367 391.076Z" fill="#222222"/>
<path opacity="0.3" d="M418.526 431.182H206.987C200.916 431.182 195.994 436.103 195.994 442.173C195.994 448.244 200.916 453.165 206.987 453.165H418.526C424.597 453.165 429.519 448.244 429.519 442.173C429.519 436.103 424.597 431.182 418.526 431.182Z" fill="#222222"/>
<path opacity="0.15" d="M275.99 491.343H207.302C201.23 491.343 196.309 496.264 196.309 502.334C196.309 508.405 201.23 513.326 207.302 513.326H275.99C282.062 513.326 286.984 508.405 286.984 502.334C286.984 496.264 282.062 491.343 275.99 491.343Z" fill="#222222"/>
<path d="M101.555 476.985C129.978 476.985 153.019 454.019 153.019 425.688C153.019 397.358 129.978 374.392 101.555 374.392C73.1328 374.392 50.0918 397.358 50.0918 425.688C50.0918 454.019 73.1328 476.985 101.555 476.985Z" fill="#999999"/>
<path d="M93.3026 444.727C94.2418 445.665 95.5151 446.192 96.8426 446.192C98.17 446.192 99.4433 445.665 100.383 444.727L125.428 419.682C126.325 418.734 126.816 417.474 126.799 416.17C126.781 414.866 126.255 413.62 125.333 412.698C124.411 411.775 123.165 411.248 121.86 411.23C120.556 411.212 119.296 411.703 118.348 412.599L96.8426 434.101L85.3552 422.617C84.4074 421.721 83.1472 421.23 81.8429 421.248C80.5387 421.267 79.2928 421.793 78.3706 422.716C77.4485 423.638 76.9226 424.884 76.9048 426.188C76.8869 427.493 77.3787 428.752 78.2753 429.7L93.3026 444.727Z" fill="white"/>
<path fill-rule="evenodd" clip-rule="evenodd" d="M48.2747 0.326189L519.412 67.4048C544.247 71.2151 564.353 88.6168 564.353 106.242V223.983C564.353 241.608 544.247 258.983 519.412 262.763L51.6002 312.561C26.765 315.743 0 294.845 0 261.802V51.0351C0 17.985 23.4395 -2.893 48.2747 0.326189Z" fill="#F2F2F2"/>
<path opacity="0.3" fill-rule="evenodd" clip-rule="evenodd" d="M206.268 96.4466L501.371 116.967C507.449 117.411 512.358 121.559 512.358 126.231C512.358 130.903 507.449 134.462 501.371 134.175L206.268 120.934C203.149 120.59 200.277 119.071 198.237 116.686C196.196 114.302 195.139 111.23 195.281 108.094C195.17 106.592 195.373 105.084 195.877 103.664C196.381 102.245 197.176 100.946 198.209 99.8504C199.243 98.7547 200.493 97.8863 201.88 97.3002C203.268 96.7142 204.762 96.4235 206.268 96.4466Z" fill="#222222"/>
<path opacity="0.3" fill-rule="evenodd" clip-rule="evenodd" d="M206.978 141.188L418.529 146.317C421.271 146.221 423.944 147.188 425.991 149.015C428.038 150.843 429.3 153.389 429.516 156.125C429.311 158.841 428.042 161.367 425.985 163.153C423.927 164.938 421.247 165.839 418.529 165.659H206.978C203.886 165.467 200.996 164.06 198.937 161.745C196.879 159.43 195.82 156.396 195.991 153.303C195.896 151.781 196.106 150.256 196.611 148.817C197.115 147.378 197.903 146.055 198.927 144.926C199.951 143.797 201.191 142.884 202.574 142.242C203.956 141.6 205.454 141.241 206.978 141.188Z" fill="#222222"/>
<path opacity="0.15" fill-rule="evenodd" clip-rule="evenodd" d="M207.291 208.206L275.983 205.375C277.428 205.321 278.867 205.563 280.215 206.087C281.562 206.61 282.788 207.404 283.817 208.419C284.846 209.434 285.657 210.649 286.199 211.989C286.741 213.329 287.003 214.766 286.969 216.211C286.969 219.224 285.842 222.129 283.809 224.354C281.776 226.578 278.985 227.962 275.983 228.233L207.291 232.691C205.785 232.711 204.29 232.417 202.903 231.829C201.515 231.24 200.265 230.37 199.232 229.273C198.199 228.175 197.405 226.876 196.901 225.455C196.397 224.035 196.194 222.526 196.305 221.023C196.161 217.89 197.218 214.82 199.259 212.439C201.3 210.057 204.173 208.544 207.291 208.206Z" fill="#222222"/>
<path fill-rule="evenodd" clip-rule="evenodd" d="M107.227 187.009C139.489 186.378 165.666 160.831 165.666 129.962C165.666 99.0925 139.489 72.3506 107.227 70.2601C74.9647 68.1696 48.7871 93.7595 48.7871 127.341C48.7871 160.922 74.9681 187.624 107.227 187.009Z" fill="#47C409"/>
<path d="M107.466 162.628C42.8489 127.491 89.5672 83.8178 107.466 113.228C125.366 83.7944 172.084 127.474 107.466 162.628Z" fill="white"/>
</svg>
