<svg width="34" height="34" viewBox="0 0 34 34" fill="none" xmlns="http://www.w3.org/2000/svg">
<path fill-rule="evenodd" clip-rule="evenodd" d="M5.37695 13.8644C5.37695 13.4938 5.67739 13.1934 6.04799 13.1934H27.577C27.9476 13.1934 28.2481 13.4938 28.2481 13.8644C28.2481 14.235 27.9476 14.5354 27.577 14.5354H6.04799C5.67739 14.5354 5.37695 14.235 5.37695 13.8644Z" fill="#999999"/>
<path fill-rule="evenodd" clip-rule="evenodd" d="M21.6906 4.25C22.0612 4.25 22.3616 4.55044 22.3616 4.92104V8.89594C22.3616 9.26655 22.0612 9.56699 21.6906 9.56699C21.32 9.56699 21.0195 9.26655 21.0195 8.89594V4.92104C21.0195 4.55044 21.32 4.25 21.6906 4.25Z" fill="#999999"/>
<path fill-rule="evenodd" clip-rule="evenodd" d="M11.9308 4.25C12.3014 4.25 12.6018 4.55044 12.6018 4.92104V8.89594C12.6018 9.26655 12.3014 9.56699 11.9308 9.56699C11.5602 9.56699 11.2598 9.26655 11.2598 8.89594V4.92104C11.2598 4.55044 11.5602 4.25 11.9308 4.25Z" fill="#999999"/>
<path fill-rule="evenodd" clip-rule="evenodd" d="M7.0232 7.78466C8.17785 6.68709 9.8025 6.1582 11.6973 6.1582H21.9244C23.8239 6.1582 25.4492 6.6868 26.6018 7.78527C27.7594 8.88855 28.353 10.4837 28.3476 12.4374C28.3476 12.4377 28.3476 12.438 28.3476 12.4383L28.3476 23.4601C28.3476 25.4143 27.7512 27.0117 26.593 28.1172C25.4396 29.2183 23.8145 29.75 21.914 29.75H11.6973C9.79848 29.75 8.17238 29.2074 7.01851 28.0891C5.8613 26.9675 5.26367 25.3489 5.26367 23.3687V12.4364C5.26367 10.4818 5.86336 8.88717 7.0232 7.78466ZM7.94785 8.75739C7.11339 9.55061 6.60576 10.7596 6.60576 12.4364V23.3687C6.60576 25.0775 7.11546 26.314 7.95255 27.1254C8.79298 27.9399 10.0482 28.408 11.6973 28.408H21.914C23.5719 28.408 24.828 27.9467 25.6663 27.1464C26.4999 26.3508 27.0056 25.1386 27.0056 23.4601V12.4364L27.0056 12.4345C27.0103 10.7572 26.5071 9.54905 25.6758 8.75679C24.8393 7.95953 23.5834 7.50029 21.9244 7.50029H11.6973C10.0441 7.50029 8.78751 7.95925 7.94785 8.75739Z" fill="#999999"/>
<path d="M17.0019 17C17.2025 17.0004 17.3993 17.0584 17.5706 17.1679C17.7419 17.2773 17.8813 17.4338 17.9734 17.6205V17.6316L18.6938 19.1443L20.3064 19.3924C20.5084 19.4218 20.6984 19.51 20.8548 19.6472C21.0111 19.7843 21.1274 19.9647 21.1905 20.1678C21.2535 20.3709 21.2607 20.5885 21.2112 20.7957C21.1617 21.0029 21.0576 21.1913 20.9107 21.3394L19.7483 22.5145L20.0232 24.1723V24.181C20.0535 24.3898 20.0279 24.6034 19.9493 24.7979C19.8706 24.9925 19.7421 25.1604 19.5778 25.283C19.4136 25.4056 19.2201 25.4782 19.0189 25.4926C18.8177 25.5071 18.6166 25.4628 18.4379 25.3648L17.0007 24.5818L15.5564 25.3685C15.3768 25.467 15.1746 25.5112 14.9724 25.4962C14.7703 25.4812 14.576 25.4075 14.4115 25.2835C14.247 25.1595 14.1187 24.99 14.0409 24.794C13.9631 24.598 13.9389 24.3831 13.9711 24.1735V24.1649L14.246 22.507L13.0825 21.3332C12.9354 21.1848 12.8313 20.9959 12.7821 20.7884C12.7328 20.5808 12.7404 20.3629 12.804 20.1597C12.8676 19.9565 12.9845 19.7761 13.1415 19.6393C13.2985 19.5025 13.4891 19.4148 13.6915 19.3862L15.3016 19.1381L16.0232 17.6242V17.6168C16.1161 17.4294 16.2567 17.2726 16.4295 17.1638C16.6022 17.0549 16.8003 16.9983 17.0019 17ZM19.9498 20.5849L18.4817 20.3628C18.3074 20.3363 18.1419 20.266 17.9991 20.158C17.8563 20.0499 17.7406 19.9074 17.6618 19.7424L17.0007 18.3576L16.3396 19.7436C16.2604 19.909 16.1441 20.0518 16.0007 20.1599C15.8573 20.2679 15.691 20.338 15.5161 20.3641L14.054 20.5862L15.1121 21.6533C15.2408 21.7819 15.3371 21.942 15.3923 22.1191C15.4476 22.2962 15.46 22.485 15.4284 22.6684L15.1725 24.1785L16.4948 23.4588C16.6517 23.3751 16.8252 23.3315 17.0013 23.3315C17.1774 23.3315 17.3509 23.3751 17.5078 23.4588L18.8277 24.1773L18.5765 22.6634C18.5462 22.4804 18.5591 22.2924 18.6143 22.1158C18.6694 21.9393 18.7651 21.7796 18.8929 21.6508L19.9498 20.5849Z" fill="#999999"/>
</svg>
