<svg viewBox="0 0 30 30" fill="none" xmlns="http://www.w3.org/2000/svg">
<path d="M28.5845 21.3495C28.1289 20.6433 27.2159 20.458 26.5392 20.9163L26.1828 21.1036L24.3374 19.632C22.4979 18.1651 20.2719 17.3666 18.01 17.2589C18.1181 16.6708 18.4129 15.8831 19.1678 15.1279C19.3909 15.1895 20.213 15.2097 20.4699 15.2097C21.9751 15.2097 23.3077 14.9161 24.4427 14.3328C24.6586 14.2218 24.7437 13.9569 24.6328 13.7411C24.5217 13.525 24.2567 13.4401 24.041 13.5511C22.9373 14.1182 21.6078 14.3765 20.0825 14.3232C22.8366 12.023 25.9204 10.1987 27.2908 9.42998C27.0548 10.2313 26.5656 11.4175 25.5845 12.4157C25.4144 12.5888 25.4169 12.8671 25.5899 13.0372C25.7629 13.2071 26.0411 13.2049 26.2114 13.0317C27.6783 11.5391 28.1687 9.68627 28.3114 8.959C28.4033 8.49119 28.0032 8.07699 27.5164 8.08326C23.2081 8.16547 19.1408 10.0077 18.6007 14.3294C18.5954 14.3719 18.5946 14.4143 18.5971 14.4563C18.3304 14.7163 18.1092 14.9808 17.9263 15.2434V11.5874C19.829 9.85525 20.4294 7.56927 19.9594 5.00726C19.5644 2.85418 18.4977 1.00818 18.0574 0.314548C18.0574 0.314489 18.0574 0.314489 18.0574 0.314489C17.7987 -0.0931478 17.1906 -0.116351 16.9172 0.314489C16.4769 1.00818 15.4102 2.85412 15.0152 5.00726C14.5464 7.56283 15.1414 9.85103 17.0473 11.5866V15.1691C16.8751 14.9309 16.6709 14.6918 16.4293 14.4563C16.4319 14.4143 16.4311 14.3719 16.4258 14.3294C15.8865 10.0143 11.8167 8.16535 7.51002 8.0832C7.01877 8.07845 6.62367 8.49371 6.71502 8.95888C7.40021 12.4508 10.0414 15.2106 14.539 15.2106C14.7975 15.2106 15.6367 15.189 15.8587 15.1278C16.6151 15.8836 16.9104 16.6688 17.0183 17.2561C15.2781 17.3287 13.547 17.8107 11.9841 18.7133C11.8069 18.6503 11.6459 18.597 11.5113 18.5567C10.1974 18.1631 8.73662 18.3342 7.50334 19.0258L4.34566 20.7963C3.95279 20.3964 3.32853 20.2949 2.81935 20.589L1.79555 21.1801C1.19408 21.5274 0.987245 22.2993 1.33453 22.9009L5.06953 29.3698C5.41699 29.9716 6.18615 30.1797 6.79031 29.8309L7.81406 29.2399C8.40592 28.8981 8.61445 28.1455 8.29013 27.5485L9.06082 26.8648C9.28453 26.6664 9.60023 26.6001 9.88471 26.6916L13.4361 27.8331C13.8785 28.0045 14.3685 28.0754 14.8579 28.0254L21.9531 27.2973C22.4664 27.2447 22.9654 27.0602 23.3964 26.7638C28.6127 23.1733 28.2998 23.396 28.3454 23.3533C28.8901 22.8436 28.9929 21.982 28.5845 21.3495ZM26.1695 9.05908C24.6103 9.96675 22.0273 11.5755 19.6541 13.5368C20.5753 10.2649 23.9944 9.32269 26.1695 9.05908ZM15.3739 13.538C13.0035 11.5788 10.4235 9.97132 8.86324 9.06277C11.7937 9.42629 14.5729 10.6814 15.3739 13.538ZM7.7342 9.42927C9.10394 10.1975 12.1892 12.0225 14.9443 14.3237C9.88705 14.5003 8.24631 11.1852 7.7342 9.42927ZM19.0949 5.16593C19.4716 7.21923 19.0781 8.94916 17.9263 10.3234V1.85797C18.3613 2.70523 18.8589 3.87904 19.0949 5.16593ZM15.8797 5.16593C16.1157 3.87986 16.6127 2.70681 17.0474 1.85978V10.3222C15.8963 8.94822 15.5031 7.21871 15.8797 5.16593ZM23.7895 20.3193L25.3332 21.5503L23.4016 22.5656C22.7681 22.8987 22.0969 23.1084 21.4007 23.1915L21.4111 23.0201C21.4124 22.9975 21.4121 22.9749 21.4099 22.9523C21.3138 21.9337 20.5682 21.1211 19.5967 20.9762C19.5928 20.9756 19.5888 20.9751 19.5848 20.9746L16.058 20.5466C14.9407 20.3782 14.7887 19.8886 13.0587 19.1381C16.5311 17.4519 20.7382 17.8861 23.7895 20.3193ZM27.7653 22.6915L22.8982 26.0397C22.5884 26.2529 22.2306 26.3854 21.8635 26.423L14.7683 27.1511C14.2832 27.2009 13.9826 27.0859 13.7177 27.0005L10.1536 25.8549C9.57463 25.6689 8.93238 25.8039 8.47758 26.2074L7.84283 26.7704L6.42082 24.3075C6.29947 24.0972 6.03058 24.0254 5.82053 24.1466C5.61035 24.268 5.53834 24.5367 5.65969 24.7469C5.90349 25.1692 7.01795 27.0995 7.51394 27.9586C7.61889 28.1404 7.55637 28.3737 7.37455 28.4787L6.3508 29.0698C6.16816 29.1751 5.93572 29.1125 5.8306 28.9304L2.09584 22.4615C1.9909 22.2797 2.05336 22.0463 2.23523 21.9413L3.25898 21.3503C3.44203 21.2446 3.67435 21.308 3.77918 21.4897L4.63031 22.9639C4.75172 23.1741 5.02049 23.246 5.2306 23.1247C5.44078 23.0034 5.51279 22.7346 5.39144 22.5245L4.8215 21.5373L7.93336 19.7925C8.96015 19.2167 10.1725 19.0733 11.2593 19.3987C13.9875 20.2157 14.3154 21.1752 15.934 21.4166C15.938 21.4171 15.942 21.4177 15.9459 21.4181L19.4726 21.8462C20.0307 21.9321 20.462 22.4048 20.5316 23.0031L20.5164 23.2544L16.0333 23.5472C15.7911 23.5631 15.6076 23.7722 15.6234 24.0144C15.6386 24.2469 15.8319 24.4252 16.0615 24.4252C16.0711 24.4252 16.0808 24.4249 16.0906 24.4243C20.8353 23.9956 21.8857 24.3554 23.8106 23.3435C27.1658 21.5784 26.9769 21.683 27.0213 21.6515C27.2927 21.4592 27.6569 21.5327 27.8462 21.826C28.0222 22.0988 27.9863 22.4656 27.7653 22.6915Z" fill="white"/>
</svg>
