<svg width="24" height="24" viewBox="0 0 24 24" fill="none" xmlns="http://www.w3.org/2000/svg">
<g clip-path="url(#clip0_8289_6814)">
<path d="M22.8674 17.0796C22.5029 16.5146 21.7725 16.3664 21.2312 16.733L20.9461 16.8829L19.4698 15.7056C17.9982 14.5321 16.2173 13.8932 14.4078 13.8071C14.4943 13.3367 14.7301 12.7065 15.3341 12.1023C15.5125 12.1516 16.1702 12.1678 16.3757 12.1678C17.5799 12.1678 18.6459 11.9328 19.554 11.4662C19.7267 11.3775 19.7947 11.1655 19.706 10.9929C19.6172 10.82 19.4052 10.7521 19.2326 10.8408C18.3496 11.2946 17.286 11.5012 16.0658 11.4586C18.2691 9.61843 20.7361 8.15893 21.8324 7.54398C21.6437 8.18504 21.2523 9.13398 20.4674 9.93259C20.3313 10.0711 20.3333 10.2937 20.4718 10.4297C20.6101 10.5657 20.8327 10.564 20.9689 10.4254C22.1425 9.23125 22.5348 7.74901 22.649 7.1672C22.7224 6.79295 22.4024 6.46159 22.013 6.46661C18.5663 6.53237 15.3124 8.00617 14.8804 11.4635C14.8761 11.4975 14.8755 11.5314 14.8775 11.5651C14.6641 11.773 14.4872 11.9846 14.3408 12.1947V9.26992C15.863 7.8842 16.3433 6.05542 15.9674 4.00581C15.6513 2.28334 14.798 0.806544 14.4457 0.251638C14.4457 0.251591 14.4457 0.251591 14.4457 0.251591C14.2387 -0.0745182 13.7523 -0.0930808 13.5336 0.251591C13.1813 0.806544 12.328 2.28329 12.0119 4.00581C11.6369 6.05026 12.113 7.88083 13.6377 9.26931V12.1352C13.4999 11.9447 13.3365 11.7535 13.1433 11.5651C13.1453 11.5314 13.1447 11.4975 13.1404 11.4635C12.709 8.01142 9.45318 6.53228 6.00782 6.46656C5.61482 6.46276 5.29874 6.79497 5.37182 7.16711C5.91998 9.96062 8.03291 12.1685 11.631 12.1685C11.8378 12.1685 12.5091 12.1512 12.6868 12.1022C13.2919 12.7069 13.5281 13.335 13.6144 13.8048C12.2223 13.8629 10.8374 14.2486 9.58705 14.9707C9.4453 14.9203 9.31649 14.8776 9.20882 14.8454C8.15769 14.5305 6.9891 14.6674 6.00248 15.2206L3.47634 16.637C3.16204 16.3171 2.66263 16.2359 2.25529 16.4712L1.43624 16.9441C0.955069 17.2219 0.789601 17.8395 1.06743 18.3207L4.05543 23.4959C4.3334 23.9773 4.94873 24.1437 5.43205 23.8647L6.25105 23.3919C6.72454 23.1185 6.89137 22.5164 6.63191 22.0388L7.24846 21.4919C7.42743 21.3332 7.67999 21.28 7.90757 21.3533L10.7487 22.2665C11.1026 22.4036 11.4946 22.4604 11.8861 22.4203L17.5623 21.8379C17.9729 21.7958 18.3721 21.6482 18.7169 21.411C22.89 18.5386 22.6396 18.7168 22.6761 18.6826C23.1118 18.2748 23.1941 17.5856 22.8674 17.0796ZM20.9354 7.24726C19.688 7.9734 17.6216 9.2604 15.7231 10.8294C16.46 8.21195 19.1954 7.45815 20.9354 7.24726ZM12.299 10.8304C10.4026 9.26307 8.33863 7.97706 7.0904 7.25022C9.4348 7.54103 11.6581 8.54509 12.299 10.8304ZM6.18716 7.54342C7.28296 8.158 9.75116 9.61801 11.9553 11.4589C7.90944 11.6002 6.59685 8.94812 6.18716 7.54342ZM15.2758 4.13275C15.5771 5.77539 15.2623 7.15933 14.3408 8.25868V1.48637C14.6888 2.16418 15.0869 3.10323 15.2758 4.13275ZM12.7036 4.13275C12.8924 3.10389 13.2899 2.16545 13.6378 1.48783V8.25779C12.7169 7.15858 12.4023 5.77497 12.7036 4.13275ZM19.0314 16.2554L20.2663 17.2402L18.7211 18.0525C18.2143 18.319 17.6774 18.4867 17.1204 18.5532L17.1287 18.4161C17.1298 18.398 17.1295 18.3799 17.1277 18.3618C17.0508 17.5469 16.4544 16.8969 15.6772 16.781C15.6741 16.7805 15.6709 16.78 15.6677 16.7797L12.8462 16.4372C11.9524 16.3026 11.8308 15.9108 10.4468 15.3105C13.2247 13.9615 16.5904 14.3088 19.0314 16.2554ZM22.2121 18.1532L18.3184 20.8318C18.0705 21.0023 17.7843 21.1083 17.4906 21.1384L11.8144 21.7209C11.4263 21.7607 11.1859 21.6687 10.974 21.6004L8.12268 20.6839C7.65951 20.5352 7.14571 20.6431 6.78187 20.9659L6.27407 21.4164L5.13646 19.446C5.03938 19.2778 4.82427 19.2203 4.65623 19.3173C4.48808 19.4144 4.43048 19.6294 4.52755 19.7975C4.7226 20.1354 5.61416 21.6796 6.01096 22.3668C6.09491 22.5123 6.0449 22.699 5.89944 22.783L5.08044 23.2558C4.93433 23.3401 4.74838 23.29 4.66429 23.1443L1.67648 17.9692C1.59252 17.8238 1.64249 17.6371 1.78799 17.5531L2.60699 17.0802C2.75343 16.9957 2.93929 17.0464 3.02315 17.1917L3.70405 18.3711C3.80118 18.5393 4.01619 18.5968 4.18429 18.4998C4.35243 18.4027 4.41004 18.1877 4.31296 18.0196L3.85701 17.2299L6.34649 15.834C7.16793 15.3733 8.13777 15.2586 9.00721 15.519C11.1898 16.1725 11.4522 16.9401 12.747 17.1332C12.7502 17.1337 12.7534 17.1342 12.7566 17.1345L15.5779 17.4769C16.0244 17.5457 16.3694 17.9238 16.4251 18.4025L16.4129 18.6035L12.8264 18.8378C12.6327 18.8505 12.4859 19.0178 12.4985 19.2115C12.5107 19.3975 12.6653 19.5402 12.849 19.5402C12.8567 19.5402 12.8645 19.54 12.8723 19.5394C16.668 19.1965 17.5084 19.4843 19.0483 18.6748C21.7324 17.2627 21.5813 17.3464 21.6169 17.3212C21.834 17.1674 22.1253 17.2262 22.2768 17.4608C22.4176 17.6791 22.3889 17.9725 22.2121 18.1532Z" fill="white"/>
</g>
<defs>
<clipPath id="clip0_8289_6814">
<rect width="24" height="24" fill="white"/>
</clipPath>
</defs>
</svg>
