<svg width="24" height="24" viewBox="0 0 24 24" fill="none" xmlns="http://www.w3.org/2000/svg">
<g clip-path="url(#clip0_7311_6529)">
<path d="M9.78486 21.993V11.9088H7V8.66364H9.78486V6.27903C9.72816 5.7133 9.79588 5.14202 9.98327 4.60522C10.1706 4.06843 10.4732 3.57911 10.8696 3.17156C11.266 2.76401 11.7468 2.4481 12.2782 2.24596C12.8096 2.04382 13.3788 1.96034 13.9459 2.00138C14.7797 1.9974 15.6131 2.03953 16.4423 2.12758V5.02302H14.7416C13.4002 5.02302 13.137 5.66124 13.137 6.59754V8.66364H16.3522L15.9315 11.9088H13.1358V21.993C13.1358 21.993 9.70913 22.0026 9.78486 21.993Z" fill="#4267B2"/>
</g>
<defs>
<clipPath id="clip0_7311_6529">
<rect width="9.44231" height="20" fill="white" transform="translate(7 2)"/>
</clipPath>
</defs>
</svg>
