<svg width="24" height="24" viewBox="0 0 24 24" fill="none" xmlns="http://www.w3.org/2000/svg">
<path d="M21.2455 10.2617H13.0875C12.9146 10.2617 12.7488 10.3304 12.6265 10.4527C12.5042 10.575 12.4355 10.7408 12.4355 10.9137V13.5197C12.4355 13.6926 12.5042 13.8585 12.6265 13.9807C12.7488 14.103 12.9146 14.1717 13.0875 14.1717H17.6815C17.1791 15.4733 16.2478 16.5647 15.0415 17.2657L17.0005 20.6567C18.5216 19.8016 19.7869 18.5561 20.6658 17.0487C21.5448 15.5413 22.0055 13.8266 22.0005 12.0817C22.005 11.6521 21.9675 11.2231 21.8885 10.8007C21.8614 10.6498 21.7822 10.5132 21.6647 10.4147C21.5472 10.3163 21.3989 10.2621 21.2455 10.2617Z" fill="#167EE6"/>
<path d="M12.0007 18.087C10.9331 18.0857 9.88454 17.8036 8.9604 17.269C8.03626 16.7343 7.26903 15.9659 6.73573 15.041L3.34473 16.994C4.00018 18.1319 4.8735 19.1295 5.91475 19.9296C6.95599 20.7297 8.14475 21.3168 9.41304 21.6572C10.6813 21.9975 12.0043 22.0846 13.3062 21.9133C14.6082 21.7421 15.8636 21.3158 17.0007 20.659L15.0417 17.268C14.1183 17.8051 13.069 18.0877 12.0007 18.087Z" fill="#12B347"/>
<path d="M17 20.6615L15.041 17.2705C14.1173 17.8065 13.068 18.0881 12 18.0865V21.9995C13.7553 22.0008 15.4799 21.5393 17 20.6615Z" fill="#0F993E"/>
<path d="M5.91329 12.0009C5.91357 10.9323 6.19721 9.883 6.73529 8.95985L3.34429 7.00586C2.46376 8.52345 2 10.2468 2 12.0014C2 13.7559 2.46376 15.4793 3.34429 16.9969L6.73529 15.0429C6.19704 14.1194 5.9134 13.0697 5.91329 12.0009Z" fill="#FFD500"/>
<path d="M12.0007 5.91349C13.4109 5.91208 14.7774 6.40259 15.8647 7.30049C15.9891 7.40393 16.1476 7.45725 16.3093 7.45004C16.4709 7.44283 16.624 7.37559 16.7387 7.26149L18.5847 5.41549C18.6483 5.35144 18.698 5.27499 18.7307 5.1909C18.7634 5.10681 18.7785 5.01688 18.7749 4.92672C18.7713 4.83655 18.7492 4.74809 18.71 4.66685C18.6707 4.5856 18.6151 4.51331 18.5467 4.45449C17.4355 3.48645 16.1237 2.77658 14.7055 2.37589C13.2873 1.9752 11.7979 1.89363 10.3444 2.13706C8.89092 2.38049 7.50941 2.94286 6.29914 3.78376C5.08887 4.62467 4.07989 5.72322 3.34473 7.00049L6.73373 8.95949C7.2672 8.03427 8.03474 7.26573 8.95927 6.73106C9.88379 6.19639 10.9327 5.91443 12.0007 5.91349Z" fill="#FF4B26"/>
<path d="M15.865 7.3C15.9894 7.40344 16.1479 7.45676 16.3095 7.44955C16.4712 7.44234 16.6243 7.37511 16.739 7.261L18.585 5.415C18.6486 5.35096 18.6982 5.2745 18.731 5.19041C18.7637 5.10632 18.7787 5.01639 18.7752 4.92623C18.7716 4.83607 18.7495 4.74761 18.7102 4.66636C18.671 4.58511 18.6154 4.51283 18.547 4.454C16.7324 2.87251 14.407 2.00087 12 2V5.913C13.4105 5.91136 14.7774 6.40188 15.865 7.3Z" fill="#D93F21"/>
</svg>
