<svg width="30" height="30" viewBox="0 0 30 30" fill="none" xmlns="http://www.w3.org/2000/svg">
<path d="M15 28.3636C14.5674 28.3636 14.1488 28.309 13.8 28.1861C8.46977 26.3966 0 20.0447 0 10.6604C0 5.87942 3.94884 2 8.80465 2C11.1628 2 13.3674 2.90155 15 4.51342C16.6326 2.90155 18.8372 2 21.1953 2C26.0512 2 30 5.89308 30 10.6604C30 20.0584 21.5302 26.3966 16.2 28.1861C15.8512 28.309 15.4326 28.3636 15 28.3636ZM8.80465 4.04899C5.10698 4.04899 2.09302 7.01319 2.09302 10.6604C2.09302 19.9901 11.2605 25.1809 14.4837 26.26C14.7349 26.342 15.2791 26.342 15.5302 26.26C18.7395 25.1809 27.9209 20.0038 27.9209 10.6604C27.9209 7.01319 24.907 4.04899 21.2093 4.04899C19.0884 4.04899 17.1209 5.01884 15.8512 6.69901C15.4605 7.21809 14.5674 7.21809 14.1767 6.69901C12.8791 5.00518 10.9256 4.04899 8.80465 4.04899Z" fill="#434343"/>
</svg>
