<svg width="24" height="25" viewBox="0 0 24 25" fill="none" xmlns="http://www.w3.org/2000/svg">
<path d="M12 22.4543C11.69 22.4543 11.39 22.4143 11.14 22.3243C7.32 21.0143 1.25 16.3643 1.25 9.4943C1.25 5.9943 4.08 3.1543 7.56 3.1543C9.25 3.1543 10.83 3.8143 12 4.9943C13.17 3.8143 14.75 3.1543 16.44 3.1543C19.92 3.1543 22.75 6.0043 22.75 9.4943C22.75 16.3743 16.68 21.0143 12.86 22.3243C12.61 22.4143 12.31 22.4543 12 22.4543ZM7.56 4.6543C4.91 4.6543 2.75 6.8243 2.75 9.4943C2.75 16.3243 9.32 20.1243 11.63 20.9143C11.81 20.9743 12.2 20.9743 12.38 20.9143C14.68 20.1243 21.26 16.3343 21.26 9.4943C21.26 6.8243 19.1 4.6543 16.45 4.6543C14.93 4.6543 13.52 5.3643 12.61 6.5943C12.33 6.9743 11.69 6.9743 11.41 6.5943C10.48 5.3543 9.08 4.6543 7.56 4.6543Z" fill="white"/>
<path d="M16.44 3.80469C14.63 3.80469 13.01 4.68469 12 6.03469C10.99 4.68469 9.37 3.80469 7.56 3.80469C4.49 3.80469 2 6.30469 2 9.39469C2 10.5847 2.19 11.6847 2.52 12.7047C4.1 17.7047 8.97 20.6947 11.38 21.5147C11.72 21.6347 12.28 21.6347 12.62 21.5147C15.03 20.6947 19.9 17.7047 21.48 12.7047C21.81 11.6847 22 10.5847 22 9.39469C22 6.30469 19.51 3.80469 16.44 3.80469Z" fill="white"/>
</svg>
