<svg width="47" height="47" viewBox="0 0 47 47" fill="none" xmlns="http://www.w3.org/2000/svg">
<path d="M36.0644 0.87077C33.4537 0.892223 30.9586 1.94993 29.1277 3.8111C27.2969 5.67226 26.2804 8.18444 26.3018 10.7951C26.3434 15.8574 34.3141 24.7275 35.2223 25.7241C35.3554 25.8699 35.5177 25.986 35.6986 26.0649C35.8795 26.1438 36.075 26.1839 36.2724 26.1822C36.4697 26.1806 36.6645 26.1374 36.8441 26.0555C37.0237 25.9736 37.1841 25.8548 37.3147 25.7069C38.2064 24.6955 46.0302 15.6844 45.9887 10.6333C45.9672 8.02266 44.9096 5.52753 43.0484 3.6967C41.1872 1.86587 38.675 0.849316 36.0644 0.87077ZM36.1799 14.9328C35.3456 14.9397 34.5279 14.6989 33.8303 14.2411C33.1328 13.7832 32.5867 13.1289 32.261 12.3606C31.9354 11.5924 31.8449 10.7448 32.0009 9.9251C32.157 9.10543 32.5526 8.3505 33.1378 7.75567C33.7229 7.16084 34.4713 6.75287 35.2883 6.58336C36.1052 6.41386 36.9541 6.49052 37.7276 6.80348C38.5011 7.11644 39.1644 7.65164 39.6336 8.34158C40.1029 9.03151 40.357 9.84516 40.3639 10.6795C40.3731 11.7984 39.9374 12.8751 39.1528 13.6727C38.3681 14.4703 37.2988 14.9236 36.1799 14.9328Z" fill="white"/>
<path d="M1.9281 17.6724C1.66785 17.7792 1.44563 17.9615 1.29011 18.1959C1.1346 18.4304 1.05296 18.7061 1.05577 18.9874L1.26749 44.7518C1.26944 44.9817 1.32767 45.2075 1.43714 45.4096C1.54661 45.6118 1.70396 45.7841 1.89541 45.9113C2.08686 46.0385 2.30658 46.1167 2.53533 46.1393C2.76407 46.1619 2.99489 46.1282 3.20754 46.0409L15.3004 41.087L15.0637 12.2936L1.9281 17.6724Z" fill="white"/>
<path d="M39.4226 27.5612C39.0306 28.005 38.5496 28.3613 38.0108 28.6069C37.472 28.8525 36.8876 28.982 36.2955 28.9868C35.7034 28.9917 35.1169 28.8719 34.5742 28.6352C34.0315 28.3984 33.5446 28.0501 33.1454 27.6128C32.8615 27.2973 32.484 26.8813 32.0553 26.3869L32.2156 45.9023L45.3513 40.5235C45.6111 40.4169 45.833 40.2351 45.9885 40.0012C46.144 39.7673 46.2259 39.4921 46.2236 39.2113L46.0537 18.5373C44.1242 21.7419 41.9046 24.7626 39.4226 27.5612Z" fill="white"/>
<path d="M24.4083 14.8214L17.8762 12.2705L18.1128 41.0638L29.3994 45.4713L29.2138 22.8877C27.2725 20.4162 25.6573 17.7053 24.4083 14.8214Z" fill="white"/>
</svg>
