<svg width="29" height="29" viewBox="0 0 29 29" fill="none" xmlns="http://www.w3.org/2000/svg">
<path d="M14.508 24.5604C11.3942 24.5604 8.29244 24.0655 5.33554 23.0759C4.23727 22.7138 3.40451 21.9293 3.04244 20.9397C2.68037 19.95 2.80106 18.8155 3.39244 17.8259L4.9252 15.2673C5.26313 14.7 5.56485 13.638 5.56485 12.9742V10.4397C5.56485 5.50348 9.57175 1.49658 14.508 1.49658C19.4442 1.49658 23.4511 5.50348 23.4511 10.4397V12.9742C23.4511 13.6259 23.7528 14.7 24.0907 15.2673L25.6235 17.8259C26.1907 18.7673 26.2873 19.8897 25.9131 20.9155C25.539 21.9414 24.7183 22.7259 23.6804 23.0759C20.7235 24.0776 17.6218 24.5604 14.508 24.5604ZM14.508 3.319C10.5735 3.319 7.3752 6.51727 7.3752 10.4518V12.9862C7.3752 13.9638 6.98899 15.3759 6.48209 16.2087L4.94934 18.7793C4.63554 19.2983 4.56313 19.8535 4.74416 20.3362C4.9252 20.819 5.33554 21.1811 5.91485 21.3742C11.4666 23.2207 17.5735 23.2207 23.1252 21.3742C23.6442 21.2052 24.0424 20.819 24.2235 20.3121C24.4166 19.8052 24.3562 19.25 24.0786 18.7793L22.5459 16.2207C22.039 15.388 21.6528 13.9759 21.6528 12.9983V10.4638C21.6407 6.51727 18.4424 3.319 14.508 3.319Z" fill="#222222"/>
<path d="M14.4827 27.638C13.1914 27.638 11.9241 27.107 11.0069 26.1897C10.0896 25.2725 9.55859 24.0052 9.55859 22.7139H11.3689C11.3689 23.5346 11.7069 24.3311 12.2862 24.9104C12.8655 25.4897 13.662 25.8277 14.4827 25.8277C16.1965 25.8277 17.5965 24.4277 17.5965 22.7139H19.4069C19.4069 25.4294 17.1982 27.638 14.4827 27.638Z" fill="#222222"/>
</svg>
