<svg width="161" height="174" viewBox="0 0 161 174" fill="none" xmlns="http://www.w3.org/2000/svg">
<path fill-rule="evenodd" clip-rule="evenodd" d="M71.3938 19.6696C71.3938 15.1657 73.1829 10.8462 76.3677 7.66145C79.5525 4.47669 83.872 2.6875 88.3759 2.6875C92.8798 2.6875 97.1993 4.47669 100.384 7.66145C103.569 10.8462 105.358 15.1657 105.358 19.6696V20.1414C115.285 23.6397 123.882 30.1307 129.964 38.7198C136.047 47.3088 139.316 57.5732 139.321 68.0981V104.957H139.606C139.606 104.957 139.667 113.425 145.334 113.425C147.59 113.549 149.782 114.216 151.724 115.369C155.753 117.551 157.564 122.117 157.564 126.69C157.563 128.855 157.135 130.998 156.306 132.998C155.476 134.997 154.261 136.813 152.729 138.343C151.197 139.873 149.379 141.086 147.379 141.913C145.379 142.74 143.235 143.165 141.07 143.164H35.3134C31.0401 143.167 26.9407 141.473 23.9165 138.454C20.8922 135.434 19.1908 131.338 19.1865 127.065C19.1865 122.285 21.2316 117.57 25.4649 115.34C27.326 114.245 29.4131 113.591 31.5662 113.428C34.6088 113.428 36.4473 110.339 37.4367 107.892V68.0981C37.4418 57.5746 40.7099 47.3117 46.7909 38.7231C52.8719 30.1345 61.4665 23.6428 71.3907 20.1425L71.3938 19.6696ZM87.8664 173.855C99.3848 173.855 108.725 169.194 108.725 163.445C108.725 157.695 99.3848 153.035 87.8664 153.035C76.3481 153.035 67.008 157.695 67.008 163.445C67.008 169.194 76.3491 173.855 87.8664 173.855Z" fill="#F2F2F2"/>
<path d="M142.923 163.381C152.807 163.381 160.82 155.368 160.82 145.483C160.82 135.599 152.807 127.586 142.923 127.586C133.038 127.586 125.025 135.599 125.025 145.483C125.025 155.368 133.038 163.381 142.923 163.381Z" fill="#47C409"/>
<path d="M138.092 145.457C137.999 143.768 138.383 142.087 139.2 140.606C139.61 140.011 140.17 139.535 140.824 139.227C141.478 138.919 142.202 138.789 142.922 138.852C143.639 138.788 144.361 138.917 145.011 139.225C145.662 139.534 146.219 140.011 146.623 140.606C147.453 142.083 147.844 143.766 147.752 145.457C147.843 147.158 147.452 148.85 146.623 150.338C146.222 150.938 145.667 151.419 145.015 151.731C144.364 152.043 143.641 152.174 142.922 152.11C142.2 152.173 141.475 152.041 140.82 151.73C140.166 151.418 139.607 150.938 139.2 150.338C138.384 148.846 138 147.155 138.092 145.457ZM145.281 145.457C145.291 144.713 145.233 143.97 145.108 143.237C145.026 142.687 144.789 142.172 144.427 141.751C144.234 141.551 143.999 141.396 143.738 141.297C143.478 141.198 143.199 141.158 142.922 141.179C142.642 141.159 142.36 141.2 142.097 141.299C141.834 141.397 141.595 141.552 141.397 141.751C141.042 142.178 140.807 142.69 140.715 143.237C140.604 143.971 140.553 144.714 140.563 145.457C140.553 146.223 140.604 146.989 140.715 147.747C140.798 148.296 141.034 148.811 141.397 149.233C141.597 149.427 141.837 149.577 142.1 149.673C142.363 149.769 142.643 149.808 142.922 149.788C143.199 149.808 143.478 149.769 143.739 149.673C144 149.577 144.238 149.427 144.437 149.233C144.804 148.814 145.041 148.298 145.118 147.747C145.239 146.99 145.293 146.223 145.281 145.457Z" fill="white"/>
<path fill-rule="evenodd" clip-rule="evenodd" d="M73.1261 93.6289C73.1224 94.0241 73.2405 94.4108 73.4643 94.7364C73.6881 95.0621 74.0066 95.311 74.3768 95.4492C78.7449 97.1047 83.3551 98.0322 88.0236 98.1948C92.6072 98.0478 97.1325 97.1225 101.406 95.4583C101.767 95.3161 102.076 95.0673 102.292 94.7451C102.508 94.4228 102.621 94.0424 102.616 93.6544C102.605 93.3115 102.515 92.9758 102.351 92.6743C102.188 92.3728 101.956 92.1139 101.674 91.9183C101.392 91.7226 101.068 91.5957 100.729 91.5477C100.389 91.4997 100.043 91.532 99.7178 91.6419C95.9304 92.9592 91.9612 93.6797 87.9524 93.7774C83.8862 93.6732 79.86 92.9461 76.0141 91.6216C75.6902 91.5128 75.3452 91.4813 75.0069 91.5295C74.6686 91.5778 74.3462 91.7045 74.0656 91.8995C73.785 92.0946 73.554 92.3526 73.3908 92.6528C73.2277 92.9531 73.137 93.2874 73.1261 93.6289Z" fill="#999999"/>
<path fill-rule="evenodd" clip-rule="evenodd" d="M64.9809 75.8835C64.9751 75.5973 65.0322 75.3135 65.1482 75.0518C65.2642 74.7902 65.4362 74.5572 65.652 74.3693C66.73 73.4409 68.9773 71.7793 71.1433 71.7793C73.3296 71.7793 75.5159 73.4551 76.5531 74.3815C76.756 74.5676 76.9171 74.7946 77.0258 75.0475C77.1345 75.3005 77.1882 75.5736 77.1836 75.8489C77.1836 77.8328 74.4888 78.9616 72.5872 78.4043C71.6025 78.0979 70.5467 78.1065 69.5671 78.4288C67.6553 79.0084 64.9809 77.8725 64.9809 75.8835Z" fill="#999999"/>
<path fill-rule="evenodd" clip-rule="evenodd" d="M99.5756 75.8835C99.5698 75.5973 99.627 75.3135 99.7429 75.0518C99.8589 74.7902 100.031 74.5572 100.247 74.3693C101.325 73.4409 103.572 71.7793 105.738 71.7793C107.924 71.7793 110.111 73.4551 111.148 74.3815C111.351 74.5676 111.512 74.7946 111.621 75.0475C111.729 75.3005 111.783 75.5736 111.778 75.8489C111.778 77.8328 109.084 78.9616 107.182 78.4043C106.197 78.0979 105.141 78.1065 104.162 78.4288C102.25 79.0084 99.5756 77.8725 99.5756 75.8835Z" fill="#999999"/>
<path opacity="0.6" d="M18.737 40.7964C16.7541 29.8455 25.4891 16.8994 35.7191 14.2026" stroke="#47C409" stroke-width="3" stroke-linecap="round" stroke-linejoin="round"/>
<path opacity="0.4" d="M2.54869 36.4259C-0.0138755 22.2504 11.294 5.48489 24.5339 2" stroke="#47C409" stroke-width="3" stroke-linecap="round" stroke-linejoin="round"/>
</svg>
