<svg width="36" height="36" viewBox="0 0 36 36" fill="none" xmlns="http://www.w3.org/2000/svg">
<path d="M5.78133 19.4024L16.7401 31.4426C17.6917 32.489 19.3379 32.489 20.2894 31.4426L31.2497 19.4009C32.1662 18.3955 32.2712 16.8923 31.505 15.767L27.0917 9.28429C26.5445 8.48161 25.6339 8 24.6619 8H12.3823C11.4103 8 10.5011 8.48015 9.95381 9.28283L5.52738 15.767C4.75973 16.8908 4.86482 18.3955 5.78133 19.4024Z" stroke="#999999" stroke-linecap="round" stroke-linejoin="round"/>
<path d="M21.515 8L23.5655 15.767C23.8631 16.8923 23.8223 18.3955 23.4662 19.4009L19.2062 31.4426C18.8369 32.489 18.1962 32.489 17.8269 31.4426L13.5669 19.4024C13.2108 18.3955 13.1699 16.8908 13.4691 15.767L15.5255 8" stroke="#999999" stroke-linecap="round" stroke-linejoin="round"/>
<path d="M5.02734 17.416H32.0018" stroke="#999999" stroke-linecap="round" stroke-linejoin="round"/>
</svg>
