<svg width="81" height="81" viewBox="0 0 81 81" fill="none" xmlns="http://www.w3.org/2000/svg">
<path fill-rule="evenodd" clip-rule="evenodd" d="M53.016 1.5161C50.4148 0.670893 47.587 0.869524 45.1295 2.07001C43.6881 2.77435 42.1049 3.14032 40.5006 3.14032C38.8963 3.14032 37.3132 2.77435 35.8717 2.07001C33.4143 0.869524 30.5864 0.670893 27.9853 1.5161C25.3842 2.36131 23.2133 4.18415 21.9309 6.59987C21.1786 8.0171 20.1128 9.24388 18.8146 10.1869C17.5164 11.1299 16.0201 11.7641 14.4397 12.0414C11.746 12.5148 9.3419 14.0163 7.7345 16.229C6.12711 18.4417 5.44229 21.1924 5.82477 23.9004C6.04927 25.4891 5.90822 27.108 5.41244 28.6339C4.91666 30.1598 4.07925 31.5524 2.96387 32.7057C1.06272 34.6719 0 37.3 0 40.035C0 42.77 1.06272 45.3979 2.96387 47.364C4.07925 48.5173 4.91666 49.91 5.41244 51.4359C5.90822 52.9618 6.04927 54.5807 5.82477 56.1693C5.44229 58.8774 6.12711 61.628 7.7345 63.8407C9.3419 66.0534 11.746 67.555 14.4397 68.0284C16.0202 68.3058 17.5166 68.9401 18.8148 69.8834C20.1129 70.8266 21.1787 72.0537 21.9309 73.4711C23.2133 75.8869 25.3842 77.7099 27.9853 78.5551C30.5864 79.4003 33.4143 79.2017 35.8717 78.0012C37.3132 77.2968 38.8963 76.9307 40.5006 76.9307C42.1049 76.9307 43.6881 77.2968 45.1295 78.0012C47.587 79.2017 50.4148 79.4003 53.016 78.5551C55.6171 77.7099 57.788 75.8869 59.0704 73.4711C59.8224 72.0538 60.8879 70.8269 62.1859 69.8837C63.4838 68.9405 64.9799 68.306 66.5602 68.0284C69.2538 67.555 71.6581 66.0534 73.2655 63.8407C74.8729 61.628 75.5577 58.8774 75.1752 56.1693C74.9507 54.5807 75.0916 52.9618 75.5874 51.4359C76.0832 49.91 76.9207 48.5173 78.0361 47.364C79.9373 45.3979 81 42.77 81 40.035C81 37.3 79.9373 34.6719 78.0361 32.7057C76.9207 31.5524 76.0832 30.1598 75.5874 28.6339C75.0916 27.108 74.9507 25.4891 75.1752 23.9004C75.5577 21.1924 74.8729 18.4417 73.2655 16.229C71.6581 14.0163 69.2538 12.5148 66.5602 12.0414C64.98 11.7639 63.484 11.1297 62.186 10.1867C60.8881 9.24373 59.8225 8.01695 59.0704 6.59987C57.788 4.18415 55.6171 2.36131 53.016 1.5161ZM34.1471 22C31.3046 22 29 24.393 29 27.3447V29.1819C29 30.6771 29.6034 32.1048 30.6639 33.1173L38.9199 40.9953L30.6637 48.8734C29.6031 49.886 29 51.3134 29 52.8086V54.6554C29 57.607 31.3046 60 34.1471 60H47.853C50.6954 60 53 57.607 53 54.6554V52.8086C53 51.3134 52.3966 49.8858 51.3361 48.8732L43.0802 40.9953L51.3363 33.1171C52.3968 32.1045 53 30.6771 53 29.1819V27.3447C53 24.393 50.6954 22 47.853 22H34.1471ZM49.4311 30.9653L41 39.0104L32.5687 30.965C32.0883 30.5062 31.815 29.8595 31.815 29.1819V27.3447C31.815 26.0074 32.8593 24.9231 34.1471 24.9231H47.853C49.1408 24.9231 50.185 26.0074 50.185 27.3447V29.1819C50.185 29.8595 49.9115 30.5065 49.4311 30.9653ZM32.569 51.0252L41 42.9803L49.4313 51.0256C49.9117 51.4843 50.185 52.1311 50.185 52.8086V54.6554C50.185 55.9927 49.1408 57.0769 47.853 57.0769H34.1471C32.8593 57.0769 31.815 55.9927 31.815 54.6554V52.8086C31.815 52.1311 32.0886 51.4841 32.569 51.0252Z" fill="#FFCC01"/>
</svg>
