<svg width="37" height="37" viewBox="0 0 37 37" fill="none" xmlns="http://www.w3.org/2000/svg">
<path d="M4.625 4.625L7.74501 5.165L9.18951 22.3745C9.30501 23.78 10.4795 24.8585 11.8895 24.8541H28.253C29.5985 24.857 30.7401 23.867 30.9306 22.535L32.3541 12.698C32.5131 11.5985 31.7496 10.5785 30.6516 10.4195C30.5556 10.406 8.24601 10.3985 8.24601 10.3985" stroke="#999999" stroke-linecap="round" stroke-linejoin="round"/>
<path d="M21.6875 15.9424H25.847" stroke="#999999" stroke-linecap="round" stroke-linejoin="round"/>
<path fill-rule="evenodd" clip-rule="evenodd" d="M11.232 30.0537C11.6835 30.0537 12.048 30.4197 12.048 30.8697C12.048 31.3212 11.6835 31.6872 11.232 31.6872C10.7805 31.6872 10.416 31.3212 10.416 30.8697C10.416 30.4197 10.7805 30.0537 11.232 30.0537Z" fill="#555555" stroke="#999999" stroke-linecap="round" stroke-linejoin="round"/>
<path fill-rule="evenodd" clip-rule="evenodd" d="M28.1519 30.0537C28.6034 30.0537 28.9694 30.4197 28.9694 30.8697C28.9694 31.3212 28.6034 31.6872 28.1519 31.6872C27.7004 31.6872 27.3359 31.3212 27.3359 30.8697C27.3359 30.4197 27.7004 30.0537 28.1519 30.0537Z" fill="#555555" stroke="#999999" stroke-linecap="round" stroke-linejoin="round"/>
</svg>
