<svg width="43" height="41" viewBox="0 0 43 41" fill="none" xmlns="http://www.w3.org/2000/svg">
<path d="M16.4116 19.8512C16.3578 19.8512 16.322 19.8512 16.2683 19.8512C16.1787 19.8341 16.0533 19.8341 15.9458 19.8512C10.7499 19.6974 6.82617 15.8024 6.82617 11.002C6.82617 6.11616 11.0008 2.13574 16.1249 2.13574C21.2491 2.13574 25.4237 6.11616 25.4237 11.002C25.4058 15.8024 21.4641 19.6974 16.4653 19.8512C16.4474 19.8512 16.4295 19.8512 16.4116 19.8512ZM16.1249 4.69824C12.4878 4.69824 9.51367 7.53408 9.51367 11.002C9.51367 14.4187 12.3087 17.1691 15.8741 17.2887C15.9816 17.2716 16.2145 17.2716 16.4474 17.2887C19.9591 17.1349 22.7183 14.3845 22.7362 11.002C22.7362 7.53408 19.762 4.69824 16.1249 4.69824Z" fill="#FE360A"/>
<path d="M16.4282 38.5226C12.9165 38.5226 9.3869 37.6684 6.71732 35.9601C4.2269 34.3884 2.86523 32.2359 2.86523 29.8955C2.86523 27.5551 4.2269 25.3855 6.71732 23.7968C12.0923 20.3972 20.7998 20.3972 26.139 23.7968C28.6115 25.3684 29.9911 27.5209 29.9911 29.8613C29.9911 32.2018 28.6294 34.3713 26.139 35.9601C23.4515 37.6684 19.9398 38.5226 16.4282 38.5226ZM8.2044 25.9493C6.4844 27.0426 5.55273 28.4434 5.55273 29.9126C5.55273 31.3647 6.50232 32.7655 8.2044 33.8418C12.6657 36.6947 20.1907 36.6947 24.6519 33.8418C26.3719 32.7484 27.3036 31.3476 27.3036 29.8784C27.3036 28.4263 26.354 27.0255 24.6519 25.9493C20.1907 23.1134 12.6657 23.1134 8.2044 25.9493Z" fill="#FE360A"/>
</svg>
