<svg width="30" height="30" viewBox="0 0 30 30" fill="none" xmlns="http://www.w3.org/2000/svg">
<path d="M21.2158 3.63672C26.058 3.63672 29.997 7.57576 29.9971 12.418V25.7822C29.9971 26.4266 29.4382 26.9512 28.751 26.9512H1.24609C0.559001 26.9511 0 26.4265 0 25.7822V18.749C0.000183547 18.0219 0.545419 17.4127 1.26855 17.332C1.92693 17.2586 2.99503 17.1543 4.35938 17.0732V16.0977C3.23189 15.9002 2.34792 14.9492 2.25781 13.7891C2.21891 13.2883 2.32576 12.7932 2.56641 12.3574C2.61899 12.2621 2.63789 12.1599 2.61914 12.0703C2.58797 11.9214 2.57132 11.7683 2.57129 11.6152C2.57129 11.0774 2.76601 10.5575 3.11914 10.1523C3.20703 10.0515 3.23689 9.90094 3.19922 9.75C3.1669 9.62037 3.15042 9.48627 3.15039 9.35156C3.15039 8.42426 3.92986 7.6457 4.90234 7.70605C5.7394 7.75751 6.40283 8.42864 6.44531 9.2666C6.45353 9.43004 6.43764 9.59269 6.39844 9.75C6.36082 9.90074 6.39059 10.0514 6.47852 10.1523C6.83172 10.5575 7.02637 11.0773 7.02637 11.6152C7.02634 11.7686 7.01076 11.9221 6.97949 12.0713C6.96088 12.1602 6.97895 12.2617 7.03125 12.3564C7.23838 12.7313 7.34766 13.157 7.34766 13.5869C7.34764 14.8136 6.46264 15.888 5.23828 16.0986V17.0264C7.23404 16.9329 9.72561 16.9016 12.4346 17.0625V14.9189C12.4347 14.6764 12.6315 14.4795 12.874 14.4795C13.1164 14.4797 13.3124 14.6765 13.3125 14.9189V17.1221C13.5619 17.1405 13.8104 17.1604 14.0566 17.1816V12.418C14.0566 11.4087 14.2671 10.4479 14.6455 9.57617C14.6546 9.54811 14.6665 9.52134 14.6807 9.49609C15.8006 7.00118 18.3078 5.25918 21.2148 5.25879H21.2168C24.124 5.25915 26.6321 7.00102 27.752 9.49609C27.766 9.52098 27.7772 9.54757 27.7861 9.5752C28.1648 10.447 28.375 11.4084 28.375 12.418V17.4434H29.1191V12.418C29.1191 8.06039 25.5734 4.51562 21.2158 4.51562C16.8583 4.51568 13.3135 8.06039 13.3135 12.418V12.8438C13.3135 13.0863 13.1165 13.283 12.874 13.2832C12.6314 13.2832 12.4346 13.0864 12.4346 12.8438V12.418C12.4346 7.57582 16.3736 3.63677 21.2158 3.63672ZM0.878906 25.7822C0.87891 25.9392 1.04703 26.0722 1.24609 26.0723H6.7998C4.19332 24.5974 1.91408 23.6422 0.878906 23.2363V25.7822ZM0.878906 22.2949C1.84559 22.6615 5.04645 23.9427 8.53418 26.0723H15.3086C9.37535 23.0306 2.7346 21.685 0.878906 21.3506V22.2949ZM29.1191 22.2441C21.4684 17.87 10.0383 17.2392 1.36621 18.2061C1.08868 18.237 0.879118 18.4701 0.878906 18.749V18.8428C1.85406 18.847 4.33737 18.8962 7.49219 19.2441C11.2544 19.6591 16.7735 20.5963 21.7002 22.7051C21.9233 22.8005 22.0271 23.0592 21.9316 23.2822C21.8356 23.5067 21.5761 23.6086 21.3545 23.5137C18.6921 22.374 14.1117 20.8597 7.40918 20.1191C4.28661 19.7741 1.83285 19.7258 0.878906 19.7217V20.457C1.65862 20.5925 3.58977 20.9577 6.08008 21.6416C9.01951 22.4489 13.3145 23.8716 17.1523 26.0723H26.0498C25.1767 25.4659 24.2197 24.8964 23.1914 24.3721C22.9753 24.2618 22.8897 23.9965 23 23.7803C23.1104 23.5643 23.3746 23.4788 23.5908 23.5889C25.0519 24.3338 26.3762 25.1693 27.5303 26.0723H28.751C28.9501 26.0723 29.1191 25.9393 29.1191 25.7822V22.2441ZM21.3027 18.3223C24.2404 19.028 26.8529 20.0023 29.1191 21.2383V18.3223H21.3027ZM14.9355 14.3232V17.2637C15.4589 17.3169 15.9742 17.377 16.4824 17.4434H18.7441V14.3232H14.9355ZM19.623 12.582V17.4434H22.8086V12.582H19.623ZM23.6875 14.3232V17.4434H27.4961V14.3232H23.6875ZM4.79883 8.58203C4.37833 8.58206 4.0293 8.92162 4.0293 9.35156C4.02933 9.4146 4.03776 9.47693 4.05273 9.53711C4.15974 9.96635 4.05845 10.4124 3.78223 10.7295C3.56859 10.9746 3.4502 11.2897 3.4502 11.6152C3.45023 11.7081 3.4597 11.8008 3.47852 11.8906C3.54033 12.1862 3.48924 12.5029 3.33496 12.7822C3.17771 13.0672 3.10833 13.3918 3.13379 13.7207C3.19719 14.5369 3.86111 15.1959 4.67773 15.2529C5.66405 15.3226 6.46873 14.5417 6.46875 13.5869C6.46875 13.3053 6.39708 13.0272 6.26172 12.7822C6.10747 12.5031 6.05738 12.1866 6.11914 11.8916C6.13804 11.8013 6.14743 11.7082 6.14746 11.6152C6.14746 11.2897 6.03008 10.9746 5.81641 10.7295C5.54 10.4124 5.43806 9.96726 5.54492 9.53809C5.56332 9.46461 5.57125 9.38771 5.56738 9.31055C5.54787 8.92642 5.23208 8.60675 4.84863 8.58301C4.83217 8.58201 4.81518 8.58203 4.79883 8.58203ZM15.3594 10.1504C15.086 10.8541 14.9356 11.6188 14.9355 12.418V13.4443H18.7441V12.5811H18.5723C18.3296 12.5811 18.1328 12.3843 18.1328 12.1416C18.1331 11.8992 18.3297 11.7031 18.5723 11.7031H20.7764V10.1504H15.3594ZM21.6553 10.1504V11.7031H23.8594C24.1021 11.7031 24.2988 11.8999 24.2988 12.1426C24.2986 12.385 24.1019 12.5811 23.8594 12.5811H23.6875V13.4443H27.4961V12.418C27.4961 11.6188 27.3466 10.8541 27.0732 10.1504H21.6553ZM20.7764 6.15332C18.6438 6.30147 16.8013 7.51854 15.7822 9.27148H20.7764V6.15332ZM21.6553 9.27148H26.6494C25.6303 7.51854 23.7878 6.30144 21.6553 6.15332V9.27148Z" fill="#999999"/>
</svg>
