<svg width="33" height="33" viewBox="0 0 33 33" fill="none" xmlns="http://www.w3.org/2000/svg">
<g clip-path="url(#clip0_7373_8308)">
<path d="M9.24115 1.46038C9.50811 1.46038 9.72448 1.24395 9.72448 0.977045V0.483334C9.72448 0.216369 9.50805 0 9.24115 0C8.97418 0 8.75781 0.216434 8.75781 0.483334V0.97698C8.75775 1.24395 8.97418 1.46038 9.24115 1.46038Z" fill="white"/>
<path d="M8.75781 7.83685V8.3305C8.75781 8.59746 8.97425 8.81383 9.24115 8.81383C9.50811 8.81383 9.72448 8.5974 9.72448 8.3305V7.83685C9.72448 7.56988 9.50805 7.35352 9.24115 7.35352C8.97425 7.35345 8.75781 7.56988 8.75781 7.83685Z" fill="white"/>
<path d="M11.665 2.46425C11.7887 2.46425 11.9125 2.41707 12.0068 2.32264L12.3559 1.97357C12.5447 1.78485 12.5447 1.47876 12.3559 1.28998C12.1672 1.10126 11.8611 1.10126 11.6723 1.28998L11.3232 1.63905C11.1344 1.82777 11.1344 2.13386 11.3232 2.32264C11.4176 2.41707 11.5413 2.46425 11.665 2.46425Z" fill="white"/>
<path d="M6.47309 6.49115L6.12401 6.84023C5.93523 7.02895 5.93523 7.33503 6.12401 7.52382C6.21837 7.61818 6.34212 7.66542 6.4658 7.66542C6.58949 7.66542 6.71324 7.61824 6.8076 7.52382L7.15668 7.17474C7.34546 6.98602 7.34546 6.67993 7.15668 6.49115C6.96789 6.30243 6.66181 6.30243 6.47309 6.49115Z" fill="white"/>
<path d="M12.1875 4.40716C12.1875 4.67413 12.4039 4.8905 12.6708 4.8905H13.1645C13.4314 4.8905 13.6478 4.67406 13.6478 4.40716C13.6478 4.1402 13.4314 3.92383 13.1645 3.92383H12.6708C12.4039 3.92376 12.1875 4.1402 12.1875 4.40716Z" fill="white"/>
<path d="M5.31732 4.8905H5.81097C6.07793 4.8905 6.2943 4.67406 6.2943 4.40716C6.2943 4.1402 6.07787 3.92383 5.81097 3.92383H5.31732C5.05035 3.92383 4.83398 4.14026 4.83398 4.40716C4.83392 4.67406 5.05035 4.8905 5.31732 4.8905Z" fill="white"/>
<path d="M11.3232 6.49115C11.1344 6.67987 11.1344 6.98596 11.3232 7.17474L11.6723 7.52382C11.7667 7.61818 11.8904 7.66542 12.0141 7.66542C12.1379 7.66542 12.2615 7.61824 12.3559 7.52382C12.5447 7.3351 12.5447 7.02901 12.3559 6.84023L12.0068 6.49115C11.818 6.30243 11.512 6.30243 11.3232 6.49115Z" fill="white"/>
<path d="M6.47309 2.32264C6.56745 2.417 6.6912 2.46425 6.81488 2.46425C6.93857 2.46425 7.06232 2.41707 7.15668 2.32264C7.34546 2.13393 7.34546 1.82784 7.15668 1.63905L6.8076 1.28998C6.61888 1.10126 6.31279 1.10126 6.12401 1.28998C5.93523 1.4787 5.93523 1.78478 6.12401 1.97357L6.47309 2.32264Z" fill="white"/>
<path d="M9.24049 6.64505C10.4737 6.64505 11.4771 5.64171 11.4771 4.40846C11.4771 3.17522 10.4737 2.17188 9.24049 2.17188C8.00725 2.17188 7.00391 3.17522 7.00391 4.40846C7.00391 5.64171 8.00725 6.64505 9.24049 6.64505ZM9.24049 3.13854C9.94071 3.13854 10.5103 3.70824 10.5103 4.4084C10.5103 5.10855 9.94065 5.67825 9.24049 5.67825C8.54028 5.67825 7.97064 5.10855 7.97064 4.4084C7.97064 3.70824 8.54028 3.13854 9.24049 3.13854Z" fill="white"/>
<path d="M23.3395 7.35352C18.013 7.35352 13.6797 11.6869 13.6797 17.0133V17.4821C13.6797 17.7491 13.8961 17.9655 14.163 17.9655C14.4299 17.9655 14.6463 17.749 14.6463 17.4821V17.0133C14.6463 12.2199 18.5461 8.32018 23.3395 8.32018C28.1328 8.32018 32.0325 12.22 32.0325 17.0134V22.5413H31.2149V17.0134C31.2149 15.9028 30.9834 14.8455 30.5668 13.8865C30.557 13.856 30.5442 13.8269 30.5287 13.7995C29.2969 11.0548 26.5383 9.13822 23.3402 9.1379H23.3386C20.1407 9.13822 17.3821 11.0546 16.1502 13.7991C16.1346 13.8269 16.1216 13.8563 16.1116 13.8872C15.6953 14.8461 15.4639 15.9031 15.4639 17.0133V22.2531C15.193 22.2297 14.9206 22.2077 14.6462 22.1874V19.7646C14.6462 19.4976 14.4298 19.2813 14.1629 19.2813C13.896 19.2813 13.6796 19.4977 13.6796 19.7646V22.1224C10.6997 21.9454 7.95946 21.9802 5.76413 22.0831V21.0618C7.11094 20.8301 8.08483 19.6484 8.08483 18.2991C8.08483 17.8262 7.96443 17.3582 7.73659 16.9459C7.6789 16.8416 7.65847 16.7302 7.67896 16.6323C7.71345 16.4678 7.73091 16.2988 7.73091 16.1298C7.73091 15.5381 7.51693 14.9668 7.12841 14.5211C7.03166 14.4101 6.99866 14.2448 7.04004 14.079C7.08329 13.9057 7.10056 13.7265 7.09147 13.5464C7.04474 12.6246 6.3152 11.8869 5.39436 11.8304C4.32463 11.764 3.46792 12.6198 3.46792 13.6398C3.46792 13.7883 3.48597 13.9359 3.52161 14.0787C3.56305 14.2448 3.52999 14.4102 3.43331 14.5211C3.04478 14.9668 2.8308 15.5381 2.8308 16.1298C2.8308 16.2984 2.8482 16.4672 2.88256 16.6312C2.90318 16.7298 2.88262 16.8418 2.82474 16.9467C2.56003 17.4261 2.44273 17.9706 2.48553 18.5215C2.58465 19.7977 3.55719 20.8441 4.79759 21.0611V22.1344C3.29667 22.2236 2.12169 22.3381 1.39743 22.4189C0.601818 22.5075 0.00195312 23.1778 0.00195312 23.9778V31.714C0.00195312 32.4228 0.6169 32.9993 1.37274 32.9993H31.6285C32.3844 32.9993 32.9992 32.4228 32.9992 31.714V23.0247V17.0134C32.9992 11.6869 28.6659 7.35352 23.3395 7.35352ZM23.8228 10.1218C26.1688 10.2848 28.1958 11.6239 29.3168 13.5524H23.8228V10.1218ZM23.8228 14.519H29.7821C30.0828 15.2931 30.2482 16.1342 30.2482 17.0134V18.1427H26.0584V17.1932H26.2476C26.5146 17.1932 26.731 16.9768 26.731 16.7099C26.731 16.4429 26.5146 16.2265 26.2476 16.2265H23.8228V14.519ZM30.2482 19.1095V22.5414H26.0584V19.1095H30.2482ZM25.0917 17.1933V22.5414H21.5872V17.1933H25.0917ZM22.8561 10.1218V13.5524H17.3621C18.483 11.6239 20.5101 10.2848 22.8561 10.1218ZM16.4307 17.0134C16.4307 16.1342 16.5961 15.2931 16.8969 14.519H22.8561V16.2265H20.4313C20.1643 16.2265 19.9479 16.4429 19.9479 16.7098C19.9479 16.9768 20.1643 17.1931 20.4313 17.1931H20.6205V18.1426H16.4307V17.0134ZM16.4307 19.1095H20.6205V22.5414H18.133C17.5737 22.4684 17.0067 22.402 16.4308 22.3434L16.4307 19.1095ZM3.44923 18.4467C3.42113 18.0846 3.49776 17.7276 3.67088 17.4139C3.84059 17.1066 3.89666 16.7584 3.82866 16.4333C3.80791 16.3342 3.7974 16.2321 3.7974 16.1298C3.7974 15.7717 3.92689 15.4259 4.16189 15.1563C4.46604 14.8075 4.57729 14.3172 4.45953 13.8448C4.44297 13.7784 4.43452 13.7094 4.43452 13.6398C4.43452 13.1669 4.81815 12.7936 5.28073 12.7936C5.29871 12.7936 5.31689 12.7941 5.335 12.7952C5.75704 12.8211 6.10444 13.1725 6.12584 13.5953C6.13009 13.6802 6.1221 13.7642 6.10186 13.845C5.98411 14.3172 6.09535 14.8074 6.3995 15.1563C6.63457 15.4259 6.76405 15.7717 6.76405 16.1298C6.76405 16.2323 6.75348 16.3345 6.73266 16.434C6.66467 16.7586 6.72067 17.1064 6.89038 17.4135C7.03933 17.683 7.11803 17.9892 7.11803 18.2991C7.11803 19.3493 6.23238 20.2084 5.14737 20.1317C4.24909 20.069 3.51897 19.3445 3.44923 18.4467ZM1.37274 32.0326C1.15373 32.0326 0.968686 31.8867 0.968686 31.714V28.9137C2.10738 29.3602 4.61467 30.4103 7.4818 32.0326H1.37274ZM9.3891 32.0326C5.55246 29.69 2.0319 28.281 0.968686 27.8778V26.8387C3.00979 27.2066 10.3152 28.6866 16.8419 32.0326H9.3891ZM32.0325 31.714C32.0325 31.8867 31.8475 32.0326 31.6285 32.0326H30.2857C29.0162 31.0393 27.5592 30.1206 25.9519 29.3011C25.714 29.1799 25.423 29.2743 25.3017 29.5122C25.1804 29.75 25.275 30.0411 25.5128 30.1624C26.6439 30.7391 27.6962 31.3657 28.6566 32.0327H18.8699C14.648 29.6118 9.92303 28.0473 6.68961 27.1593C3.95016 26.4069 1.8263 26.005 0.968686 25.856V25.0474C2.01798 25.052 4.71715 25.1051 8.15205 25.4846C15.5248 26.2993 20.5634 27.9645 23.492 29.2181C23.7358 29.3226 24.0209 29.2109 24.1266 28.9639C24.2316 28.7186 24.1179 28.4344 23.8724 28.3294C18.4529 26.0096 12.382 24.9786 8.24344 24.5222C4.77303 24.1394 2.04131 24.0853 0.968686 24.0806V23.9779C0.968686 23.6709 1.19898 23.4138 1.50442 23.3797C11.0437 22.3161 23.6166 23.011 32.0325 27.8226V31.714ZM32.0325 26.7156C29.5396 25.356 26.6667 24.2843 23.4352 23.508H32.0325V26.7156Z" fill="#999999"/>
</g>
<defs>
<clipPath id="clip0_7373_8308">
<rect width="33" height="33" fill="white"/>
</clipPath>
</defs>
</svg>
