<svg width="27" height="27" viewBox="0 0 27 27" fill="none" xmlns="http://www.w3.org/2000/svg">
<g id="Group 626713">
<g id="Iconly/Light-outline/Home">
<g id="Group">
<path id="Vector" d="M25.5096 19.643C24.443 21.1388 25.2051 20.07 21.7421 24.9275C21.7421 24.9275 20.2251 27.544 17.6466 25.4585L1.6067 8.60365C1.6067 8.60365 0.545232 6.66966 2.3272 5.62719C9.50611 2.78027 7.90907 3.41368 10.0252 2.57417C10.0252 2.57417 11.3521 2.10072 13.3616 4.52717C15.0589 6.57627 22.986 15.3292 25.4135 18.0049C25.8267 18.4604 25.8669 19.1423 25.5096 19.643Z" fill="#52528C"/>
<path id="Vector_2" d="M24.6881 20.7965L21.7421 24.9289C21.7421 24.9289 20.2251 27.5453 17.6466 25.4599L1.6067 8.60501C1.6067 8.60501 0.545232 6.67101 2.3272 5.62854L8.43215 3.20752C10.5046 7.38065 15.8804 16.582 24.6881 20.7965Z" fill="#404077"/>
<path id="Vector_3" d="M24.2948 19.3912C23.6222 20.3345 20.8136 24.2741 20.8101 24.2804C20.4903 24.8087 19.7502 24.8782 19.3333 24.4227L3.82927 7.47771C3.39111 6.99828 3.56811 6.22783 4.17241 5.98839L4.96892 5.67294L5.43532 6.06983C5.82353 6.40049 6.36974 6.47488 6.83234 6.26041L8.87655 5.3135C9.43422 5.05489 9.74131 4.44065 9.60193 3.8345L10.0157 3.67053C10.0157 3.67053 11.2389 3.23454 13.0909 5.4715C14.6574 7.36206 21.9818 15.4493 24.2079 17.9029C24.5831 18.3167 24.6194 18.9362 24.2948 19.3912Z" fill="#BAEDFE"/>
<path id="Vector_4" d="M23.6649 20.2754C20.7348 24.3858 20.814 24.2742 20.8101 24.2813C20.4903 24.8096 19.7502 24.8791 19.3333 24.4235L3.82927 7.47853C3.39111 6.99911 3.56811 6.22866 4.17241 5.98922L4.96892 5.67376L5.43532 6.07066C5.82353 6.40132 6.36974 6.4757 6.83234 6.26124L8.87655 5.31433C9.06387 5.22745 9.22187 5.10095 9.34457 4.94946C11.7613 9.35389 16.5099 16.4275 23.6649 20.2754Z" fill="#9AE1FF"/>
<path id="Vector_5" d="M9.10126 23.2669C7.8174 25.9523 4.75819 27.1201 2.60919 25.5831C0.934181 24.3827 0.416748 21.8607 1.48528 19.6253C2.55489 17.3894 4.84289 16.2085 6.82901 16.7596C9.38664 17.4708 10.3802 20.5929 9.10126 23.2669Z" fill="#EDD15A"/>
<path id="Vector_6" d="M7.95238 22.7174C6.88331 24.9533 4.59476 26.1342 2.60919 25.5831C0.934181 24.3827 0.416748 21.8607 1.48528 19.6253C2.55489 17.3894 4.84289 16.2085 6.82901 16.7596C8.50402 17.9596 9.02145 20.4822 7.95238 22.7174Z" fill="#FAE26B"/>
<path id="Vector_7" d="M6.47464 22.178C7.283 20.4862 6.96739 18.6509 5.76972 18.0786C4.57204 17.5063 2.94583 18.4138 2.13748 20.1056C1.32913 21.7973 1.64473 23.6326 2.84241 24.2049C4.04008 24.7772 5.66629 23.8697 6.47464 22.178Z" fill="#EDD15A"/>
<path id="Vector_8" d="M23.5799 15.8729C23.5815 16.0635 23.543 16.2519 23.4664 16.4267C22.5456 18.5198 20.712 20.4136 19.3129 21.6499C18.5353 22.3367 17.3053 21.9265 17.0982 20.9126C15.5839 13.5296 11.7544 10.0557 9.81065 8.72443C9.18191 8.29387 9.0364 7.42189 9.49357 6.81215C11.1593 4.59066 13.3762 2.52972 15.6083 0.928179C16.1795 0.518793 16.97 0.614353 17.4239 1.15079C23.1689 7.93492 23.5658 14.4423 23.5799 15.8729Z" fill="#79E9B3"/>
<path id="Vector_9" d="M23.5804 15.8729C23.582 16.0635 23.5434 16.2519 23.4669 16.4267C22.546 18.5198 20.7125 20.4136 19.3133 21.6499C18.7275 22.1674 17.8843 22.0626 17.4157 21.5441C19.3584 12.9312 16.8125 4.86241 15.3047 1.1497C15.4111 1.07098 15.5126 0.997134 15.6087 0.928179C16.1799 0.518793 16.9705 0.614353 17.4244 1.15079C23.1693 7.93492 23.5662 14.4423 23.5804 15.8729Z" fill="#14D2AA"/>
<path id="Vector_10" d="M21.9431 16.021C21.227 17.1112 20.3045 18.076 19.5433 18.7808C19.1498 17.6946 17.661 17.847 17.6435 17.829C16.3779 13.3458 13.5789 10.2114 11.9305 8.67482C12.7938 7.5786 12.2145 6.45958 11.8105 5.90848C12.8557 4.58313 13.984 3.56781 14.8853 2.86523C15.7104 3.48963 16.697 3.56559 17.6451 2.93256C20.4424 6.64635 21.8182 10.8759 22.3883 13.0619C21.935 13.544 21.3182 14.5392 21.9431 16.021Z" fill="#B4FFC6"/>
<path id="Vector_11" d="M21.9429 16.0203C21.2268 17.1105 20.3043 18.0754 19.5431 18.7801C19.2912 18.0846 18.587 17.8794 17.9946 17.837C18.5137 12.0812 17.292 6.8444 16.123 3.36353C16.5666 3.40262 17.0846 3.30598 17.6449 2.93188C20.4422 6.64568 21.8181 10.8753 22.3882 13.0612C21.9348 13.5433 21.318 14.5386 21.9429 16.0203Z" fill="#79E9B3"/>
<path id="Vector_12" d="M24.74 8.97827C22.913 10.4358 20.0546 9.55195 18.8425 7.01712C17.6812 4.5885 18.6471 1.95073 20.7151 1.27866C22.5123 0.686304 24.6347 1.73746 25.6115 3.78004C26.5339 5.70915 26.1273 7.8783 24.74 8.97827Z" fill="#EDD15A"/>
<path id="Vector_13" d="M24.7425 8.97827C22.9453 9.57008 20.824 8.51784 19.8472 6.4758C18.9253 4.54724 19.3314 2.37868 20.7176 1.27866C22.5147 0.686304 24.6371 1.73746 25.6139 3.78004C26.5364 5.70915 26.1297 7.8783 24.7425 8.97827Z" fill="#FAE26B"/>
<path id="Vector_14" d="M24.3962 7.86487C25.4607 7.35624 25.7412 5.72507 25.0228 4.22154C24.3044 2.71801 22.859 1.91148 21.7946 2.42011C20.7301 2.92874 20.4496 4.55992 21.168 6.06345C21.8864 7.56698 23.3318 8.3735 24.3962 7.86487Z" fill="#EDD15A"/>
</g>
</g>
</g>
</svg>
