<svg width="56" height="56" viewBox="0 0 56 56" fill="none" xmlns="http://www.w3.org/2000/svg">
<g id="Group 626715">
<rect id="Rectangle 63221" width="56" height="56" rx="8" fill="#F2F2F2"/>
<g id="Iconly/Light-outline/Home">
<g id="Group 626532">
<path id="Vector" d="M39.6183 29.7998C39.6023 29.7779 39.5846 29.7568 39.5704 29.734C39.0115 28.8818 38.4526 28.0305 37.8955 27.1775C37.8733 27.1441 37.8165 27.1073 37.8698 27.059C37.9186 27.0143 37.9576 27.0652 37.994 27.0853C38.4774 27.3565 38.96 27.6277 39.44 27.9042C39.5243 27.9524 39.581 27.948 39.6609 27.8919C40.6837 27.1635 41.7101 26.4394 42.7348 25.7136C42.7578 25.6978 42.78 25.6812 42.8031 25.6654C42.8377 25.6417 42.8741 25.6092 42.9122 25.6557C42.9477 25.6987 42.9007 25.7215 42.8803 25.7479C42.4065 26.3429 41.9319 26.937 41.4573 27.5312C40.8754 28.2596 40.2925 28.9871 39.7088 29.7147C39.6839 29.7454 39.6689 29.7875 39.6192 29.8007L39.6183 29.7998Z" fill="#010D22"/>
<path id="Vector_2" d="M49.431 35.1378L47.2469 33.6169C47.9832 32.5234 48.4835 31.2781 48.7071 29.9432C49.1205 27.4701 48.535 24.9856 47.0597 22.9478C45.5844 20.91 43.3949 19.5628 40.895 19.1539C38.3951 18.7449 35.8836 19.3233 33.8237 20.7836C31.7638 22.2431 30.4021 24.409 29.9887 26.8821C29.5753 29.3552 30.1608 31.8397 31.6361 33.8776C33.1114 35.9154 35.3008 37.2625 37.8007 37.6715C38.3241 37.7575 38.8475 37.7996 39.3683 37.7996C41.3324 37.7996 43.2432 37.1958 44.872 36.0417C44.9057 36.0181 44.9394 35.9926 44.9731 35.9689L47.5591 37.7698L49.4318 35.1378H49.431ZM33.8787 32.2882C31.7186 29.3052 32.415 25.1392 35.4303 23.0022C36.5854 22.1834 37.94 21.756 39.3337 21.756C39.7027 21.756 40.0744 21.7858 40.4452 21.8464C42.2177 22.136 43.7711 23.0917 44.817 24.5371C45.8629 25.9826 46.2781 27.7439 45.9854 29.4983C45.6926 31.2517 44.7265 32.7884 43.2654 33.8231C40.2501 35.9601 36.0389 35.2712 33.8787 32.2882Z" fill="#000F20"/>
<g id="Group">
<path id="Vector_3" d="M14.9553 21.6008C16.6213 21.6008 17.771 22.0247 18.3077 22.2765L18.5978 22.4126L19.3057 20.0983L19.1035 19.9939C18.7495 19.8104 17.3984 19.2119 14.8816 19.2119C12.1759 19.2119 9.85605 20.093 8.17494 21.7605C6.49029 23.4323 5.59961 25.7413 5.59961 28.4391C5.59961 31.1878 6.46899 33.4766 8.11284 35.0581C9.67596 36.5614 11.8432 37.3565 14.3795 37.3565C16.5849 37.3565 18.2447 36.9212 19.0635 36.514L19.2614 36.4157L18.6776 34.1225L18.3734 34.2665C17.4942 34.6816 16.1387 34.9396 14.8373 34.9396C10.87 34.9396 8.50229 32.4831 8.50229 28.3689C8.50229 24.2547 10.9144 21.6008 14.9553 21.6008Z" fill="#000F20"/>
<path id="Vector_4" d="M23.9116 19.5647H21.2422V37.1073H23.9116V19.5647Z" fill="#000F20"/>
<path id="Vector_5" d="M28.5366 24.9841H25.8672V37.1075H28.5366V24.9841Z" fill="#000F20"/>
<path id="Vector_6" d="M27.203 20.3969C26.763 20.3969 26.3585 20.5584 26.0631 20.8506C25.7659 21.1455 25.6026 21.5465 25.6035 21.9792C25.6026 22.4215 25.7659 22.827 26.0631 23.1227C26.3487 23.4053 26.739 23.5615 27.164 23.5615C27.635 23.5615 28.0431 23.4044 28.3421 23.1078C28.6339 22.8182 28.7945 22.4171 28.7936 21.9792V21.9775C28.7865 21.0612 28.1176 20.396 27.203 20.396V20.3969Z" fill="#000F20"/>
</g>
<g id="Group_2">
<path id="Vector_7" d="M38.7969 18.2248L39.4173 18.2002L39.4147 18.413L38.8058 18.4086L38.7969 18.2248Z" fill="#FFB600"/>
<path id="Vector_8" d="M40.0373 18.2085L40.6587 18.2525L40.6213 18.5321L40.0195 18.4538L40.0373 18.2085Z" fill="#FFB600"/>
<path id="Vector_9" d="M41.2723 18.3315L41.8865 18.4441L41.7967 18.7985L41.2109 18.649L41.2723 18.3315Z" fill="#FFB600"/>
<path id="Vector_10" d="M42.4962 18.5884L43.0959 18.7683L42.93 19.1992L42.3711 18.9815L42.4962 18.5884Z" fill="#FFB600"/>
<path id="Vector_11" d="M43.6847 18.9795L44.2622 19.227L43.9996 19.729L43.4727 19.449L43.6847 18.9795Z" fill="#FFB600"/>
<path id="Vector_12" d="M44.8252 19.51L45.3726 19.8233L44.9938 20.378L44.5059 20.0401L44.8252 19.51Z" fill="#FFB600"/>
<path id="Vector_13" d="M45.9045 20.1663L46.4137 20.5428L45.9045 21.1281C45.7564 21 45.6091 20.8701 45.4609 20.7402L45.9045 20.1663Z" fill="#FFB600"/>
<path id="Vector_14" d="M46.8991 20.9509L47.3613 21.3871L46.7181 21.9725L46.3242 21.5398L46.8991 20.9509Z" fill="#FFB600"/>
<path id="Vector_15" d="M47.7963 21.8479L48.2027 22.3385L47.4264 22.8949L47.084 22.4245L47.7963 21.8479Z" fill="#FFB600"/>
<path id="Vector_16" d="M48.5786 22.8569L48.9228 23.3949L48.0259 23.8908L47.7402 23.387L48.5786 22.8569Z" fill="#FFB600"/>
<path id="Vector_17" d="M49.2335 23.9507L49.5094 24.5273L48.5114 24.9362L48.2852 24.4053L49.2335 23.9507Z" fill="#FFB600"/>
<path id="Vector_18" d="M49.746 25.1182L49.9492 25.7237L48.8758 26.0265L48.709 25.4754L49.746 25.1182Z" fill="#FFB600"/>
<path id="Vector_19" d="M50.1157 26.3433L50.2434 26.9699L49.1203 27.1524L49.0156 26.5872L50.1157 26.3433Z" fill="#FFB600"/>
<path id="Vector_20" d="M50.3351 27.6038C50.3528 27.8161 50.3723 28.0285 50.3883 28.2418L49.2324 28.2944C49.2182 28.104 49.2058 27.9136 49.1934 27.7222L50.3351 27.6038Z" fill="#FFB600"/>
<path id="Vector_21" d="M50.3992 28.8819L50.3725 29.5216L49.2148 29.44L49.2397 28.8669L50.3992 28.8819Z" fill="#FFB600"/>
<path id="Vector_22" d="M50.3082 30.1565C50.2754 30.3671 50.239 30.5778 50.2035 30.7884L49.0645 30.5734C49.0946 30.3847 49.1221 30.196 49.1541 30.0073L50.3073 30.1565H50.3082Z" fill="#FFB600"/>
<path id="Vector_23" d="M50.0621 31.4156L49.8829 32.0299L48.7891 31.6894L48.9443 31.1365L50.0621 31.4156Z" fill="#FFB600"/>
<path id="Vector_24" d="M49.666 32.6331L49.414 33.2211L48.3867 32.7665L48.6032 32.2329L49.666 32.6331Z" fill="#FFB600"/>
<path id="Vector_25" d="M49.1265 33.7929L48.8063 34.3467L47.8633 33.792L48.1392 33.2856L49.1265 33.7929Z" fill="#FFB600"/>
</g>
<g id="Group_3">
<path id="Vector_26" d="M38.7969 22.1827L39.1676 22.1677L39.1658 22.2961L38.8022 22.2926L38.7969 22.1827Z" fill="#9EA1A2"/>
<path id="Vector_27" d="M39.5371 22.1731L39.9087 22.1995L39.8865 22.3666L39.5273 22.32L39.5371 22.1731Z" fill="#9EA1A2"/>
<path id="Vector_28" d="M40.2747 22.2444L40.6419 22.3112L40.5876 22.5232L40.2383 22.4335L40.2747 22.2444Z" fill="#9EA1A2"/>
<path id="Vector_29" d="M41.0063 22.4001L41.3645 22.5074L41.2659 22.766L40.9316 22.6358L41.0063 22.4001Z" fill="#9EA1A2"/>
<path id="Vector_30" d="M41.7141 22.6353L42.0599 22.7839L41.9026 23.0837L41.5879 22.9158L41.7141 22.6353Z" fill="#9EA1A2"/>
<path id="Vector_31" d="M42.3981 22.9524L42.7262 23.1388L42.4986 23.4712L42.207 23.269L42.3981 22.9524Z" fill="#9EA1A2"/>
<path id="Vector_32" d="M43.0403 23.3408L43.3452 23.5659L43.0403 23.9159C42.9514 23.8394 42.8634 23.762 42.7754 23.6838L43.0403 23.3408Z" fill="#9EA1A2"/>
<path id="Vector_33" d="M43.6331 23.811L43.9095 24.0713L43.5246 24.4222L43.2891 24.1628L43.6331 23.811Z" fill="#9EA1A2"/>
<path id="Vector_34" d="M44.1719 24.3499L44.4155 24.6427L43.9505 24.976L43.7461 24.6937L44.1719 24.3499Z" fill="#9EA1A2"/>
<path id="Vector_35" d="M44.6379 24.9458L44.8429 25.2661L44.307 25.5628L44.1367 25.2617L44.6379 24.9458Z" fill="#9EA1A2"/>
<path id="Vector_36" d="M45.0289 25.6047L45.1939 25.9488L44.5977 26.1936L44.4629 25.8768L45.0289 25.6047Z" fill="#9EA1A2"/>
<path id="Vector_37" d="M45.336 26.2993L45.4575 26.6609L44.8162 26.8417L44.7168 26.5126L45.336 26.2993Z" fill="#9EA1A2"/>
<path id="Vector_38" d="M45.553 27.0295L45.6301 27.4034L44.9595 27.5122L44.8965 27.1752L45.553 27.0295Z" fill="#9EA1A2"/>
<path id="Vector_39" d="M45.6852 27.7815C45.6959 27.9087 45.7074 28.0351 45.7172 28.1624L45.027 28.194C45.0181 28.0799 45.011 27.9667 45.0039 27.8526L45.6861 27.7824L45.6852 27.7815Z" fill="#9EA1A2"/>
<path id="Vector_40" d="M45.7246 28.5449L45.7095 28.9267L45.0176 28.8775L45.0327 28.5361L45.7246 28.5449Z" fill="#9EA1A2"/>
<path id="Vector_41" d="M45.6713 29.3084C45.6518 29.4347 45.6296 29.5602 45.6092 29.6857L44.9297 29.5576C44.9474 29.4453 44.9643 29.3321 44.9838 29.2197L45.6722 29.3092L45.6713 29.3084Z" fill="#9EA1A2"/>
<path id="Vector_42" d="M45.52 30.0555L45.4136 30.4224L44.7598 30.2196L44.8529 29.8896L45.52 30.0555Z" fill="#9EA1A2"/>
<path id="Vector_43" d="M45.2873 30.7873L45.1364 31.1383L44.5234 30.8672L44.6521 30.5486L45.2873 30.7873Z" fill="#9EA1A2"/>
<path id="Vector_44" d="M44.965 31.4776L44.7743 31.8084L44.2109 31.4767L44.3759 31.1748L44.965 31.4776Z" fill="#9EA1A2"/>
</g>
</g>
</g>
</g>
</svg>
