<svg width="27" height="27" viewBox="0 0 27 27" fill="none" xmlns="http://www.w3.org/2000/svg">
<g clip-path="url(#clip0_7441_23895)">
<path d="M8.05291 26.32C6.72057 26.32 5.63867 25.2381 5.63867 23.9058V3.08928C5.63867 1.75695 6.72057 0.675049 8.05291 0.675049H17.9102C19.2425 0.675049 20.3244 1.75695 20.3244 3.08928V23.9108C20.3244 25.2432 19.2425 26.325 17.9102 26.325H8.05291V26.32Z" fill="#505278"/>
<path d="M17.9111 0.675049H12.9824V26.32H17.9111C19.2384 26.32 20.3203 25.2381 20.3203 23.9058V3.08928C20.3253 1.75695 19.2434 0.675049 17.9111 0.675049Z" fill="#424566"/>
<path d="M19.332 23.9054C19.332 24.6918 18.6959 25.3229 17.9146 25.3229H8.05225C7.26587 25.3229 6.63477 24.6868 6.63477 23.9054V3.08887C6.63477 2.30249 7.27088 1.67139 8.05225 1.67139H17.9146C18.7009 1.67139 19.332 2.3075 19.332 3.08887V23.9054Z" fill="#E6EAFF"/>
<path d="M17.9089 1.66577H12.9902V25.3273H17.9089C18.6902 25.3273 19.3264 24.6912 19.3264 23.9098V3.08827C19.3314 2.30189 18.6952 1.66577 17.9089 1.66577Z" fill="#CAD4FF"/>
<path d="M20.3253 7.68872L20.3203 10.679H20.3253C20.4155 10.679 20.4906 10.6038 20.4906 10.5137V7.85401C20.4906 7.76385 20.4205 7.68872 20.3253 7.68872Z" fill="#333756"/>
<path d="M5.63905 8.83002V7.18213H5.63404C5.54388 7.18213 5.46875 7.25726 5.46875 7.34742V8.65972C5.47376 8.75489 5.54889 8.83002 5.63905 8.83002ZM5.63905 10.6783V9.03037H5.63404C5.54388 9.03037 5.46875 9.1055 5.46875 9.19566V10.508C5.47376 10.6031 5.54889 10.6783 5.63905 10.6783Z" fill="#333756"/>
<path d="M15.3619 24.5425H10.6085C10.4332 24.5425 10.293 24.4022 10.293 24.2269C10.293 24.0516 10.4332 23.9114 10.6085 23.9114H15.3619C15.5372 23.9114 15.6774 24.0516 15.6774 24.2269C15.6774 24.4022 15.5372 24.5425 15.3619 24.5425Z" fill="#505278"/>
<path d="M14.6451 3.36027H11.3143C10.9937 3.36027 10.7383 3.09982 10.7383 2.78426C10.7383 2.4637 10.9987 2.20825 11.3143 2.20825H14.6451C14.9657 2.20825 15.2211 2.46871 15.2211 2.78426C15.2262 3.10482 14.9657 3.36027 14.6451 3.36027Z" fill="#505278"/>
<path d="M15.3616 23.9058H12.9824V24.5419H15.3616C15.5369 24.5419 15.6771 24.4016 15.6771 24.2263C15.6771 24.051 15.5369 23.9058 15.3616 23.9058Z" fill="#424566"/>
<path d="M15.0569 3.18937C15.1621 3.08418 15.2272 2.93893 15.2272 2.77865C15.2272 2.45808 14.9668 2.20264 14.6512 2.20264H12.9883V3.35967H14.6512C14.8065 3.35967 14.9517 3.29455 15.0569 3.18937Z" fill="#424566"/>
<path d="M20.7853 12.6255V21.915C20.7856 22.3024 20.6322 22.674 20.3588 22.9484C20.0854 23.2228 19.7143 23.3775 19.3269 23.3786H8.59349C8.40126 23.3787 8.21089 23.3409 8.03327 23.2674C7.85564 23.1939 7.69425 23.0861 7.55833 22.9502C7.4224 22.8143 7.3146 22.6529 7.2411 22.4753C7.1676 22.2976 7.12984 22.1073 7.12997 21.915V13.9954H6.3694C5.99326 13.9954 5.63253 13.846 5.36656 13.58C5.10059 13.314 4.95117 12.9533 4.95117 12.5772C4.95117 12.201 5.10059 11.8403 5.36656 11.5743C5.63253 11.3084 5.99326 11.1589 6.3694 11.1589H19.3269C19.715 11.1592 20.0871 11.3135 20.3615 11.5879C20.6359 11.8623 20.7902 12.2344 20.7905 12.6225L20.7853 12.6255Z" fill="#AA6256"/>
<path d="M18.5948 11.1594C18.3356 12.0172 17.8678 12.7973 17.2331 13.4298C17.0412 13.6258 16.8347 13.8071 16.6156 13.9722C16.3756 14.1523 16.1224 14.314 15.8581 14.4559C15.1396 14.8475 14.336 15.0567 13.5178 15.0652C13.2852 15.0668 13.053 15.0472 12.8241 15.0065C12.2735 14.9258 11.7515 14.7097 11.3049 14.3775C10.8584 14.0454 10.5013 13.6077 10.2655 13.1036C9.98882 12.4953 9.88007 11.824 9.95057 11.1594H18.5948Z" fill="#51383C"/>
<path d="M22.1284 15.8983L22.1006 16.0969C22.0328 16.4222 21.8723 16.7209 21.6386 16.957C21.4048 17.1931 21.1078 17.3566 20.7832 17.4276V15.0059C20.7832 15.0059 22.0378 14.7312 22.1284 15.8983Z" fill="#F9A83D"/>
<path d="M12.6652 15.0686C11.5239 15.051 10.4354 14.5853 9.63451 13.7721C8.83365 12.9588 8.38477 11.8632 8.38477 10.7218C8.38477 9.58041 8.83365 8.4848 9.63451 7.67152C10.4354 6.85825 11.5239 6.39256 12.6652 6.375H13.5132V15.0686H12.6652Z" fill="#F9A83D"/>
<path d="M17.8633 10.7206C17.8651 11.7066 17.5304 12.6637 16.9144 13.4336C16.5863 13.8444 16.1872 14.193 15.736 14.4628C15.0641 14.8632 14.2961 15.0737 13.5139 15.0721C13.277 15.073 13.0404 15.053 12.8069 15.0124C11.9892 14.8765 11.2274 14.5096 10.6114 13.9549C9.99542 13.4002 9.55094 12.6809 9.33042 11.8819C9.1099 11.0828 9.12253 10.2374 9.36682 9.44527C9.61111 8.65316 10.0769 7.94746 10.7092 7.41143C11.3414 6.87539 12.1138 6.53139 12.9352 6.42002C13.7566 6.30864 14.5928 6.43454 15.345 6.78285C16.0971 7.13116 16.734 7.68736 17.1804 8.38581C17.6268 9.08426 17.8641 9.89582 17.8643 10.7247L17.8633 10.7206Z" fill="#FFD06C"/>
<path d="M10.459 10.7265C10.4588 11.3307 10.6377 11.9215 10.9732 12.424C11.3086 12.9266 11.7855 13.3184 12.3436 13.5499C12.9017 13.7815 13.516 13.8424 14.1086 13.7249C14.7013 13.6075 15.2459 13.3169 15.6735 12.8901C16.1011 12.4632 16.3926 11.9191 16.511 11.3266C16.6295 10.7341 16.5696 10.1198 16.339 9.56128C16.1084 9.0028 15.7174 8.52522 15.2154 8.18892C14.7134 7.85262 14.123 7.67269 13.5188 7.67188C13.1176 7.67174 12.7203 7.75066 12.3497 7.90412C11.979 8.05758 11.6422 8.28258 11.3585 8.56626C11.0748 8.84994 10.8498 9.18673 10.6964 9.5574C10.5429 9.92807 10.464 10.3253 10.4641 10.7265H10.459Z" fill="#F9A83D"/>
<path d="M14.3273 10.4764C14.139 10.4095 13.9414 10.3684 13.7479 10.3179C13.7108 10.3087 13.6943 10.2973 13.6954 10.2551C13.6954 10.0565 13.6954 9.85685 13.6954 9.65821C13.6954 9.64278 13.6954 9.62837 13.6954 9.60778C13.793 9.63537 13.8808 9.68987 13.9489 9.76504C14.0169 9.8402 14.0625 9.93301 14.0803 10.0328C14.0879 10.0647 14.1074 10.0924 14.1347 10.1103C14.1621 10.1283 14.1952 10.1352 14.2275 10.1296L14.8223 10.0267C14.8557 10.0204 14.8853 10.0012 14.9046 9.97326C14.9238 9.9453 14.9313 9.91085 14.9253 9.87743C14.9054 9.75756 14.8636 9.6424 14.8018 9.5378C14.6734 9.35008 14.5091 9.18973 14.3183 9.06606C14.1275 8.94238 13.914 8.85785 13.6902 8.81736V8.55492C13.6902 8.5208 13.6767 8.48808 13.6525 8.46395C13.6284 8.43982 13.5957 8.42627 13.5616 8.42627H13.5184C13.4842 8.42627 13.4515 8.43982 13.4274 8.46395C13.4033 8.48808 13.3897 8.5208 13.3897 8.55492V8.82045C13.0869 8.81532 12.7922 8.91829 12.5585 9.11088C12.3248 9.30347 12.1674 9.57306 12.1145 9.87126C12.0435 10.4888 12.4233 10.8469 13.0295 10.9848L13.3887 11.0651V11.7856C13.2741 11.7652 13.168 11.7114 13.0838 11.631C12.9996 11.5507 12.941 11.4473 12.9152 11.3337C12.907 11.302 12.8869 11.2746 12.8593 11.257C12.8316 11.2395 12.7982 11.233 12.766 11.2391L12.1485 11.3584C12.1317 11.3615 12.1156 11.3679 12.1013 11.3773C12.0869 11.3867 12.0746 11.3988 12.065 11.413C12.0554 11.4272 12.0488 11.4431 12.0454 11.4599C12.0421 11.4767 12.0421 11.494 12.0456 11.5108C12.0797 11.6785 12.1554 11.8349 12.2658 11.9657C12.4058 12.134 12.5782 12.2725 12.7726 12.3731C12.967 12.4737 13.1797 12.5342 13.3979 12.5513V12.8127C13.3979 12.8468 13.4115 12.8795 13.4356 12.9037C13.4597 12.9278 13.4925 12.9413 13.5266 12.9413H13.5667C13.6008 12.9413 13.6336 12.9278 13.6577 12.9037C13.6818 12.8795 13.6954 12.8468 13.6954 12.8127V12.5461C15.2639 12.401 15.3122 10.8191 14.3263 10.4713L14.3273 10.4764ZM13.3948 10.2294C13.3104 10.2389 13.2255 10.2152 13.1582 10.1634C13.0908 10.1115 13.0461 10.0356 13.0336 9.95153C13.0223 9.76319 13.1633 9.62013 13.3948 9.58823V10.2294ZM13.7036 11.8V11.1341C14.3057 11.236 14.1544 11.7279 13.6995 11.8H13.7036Z" fill="#FFD06C"/>
<path d="M13.718 13.7707C13.6522 13.7707 13.5832 13.7768 13.5122 13.7768C12.7019 13.7768 11.9248 13.4549 11.3519 12.882C10.7789 12.309 10.457 11.5319 10.457 10.7217C10.457 9.91139 10.7789 9.13429 11.3519 8.56134C11.9248 7.98839 12.7019 7.6665 13.5122 7.6665C13.5811 7.6665 13.6501 7.6665 13.718 7.67268C12.9443 7.72396 12.219 8.06749 11.6891 8.63365C11.1593 9.1998 10.8644 9.94623 10.8644 10.7217C10.8644 11.4971 11.1593 12.2435 11.6891 12.8097C12.219 13.3758 12.9443 13.7194 13.718 13.7707Z" fill="#EA9734"/>
<g opacity="0.2">
<path d="M15.445 13.6999C15.4724 13.7733 15.4719 13.8541 15.4434 13.927C15.4149 14 15.3605 14.0598 15.2906 14.0951C14.5081 14.5054 13.6078 14.6323 12.7424 14.4543C12.6913 14.4434 12.6439 14.4198 12.6045 14.3856C12.5651 14.3514 12.535 14.3078 12.517 14.2588L10.4071 8.76392C10.3875 8.71528 10.3807 8.66245 10.3871 8.61041C10.3936 8.55837 10.4132 8.50884 10.4442 8.46649C10.9667 7.75596 11.7197 7.24887 12.5746 7.03179C12.6502 7.01136 12.7308 7.01948 12.8008 7.05459C12.8708 7.0897 12.9255 7.14936 12.9544 7.22219L15.445 13.6999Z" fill="white"/>
<path d="M16.0038 12.9486L13.8847 7.43525C13.8533 7.35131 13.8565 7.25834 13.8937 7.1768C13.9308 7.09525 13.9989 7.0318 14.0828 7.00041C14.1667 6.96902 14.2597 6.97226 14.3413 7.00941C14.4228 7.04657 14.4863 7.1146 14.5176 7.19853L16.6234 12.681C16.7675 13.0516 16.1664 13.3727 16.0038 12.9486Z" fill="white"/>
</g>
<g opacity="0.3">
<path d="M14.5175 7.19856L14.8088 7.95811C14.5484 7.83385 14.2709 7.74921 13.9854 7.70699L13.8825 7.43528C13.8513 7.35121 13.8547 7.25816 13.892 7.17662C13.9294 7.09507 13.9976 7.0317 14.0817 7.00044C14.1657 6.96919 14.2588 6.97261 14.3403 7.00996C14.4219 7.04731 14.4853 7.11552 14.5165 7.19959L14.5175 7.19856Z" fill="white"/>
</g>
<g opacity="0.3">
<g opacity="0.3">
<path d="M16.0031 12.9578L15.8848 12.649C16.0665 12.427 16.2159 12.1803 16.3283 11.9163L16.6227 12.6851C16.7668 13.0628 16.1657 13.3777 16.0031 12.9578Z" fill="white"/>
</g>
</g>
<path d="M19.045 15.4566V23.4319C19.045 23.82 18.8908 24.1923 18.6163 24.4667C18.3418 24.7412 17.9696 24.8954 17.5814 24.8954H6.41469C6.02654 24.8954 5.65429 24.7412 5.37983 24.4667C5.10536 24.1923 4.95117 23.82 4.95117 23.4319V12.5759C4.95117 12.9518 5.10048 13.3123 5.36626 13.578C5.63204 13.8438 5.99251 13.9931 6.36837 13.9931H17.5804C17.9686 13.9931 18.3408 14.1473 18.6153 14.4218C18.8897 14.6962 19.0439 15.0685 19.0439 15.4566H19.045Z" fill="#BF7D5A"/>
<path d="M7.18916 15.5492H6.66427C6.63373 15.5513 6.6031 15.547 6.57426 15.5368C6.54543 15.5265 6.51901 15.5104 6.49665 15.4896C6.47428 15.4687 6.45645 15.4434 6.44426 15.4153C6.43207 15.3872 6.42578 15.357 6.42578 15.3264C6.42578 15.2958 6.43207 15.2655 6.44426 15.2374C6.45645 15.2093 6.47428 15.1841 6.49665 15.1632C6.51901 15.1423 6.54543 15.1262 6.57426 15.1159C6.6031 15.1057 6.63373 15.1015 6.66427 15.1035H7.18916C7.21969 15.1015 7.25033 15.1057 7.27916 15.1159C7.308 15.1262 7.33442 15.1423 7.35678 15.1632C7.37914 15.1841 7.39697 15.2093 7.40916 15.2374C7.42135 15.2655 7.42764 15.2958 7.42764 15.3264C7.42764 15.357 7.42135 15.3872 7.40916 15.4153C7.39697 15.4434 7.37914 15.4687 7.35678 15.4896C7.33442 15.5104 7.308 15.5265 7.27916 15.5368C7.25033 15.547 7.21969 15.5513 7.18916 15.5492Z" fill="#AA6256"/>
<path d="M17.3027 23.7959H16.8395C16.809 23.7979 16.7784 23.7937 16.7495 23.7835C16.7207 23.7732 16.6943 23.7571 16.6719 23.7362C16.6496 23.7153 16.6317 23.6901 16.6195 23.662C16.6073 23.6339 16.6011 23.6037 16.6011 23.573C16.6011 23.5424 16.6073 23.5122 16.6195 23.4841C16.6317 23.456 16.6496 23.4308 16.6719 23.4099C16.6943 23.389 16.7207 23.3729 16.7495 23.3626C16.7784 23.3524 16.809 23.3482 16.8395 23.3502H17.3027C17.3335 23.3502 17.3631 23.338 17.3849 23.3162C17.4067 23.2944 17.419 23.2648 17.419 23.2339V23.165C17.4228 23.1085 17.448 23.0556 17.4893 23.0169C17.5307 22.9783 17.5852 22.9568 17.6418 22.9568C17.6984 22.9568 17.7529 22.9783 17.7943 23.0169C17.8356 23.0556 17.8608 23.1085 17.8646 23.165V23.236C17.8638 23.3846 17.8043 23.5268 17.699 23.6317C17.5937 23.7366 17.4513 23.7956 17.3027 23.7959ZM15.7733 23.7959H14.705C14.6745 23.7979 14.6438 23.7937 14.615 23.7835C14.5862 23.7732 14.5597 23.7571 14.5374 23.7362C14.515 23.7153 14.4972 23.6901 14.485 23.662C14.4728 23.6339 14.4665 23.6037 14.4665 23.573C14.4665 23.5424 14.4728 23.5122 14.485 23.4841C14.4972 23.456 14.515 23.4308 14.5374 23.4099C14.5597 23.389 14.5862 23.3729 14.615 23.3626C14.6438 23.3524 14.6745 23.3482 14.705 23.3502H15.7723C15.8028 23.3482 15.8334 23.3524 15.8623 23.3626C15.8911 23.3729 15.9175 23.389 15.9399 23.4099C15.9623 23.4308 15.9801 23.456 15.9923 23.4841C16.0045 23.5122 16.0108 23.5424 16.0108 23.573C16.0108 23.6037 16.0045 23.6339 15.9923 23.662C15.9801 23.6901 15.9623 23.7153 15.9399 23.7362C15.9175 23.7571 15.8911 23.7732 15.8623 23.7835C15.8334 23.7937 15.8038 23.7979 15.7733 23.7959ZM13.6387 23.7959H12.5715C12.5409 23.7979 12.5103 23.7937 12.4815 23.7835C12.4526 23.7732 12.4262 23.7571 12.4039 23.7362C12.3815 23.7153 12.3637 23.6901 12.3515 23.662C12.3393 23.6339 12.333 23.6037 12.333 23.573C12.333 23.5424 12.3393 23.5122 12.3515 23.4841C12.3637 23.456 12.3815 23.4308 12.4039 23.4099C12.4262 23.389 12.4526 23.3729 12.4815 23.3626C12.5103 23.3524 12.5409 23.3482 12.5715 23.3502H13.6387C13.6693 23.3482 13.6999 23.3524 13.7288 23.3626C13.7576 23.3729 13.784 23.389 13.8064 23.4099C13.8287 23.4308 13.8466 23.456 13.8588 23.4841C13.8709 23.5122 13.8772 23.5424 13.8772 23.573C13.8772 23.6037 13.8709 23.6339 13.8588 23.662C13.8466 23.6901 13.8287 23.7153 13.8064 23.7362C13.784 23.7571 13.7576 23.7732 13.7288 23.7835C13.6999 23.7937 13.6693 23.7979 13.6387 23.7959ZM11.5042 23.7959H10.4369C10.4064 23.7979 10.3758 23.7937 10.3469 23.7835C10.3181 23.7732 10.2917 23.7571 10.2693 23.7362C10.2469 23.7153 10.2291 23.6901 10.2169 23.662C10.2047 23.6339 10.1984 23.6037 10.1984 23.573C10.1984 23.5424 10.2047 23.5122 10.2169 23.4841C10.2291 23.456 10.2469 23.4308 10.2693 23.4099C10.2917 23.389 10.3181 23.3729 10.3469 23.3626C10.3758 23.3524 10.4064 23.3482 10.4369 23.3502H11.5042C11.5347 23.3482 11.5654 23.3524 11.5942 23.3626C11.623 23.3729 11.6495 23.389 11.6718 23.4099C11.6942 23.4308 11.712 23.456 11.7242 23.4841C11.7364 23.5122 11.7427 23.5424 11.7427 23.573C11.7427 23.6037 11.7364 23.6339 11.7242 23.662C11.712 23.6901 11.6942 23.7153 11.6718 23.7362C11.6495 23.7571 11.623 23.7732 11.5942 23.7835C11.5654 23.7937 11.5347 23.7979 11.5042 23.7959ZM9.36965 23.7959H8.30341C8.27287 23.7979 8.24224 23.7937 8.2134 23.7835C8.18457 23.7732 8.15815 23.7571 8.13579 23.7362C8.11342 23.7153 8.09559 23.6901 8.0834 23.662C8.07121 23.6339 8.06492 23.6037 8.06492 23.573C8.06492 23.5424 8.07121 23.5122 8.0834 23.4841C8.09559 23.456 8.11342 23.4308 8.13579 23.4099C8.15815 23.389 8.18457 23.3729 8.2134 23.3626C8.24224 23.3524 8.27287 23.3482 8.30341 23.3502H9.37068C9.40122 23.3482 9.43185 23.3524 9.46069 23.3626C9.48952 23.3729 9.51594 23.389 9.53831 23.4099C9.56067 23.4308 9.5785 23.456 9.59069 23.4841C9.60288 23.5122 9.60917 23.5424 9.60917 23.573C9.60917 23.6037 9.60288 23.6339 9.59069 23.662C9.5785 23.6901 9.56067 23.7153 9.53831 23.7362C9.51594 23.7571 9.48952 23.7732 9.46069 23.7835C9.43185 23.7937 9.40019 23.7979 9.36965 23.7959ZM17.6413 22.3179C17.5821 22.3179 17.5252 22.2944 17.4834 22.2525C17.4415 22.2106 17.4179 22.1538 17.4179 22.0946V21.0273C17.4218 20.9709 17.4469 20.9179 17.4883 20.8793C17.5297 20.8407 17.5842 20.8192 17.6408 20.8192C17.6974 20.8192 17.7519 20.8407 17.7932 20.8793C17.8346 20.9179 17.8597 20.9709 17.8636 21.0273V22.0946C17.8636 22.1537 17.8402 22.2103 17.7985 22.2522C17.7569 22.294 17.7003 22.3177 17.6413 22.3179ZM17.6413 20.1834C17.5821 20.1834 17.5252 20.1599 17.4834 20.118C17.4415 20.0761 17.4179 20.0193 17.4179 19.9601V18.8938C17.4218 18.8373 17.4469 18.7844 17.4883 18.7458C17.5297 18.7071 17.5842 18.6856 17.6408 18.6856C17.6974 18.6856 17.7519 18.7071 17.7932 18.7458C17.8346 18.7844 17.8597 18.8373 17.8636 18.8938V19.9611C17.8625 20.0194 17.8387 20.075 17.7971 20.116C17.7556 20.157 17.6996 20.1801 17.6413 20.1803V20.1834ZM17.6413 18.0488C17.5821 18.0488 17.5252 18.0253 17.4834 17.9834C17.4415 17.9416 17.4179 17.8847 17.4179 17.8255V16.7593C17.4218 16.7028 17.4469 16.6499 17.4883 16.6112C17.5297 16.5726 17.5842 16.5511 17.6408 16.5511C17.6974 16.5511 17.7519 16.5726 17.7932 16.6112C17.8346 16.6499 17.8597 16.7028 17.8636 16.7593V17.8265C17.8636 17.8856 17.8402 17.9423 17.7985 17.9841C17.7569 18.026 17.7003 18.0486 17.6413 18.0488ZM17.6413 15.902C17.613 15.9033 17.5848 15.8991 17.5582 15.8894C17.5317 15.8798 17.5073 15.865 17.4865 15.8458C17.4657 15.8267 17.4489 15.8036 17.4372 15.7779C17.4254 15.7522 17.4189 15.7244 17.4179 15.6961C17.4179 15.6066 17.3655 15.5551 17.3016 15.5551H16.7922C16.7617 15.5572 16.731 15.553 16.7022 15.5427C16.6734 15.5325 16.6469 15.5164 16.6246 15.4955C16.6022 15.4746 16.5844 15.4493 16.5722 15.4213C16.56 15.3932 16.5537 15.3629 16.5537 15.3323C16.5537 15.3017 16.56 15.2714 16.5722 15.2433C16.5844 15.2153 16.6022 15.19 16.6246 15.1691C16.6469 15.1482 16.6734 15.1321 16.7022 15.1219C16.731 15.1116 16.7617 15.1074 16.7922 15.1095H17.3016C17.4506 15.1097 17.5934 15.169 17.6987 15.2744C17.804 15.3797 17.8633 15.5225 17.8636 15.6714C17.8631 15.7311 17.8398 15.7884 17.7985 15.8314C17.7572 15.8745 17.7009 15.8991 17.6413 15.902ZM15.726 15.5489H14.6587C14.6281 15.551 14.5975 15.5468 14.5687 15.5365C14.5398 15.5263 14.5134 15.5102 14.4911 15.4893C14.4687 15.4684 14.4509 15.4431 14.4387 15.4151C14.4265 15.387 14.4202 15.3567 14.4202 15.3261C14.4202 15.2955 14.4265 15.2652 14.4387 15.2372C14.4509 15.2091 14.4687 15.1838 14.4911 15.1629C14.5134 15.142 14.5398 15.126 14.5687 15.1157C14.5975 15.1054 14.6281 15.1012 14.6587 15.1033H15.726C15.7565 15.1012 15.7871 15.1054 15.816 15.1157C15.8448 15.126 15.8712 15.142 15.8936 15.1629C15.9159 15.1838 15.9338 15.2091 15.946 15.2372C15.9582 15.2652 15.9644 15.2955 15.9644 15.3261C15.9644 15.3567 15.9582 15.387 15.946 15.4151C15.9338 15.4431 15.9159 15.4684 15.8936 15.4893C15.8712 15.5102 15.8448 15.5263 15.816 15.5365C15.7871 15.5468 15.7565 15.551 15.726 15.5489ZM13.5914 15.5489H12.5252C12.4946 15.551 12.464 15.5468 12.4352 15.5365C12.4063 15.5263 12.3799 15.5102 12.3575 15.4893C12.3352 15.4684 12.3173 15.4431 12.3052 15.4151C12.293 15.387 12.2867 15.3567 12.2867 15.3261C12.2867 15.2955 12.293 15.2652 12.3052 15.2372C12.3173 15.2091 12.3352 15.1838 12.3575 15.1629C12.3799 15.142 12.4063 15.126 12.4352 15.1157C12.464 15.1054 12.4946 15.1012 12.5252 15.1033H13.5924C13.623 15.1012 13.6536 15.1054 13.6824 15.1157C13.7113 15.126 13.7377 15.142 13.7601 15.1629C13.7824 15.1838 13.8003 15.2091 13.8124 15.2372C13.8246 15.2652 13.8309 15.2955 13.8309 15.3261C13.8309 15.3567 13.8246 15.387 13.8124 15.4151C13.8003 15.4431 13.7824 15.4684 13.7601 15.4893C13.7377 15.5102 13.7113 15.5263 13.6824 15.5365C13.6536 15.5468 13.6219 15.551 13.5914 15.5489ZM11.4569 15.5489H10.3906C10.3601 15.551 10.3294 15.5468 10.3006 15.5365C10.2718 15.5263 10.2454 15.5102 10.223 15.4893C10.2006 15.4684 10.1828 15.4431 10.1706 15.4151C10.1584 15.387 10.1521 15.3567 10.1521 15.3261C10.1521 15.2955 10.1584 15.2652 10.1706 15.2372C10.1828 15.2091 10.2006 15.1838 10.223 15.1629C10.2454 15.142 10.2718 15.126 10.3006 15.1157C10.3294 15.1054 10.3601 15.1012 10.3906 15.1033H11.4579C11.4884 15.1012 11.5191 15.1054 11.5479 15.1157C11.5767 15.126 11.6031 15.142 11.6255 15.1629C11.6479 15.1838 11.6657 15.2091 11.6779 15.2372C11.6901 15.2652 11.6964 15.2955 11.6964 15.3261C11.6964 15.3567 11.6901 15.387 11.6779 15.4151C11.6657 15.4431 11.6479 15.4684 11.6255 15.4893C11.6031 15.5102 11.5767 15.5263 11.5479 15.5365C11.5191 15.5468 11.4874 15.551 11.4569 15.5489ZM9.32231 15.5489H8.25607C8.22553 15.551 8.19489 15.5468 8.16606 15.5365C8.13722 15.5263 8.11081 15.5102 8.08844 15.4893C8.06608 15.4684 8.04825 15.4431 8.03606 15.4151C8.02387 15.387 8.01758 15.3567 8.01758 15.3261C8.01758 15.2955 8.02387 15.2652 8.03606 15.2372C8.04825 15.2091 8.06608 15.1838 8.08844 15.1629C8.11081 15.142 8.13722 15.126 8.16606 15.1157C8.19489 15.1054 8.22553 15.1012 8.25607 15.1033H9.32334C9.35388 15.1012 9.38451 15.1054 9.41335 15.1157C9.44218 15.126 9.4686 15.142 9.49096 15.1629C9.51332 15.1838 9.53115 15.2091 9.54335 15.2372C9.55554 15.2652 9.56183 15.2955 9.56183 15.3261C9.56183 15.3567 9.55554 15.387 9.54335 15.4151C9.53115 15.4431 9.51332 15.4684 9.49096 15.4893C9.4686 15.5102 9.44218 15.5263 9.41335 15.5365C9.38451 15.5468 9.35388 15.551 9.32334 15.5489H9.32231Z" fill="#AA6256"/>
<path d="M7.23408 23.7987H6.70919C6.67866 23.8008 6.64802 23.7965 6.61918 23.7863C6.59035 23.776 6.56393 23.76 6.54157 23.7391C6.5192 23.7182 6.50137 23.6929 6.48918 23.6648C6.47699 23.6368 6.4707 23.6065 6.4707 23.5759C6.4707 23.5453 6.47699 23.515 6.48918 23.4869C6.50137 23.4588 6.5192 23.4336 6.54157 23.4127C6.56393 23.3918 6.59035 23.3757 6.61918 23.3655C6.64802 23.3552 6.67866 23.351 6.70919 23.3531H7.23408C7.26461 23.351 7.29525 23.3552 7.32408 23.3655C7.35292 23.3757 7.37934 23.3918 7.4017 23.4127C7.42407 23.4336 7.4419 23.4588 7.45409 23.4869C7.46628 23.515 7.47257 23.5453 7.47257 23.5759C7.47257 23.6065 7.46628 23.6368 7.45409 23.6648C7.4419 23.6929 7.42407 23.7182 7.4017 23.7391C7.37934 23.76 7.35292 23.776 7.32408 23.7863C7.29525 23.7965 7.26461 23.8008 7.23408 23.7987Z" fill="#AA6256"/>
<path d="M22.1277 15.8936V19.257C21.9949 20.6752 20.6137 20.9654 19.0102 21.055H15.0684C14.6224 21.055 14.1947 20.8778 13.8793 20.5624C13.5639 20.247 13.3867 19.8193 13.3867 19.3733C13.3867 18.9272 13.5639 18.4995 13.8793 18.1841C14.1947 17.8687 14.6224 17.6916 15.0684 17.6916H19.0102C19.6095 17.6753 20.2044 17.5851 20.7815 17.4229C21.106 17.3519 21.4031 17.1884 21.6369 16.9523C21.8706 16.7162 22.0311 16.4175 22.0988 16.0922C22.1112 16.0294 22.1205 15.9625 22.1266 15.8936H22.1277Z" fill="#FFD06C"/>
<path d="M15.6703 19.3691C15.6703 19.4945 15.6331 19.6171 15.5635 19.7213C15.4938 19.8256 15.3948 19.9068 15.2789 19.9548C15.1631 20.0028 15.0356 20.0154 14.9126 19.9909C14.7897 19.9664 14.6767 19.906 14.588 19.8174C14.4994 19.7287 14.439 19.6158 14.4145 19.4928C14.3901 19.3698 14.4026 19.2423 14.4506 19.1265C14.4986 19.0106 14.5798 18.9116 14.6841 18.842C14.7884 18.7723 14.9109 18.7351 15.0363 18.7351C15.2045 18.7351 15.3657 18.8019 15.4846 18.9208C15.6035 19.0397 15.6703 19.2009 15.6703 19.3691Z" fill="#BF7D5A"/>
<path d="M21.7032 19.1416C21.5771 19.5585 21.3048 19.9159 20.9362 20.1481C20.5677 20.3803 20.1278 20.4717 19.6973 20.4055C20.5069 20.2665 21.2283 19.8119 21.7032 19.1416Z" fill="#F8F9FE"/>
<path d="M5.81627 17.8223C5.91408 18.5409 5.96017 19.2656 5.95418 19.9908C5.96074 20.7157 5.91464 21.4401 5.81627 22.1583C5.71784 21.4397 5.67175 20.715 5.67836 19.9897C5.67241 19.2649 5.7185 18.5405 5.81627 17.8223Z" fill="#F8F9FE"/>
<path d="M15.2653 10.2697C15.1108 10.3527 14.9912 10.4883 14.9282 10.652C14.9259 10.6583 14.9218 10.6638 14.9163 10.6677C14.9109 10.6716 14.9043 10.6737 14.8976 10.6737C14.8909 10.6737 14.8844 10.6716 14.8789 10.6677C14.8734 10.6638 14.8693 10.6583 14.8671 10.652C14.8041 10.4883 14.6845 10.3527 14.53 10.2697C14.525 10.2669 14.5209 10.2628 14.518 10.2578C14.5152 10.2529 14.5137 10.2473 14.5137 10.2416C14.5137 10.2359 14.5152 10.2303 14.518 10.2254C14.5209 10.2204 14.525 10.2164 14.53 10.2135C14.6845 10.1305 14.8041 9.99487 14.8671 9.8312C14.8693 9.82488 14.8734 9.8194 14.8789 9.81553C14.8844 9.81165 14.8909 9.80957 14.8976 9.80957C14.9043 9.80957 14.9109 9.81165 14.9163 9.81553C14.9218 9.8194 14.9259 9.82488 14.9282 9.8312C14.9915 9.99468 15.111 10.1302 15.2653 10.2135C15.2702 10.2164 15.2743 10.2204 15.2772 10.2254C15.2801 10.2303 15.2816 10.2359 15.2816 10.2416C15.2816 10.2473 15.2801 10.2529 15.2772 10.2578C15.2743 10.2628 15.2702 10.2669 15.2653 10.2697Z" fill="white"/>
<path d="M11.2151 9.16593C11.0814 9.23778 10.9778 9.35523 10.9232 9.49694C10.9212 9.50227 10.9176 9.50686 10.9129 9.51009C10.9082 9.51333 10.9026 9.51506 10.8969 9.51506C10.8913 9.51506 10.8857 9.51333 10.881 9.51009C10.8763 9.50686 10.8727 9.50227 10.8707 9.49694C10.8158 9.35524 10.712 9.23784 10.5781 9.16593C10.574 9.16344 10.5705 9.15991 10.5681 9.15568C10.5657 9.15145 10.5645 9.14667 10.5645 9.14181C10.5645 9.13694 10.5657 9.13217 10.5681 9.12794C10.5705 9.12371 10.574 9.12018 10.5781 9.11768C10.712 9.04596 10.8157 8.92847 10.8701 8.78667C10.8721 8.78134 10.8757 8.77676 10.8804 8.77352C10.8851 8.77029 10.8906 8.76855 10.8963 8.76855C10.902 8.76855 10.9076 8.77029 10.9123 8.77352C10.917 8.77676 10.9206 8.78134 10.9226 8.78667C10.9776 8.92828 11.0814 9.04564 11.2151 9.11768C11.2193 9.12018 11.2228 9.12371 11.2252 9.12794C11.2276 9.13217 11.2288 9.13694 11.2288 9.14181C11.2288 9.14667 11.2276 9.15145 11.2252 9.15568C11.2228 9.15991 11.2193 9.16344 11.2151 9.16593Z" fill="white"/>
<path d="M11.1135 11.9226C11.0094 11.9785 10.9288 12.0699 10.8863 12.1803C10.8847 12.1844 10.8819 12.1879 10.8783 12.1904C10.8746 12.1929 10.8703 12.1942 10.8659 12.1942C10.8615 12.1942 10.8572 12.1929 10.8535 12.1904C10.8499 12.1879 10.847 12.1844 10.8454 12.1803C10.8029 12.07 10.7223 11.9786 10.6182 11.9226C10.6149 11.9206 10.6122 11.9179 10.6103 11.9145C10.6084 11.9112 10.6074 11.9075 10.6074 11.9036C10.6074 11.8998 10.6084 11.8961 10.6103 11.8927C10.6122 11.8894 10.6149 11.8866 10.6182 11.8847C10.7225 11.8289 10.8031 11.7374 10.8454 11.627C10.847 11.6229 10.8499 11.6193 10.8535 11.6169C10.8572 11.6144 10.8615 11.613 10.8659 11.613C10.8703 11.613 10.8746 11.6144 10.8783 11.6169C10.8819 11.6193 10.8847 11.6229 10.8863 11.627C10.929 11.7372 11.0096 11.8285 11.1135 11.8847C11.1168 11.8866 11.1196 11.8894 11.1214 11.8927C11.1233 11.8961 11.1243 11.8998 11.1243 11.9036C11.1243 11.9075 11.1233 11.9112 11.1214 11.9145C11.1196 11.9179 11.1168 11.9206 11.1135 11.9226Z" fill="white"/>
</g>
<defs>
<clipPath id="clip0_7441_23895">
<rect width="25.65" height="25.65" fill="white" transform="translate(0.675781 0.675049)"/>
</clipPath>
</defs>
</svg>
