<svg width="27" height="27" viewBox="0 0 27 27" fill="none" xmlns="http://www.w3.org/2000/svg">
<g id="fi_2498274" clip-path="url(#clip0_7441_24200)">
<g id="Group">
<path id="Vector" d="M23.9207 12.2974V11.8966H24.3214C24.9844 11.8966 25.5238 11.3571 25.5238 10.6942V9.49187C25.5238 8.82897 24.9844 8.28951 24.3214 8.28951H23.5199V5.88479C23.5199 5.41466 23.2433 4.98502 22.8149 4.79024L13.9976 0.78236C13.6833 0.639279 13.317 0.639279 13.0028 0.78236L4.18548 4.79024C3.75664 4.98502 3.4805 5.41466 3.4805 5.88479V8.28951H2.67892C2.01602 8.28951 1.47656 8.82897 1.47656 9.49187V10.6942C1.47656 11.3571 2.01602 11.8966 2.67892 11.8966H3.07971V12.2974C3.07971 12.9603 3.61917 13.4997 4.28207 13.4997V21.1147C3.61917 21.1147 3.07971 21.6542 3.07971 22.3171V22.7179H2.67892C2.01602 22.7179 1.47656 23.2573 1.47656 23.9202V25.9242C1.47656 26.1454 1.65612 26.3249 1.87735 26.3249H25.123C25.3443 26.3249 25.5238 26.1454 25.5238 25.9242V23.9202C25.5238 23.2573 24.9844 22.7179 24.3214 22.7179H23.9207V22.3171C23.9207 21.6542 23.3812 21.1147 22.7183 21.1147V13.4997C23.3812 13.4997 23.9207 12.9603 23.9207 12.2974ZM11.4962 13.4997V21.1147C10.8333 21.1147 10.2939 21.6542 10.2939 22.3171V22.7179H9.49231V22.3171C9.49231 21.6542 8.95285 21.1147 8.28995 21.1147V13.4997C8.95285 13.4997 9.49231 12.9603 9.49231 12.2974V11.8966H10.2939V12.2974C10.2939 12.9603 10.8329 13.4997 11.4962 13.4997ZM18.7104 13.4997V21.1147C18.0475 21.1147 17.5081 21.6542 17.5081 22.3171V22.7179H16.7065V22.3171C16.7065 21.6542 16.167 21.1147 15.5041 21.1147V13.4997C16.167 13.4997 16.7065 12.9603 16.7065 12.2974V11.8966H17.5081V12.2974C17.5081 12.9603 18.0471 13.4997 18.7104 13.4997Z" fill="url(#paint0_linear_7441_24200)"/>
<path id="Vector_2" d="M24.3214 8.28979H2.67892C2.01602 8.28979 1.47656 8.82925 1.47656 9.49216V10.6945C1.47656 11.3574 2.01602 11.8969 2.67892 11.8969H24.3214C24.9844 11.8969 25.5238 11.3574 25.5238 10.6945V9.49216C25.5238 8.82925 24.9844 8.28979 24.3214 8.28979Z" fill="url(#paint1_linear_7441_24200)"/>
<path id="Vector_3" d="M23.5198 8.28951V5.88479C23.5198 5.41466 23.2433 4.98502 22.8149 4.79023L13.9975 0.78236C13.6833 0.639279 13.317 0.639279 13.0028 0.78236L4.18545 4.79023C3.75661 4.98502 3.48047 5.41466 3.48047 5.88479V8.28951H23.5198Z" fill="url(#paint2_linear_7441_24200)"/>
<path id="Vector_4" d="M24.3214 22.7178H2.67892C2.01602 22.7178 1.47656 23.2572 1.47656 23.9201V25.9241C1.47656 26.1453 1.65612 26.3249 1.87735 26.3249H25.123C25.3443 26.3249 25.5238 26.1453 25.5238 25.9241V23.9201C25.5238 23.2572 24.9844 22.7178 24.3214 22.7178Z" fill="url(#paint3_linear_7441_24200)"/>
<path id="Vector_5" d="M13.4992 4.68289C13.2784 4.68289 13.0985 4.50294 13.0985 4.2821C13.0985 4.06127 13.2784 3.88132 13.4992 3.88132C13.7201 3.88132 13.9 4.06127 13.9 4.2821C13.9 4.50334 14.0796 4.68289 14.3008 4.68289C14.522 4.68289 14.7016 4.50334 14.7016 4.2821C14.7016 3.76028 14.3657 3.31981 13.9 3.15349V3.07974C13.9 2.85851 13.7205 2.67896 13.4992 2.67896C13.278 2.67896 13.0985 2.85851 13.0985 3.07974V3.15349C12.6327 3.31941 12.2969 3.76028 12.2969 4.2821C12.2969 4.94501 12.8363 5.48447 13.4992 5.48447C13.7201 5.48447 13.9 5.66442 13.9 5.88525C13.9 6.10609 13.7201 6.28604 13.4992 6.28604C13.2784 6.28604 13.0985 6.10609 13.0985 5.88525C13.0985 5.66402 12.9189 5.48447 12.6977 5.48447C12.4764 5.48447 12.2969 5.66402 12.2969 5.88525C12.2969 6.40708 12.6327 6.84755 13.0985 7.01347V7.08762C13.0985 7.30885 13.278 7.48841 13.4992 7.48841C13.7205 7.48841 13.9 7.30885 13.9 7.08762V7.01387C14.3657 6.84755 14.7016 6.40708 14.7016 5.88525C14.7016 5.22235 14.1621 4.68289 13.4992 4.68289Z" fill="url(#paint4_linear_7441_24200)"/>
<g id="Group_2">
<path id="Vector_6" d="M10.2949 12.2973C10.2949 12.9602 10.8344 13.4996 11.4973 13.4996H15.5052C16.1681 13.4996 16.7075 12.9602 16.7075 12.2973V11.8965H10.2949V12.2973Z" fill="url(#paint5_linear_7441_24200)"/>
<path id="Vector_7" d="M17.5078 12.2973C17.5078 12.9602 18.0473 13.4996 18.7102 13.4996H22.7181C23.381 13.4996 23.9204 12.9602 23.9204 12.2973V11.8965H17.5078V12.2973Z" fill="url(#paint6_linear_7441_24200)"/>
<path id="Vector_8" d="M3.08008 12.2973C3.08008 12.9602 3.61954 13.4996 4.28244 13.4996H8.29032C8.95322 13.4996 9.49268 12.9602 9.49268 12.2973V11.8965H3.08008V12.2973Z" fill="url(#paint7_linear_7441_24200)"/>
</g>
<g id="Group_3">
<path id="Vector_9" d="M16.7075 22.3171C16.7075 21.6542 16.1681 21.1147 15.5052 21.1147H11.4973C10.8344 21.1147 10.2949 21.6542 10.2949 22.3171V22.7179H16.7075V22.3171Z" fill="url(#paint8_linear_7441_24200)"/>
<path id="Vector_10" d="M23.9204 22.3171C23.9204 21.6542 23.381 21.1147 22.7181 21.1147H18.7102C18.0473 21.1147 17.5078 21.6542 17.5078 22.3171V22.7179H23.9204V22.3171Z" fill="url(#paint9_linear_7441_24200)"/>
<path id="Vector_11" d="M9.49268 22.3171C9.49268 21.6542 8.95322 21.1147 8.29032 21.1147H4.28244C3.61954 21.1147 3.08008 21.6542 3.08008 22.3171V22.7179H9.49268V22.3171Z" fill="url(#paint10_linear_7441_24200)"/>
</g>
</g>
</g>
<defs>
<linearGradient id="paint0_linear_7441_24200" x1="2.81359" y1="27.4271" x2="24.1864" y2="6.05432" gradientUnits="userSpaceOnUse">
<stop stop-color="#165C92"/>
<stop offset="1" stop-color="#3D9AE2"/>
</linearGradient>
<linearGradient id="paint1_linear_7441_24200" x1="6.93889" y1="16.6542" x2="20.0611" y2="3.53245" gradientUnits="userSpaceOnUse">
<stop stop-color="#165C92"/>
<stop offset="1" stop-color="#3D9AE2"/>
</linearGradient>
<linearGradient id="paint2_linear_7441_24200" x1="7.76449" y1="12.5739" x2="19.2354" y2="1.10299" gradientUnits="userSpaceOnUse">
<stop stop-color="#5AAAE7"/>
<stop offset="1" stop-color="#B3D8F4"/>
</linearGradient>
<linearGradient id="paint3_linear_7441_24200" x1="6.82146" y1="31.4353" x2="20.1785" y2="18.0779" gradientUnits="userSpaceOnUse">
<stop stop-color="#165C92"/>
<stop offset="1" stop-color="#3D9AE2"/>
</linearGradient>
<linearGradient id="paint4_linear_7441_24200" x1="12.2135" y1="6.36901" x2="14.7846" y2="3.79835" gradientUnits="userSpaceOnUse">
<stop stop-color="#165C92"/>
<stop offset="1" stop-color="#3D9AE2"/>
</linearGradient>
<linearGradient id="paint5_linear_7441_24200" x1="11.6732" y1="14.1734" x2="15.3288" y2="10.5178" gradientUnits="userSpaceOnUse">
<stop stop-color="#5AAAE7"/>
<stop offset="1" stop-color="#B3D8F4"/>
</linearGradient>
<linearGradient id="paint6_linear_7441_24200" x1="18.8861" y1="14.1734" x2="22.5417" y2="10.5178" gradientUnits="userSpaceOnUse">
<stop stop-color="#5AAAE7"/>
<stop offset="1" stop-color="#B3D8F4"/>
</linearGradient>
<linearGradient id="paint7_linear_7441_24200" x1="4.45839" y1="14.1734" x2="8.11397" y2="10.5178" gradientUnits="userSpaceOnUse">
<stop stop-color="#5AAAE7"/>
<stop offset="1" stop-color="#B3D8F4"/>
</linearGradient>
<linearGradient id="paint8_linear_7441_24200" x1="11.6732" y1="24.0966" x2="15.3288" y2="20.4414" gradientUnits="userSpaceOnUse">
<stop stop-color="#5AAAE7"/>
<stop offset="1" stop-color="#B3D8F4"/>
</linearGradient>
<linearGradient id="paint9_linear_7441_24200" x1="18.8861" y1="24.0966" x2="22.5417" y2="20.4414" gradientUnits="userSpaceOnUse">
<stop stop-color="#5AAAE7"/>
<stop offset="1" stop-color="#B3D8F4"/>
</linearGradient>
<linearGradient id="paint10_linear_7441_24200" x1="4.45839" y1="24.0966" x2="8.11397" y2="20.4414" gradientUnits="userSpaceOnUse">
<stop stop-color="#5AAAE7"/>
<stop offset="1" stop-color="#B3D8F4"/>
</linearGradient>
<clipPath id="clip0_7441_24200">
<rect width="25.65" height="25.65" fill="white" transform="translate(0.675781 0.675049)"/>
</clipPath>
</defs>
</svg>
