<svg width="27" height="27" viewBox="0 0 27 27" fill="none" xmlns="http://www.w3.org/2000/svg">
<g id="Iconly/Light-outline/Home">
<g id="_x35_">
<g id="Group 245940">
<g id="Group 245896">
<g id="Group 245886">
<g id="Group 245885">
<path id="Path 330191" d="M25.3551 14.4083L8.84074 23.497C8.40609 23.7361 7.89427 23.7928 7.41782 23.6546C6.94136 23.5165 6.53927 23.1948 6.29996 22.7602L1.26686 13.616C1.02774 13.1814 0.971026 12.6695 1.10918 12.1931C1.24733 11.7166 1.56905 11.3145 2.00358 11.0752L18.5179 1.98659C18.9526 1.74747 19.4644 1.69075 19.9408 1.82891C20.4173 1.96706 20.8194 2.28877 21.0587 2.72331L26.0918 11.8675C26.3309 12.3022 26.3876 12.814 26.2495 13.2905C26.1113 13.7669 25.7896 14.169 25.3551 14.4083Z" fill="#FEBC1F"/>
</g>
</g>
<g id="Group 245888">
<g id="Group 245887">
<path id="Path 330192" d="M24.9933 13.7516L8.47896 22.8402C8.045 23.0798 7.53372 23.1374 7.05735 23.0003C6.58098 22.8632 6.17847 22.5428 5.93819 22.1092L0.905085 12.9593C0.667771 12.5252 0.612052 12.0147 0.750118 11.5396C0.888183 11.0646 1.20879 10.6635 1.64181 10.4242L18.1561 1.32985C18.5908 1.09073 19.1026 1.03401 19.5791 1.17217C20.0555 1.31032 20.4576 1.63203 20.6969 2.06657L25.73 11.2108C25.9691 11.6454 26.0258 12.1573 25.8877 12.6337C25.7495 13.1102 25.4278 13.5123 24.9933 13.7516Z" fill="#FFD475"/>
</g>
</g>
<g id="Group 245891">
<g id="Group 245890">
<g id="Group 245889">
<path id="Path 330193" d="M18.1527 1.33215L1.63835 10.4237C1.20381 10.663 0.882098 11.0651 0.743945 11.5415C0.605791 12.018 0.662509 12.5298 0.901626 12.9644L5.9333 22.1087C5.9333 22.1087 1.23935 13.1312 19.8228 1.2666C19.5585 1.14699 19.2699 1.09064 18.98 1.10202C18.6901 1.1134 18.4068 1.1922 18.1527 1.33215Z" fill="#FEBC1F"/>
</g>
</g>
</g>
<g id="Group 245893">
<g id="Group 245892">
<path id="Path 330194" d="M2.38423 14.0794L3.0155 15.228C3.09214 15.3667 3.22071 15.4694 3.373 15.5135C3.52528 15.5576 3.68883 15.5395 3.82775 15.4631L21.2484 5.87567C21.3872 5.79903 21.4899 5.67046 21.5339 5.51818C21.578 5.3659 21.5599 5.20235 21.4835 5.06342L20.8565 3.91487C20.7799 3.7761 20.6513 3.6734 20.499 3.62932C20.3467 3.58523 20.1832 3.60337 20.0443 3.67975L2.6165 13.2743C2.48011 13.3514 2.37938 13.4789 2.33595 13.6294C2.29252 13.7799 2.30986 13.9415 2.38423 14.0794Z" fill="#1D2943"/>
</g>
</g>
<g id="Group 245895">
<g id="Group 245894">
<path id="Path 330195" d="M2.20745 13.7623L2.83872 14.9108C2.91537 15.0496 3.04394 15.1523 3.19622 15.1964C3.3485 15.2405 3.51205 15.2223 3.65097 15.1459L21.0716 5.55854C21.2104 5.48189 21.3131 5.35332 21.3572 5.20104C21.4012 5.04876 21.3831 4.88521 21.3067 4.74628L20.6754 3.59773C20.5988 3.45896 20.4702 3.35626 20.318 3.31218C20.1657 3.2681 20.0021 3.28623 19.8632 3.36261L2.44257 12.9486C2.37367 12.9865 2.31293 13.0377 2.26381 13.0991C2.2147 13.1606 2.17817 13.2311 2.15634 13.3067C2.1345 13.3823 2.12777 13.4614 2.13654 13.5396C2.14531 13.6177 2.16941 13.6934 2.20745 13.7623Z" fill="#4C5C75"/>
</g>
</g>
</g>
<g id="Group 245898">
<g id="Group 245897">
<path id="Path 330196" d="M22.3635 25.9004H3.51361C3.26754 25.9004 3.02389 25.8519 2.79661 25.7576C2.56933 25.6633 2.36288 25.5251 2.18908 25.3509C2.01528 25.1767 1.87755 24.9699 1.78378 24.7425C1.69 24.515 1.64202 24.2712 1.64258 24.0251V13.5927C1.64258 13.0965 1.83971 12.6206 2.19059 12.2697C2.54148 11.9188 3.01738 11.7217 3.51361 11.7217H22.3635C22.8597 11.7217 23.3356 11.9188 23.6865 12.2697C24.0374 12.6206 24.2345 13.0965 24.2345 13.5927V24.0251C24.2351 24.2712 24.1871 24.515 24.0933 24.7425C23.9996 24.9699 23.8618 25.1767 23.688 25.3509C23.5142 25.5251 23.3078 25.6633 23.0805 25.7576C22.8532 25.8519 22.6096 25.9004 22.3635 25.9004Z" fill="#5094FF"/>
</g>
</g>
<g id="Group 245900">
<g id="Group 245899">
<path id="Path 330197" d="M3.51556 25.1543H22.3655C22.8617 25.1543 23.3376 24.9572 23.6885 24.6063C24.0394 24.2554 24.2365 23.7795 24.2365 23.2833V12.8452C24.2361 12.3492 24.0388 11.8737 23.688 11.5231C23.3371 11.1725 22.8614 10.9756 22.3655 10.9756H3.51556C3.01958 10.9756 2.54389 11.1725 2.19305 11.5231C1.8422 11.8737 1.64491 12.3492 1.64453 12.8452V23.2819C1.64434 23.5277 1.6926 23.7712 1.78655 23.9983C1.88049 24.2255 2.01828 24.4319 2.19204 24.6058C2.3658 24.7797 2.57212 24.9177 2.79922 25.0118C3.02631 25.1059 3.26973 25.1543 3.51556 25.1543Z" fill="#57B3FE"/>
</g>
</g>
<g id="Group 245903">
<g id="Group 245902">
<g id="Group 245901">
<path id="Path 330198" d="M3.51488 10.9756H22.3648C22.861 10.9756 23.3369 11.1727 23.6878 11.5236C24.0387 11.8745 24.2358 12.3504 24.2358 12.8466V23.2833C24.2358 23.2833 24.0206 13.1658 2.02148 11.7223C2.19537 11.4904 2.42084 11.3023 2.68005 11.1727C2.93926 11.0431 3.22508 10.9756 3.51488 10.9756Z" fill="#5094FF"/>
</g>
</g>
</g>
<g id="Group 245924">
<g id="Group 245908">
<g id="Group 245905">
<g id="Group 245904">
<path id="Path 330199" d="M22.7737 21.7943V22.0793C22.775 22.1737 22.7575 22.2675 22.7223 22.3551C22.6871 22.4427 22.6348 22.5224 22.5685 22.5896C22.5022 22.6568 22.4232 22.7102 22.3361 22.7466C22.249 22.7831 22.1556 22.8018 22.0612 22.8018H20.1559C20.0615 22.8018 19.968 22.7831 19.8809 22.7466C19.7938 22.7102 19.7149 22.6568 19.6486 22.5896C19.5823 22.5224 19.53 22.4427 19.4948 22.3551C19.4596 22.2675 19.4421 22.1737 19.4434 22.0793V21.7943H19.4905C19.5536 21.6516 19.6571 21.5305 19.7883 21.4459C19.9195 21.3613 20.0725 21.317 20.2286 21.3184H21.9956C22.1517 21.317 22.3047 21.3613 22.4359 21.4459C22.5671 21.5305 22.6706 21.6516 22.7338 21.7943H22.7737Z" fill="#E3E7F0"/>
</g>
</g>
<g id="Group 245907">
<g id="Group 245906">
<path id="Path 330200" d="M22.0494 22.5186H20.214C20.0332 22.5239 19.8564 22.4648 19.7151 22.3517C19.5739 22.2387 19.4775 22.0791 19.4431 21.9015C19.4282 21.7991 19.4355 21.6946 19.4644 21.5952C19.4933 21.4958 19.5432 21.4038 19.6108 21.3253C19.6783 21.2468 19.7619 21.1838 19.8558 21.1403C19.9498 21.0969 20.052 21.0742 20.1556 21.0736H21.9838C22.175 21.0677 22.3614 21.1339 22.506 21.259C22.6507 21.3841 22.743 21.559 22.7647 21.7491C22.7714 21.8473 22.7578 21.9458 22.7249 22.0385C22.692 22.1313 22.6404 22.2164 22.5734 22.2885C22.5064 22.3605 22.4253 22.4182 22.3352 22.4577C22.2451 22.4973 22.1478 22.518 22.0494 22.5186Z" fill="white"/>
</g>
</g>
</g>
<g id="Group 245913">
<g id="Group 245910">
<g id="Group 245909">
<path id="Path 330201" d="M17.3308 21.7943V22.0793C17.3321 22.1737 17.3147 22.2675 17.2795 22.3551C17.2443 22.4427 17.192 22.5224 17.1257 22.5896C17.0594 22.6568 16.9804 22.7102 16.8933 22.7466C16.8062 22.7831 16.7127 22.8018 16.6183 22.8018H14.7145C14.6201 22.8018 14.5266 22.7831 14.4395 22.7466C14.3524 22.7102 14.2734 22.6568 14.2072 22.5896C14.1409 22.5224 14.0886 22.4427 14.0534 22.3551C14.0182 22.2675 14.0007 22.1737 14.002 22.0793V21.7943H14.049C14.1122 21.6516 14.2157 21.5305 14.3469 21.4459C14.4781 21.3613 14.6311 21.317 14.7872 21.3184H16.5542C16.7103 21.317 16.8633 21.3613 16.9945 21.4459C17.1257 21.5305 17.2292 21.6516 17.2924 21.7943H17.3308Z" fill="#E3E7F0"/>
</g>
</g>
<g id="Group 245912">
<g id="Group 245911">
<path id="Path 330202" d="M16.6163 22.5186H14.7823C14.6015 22.5239 14.4247 22.4648 14.2835 22.3517C14.1423 22.2387 14.0458 22.0791 14.0114 21.9015C13.9965 21.7991 14.0038 21.6946 14.0327 21.5952C14.0617 21.4958 14.1116 21.4038 14.1791 21.3253C14.2466 21.2468 14.3302 21.1838 14.4242 21.1403C14.5182 21.0969 14.6204 21.0742 14.7239 21.0736H16.5522C16.7434 21.0677 16.9297 21.1339 17.0744 21.259C17.219 21.3841 17.3114 21.559 17.3331 21.7491C17.3397 21.847 17.3262 21.9453 17.2935 22.0379C17.2608 22.1305 17.2095 22.2154 17.1428 22.2874C17.076 22.3595 16.9953 22.4171 16.9055 22.4569C16.8157 22.4966 16.7188 22.5176 16.6206 22.5186H16.6163Z" fill="white"/>
</g>
</g>
</g>
<g id="Group 245918">
<g id="Group 245915">
<g id="Group 245914">
<path id="Path 330203" d="M11.8947 21.7943V22.0793C11.8961 22.1737 11.8786 22.2675 11.8434 22.3551C11.8082 22.4427 11.7559 22.5224 11.6896 22.5896C11.6233 22.6568 11.5443 22.7102 11.4572 22.7466C11.3701 22.7831 11.2767 22.8018 11.1822 22.8018H9.27702C9.18261 22.8018 9.08914 22.7831 9.00204 22.7466C8.91494 22.7102 8.83594 22.6568 8.76965 22.5896C8.70335 22.5224 8.65108 22.4427 8.61587 22.3551C8.58065 22.2675 8.5632 22.1737 8.56452 22.0793V21.7943H8.6087C8.67184 21.6516 8.77539 21.5305 8.90656 21.4459C9.03772 21.3613 9.19078 21.317 9.34685 21.3184H11.1138C11.2699 21.317 11.423 21.3613 11.5541 21.4459C11.6853 21.5305 11.7889 21.6516 11.852 21.7943H11.8947Z" fill="#E3E7F0"/>
</g>
</g>
<g id="Group 245917">
<g id="Group 245916">
<path id="Path 330204" d="M11.1662 22.5186H9.33508C9.15427 22.5239 8.97745 22.4648 8.83622 22.3517C8.695 22.2387 8.59856 22.0791 8.56416 21.9015C8.54928 21.7991 8.55655 21.6946 8.58548 21.5952C8.6144 21.4958 8.66432 21.4038 8.73185 21.3253C8.79938 21.2468 8.88296 21.1838 8.97694 21.1403C9.07093 21.0969 9.17313 21.0742 9.27666 21.0736H11.1049C11.2961 21.0677 11.4825 21.1339 11.6271 21.259C11.7718 21.3841 11.8641 21.559 11.8858 21.7491C11.8924 21.847 11.879 21.9453 11.8462 22.0379C11.8135 22.1305 11.7622 22.2154 11.6955 22.2874C11.6288 22.3595 11.5481 22.4171 11.4583 22.4569C11.3685 22.4966 11.2715 22.5176 11.1733 22.5186H11.1662Z" fill="white"/>
</g>
</g>
</g>
<g id="Group 245923">
<g id="Group 245920">
<g id="Group 245919">
<path id="Path 330205" d="M6.44801 21.7943V22.0793C6.44933 22.1737 6.43188 22.2675 6.39666 22.3551C6.36145 22.4427 6.30918 22.5224 6.24288 22.5896C6.17659 22.6568 6.0976 22.7102 6.0105 22.7466C5.92339 22.7831 5.82992 22.8018 5.73551 22.8018H3.83171C3.7373 22.8018 3.64382 22.7831 3.55672 22.7466C3.46962 22.7102 3.39063 22.6568 3.32434 22.5896C3.25804 22.5224 3.20577 22.4427 3.17056 22.3551C3.13534 22.2675 3.11789 22.1737 3.11921 22.0793V21.7943H3.16624C3.22938 21.6516 3.33292 21.5305 3.46409 21.4459C3.59526 21.3613 3.74832 21.317 3.90438 21.3184H5.67138C5.82745 21.317 5.98051 21.3613 6.11168 21.4459C6.24285 21.5305 6.34639 21.6516 6.40954 21.7943H6.44801Z" fill="#E3E7F0"/>
</g>
</g>
<g id="Group 245922">
<g id="Group 245921">
<path id="Path 330206" d="M5.73103 22.5186H3.89563C3.71481 22.5239 3.538 22.4648 3.39677 22.3517C3.25554 22.2387 3.15911 22.0791 3.1247 21.9015C3.10982 21.7991 3.11709 21.6946 3.14602 21.5952C3.17495 21.4958 3.22486 21.4038 3.2924 21.3253C3.35993 21.2468 3.4435 21.1838 3.53749 21.1403C3.63147 21.0969 3.73368 21.0742 3.8372 21.0736H5.66833C5.85949 21.0677 6.04588 21.1339 6.19052 21.259C6.33517 21.3841 6.42751 21.559 6.44923 21.7491C6.45583 21.847 6.44235 21.9453 6.40962 22.0379C6.37689 22.1305 6.3256 22.2154 6.25889 22.2874C6.19217 22.3595 6.11145 22.4171 6.02166 22.4569C5.93187 22.4966 5.83491 22.5176 5.73673 22.5186H5.73103Z" fill="white"/>
</g>
</g>
</g>
</g>
<g id="Group 245929">
<g id="Group 245926">
<g id="Group 245925">
<path id="Path 330207" d="M3.11719 14.277V16.0227C3.11719 16.2339 3.20111 16.4365 3.3505 16.5859C3.49989 16.7353 3.7025 16.8192 3.91376 16.8192H7.18271C7.39398 16.8192 7.59659 16.7353 7.74598 16.5859C7.89536 16.4365 7.97929 16.2339 7.97929 16.0227V14.277C7.97929 14.0658 7.89536 13.8632 7.74598 13.7138C7.59659 13.5644 7.39398 13.4805 7.18271 13.4805H3.91376C3.7025 13.4805 3.49989 13.5644 3.3505 13.7138C3.20111 13.8632 3.11719 14.0658 3.11719 14.277Z" fill="#FEBC1F"/>
</g>
</g>
<g id="Group 245928">
<g id="Group 245927">
<path id="Path 330208" d="M3.11719 14.0017V15.7473C3.11719 15.9585 3.20111 16.1612 3.3505 16.3105C3.49989 16.4599 3.7025 16.5439 3.91376 16.5439H7.18271C7.39398 16.5439 7.59659 16.4599 7.74598 16.3105C7.89536 16.1612 7.97929 15.9585 7.97929 15.7473V14.0017C7.97929 13.7904 7.89536 13.5878 7.74598 13.4384C7.59659 13.289 7.39398 13.2051 7.18271 13.2051H3.91376C3.7025 13.2051 3.49989 13.289 3.3505 13.4384C3.20111 13.5878 3.11719 13.7904 3.11719 14.0017Z" fill="#FFD475"/>
</g>
</g>
</g>
<g id="Group 245932">
<g id="Group 245931">
<g id="Group 245930">
<path id="Path 330209" d="M5.46416 14.6871V13.2051H5.08511V14.6871H3.11719V15.0661H4.19449V16.5396H4.57354V15.0633H6.28354V16.5396H6.66259V15.0633H7.98784V14.6871H5.46416Z" fill="#FEBC1F"/>
</g>
</g>
</g>
<g id="Group 245939">
<g id="Group 245935">
<g id="Group 245934">
<g id="Group 245933">
<path id="Path 330210" d="M22.4296 15.9922H20.2921C20.2052 15.9948 20.1202 15.9664 20.0523 15.9121C19.9845 15.8578 19.9381 15.7812 19.9216 15.6958C19.9144 15.6465 19.9179 15.5963 19.9319 15.5484C19.9459 15.5006 19.97 15.4564 20.0025 15.4187C20.0351 15.381 20.0754 15.3507 20.1207 15.3299C20.166 15.3092 20.2152 15.2984 20.265 15.2983H22.3925C22.4844 15.2955 22.5739 15.3274 22.6433 15.3876C22.7127 15.4478 22.757 15.5319 22.7673 15.6232C22.7704 15.6704 22.7638 15.7178 22.7479 15.7623C22.732 15.8069 22.7071 15.8478 22.6748 15.8824C22.6425 15.917 22.6034 15.9446 22.56 15.9634C22.5166 15.9823 22.4698 15.9921 22.4224 15.9922H22.4296Z" fill="white"/>
</g>
</g>
</g>
<g id="Group 245938">
<g id="Group 245937">
<g id="Group 245936">
<path id="Path 330211" d="M22.4326 14.5059H18.6905C18.6036 14.5085 18.5186 14.4801 18.4508 14.4258C18.3829 14.3715 18.3365 14.2948 18.32 14.2095C18.3129 14.1602 18.3164 14.1099 18.3304 14.0621C18.3443 14.0143 18.3684 13.97 18.401 13.9323C18.4335 13.8946 18.4738 13.8644 18.5191 13.8436C18.5644 13.8228 18.6136 13.812 18.6634 13.8119H22.4012C22.493 13.8092 22.5825 13.8411 22.652 13.9013C22.7214 13.9615 22.7656 14.0455 22.776 14.1368C22.7791 14.1839 22.7725 14.2312 22.7567 14.2757C22.7409 14.3202 22.7161 14.361 22.684 14.3955C22.6518 14.4301 22.6129 14.4577 22.5697 14.4767C22.5264 14.4957 22.4798 14.5056 22.4326 14.5059Z" fill="white"/>
</g>
</g>
</g>
</g>
</g>
<g id="Group 245942">
<g id="Group 245941">
<path id="Path 330212" d="M21.8594 6.41431C22.7479 7.55261 23.4798 8.80495 24.0354 10.1378C23.1467 8.99957 22.4149 7.74722 21.8594 6.41431Z" fill="white"/>
</g>
</g>
<g id="Group 245944">
<g id="Group 245943">
<path id="Path 330213" d="M5.25977 10.1349C6.55346 9.14352 7.96028 8.30928 9.45069 7.64966C8.15698 8.64098 6.75016 9.47521 5.25977 10.1349Z" fill="white"/>
</g>
</g>
<g id="Group 245946">
<g id="Group 245945">
<path id="Path 330214" d="M15.9766 24.2152C17.5949 24.0224 19.2303 24.0224 20.8486 24.2152C19.2303 24.408 17.5949 24.408 15.9766 24.2152Z" fill="white"/>
</g>
</g>
</g>
</g>
</svg>
