<svg width="57" height="57" viewBox="0 0 57 57" fill="none" xmlns="http://www.w3.org/2000/svg">
<g id="Group 626716">
<rect id="Rectangle 63221" width="57" height="57" rx="8" fill="#F2F2F2"/>
<g id="Iconly/Light-outline/Home">
<g id="_x32_4">
<g id="Group 245999">
<g id="Group 245951">
<g id="Group 245950">
<path id="Path 330215" d="M38.5291 24.3297V37.1917C38.5295 37.7281 38.3171 38.2426 37.9385 38.6225C37.56 39.0024 37.0462 39.2166 36.5099 39.2181H21.6485C21.3824 39.2183 21.1188 39.166 20.8729 39.0642C20.6269 38.9625 20.4035 38.8132 20.2153 38.625C20.0271 38.4368 19.8778 38.2134 19.7761 37.9674C19.6743 37.7215 19.622 37.4579 19.6222 37.1917V26.2264H18.5691C18.0483 26.2264 17.5489 26.0195 17.1806 25.6512C16.8124 25.283 16.6055 24.7835 16.6055 24.2627C16.6055 23.7419 16.8124 23.2425 17.1806 22.8742C17.5489 22.506 18.0483 22.2991 18.5691 22.2991H36.5099C37.0472 22.2994 37.5624 22.5131 37.9423 22.893C38.3222 23.2729 38.5358 23.7881 38.5362 24.3254L38.5291 24.3297Z" fill="#AA6256"/>
</g>
</g>
<g id="Group 245953">
<g id="Group 245952">
<path id="Path 330216" d="M35.4975 22.3047C35.1387 23.4923 34.4909 24.5724 33.6122 25.4482C33.3464 25.7196 33.0606 25.9706 32.7572 26.1992C32.4249 26.4485 32.0743 26.6724 31.7084 26.869C30.7136 27.4111 29.6009 27.7008 28.468 27.7126C28.146 27.7148 27.8245 27.6876 27.5075 27.6313C26.7451 27.5195 26.0224 27.2203 25.4042 26.7604C24.7859 26.3006 24.2914 25.6945 23.965 24.9965C23.5819 24.1543 23.4313 23.2248 23.5289 22.3047H35.4975Z" fill="#51383C"/>
</g>
</g>
<g id="Group 245955">
<g id="Group 245954">
<path id="Path 330217" d="M40.3898 28.8594L40.3513 29.1345C40.2575 29.5848 40.0354 29.9984 39.7117 30.3253C39.3881 30.6523 38.9767 30.8786 38.5273 30.977V27.624C38.5273 27.624 40.2644 27.2435 40.3898 28.8594Z" fill="#F9A83D"/>
</g>
</g>
<g id="Group 245977">
<g id="Group 245976">
<g id="Group 245957">
<g id="Group 245956">
<path id="Path 330218" d="M27.2918 27.7123C25.7117 27.688 24.2044 27.0432 23.0956 25.9171C21.9868 24.7911 21.3652 23.2741 21.3652 21.6938C21.3652 20.1134 21.9868 18.5965 23.0956 17.4704C24.2044 16.3444 25.7117 15.6996 27.2918 15.6753H28.466V27.7123H27.2918Z" fill="#F9A83D"/>
</g>
</g>
<g id="Group 245959">
<g id="Group 245958">
<path id="Path 330219" d="M34.4922 21.6954C34.4947 23.0605 34.0312 24.3857 33.1784 25.4517C32.7241 26.0205 32.1715 26.5031 31.5467 26.8767C30.6164 27.431 29.5531 27.7226 28.4702 27.7203C28.142 27.7216 27.8144 27.6939 27.4912 27.6376C26.359 27.4495 25.3042 26.9415 24.4514 26.1735C23.5985 25.4055 22.9831 24.4095 22.6777 23.3032C22.3724 22.1969 22.3899 21.0263 22.7282 19.9295C23.0664 18.8328 23.7113 17.8557 24.5867 17.1135C25.4622 16.3713 26.5316 15.895 27.6689 15.7408C28.8062 15.5866 29.9639 15.7609 31.0054 16.2432C32.0468 16.7255 32.9286 17.4956 33.5467 18.4626C34.1648 19.4297 34.4933 20.5534 34.4936 21.7011L34.4922 21.6954Z" fill="#FFD06C"/>
</g>
</g>
<g id="Group 245961">
<g id="Group 245960">
<path id="Path 330220" d="M24.2363 21.6945C24.236 22.5311 24.4838 23.349 24.9483 24.0448C25.4127 24.7406 26.0731 25.2831 26.8458 25.6037C27.6185 25.9243 28.4689 26.0087 29.2896 25.846C30.1102 25.6834 30.8642 25.2811 31.4563 24.6901C32.0483 24.099 32.4519 23.3457 32.6159 22.5253C32.7799 21.705 32.697 20.8544 32.3777 20.0811C32.0584 19.3079 31.517 18.6466 30.822 18.181C30.1269 17.7153 29.3094 17.4662 28.4729 17.4651C27.9174 17.4649 27.3673 17.5742 26.8541 17.7867C26.3409 17.9991 25.8746 18.3107 25.4818 18.7034C25.089 19.0962 24.7775 19.5625 24.565 20.0757C24.3525 20.589 24.2433 21.139 24.2435 21.6945H24.2363Z" fill="#F9A83D"/>
</g>
</g>
<g id="Group 245963">
<g id="Group 245962">
<path id="Path 330221" d="M29.5925 21.3525C29.3317 21.2599 29.0581 21.2029 28.7902 21.1331C28.7389 21.1202 28.7161 21.1046 28.7176 21.0461C28.7176 20.7711 28.7176 20.4947 28.7176 20.2196C28.7176 20.1983 28.7176 20.1783 28.7176 20.1498C28.8527 20.188 28.9743 20.2635 29.0686 20.3675C29.1628 20.4716 29.2259 20.6001 29.2505 20.7383C29.2611 20.7824 29.288 20.8208 29.3259 20.8457C29.3637 20.8705 29.4097 20.8801 29.4543 20.8723L30.2779 20.7298C30.3242 20.7211 30.3651 20.6945 30.3918 20.6558C30.4185 20.6171 30.4288 20.5694 30.4204 20.5232C30.393 20.3572 30.335 20.1977 30.2494 20.0529C30.0718 19.793 29.8442 19.571 29.58 19.3998C29.3158 19.2285 29.0203 19.1115 28.7104 19.0554V18.692C28.7104 18.6448 28.6917 18.5995 28.6583 18.5661C28.6249 18.5327 28.5796 18.5139 28.5323 18.5139H28.4725C28.4252 18.5139 28.3799 18.5327 28.3465 18.5661C28.3131 18.5995 28.2943 18.6448 28.2943 18.692V19.0597C27.8751 19.0526 27.4671 19.1952 27.1435 19.4618C26.8199 19.7285 26.6019 20.1017 26.5288 20.5146C26.4304 21.3696 26.9563 21.8655 27.7956 22.0565L28.2929 22.1676V23.1651C28.1342 23.1369 27.9874 23.0625 27.8708 22.9512C27.7542 22.8399 27.673 22.6967 27.6374 22.5395C27.6259 22.4956 27.5982 22.4577 27.5599 22.4333C27.5216 22.409 27.4754 22.4001 27.4308 22.4084L26.5758 22.5737C26.5525 22.578 26.5302 22.5869 26.5104 22.5998C26.4906 22.6128 26.4735 22.6296 26.4602 22.6492C26.4469 22.6689 26.4377 22.691 26.4331 22.7142C26.4285 22.7375 26.4285 22.7614 26.4333 22.7846C26.4805 23.0169 26.5854 23.2335 26.7382 23.4145C26.9321 23.6475 27.1707 23.8393 27.4399 23.9786C27.7091 24.1178 28.0036 24.2017 28.3057 24.2253V24.5873C28.3057 24.6345 28.3245 24.6798 28.3579 24.7132C28.3913 24.7466 28.4366 24.7654 28.4839 24.7654H28.5394C28.5867 24.7654 28.632 24.7466 28.6654 24.7132C28.6988 24.6798 28.7176 24.6345 28.7176 24.5873V24.2182C30.8893 24.0173 30.9562 21.827 29.5911 21.3454L29.5925 21.3525ZM28.3015 21.0105C28.1845 21.0236 28.067 20.9908 27.9737 20.9191C27.8805 20.8473 27.8186 20.7422 27.8013 20.6258C27.7856 20.365 27.9808 20.1669 28.3015 20.1227V21.0105ZM28.729 23.1851V22.2631C29.5626 22.4042 29.3531 23.0853 28.7233 23.1851H28.729Z" fill="#FFD06C"/>
</g>
</g>
<g id="Group 245965">
<g id="Group 245964">
<path id="Path 330222" d="M28.7456 25.9136C28.6544 25.9136 28.5589 25.9221 28.4606 25.9221C27.3387 25.9221 26.2627 25.4765 25.4694 24.6832C24.6761 23.8899 24.2305 22.8139 24.2305 21.692C24.2305 20.5701 24.6761 19.4942 25.4694 18.7009C26.2627 17.9076 27.3387 17.4619 28.4606 17.4619C28.5561 17.4619 28.6515 17.4619 28.7456 17.4705C27.6743 17.5415 26.67 18.0171 25.9364 18.801C25.2027 19.5849 24.7946 20.6184 24.7946 21.692C24.7946 22.7657 25.2027 23.7992 25.9364 24.5831C26.67 25.3669 27.6743 25.8426 28.7456 25.9136Z" fill="#EA9734"/>
</g>
</g>
<g id="Group 245970" opacity="0.2">
<g id="Group 245967">
<g id="Group 245966">
<path id="Path 330223" d="M31.1391 25.8138C31.1771 25.9153 31.1763 26.0273 31.1369 26.1282C31.0974 26.2292 31.0221 26.3121 30.9254 26.361C29.8419 26.929 28.5953 27.1047 27.3971 26.8583C27.3264 26.8432 27.2608 26.8105 27.2062 26.7631C27.1516 26.7158 27.1099 26.6554 27.085 26.5876L24.1638 18.9795C24.1366 18.9121 24.1271 18.839 24.1361 18.7669C24.1451 18.6949 24.1722 18.6263 24.2151 18.5676C24.9386 17.5839 25.9812 16.8818 27.1648 16.5812C27.2695 16.5529 27.381 16.5642 27.478 16.6128C27.575 16.6614 27.6507 16.744 27.6906 16.8448L31.1391 25.8138Z" fill="white"/>
</g>
</g>
<g id="Group 245969">
<g id="Group 245968">
<path id="Path 330224" d="M31.9168 24.7728L28.9828 17.139C28.9393 17.0228 28.9438 16.8941 28.9952 16.7812C29.0467 16.6683 29.1409 16.5804 29.2571 16.537C29.3733 16.4935 29.502 16.498 29.6149 16.5494C29.7278 16.6009 29.8157 16.6951 29.8591 16.8113L32.7747 24.4023C32.9742 24.9153 32.142 25.3599 31.9168 24.7728Z" fill="white"/>
</g>
</g>
</g>
<g id="Group 245972" opacity="0.3">
<g id="Group 245971">
<path id="Path 330225" d="M29.8539 16.811L30.2572 17.8626C29.8966 17.6906 29.5124 17.5734 29.1172 17.5149L28.9747 17.1387C28.9314 17.0223 28.9361 16.8935 28.9878 16.7806C29.0396 16.6677 29.134 16.5799 29.2504 16.5367C29.3668 16.4934 29.4956 16.4981 29.6085 16.5498C29.7214 16.6016 29.8092 16.696 29.8525 16.8124L29.8539 16.811Z" fill="white"/>
</g>
</g>
<g id="Group 245975" opacity="0.3">
<g id="Group 245974" opacity="0.3">
<g id="Group 245973">
<path id="Path 330226" d="M31.9178 24.7797L31.7539 24.3522C32.0056 24.0448 32.2124 23.7032 32.3681 23.3376L32.7756 24.4021C32.9751 24.9251 32.1429 25.3611 31.9178 24.7797Z" fill="white"/>
</g>
</g>
</g>
</g>
</g>
<g id="Group 245998">
<g id="Group 245979">
<g id="Group 245978">
<path id="Path 330227" d="M36.1253 28.2554V39.2977C36.1253 39.8352 35.9118 40.3506 35.5318 40.7306C35.1518 41.1106 34.6363 41.3241 34.0989 41.3241H18.6377C18.1003 41.3241 17.5848 41.1106 17.2048 40.7306C16.8248 40.3506 16.6113 39.8352 16.6113 39.2977V24.2668C16.6113 24.7873 16.8181 25.2864 17.1861 25.6543C17.554 26.0223 18.0531 26.2291 18.5736 26.2291H34.0975C34.6349 26.2291 35.1503 26.4426 35.5303 26.8226C35.9104 27.2026 36.1239 27.718 36.1239 28.2554H36.1253Z" fill="#BF7D5A"/>
</g>
</g>
<g id="Group 245989">
<g id="Group 245982">
<g id="Group 245981">
<g id="Group 245980">
<path id="Path 330228" d="M19.7034 28.3743H18.9767C18.9344 28.3772 18.892 28.3714 18.8521 28.3572C18.8121 28.343 18.7756 28.3207 18.7446 28.2918C18.7136 28.2628 18.6889 28.2279 18.6721 28.189C18.6552 28.1501 18.6465 28.1082 18.6465 28.0658C18.6465 28.0234 18.6552 27.9815 18.6721 27.9426C18.6889 27.9038 18.7136 27.8688 18.7446 27.8399C18.7756 27.8109 18.8121 27.7887 18.8521 27.7745C18.892 27.7603 18.9344 27.7544 18.9767 27.7573H19.7034C19.7457 27.7544 19.7881 27.7603 19.8281 27.7745C19.868 27.7887 19.9046 27.8109 19.9355 27.8399C19.9665 27.8688 19.9912 27.9038 20.0081 27.9426C20.0249 27.9815 20.0336 28.0234 20.0336 28.0658C20.0336 28.1082 20.0249 28.1501 20.0081 28.189C19.9912 28.2279 19.9665 28.2628 19.9355 28.2918C19.9046 28.3207 19.868 28.343 19.8281 28.3572C19.7881 28.3714 19.7457 28.3772 19.7034 28.3743Z" fill="#AA6256"/>
</g>
</g>
</g>
<g id="Group 245985">
<g id="Group 245984">
<g id="Group 245983">
<path id="Path 330229" d="M33.7095 39.7929H33.0682C33.0259 39.7957 32.9835 39.7899 32.9436 39.7757C32.9037 39.7615 32.8671 39.7392 32.8361 39.7103C32.8052 39.6814 32.7805 39.6464 32.7636 39.6075C32.7467 39.5686 32.738 39.5267 32.738 39.4843C32.738 39.442 32.7467 39.4 32.7636 39.3612C32.7805 39.3223 32.8052 39.2873 32.8361 39.2584C32.8671 39.2295 32.9037 39.2072 32.9436 39.193C32.9835 39.1788 33.0259 39.173 33.0682 39.1758H33.7095C33.7522 39.1758 33.7931 39.1589 33.8233 39.1287C33.8535 39.0985 33.8705 39.0575 33.8705 39.0148V38.9193C33.8758 38.8411 33.9106 38.7679 33.9679 38.7144C34.0252 38.6608 34.1006 38.6311 34.179 38.6311C34.2574 38.6311 34.3328 38.6608 34.3901 38.7144C34.4474 38.7679 34.4822 38.8411 34.4875 38.9193V39.0177C34.4864 39.2234 34.404 39.4203 34.2582 39.5656C34.1125 39.7108 33.9152 39.7925 33.7095 39.7929ZM31.5919 39.7929H30.1128C30.0705 39.7957 30.0281 39.7899 29.9881 39.7757C29.9482 39.7615 29.9116 39.7392 29.8807 39.7103C29.8497 39.6814 29.825 39.6464 29.8082 39.6075C29.7913 39.5686 29.7826 39.5267 29.7826 39.4843C29.7826 39.442 29.7913 39.4 29.8082 39.3612C29.825 39.3223 29.8497 39.2873 29.8807 39.2584C29.9116 39.2295 29.9482 39.2072 29.9881 39.193C30.0281 39.1788 30.0705 39.173 30.1128 39.1758H31.5905C31.6328 39.173 31.6752 39.1788 31.7151 39.193C31.755 39.2072 31.7916 39.2295 31.8226 39.2584C31.8535 39.2873 31.8782 39.3223 31.8951 39.3612C31.912 39.4 31.9207 39.442 31.9207 39.4843C31.9207 39.5267 31.912 39.5686 31.8951 39.6075C31.8782 39.6464 31.8535 39.6814 31.8226 39.7103C31.7916 39.7392 31.755 39.7615 31.7151 39.7757C31.6752 39.7899 31.6342 39.7957 31.5919 39.7929ZM28.6365 39.7929H27.1587C27.1165 39.7957 27.074 39.7899 27.0341 39.7757C26.9942 39.7615 26.9576 39.7392 26.9267 39.7103C26.8957 39.6814 26.871 39.6464 26.8541 39.6075C26.8373 39.5686 26.8285 39.5267 26.8285 39.4843C26.8285 39.442 26.8373 39.4 26.8541 39.3612C26.871 39.3223 26.8957 39.2873 26.9267 39.2584C26.9576 39.2295 26.9942 39.2072 27.0341 39.193C27.074 39.1788 27.1165 39.173 27.1587 39.1758H28.6365C28.6787 39.173 28.7212 39.1788 28.7611 39.193C28.801 39.2072 28.8376 39.2295 28.8686 39.2584C28.8995 39.2873 28.9242 39.3223 28.9411 39.3612C28.958 39.4 28.9667 39.442 28.9667 39.4843C28.9667 39.5267 28.958 39.5686 28.9411 39.6075C28.9242 39.6464 28.8995 39.6814 28.8686 39.7103C28.8376 39.7392 28.801 39.7615 28.7611 39.7757C28.7212 39.7899 28.6787 39.7957 28.6365 39.7929ZM25.681 39.7929H24.2033C24.161 39.7957 24.1186 39.7899 24.0787 39.7757C24.0388 39.7615 24.0022 39.7392 23.9712 39.7103C23.9402 39.6814 23.9156 39.6464 23.8987 39.6075C23.8818 39.5686 23.8731 39.5267 23.8731 39.4843C23.8731 39.442 23.8818 39.4 23.8987 39.3612C23.9156 39.3223 23.9402 39.2873 23.9712 39.2584C24.0022 39.2295 24.0388 39.2072 24.0787 39.193C24.1186 39.1788 24.161 39.173 24.2033 39.1758H25.681C25.7233 39.173 25.7657 39.1788 25.8056 39.193C25.8456 39.2072 25.8821 39.2295 25.9131 39.2584C25.9441 39.2873 25.9688 39.3223 25.9856 39.3612C26.0025 39.4 26.0112 39.442 26.0112 39.4843C26.0112 39.5267 26.0025 39.5686 25.9856 39.6075C25.9688 39.6464 25.9441 39.6814 25.9131 39.7103C25.8821 39.7392 25.8456 39.7615 25.8056 39.7757C25.7657 39.7899 25.7233 39.7957 25.681 39.7929ZM22.7256 39.7929H21.2493C21.207 39.7957 21.1646 39.7899 21.1247 39.7757C21.0847 39.7615 21.0481 39.7392 21.0172 39.7103C20.9862 39.6814 20.9615 39.6464 20.9447 39.6075C20.9278 39.5686 20.9191 39.5267 20.9191 39.4843C20.9191 39.442 20.9278 39.4 20.9447 39.3612C20.9615 39.3223 20.9862 39.2873 21.0172 39.2584C21.0481 39.2295 21.0847 39.2072 21.1247 39.193C21.1646 39.1788 21.207 39.173 21.2493 39.1758H22.727C22.7693 39.173 22.8117 39.1788 22.8516 39.193C22.8915 39.2072 22.9281 39.2295 22.9591 39.2584C22.99 39.2873 23.0147 39.3223 23.0316 39.3612C23.0485 39.4 23.0572 39.442 23.0572 39.4843C23.0572 39.5267 23.0485 39.5686 23.0316 39.6075C23.0147 39.6464 22.99 39.6814 22.9591 39.7103C22.9281 39.7392 22.8915 39.7615 22.8516 39.7757C22.8117 39.7899 22.7678 39.7957 22.7256 39.7929ZM34.1783 37.7466C34.0963 37.7466 34.0176 37.714 33.9596 37.656C33.9016 37.598 33.8691 37.5193 33.8691 37.4373V35.9596C33.8744 35.8814 33.9092 35.8081 33.9665 35.7546C34.0237 35.7011 34.0992 35.6714 34.1776 35.6714C34.256 35.6714 34.3314 35.7011 34.3887 35.7546C34.446 35.8081 34.4808 35.8814 34.4861 35.9596V37.4373C34.4861 37.5191 34.4537 37.5975 34.396 37.6555C34.3383 37.7134 34.2601 37.7462 34.1783 37.7466ZM34.1783 34.7911C34.0963 34.7911 34.0176 34.7585 33.9596 34.7005C33.9016 34.6425 33.8691 34.5639 33.8691 34.4819V33.0056C33.8744 32.9274 33.9092 32.8541 33.9665 32.8006C34.0237 32.7471 34.0992 32.7173 34.1776 32.7173C34.256 32.7173 34.3314 32.7471 34.3887 32.8006C34.446 32.8541 34.4808 32.9274 34.4861 33.0056V34.4833C34.4846 34.5641 34.4516 34.6411 34.394 34.6978C34.3365 34.7545 34.2591 34.7865 34.1783 34.7868V34.7911ZM34.1783 31.8357C34.0963 31.8357 34.0176 31.8031 33.9596 31.7451C33.9016 31.6871 33.8691 31.6084 33.8691 31.5264V30.0501C33.8744 29.9719 33.9092 29.8987 33.9665 29.8452C34.0237 29.7916 34.0992 29.7619 34.1776 29.7619C34.256 29.7619 34.3314 29.7916 34.3887 29.8452C34.446 29.8987 34.4808 29.9719 34.4861 30.0501V31.5279C34.4861 31.6096 34.4537 31.6881 34.396 31.746C34.3383 31.804 34.2601 31.8353 34.1783 31.8357ZM34.1783 28.8631C34.1392 28.865 34.1001 28.8591 34.0633 28.8458C34.0265 28.8324 33.9928 28.8119 33.964 28.7854C33.9352 28.7589 33.912 28.7269 33.8957 28.6913C33.8794 28.6557 33.8703 28.6172 33.8691 28.5781C33.8691 28.4541 33.7964 28.3829 33.708 28.3829H33.0027C32.9604 28.3858 32.918 28.3799 32.878 28.3657C32.8381 28.3515 32.8015 28.3292 32.7706 28.3003C32.7396 28.2714 32.7149 28.2364 32.6981 28.1975C32.6812 28.1587 32.6725 28.1167 32.6725 28.0744C32.6725 28.032 32.6812 27.9901 32.6981 27.9512C32.7149 27.9123 32.7396 27.8773 32.7706 27.8484C32.8015 27.8195 32.8381 27.7972 32.878 27.783C32.918 27.7688 32.9604 27.763 33.0027 27.7659H33.708C33.9143 27.7662 34.112 27.8483 34.2578 27.9942C34.4036 28.14 34.4857 28.3377 34.4861 28.5439C34.4855 28.6266 34.4532 28.7058 34.396 28.7654C34.3387 28.8251 34.2608 28.8591 34.1783 28.8631ZM31.5264 28.3743H30.0486C30.0064 28.3772 29.9639 28.3714 29.924 28.3572C29.8841 28.343 29.8475 28.3207 29.8166 28.2918C29.7856 28.2628 29.7609 28.2279 29.744 28.189C29.7272 28.1501 29.7184 28.1082 29.7184 28.0658C29.7184 28.0234 29.7272 27.9815 29.744 27.9426C29.7609 27.9038 29.7856 27.8688 29.8166 27.8399C29.8475 27.8109 29.8841 27.7887 29.924 27.7745C29.9639 27.7603 30.0064 27.7544 30.0486 27.7573H31.5264C31.5686 27.7544 31.6111 27.7603 31.651 27.7745C31.6909 27.7887 31.7275 27.8109 31.7585 27.8399C31.7894 27.8688 31.8141 27.9038 31.831 27.9426C31.8479 27.9815 31.8566 28.0234 31.8566 28.0658C31.8566 28.1082 31.8479 28.1501 31.831 28.189C31.8141 28.2279 31.7894 28.2628 31.7585 28.2918C31.7275 28.3207 31.6909 28.343 31.651 28.3572C31.6111 28.3714 31.5686 28.3772 31.5264 28.3743ZM28.5709 28.3743H27.0946C27.0523 28.3772 27.0099 28.3714 26.97 28.3572C26.9301 28.343 26.8935 28.3207 26.8625 28.2918C26.8316 28.2628 26.8069 28.2279 26.79 28.189C26.7731 28.1501 26.7644 28.1082 26.7644 28.0658C26.7644 28.0234 26.7731 27.9815 26.79 27.9426C26.8069 27.9038 26.8316 27.8688 26.8625 27.8399C26.8935 27.8109 26.9301 27.7887 26.97 27.7745C27.0099 27.7603 27.0523 27.7544 27.0946 27.7573H28.5723C28.6146 27.7544 28.657 27.7603 28.697 27.7745C28.7369 27.7887 28.7735 27.8109 28.8044 27.8399C28.8354 27.8688 28.8601 27.9038 28.877 27.9426C28.8938 27.9815 28.9025 28.0234 28.9025 28.0658C28.9025 28.1082 28.8938 28.1501 28.877 28.189C28.8601 28.2279 28.8354 28.2628 28.8044 28.2918C28.7735 28.3207 28.7369 28.343 28.697 28.3572C28.657 28.3714 28.6132 28.3772 28.5709 28.3743ZM25.6155 28.3743H24.1392C24.0969 28.3772 24.0545 28.3714 24.0146 28.3572C23.9746 28.343 23.938 28.3207 23.9071 28.2918C23.8761 28.2628 23.8514 28.2279 23.8346 28.189C23.8177 28.1501 23.809 28.1082 23.809 28.0658C23.809 28.0234 23.8177 27.9815 23.8346 27.9426C23.8514 27.9038 23.8761 27.8688 23.9071 27.8399C23.938 27.8109 23.9746 27.7887 24.0146 27.7745C24.0545 27.7603 24.0969 27.7544 24.1392 27.7573H25.6169C25.6592 27.7544 25.7016 27.7603 25.7415 27.7745C25.7814 27.7887 25.818 27.8109 25.849 27.8399C25.8799 27.8688 25.9046 27.9038 25.9215 27.9426C25.9384 27.9815 25.9471 28.0234 25.9471 28.0658C25.9471 28.1082 25.9384 28.1501 25.9215 28.189C25.9046 28.2279 25.8799 28.2628 25.849 28.2918C25.818 28.3207 25.7814 28.343 25.7415 28.3572C25.7016 28.3714 25.6577 28.3772 25.6155 28.3743ZM22.66 28.3743H21.1837C21.1414 28.3772 21.099 28.3714 21.0591 28.3572C21.0192 28.343 20.9826 28.3207 20.9516 28.2918C20.9207 28.2628 20.896 28.2279 20.8791 28.189C20.8622 28.1501 20.8535 28.1082 20.8535 28.0658C20.8535 28.0234 20.8622 27.9815 20.8791 27.9426C20.896 27.9038 20.9207 27.8688 20.9516 27.8399C20.9826 27.8109 21.0192 27.7887 21.0591 27.7745C21.099 27.7603 21.1414 27.7544 21.1837 27.7573H22.6614C22.7037 27.7544 22.7461 27.7603 22.7861 27.7745C22.826 27.7887 22.8626 27.8109 22.8935 27.8399C22.9245 27.8688 22.9492 27.9038 22.9661 27.9426C22.9829 27.9815 22.9917 28.0234 22.9917 28.0658C22.9917 28.1082 22.9829 28.1501 22.9661 28.189C22.9492 28.2279 22.9245 28.2628 22.8935 28.2918C22.8626 28.3207 22.826 28.343 22.7861 28.3572C22.7461 28.3714 22.7037 28.3772 22.6614 28.3743H22.66Z" fill="#AA6256"/>
</g>
</g>
</g>
<g id="Group 245988">
<g id="Group 245987">
<g id="Group 245986">
<path id="Path 330230" d="M19.7679 39.794H19.0411C18.9989 39.7969 18.9564 39.791 18.9165 39.7768C18.8766 39.7626 18.84 39.7404 18.8091 39.7114C18.7781 39.6825 18.7534 39.6475 18.7365 39.6087C18.7196 39.5698 18.7109 39.5279 18.7109 39.4855C18.7109 39.4431 18.7196 39.4012 18.7365 39.3623C18.7534 39.3235 18.7781 39.2885 18.8091 39.2595C18.84 39.2306 18.8766 39.2084 18.9165 39.1942C18.9564 39.18 18.9989 39.1741 19.0411 39.177H19.7679C19.8102 39.1741 19.8526 39.18 19.8925 39.1942C19.9324 39.2084 19.969 39.2306 20 39.2595C20.0309 39.2885 20.0556 39.3235 20.0725 39.3623C20.0894 39.4012 20.0981 39.4431 20.0981 39.4855C20.0981 39.5279 20.0894 39.5698 20.0725 39.6087C20.0556 39.6475 20.0309 39.6825 20 39.7114C19.969 39.7404 19.9324 39.7626 19.8925 39.7768C19.8526 39.791 19.8102 39.7969 19.7679 39.794Z" fill="#AA6256"/>
</g>
</g>
</g>
</g>
<g id="Group 245991">
<g id="Group 245990">
<path id="Path 330231" d="M40.3896 28.8591V33.516C40.2058 35.4797 38.2935 35.8815 36.0733 36.0055H30.6156C29.998 36.0055 29.4058 35.7602 28.9691 35.3235C28.5324 34.8868 28.2871 34.2946 28.2871 33.6771C28.2871 33.0595 28.5324 32.4673 28.9691 32.0306C29.4058 31.5939 29.998 31.3486 30.6156 31.3486H36.0733C36.903 31.3261 37.7267 31.2011 38.5257 30.9767C38.9751 30.8783 39.3864 30.652 39.7101 30.325C40.0337 29.9981 40.2559 29.5845 40.3497 29.1342C40.3668 29.0472 40.3797 28.9546 40.3882 28.8591H40.3896Z" fill="#FFD06C"/>
</g>
</g>
<g id="Group 245993">
<g id="Group 245992">
<path id="Path 330232" d="M31.449 33.6779C31.449 33.8515 31.3975 34.0212 31.301 34.1655C31.2046 34.3099 31.0675 34.4224 30.9071 34.4888C30.7467 34.5553 30.5702 34.5726 30.3999 34.5388C30.2296 34.5049 30.0732 34.4213 29.9505 34.2985C29.8277 34.1758 29.7441 34.0194 29.7102 33.8491C29.6764 33.6788 29.6937 33.5023 29.7602 33.3419C29.8266 33.1815 29.9391 33.0444 30.0835 32.948C30.2278 32.8515 30.3975 32.8 30.5712 32.8C30.804 32.8 31.0272 32.8925 31.1919 33.0571C31.3565 33.2218 31.449 33.445 31.449 33.6779Z" fill="#BF7D5A"/>
</g>
</g>
<g id="Group 245995">
<g id="Group 245994">
<path id="Path 330233" d="M39.8047 33.354C39.6301 33.9313 39.253 34.4261 38.7428 34.7476C38.2326 35.0691 37.6234 35.1956 37.0273 35.1039C38.1484 34.9115 39.1472 34.2822 39.8047 33.354Z" fill="#F8F9FE"/>
</g>
</g>
<g id="Group 245997">
<g id="Group 245996">
<path id="Path 330234" d="M17.807 31.5225C17.9425 32.5174 18.0063 33.5208 17.998 34.5249C18.0071 35.5286 17.9433 36.5316 17.807 37.526C17.6708 36.5311 17.6069 35.5276 17.6161 34.5235C17.6079 33.5199 17.6717 32.517 17.807 31.5225Z" fill="#F8F9FE"/>
</g>
</g>
</g>
</g>
<g id="Group 246001">
<g id="Group 246000">
<path id="Path 330235" d="M33.5545 20.9599C33.194 21.1535 32.9149 21.47 32.7679 21.8519C32.7627 21.8667 32.7531 21.8794 32.7403 21.8885C32.7275 21.8975 32.7123 21.9024 32.6966 21.9024C32.681 21.9024 32.6657 21.8975 32.653 21.8885C32.6402 21.8794 32.6306 21.8667 32.6254 21.8519C32.4784 21.47 32.1993 21.1535 31.8388 20.9599C31.8272 20.9532 31.8176 20.9437 31.811 20.9322C31.8043 20.9207 31.8008 20.9076 31.8008 20.8943C31.8008 20.881 31.8043 20.8679 31.811 20.8564C31.8176 20.8449 31.8272 20.8354 31.8388 20.8288C32.1993 20.6351 32.4784 20.3186 32.6254 19.9367C32.6306 19.922 32.6402 19.9092 32.653 19.9001C32.6657 19.8911 32.681 19.8862 32.6966 19.8862C32.7123 19.8862 32.7275 19.8911 32.7403 19.9001C32.7531 19.9092 32.7627 19.922 32.7679 19.9367C32.9157 20.3181 33.1946 20.6344 33.5545 20.8288C33.566 20.8354 33.5756 20.8449 33.5823 20.8564C33.589 20.8679 33.5925 20.881 33.5925 20.8943C33.5925 20.9076 33.589 20.9207 33.5823 20.9322C33.5756 20.9437 33.566 20.9532 33.5545 20.9599Z" fill="white"/>
</g>
</g>
<g id="Group 246003">
<g id="Group 246002">
<path id="Path 330236" d="M24.1042 18.3862C23.792 18.5538 23.5503 18.8279 23.423 19.1585C23.4183 19.171 23.4099 19.1817 23.399 19.1892C23.388 19.1967 23.375 19.2008 23.3617 19.2008C23.3484 19.2008 23.3355 19.1967 23.3245 19.1892C23.3136 19.1817 23.3052 19.171 23.3005 19.1585C23.1724 18.8279 22.9303 18.554 22.6179 18.3862C22.6082 18.3804 22.6001 18.3721 22.5945 18.3623C22.5889 18.3524 22.5859 18.3412 22.5859 18.3299C22.5859 18.3185 22.5889 18.3074 22.5945 18.2975C22.6001 18.2877 22.6082 18.2794 22.6179 18.2736C22.9303 18.1063 23.1721 17.8321 23.299 17.5012C23.3038 17.4888 23.3122 17.4781 23.3231 17.4706C23.334 17.463 23.347 17.459 23.3603 17.459C23.3736 17.459 23.3866 17.463 23.3975 17.4706C23.4085 17.4781 23.4169 17.4888 23.4216 17.5012C23.55 17.8317 23.792 18.1055 24.1042 18.2736C24.1139 18.2794 24.122 18.2877 24.1276 18.2975C24.1332 18.3074 24.1361 18.3185 24.1361 18.3299C24.1361 18.3412 24.1332 18.3524 24.1276 18.3623C24.122 18.3721 24.1139 18.3804 24.1042 18.3862Z" fill="white"/>
</g>
</g>
<g id="Group 246005">
<g id="Group 246004">
<path id="Path 330237" d="M23.8625 24.8167C23.6195 24.9472 23.4314 25.1606 23.3324 25.418C23.3287 25.4276 23.3221 25.4359 23.3136 25.4417C23.3051 25.4475 23.295 25.4506 23.2847 25.4506C23.2744 25.4506 23.2643 25.4475 23.2558 25.4417C23.2473 25.4359 23.2407 25.4276 23.237 25.418C23.1377 25.1608 22.9496 24.9475 22.7069 24.8167C22.6992 24.8122 22.6928 24.8057 22.6884 24.798C22.684 24.7902 22.6816 24.7814 22.6816 24.7725C22.6816 24.7636 22.684 24.7548 22.6884 24.7471C22.6928 24.7393 22.6992 24.7329 22.7069 24.7283C22.95 24.5981 23.1382 24.3846 23.237 24.127C23.2407 24.1174 23.2473 24.1092 23.2558 24.1034C23.2643 24.0976 23.2744 24.0945 23.2847 24.0945C23.295 24.0945 23.3051 24.0976 23.3136 24.1034C23.3221 24.1092 23.3287 24.1174 23.3324 24.127C23.4321 24.3841 23.62 24.5973 23.8625 24.7283C23.8702 24.7329 23.8766 24.7393 23.881 24.7471C23.8854 24.7548 23.8878 24.7636 23.8878 24.7725C23.8878 24.7814 23.8854 24.7902 23.881 24.798C23.8766 24.8057 23.8702 24.8122 23.8625 24.8167Z" fill="white"/>
</g>
</g>
</g>
</g>
</g>
</svg>
