<svg width="41" height="41" viewBox="0 0 41 41" fill="none" xmlns="http://www.w3.org/2000/svg">
<path d="M33.931 29.6888H1.41378C0.632938 29.6888 0 29.0558 0 28.2749V7.06808C0 6.28723 0.632938 5.6543 1.41378 5.6543H33.931C34.7119 5.6543 35.3448 6.28723 35.3448 7.06808V28.275C35.3448 29.0558 34.7119 29.6888 33.931 29.6888Z" fill="#FFDC64"/>
<path d="M32.5174 16.9648C27.0517 16.9648 22.6208 21.3956 22.6208 26.8614C22.6208 27.8447 22.7692 28.7925 23.0361 29.6889H33.9312C34.7119 29.6889 35.3449 29.0559 35.3449 28.2752V17.3801C34.4485 17.1131 33.5007 16.9648 32.5174 16.9648Z" fill="#FFC850"/>
<path d="M10.6036 16.2588H4.94838C4.558 16.2588 4.24146 15.9422 4.24146 15.5519V11.3104C4.24146 10.9201 4.558 10.6035 4.94838 10.6035H10.6036C10.994 10.6035 11.3105 10.9201 11.3105 11.3104V15.5519C11.3104 15.9423 10.994 16.2588 10.6036 16.2588Z" fill="#FFC850"/>
<path d="M9.89661 22.0914H4.24149C3.7535 22.0914 3.35791 21.6958 3.35791 21.2078C3.35791 20.7198 3.7535 20.3242 4.24149 20.3242H9.89669C10.3847 20.3242 10.7803 20.7198 10.7803 21.2078C10.7803 21.6958 10.3847 22.0914 9.89661 22.0914Z" fill="white"/>
<path d="M26.8621 26.3336H4.24149C3.7535 26.3336 3.35791 25.938 3.35791 25.45C3.35791 24.962 3.7535 24.5664 4.24149 24.5664H26.8622C27.3502 24.5664 27.7458 24.962 27.7458 25.45C27.7458 25.9379 27.3502 26.3336 26.8621 26.3336Z" fill="white"/>
<path d="M18.3794 22.0914H12.7242C12.2362 22.0914 11.8406 21.6958 11.8406 21.2078C11.8406 20.7198 12.2362 20.3242 12.7242 20.3242H18.3794C18.8674 20.3242 19.2629 20.7198 19.2629 21.2078C19.263 21.6958 18.8674 22.0914 18.3794 22.0914Z" fill="white"/>
<path d="M9.1897 12.7242H7.77584V10.6035H6.36206V16.2587H7.77584V14.138H9.18962C9.58 14.138 9.89655 13.8215 9.89655 13.4311C9.89655 13.0407 9.58008 12.7242 9.1897 12.7242Z" fill="#E1A546"/>
<path d="M23.681 16.2585C25.4379 16.2585 26.862 14.8343 26.862 13.0775C26.862 11.3207 25.4379 9.89648 23.681 9.89648C21.9242 9.89648 20.5 11.3207 20.5 13.0775C20.5 14.8343 21.9242 16.2585 23.681 16.2585Z" fill="#FF507D"/>
<path d="M27.9225 16.2585C29.6793 16.2585 31.1035 14.8343 31.1035 13.0775C31.1035 11.3207 29.6793 9.89648 27.9225 9.89648C26.1656 9.89648 24.7415 11.3207 24.7415 13.0775C24.7415 14.8343 26.1656 16.2585 27.9225 16.2585Z" fill="#FFC850"/>
<path d="M24.7415 13.0782C24.7415 14.0166 25.1555 14.8514 25.8018 15.4337C26.4482 14.8514 26.8621 14.0166 26.8621 13.0782C26.8621 12.1397 26.4481 11.3049 25.8018 10.7227C25.1554 11.3049 24.7415 12.1398 24.7415 13.0782Z" fill="#FF8C66"/>
<path d="M26.862 22.0914H21.2068C20.7188 22.0914 20.3232 21.6958 20.3232 21.2078C20.3232 20.7198 20.7188 20.3242 21.2068 20.3242H26.862C27.35 20.3242 27.7456 20.7198 27.7456 21.2078C27.7457 21.6958 27.3501 22.0914 26.862 22.0914Z" fill="white"/>
<path d="M23.8481 22.0914H26.8621C27.3501 22.0914 27.7457 21.6958 27.7457 21.2078C27.7457 20.7198 27.3501 20.3242 26.8621 20.3242H25.1021C24.6242 20.8655 24.1994 21.4544 23.8481 22.0914Z" fill="#E4EAF8"/>
<path d="M22.6475 26.3336H26.8621C27.35 26.3336 27.7456 25.938 27.7456 25.45C27.7456 24.962 27.35 24.5664 26.8621 24.5664H22.8996C22.7635 25.1379 22.6797 25.7282 22.6475 26.3336Z" fill="#E4EAF8"/>
<path d="M32.5172 35.3444C37.2021 35.3444 40.9999 31.5466 40.9999 26.8617C40.9999 22.1768 37.2021 18.3789 32.5172 18.3789C27.8323 18.3789 24.0344 22.1768 24.0344 26.8617C24.0344 31.5466 27.8323 35.3444 32.5172 35.3444Z" fill="#B4E66E"/>
<path d="M36.7585 33.6483C32.0736 33.6483 28.2758 29.8504 28.2758 25.1655C28.2758 22.4151 29.5906 19.9776 31.6196 18.4277C27.3569 18.8763 24.0344 22.4805 24.0344 26.862C24.0344 31.5469 27.8323 35.3448 32.5172 35.3448C34.4517 35.3448 36.229 34.6899 37.6561 33.5998C37.361 33.631 37.0619 33.6483 36.7585 33.6483Z" fill="#A0D755"/>
<path d="M31.1036 31.2797C30.8771 31.2797 30.6515 31.1934 30.4789 31.0208L26.9444 27.4863C26.5993 27.1412 26.5993 26.582 26.9444 26.2368C27.2895 25.8916 27.8487 25.8917 28.1939 26.2368L31.1037 29.1466L36.8411 23.4092C37.1862 23.0641 37.7454 23.0641 38.0906 23.4092C38.4358 23.7544 38.4358 24.3136 38.0906 24.6588L31.7286 31.0208C31.5557 31.1934 31.33 31.2797 31.1036 31.2797Z" fill="white"/>
</svg>
