<svg width="39" height="40" viewBox="0 0 39 40" fill="none" xmlns="http://www.w3.org/2000/svg">
<g id="Frame" clip-path="url(#clip0_3668_147)">
<g id="Group">
<g id="Group_2">
<path id="Vector" d="M10.5178 9.36914C10.7128 9.85507 11.1878 10.162 11.7052 10.162H20.3229V14.3905L14.2498 22.6002L15.802 24.8338L21.5867 17.0162L26.3281 23.7681L28.1178 21.8414L22.9014 14.416V8.88321V8.87468V2.92413V2.9156V1.2873C22.8844 0.57971 22.3077 0 21.6037 0C20.8912 0 20.3229 0.57971 20.3229 1.2873V1.63683H11.6967C11.1793 1.63683 10.7128 1.95226 10.5093 2.42967C10.3142 2.9156 10.4244 3.46974 10.7892 3.83632L12.8418 5.8994L10.7892 7.96249C10.4244 8.32907 10.3142 8.88321 10.5178 9.36914ZM15.5645 4.98721L14.8011 4.21995H20.3144V7.58738H14.8011L15.573 6.81159C15.8105 6.57289 15.9462 6.24041 15.9462 5.8994C15.9462 5.5584 15.8105 5.22592 15.5645 4.98721Z" fill="#FF5F0A"/>
<path id="Vector_2" d="M38.7708 29.0193L33.0116 20.5624C32.7911 20.2384 32.4348 20.0338 32.0446 20.0082C31.6545 19.9826 31.2728 20.1276 31.0098 20.4174L19.7458 32.5828L10.5259 19.3092C10.2969 18.9767 9.92372 18.7721 9.51658 18.755C9.11793 18.738 8.72776 18.917 8.4733 19.2324L0.288222 29.4285C-0.161321 29.9826 -0.076502 30.7925 0.483307 31.2444C1.03463 31.6962 1.84042 31.611 2.28996 31.0483L9.40632 22.1907L21.3743 39.4456C21.6203 39.8036 22.019 39.9997 22.4261 39.9997C22.6806 39.9997 22.935 39.923 23.1556 39.7695C23.7408 39.3603 23.8765 38.5589 23.4779 37.9707L21.2471 34.7567L31.8071 23.3501L36.6588 30.4771C36.9048 30.8437 37.3119 31.0398 37.7191 31.0398C37.965 31.0398 38.2195 30.963 38.44 30.8181C39.0253 30.4089 39.178 29.6075 38.7708 29.0193Z" fill="#47C409"/>
</g>
</g>
</g>
<defs>
<clipPath id="clip0_3668_147">
<rect width="39" height="40" fill="white"/>
</clipPath>
</defs>
</svg>
