<svg width="60" height="60" viewBox="0 0 60 60" fill="none" xmlns="http://www.w3.org/2000/svg">
<g id="1">
<circle id="Ellipse" cx="30" cy="30" r="30" fill="url(#paint0_linear_2394_1029)"/>
<g id="Group">
<path id="Vector" d="M30.008 23.8551C29.7969 23.8551 29.5881 23.8658 29.3824 23.8869C29.1767 23.908 28.9738 23.9392 28.7744 23.9802C28.575 24.0212 28.3791 24.0719 28.1872 24.1318L27.6238 24.3387L27.0874 24.5977L26.5812 24.9057L26.1083 25.2595L25.6718 25.6559L25.275 26.0919L24.9209 26.5644L24.6125 27.0701L24.3533 27.6059C24.2754 27.7891 24.2061 27.977 24.1461 28.1688C24.0862 28.3606 24.0354 28.5564 23.9943 28.7556C23.9533 28.9547 23.9221 29.1574 23.9009 29.363C23.8798 29.5685 23.8691 29.7771 23.8691 29.9879C23.8691 30.1988 23.8799 30.4074 23.9009 30.6129C23.9218 30.8169 23.953 31.0196 23.9943 31.2204C24.0354 31.4203 24.0862 31.6154 24.1461 31.8072C24.2061 31.999 24.2753 32.1868 24.3533 32.3701L24.6125 32.9059L24.9209 33.4115L25.275 33.884L25.6718 34.3201L26.1083 34.7165L26.5812 35.0703L27.0874 35.3783L27.6238 35.6373L28.1872 35.8441L28.7744 35.9958C28.9754 36.0371 29.1783 36.0683 29.3824 36.0891C29.5903 36.1103 29.7991 36.1209 30.008 36.1209C30.2191 36.1209 30.4279 36.1101 30.6336 36.0891C30.8377 36.0683 31.0406 36.0371 31.2416 35.9958L31.8289 35.8441L32.3923 35.6373L32.9286 35.3783L33.4348 35.0703L33.9078 34.7165L34.3443 34.3201L34.7411 33.884L35.0953 33.4115L35.4036 32.9059L35.6628 32.3701L35.87 31.8072C35.93 31.6154 35.9807 31.4196 36.0218 31.2204L36.1152 30.6129C36.1363 30.4073 36.1471 30.1987 36.1471 29.9879C36.1471 29.777 36.1363 29.5684 36.1152 29.3629C36.0943 29.159 36.0632 28.9562 36.0218 28.7555C35.9807 28.5555 35.93 28.3606 35.87 28.1687L35.6628 27.6058L35.4036 27.07L35.0953 26.5643L34.7411 26.0919L34.3443 25.6558L33.9078 25.2594L33.4348 24.9056L32.9286 24.5976L32.3923 24.3386L31.8289 24.1318L31.2416 23.9801L30.6336 23.8868C30.4257 23.8656 30.2169 23.855 30.008 23.855V23.8551ZM30.008 25.9719C30.1476 25.9719 30.2853 25.9788 30.421 25.9925L30.8209 26.053L31.2072 26.1515L31.5771 26.2858L31.9288 26.4542L32.2594 26.6546L32.5686 26.885L32.8536 27.1436L33.1124 27.4283L33.3431 27.7371L33.5437 28.0683L33.7121 28.4197C33.7627 28.54 33.8076 28.6633 33.8467 28.7893C33.8857 28.9154 33.9186 29.0442 33.9451 29.1754C33.9716 29.3066 33.9912 29.4401 34.0056 29.5757L34.0262 29.9883C34.0262 30.1278 34.0193 30.2654 34.0056 30.4011C33.9919 30.5367 33.9718 30.6702 33.9451 30.8014C33.9184 30.9325 33.8855 31.0613 33.8467 31.1874L33.7121 31.557L33.5437 31.9085L33.3431 32.2395L33.1124 32.5484L32.8536 32.8331L32.5686 33.0917L32.2594 33.3222L31.9288 33.5225L31.5771 33.6909L31.2072 33.8253L30.8209 33.9237L30.421 33.9841C30.2837 33.9979 30.1459 34.0048 30.0079 34.0048C29.87 34.0048 29.7321 33.9979 29.5948 33.9841L29.1949 33.9237C29.0637 33.8971 28.9348 33.8642 28.8086 33.8253L28.4387 33.6909L28.087 33.5225L27.7563 33.3222L27.4471 33.0917L27.1621 32.8331L26.9034 32.5484L26.6727 32.2395L26.4721 31.9085L26.3037 31.557L26.1691 31.1874L26.0707 30.8014L26.0101 30.4011C25.9964 30.2639 25.9895 30.1262 25.9895 29.9883C25.9895 29.8505 25.9964 29.7128 26.0101 29.5757C26.0237 29.4401 26.044 29.3065 26.0707 29.1754C26.0971 29.0452 26.1299 28.9164 26.1692 28.7894L26.3037 28.4198L26.4722 28.0684L26.6727 27.7372L26.9034 27.4284L27.1622 27.1437L27.4472 26.8851L27.7564 26.6546L28.0871 26.4543L28.4387 26.2859C28.5598 26.2351 28.6833 26.1902 28.8087 26.1515L29.1951 26.0531C29.3264 26.0265 29.46 26.0062 29.595 25.9926C29.7323 25.9788 29.8701 25.972 30.0081 25.972L30.008 25.9719Z" fill="white"/>
<path id="Vector_2" d="M36.3955 22.1104C36.3468 22.1104 36.2981 22.1128 36.2496 22.1177C36.2011 22.1226 36.1528 22.13 36.1051 22.1397C36.0573 22.1495 36.01 22.1616 35.9635 22.1761C35.9169 22.1906 35.8711 22.2074 35.8262 22.2266C35.7813 22.2457 35.7374 22.2671 35.6946 22.2906C35.6519 22.3141 35.6103 22.3398 35.57 22.3674C35.5298 22.3952 35.491 22.4249 35.4537 22.4565C35.4164 22.4881 35.3807 22.5215 35.3468 22.5567C35.3128 22.5919 35.2807 22.6288 35.2504 22.6672C35.2201 22.7056 35.1917 22.7456 35.1654 22.7869C35.1391 22.8281 35.1148 22.8707 35.0927 22.9144C35.0706 22.9581 35.0506 23.0029 35.033 23.0486C35.0153 23.0944 34.9999 23.141 34.9869 23.1882C34.9739 23.2355 34.9632 23.2834 34.9549 23.3317C34.9466 23.3801 34.9407 23.4288 34.9373 23.4777C34.9348 23.5123 34.9336 23.5471 34.9336 23.5818C34.9336 23.6309 34.936 23.6799 34.9409 23.7288C34.9458 23.7776 34.9531 23.8261 34.9627 23.8742C34.9724 23.9223 34.9845 23.9698 34.9989 24.0167C35.0133 24.0636 35.03 24.1097 35.049 24.1549C35.068 24.2001 35.0892 24.2443 35.1126 24.2874C35.136 24.3305 35.1615 24.3723 35.189 24.4128C35.2165 24.4533 35.246 24.4924 35.2774 24.5299C35.3088 24.5674 35.3421 24.6034 35.377 24.6375C35.412 24.6717 35.4486 24.7041 35.4868 24.7346C35.525 24.7651 35.5647 24.7937 35.6057 24.8202C35.6468 24.8467 35.6891 24.8711 35.7325 24.8934C35.776 24.9157 35.8205 24.9357 35.8659 24.9535C35.9113 24.9713 35.9576 24.9868 36.0045 24.9999C36.0515 25.013 36.0991 25.0237 36.1471 25.0321C36.1952 25.0404 36.2436 25.0463 36.2922 25.0498C36.3266 25.0523 36.3611 25.0535 36.3956 25.0535C36.4443 25.0535 36.4931 25.0511 36.5416 25.0462C36.5901 25.0413 36.6383 25.034 36.6861 25.0242C36.7338 25.0145 36.7811 25.0023 36.8276 24.9878C36.8742 24.9733 36.92 24.9565 36.9649 24.9374C37.0098 24.9183 37.0537 24.8969 37.0965 24.8734C37.1393 24.8499 37.1809 24.8242 37.2211 24.7965C37.2613 24.7688 37.3002 24.7391 37.3374 24.7075C37.3747 24.6759 37.4104 24.6424 37.4443 24.6072C37.4783 24.5721 37.5105 24.5352 37.5408 24.4967C37.5711 24.4583 37.5994 24.4184 37.6257 24.3771C37.6521 24.3358 37.6763 24.2932 37.6984 24.2495C37.7206 24.2058 37.7405 24.161 37.7582 24.1152C37.7758 24.0695 37.7912 24.0229 37.8042 23.9756C37.8173 23.9284 37.828 23.8805 37.8362 23.8321C37.8445 23.7838 37.8504 23.7351 37.8538 23.6862C37.8563 23.6515 37.8575 23.6168 37.8575 23.582C37.8575 23.533 37.8551 23.484 37.8502 23.4352C37.8454 23.3864 37.8381 23.3378 37.8284 23.2897C37.8187 23.2417 37.8066 23.1941 37.7922 23.1472C37.7778 23.1004 37.7611 23.0542 37.7421 23.009C37.7231 22.9638 37.7019 22.9196 37.6785 22.8765C37.6551 22.8335 37.6297 22.7916 37.6021 22.7511C37.5746 22.7106 37.545 22.6715 37.5136 22.634C37.4823 22.5965 37.449 22.5605 37.4141 22.5263C37.3791 22.4921 37.3425 22.4598 37.3043 22.4293C37.2661 22.3988 37.2264 22.3702 37.1854 22.3438C37.1444 22.3172 37.102 22.2928 37.0586 22.2705C37.0152 22.2483 36.9707 22.2282 36.9252 22.2104C36.8798 22.1926 36.8335 22.1772 36.7866 22.164C36.7396 22.1509 36.692 22.1401 36.644 22.1318C36.596 22.1235 36.5476 22.1176 36.499 22.1141C36.4645 22.1117 36.43 22.1104 36.3955 22.1104V22.1104Z" fill="white"/>
<path id="Vector_3" d="M28.843 17.99C28.1753 17.9889 27.5794 17.9917 27.0442 17.9992L25.6092 18.0376C25.1841 18.0561 24.8085 18.0802 24.4713 18.1113C24.3028 18.1269 24.1437 18.1442 23.993 18.1634C23.8495 18.1815 23.7065 18.2025 23.5639 18.2265C23.4282 18.2496 23.2994 18.2745 23.1759 18.3016C23.0524 18.3286 22.9344 18.3579 22.8206 18.3893C22.7093 18.4199 22.5989 18.4537 22.4895 18.4905C22.3823 18.5266 22.2777 18.5649 22.1745 18.6058C21.9679 18.6876 21.7664 18.7795 21.5589 18.8824C21.3993 18.9616 21.2518 19.0418 21.1116 19.1267C20.9715 19.2116 20.8388 19.3012 20.7088 19.3989C20.575 19.5 20.446 19.6073 20.3222 19.7205C20.1929 19.8383 20.0608 19.9679 19.9235 20.1127C19.751 20.2937 19.6011 20.4624 19.4681 20.628C19.4015 20.7107 19.3393 20.7926 19.2806 20.8748C19.2226 20.9559 19.1671 21.0388 19.1142 21.1234C19.0619 21.2072 19.0124 21.2926 18.965 21.3804C18.9169 21.4697 18.8715 21.5605 18.8287 21.6525C18.7412 21.8404 18.6595 22.0429 18.578 22.2688C18.5175 22.4358 18.4634 22.6051 18.4156 22.7762C18.367 22.9511 18.3237 23.134 18.2851 23.3319C18.2465 23.5298 18.2128 23.7426 18.1832 23.9779C18.1513 24.2358 18.1258 24.4945 18.1067 24.7538C18.0852 25.0388 18.0674 25.3524 18.0527 25.7014L18.0181 26.8621L17.9995 28.2769L17.9941 29.987L18.0099 32.4738L18.0591 34.3579L18.097 35.0939L18.1444 35.7037C18.1596 35.8681 18.1786 36.0321 18.2014 36.1956C18.2222 36.3408 18.2445 36.4678 18.2685 36.5778C18.3171 36.8014 18.3747 37.0229 18.441 37.2419C18.5045 37.4516 18.5771 37.6584 18.6587 37.8618C18.7388 38.061 18.8265 38.2531 18.9218 38.4379C19.0172 38.6228 19.1202 38.8005 19.231 38.9711C19.3417 39.1418 19.4601 39.3054 19.5866 39.4621C19.7129 39.6187 19.8472 39.7687 19.989 39.9115C20.1311 40.0545 20.2809 40.1906 20.4387 40.32C20.5985 40.4508 20.7645 40.5738 20.9363 40.6884C21.0957 40.795 21.2535 40.8925 21.4123 40.9821C21.5712 41.0717 21.7315 41.153 21.8962 41.2269C22.0609 41.3008 22.2298 41.3673 22.4062 41.4272C22.5827 41.487 22.7665 41.5402 22.9607 41.5874C23.155 41.6347 23.3606 41.6761 23.5782 41.7123C23.7959 41.7484 24.0285 41.7794 24.2771 41.8061C24.5256 41.8328 24.7908 41.8548 25.0757 41.8733C25.3606 41.8918 25.6652 41.9065 25.9924 41.9184C26.4979 41.9367 27.2631 41.9474 28.1455 41.9514L31.002 41.9457L33.707 41.9077L34.7355 41.8788L35.4056 41.8444C35.5494 41.8327 35.6901 41.8188 35.8259 41.8026C35.9618 41.7864 36.0957 41.7679 36.2261 41.7468C36.3566 41.7257 36.4841 41.7022 36.6094 41.676C36.7332 41.6502 36.8564 41.6215 36.9788 41.5897C37.1 41.5589 37.2195 41.5239 37.3378 41.4868C37.4561 41.4496 37.5731 41.4095 37.6895 41.3664C37.8065 41.3231 37.9224 41.2769 38.0372 41.2279C38.1528 41.1787 38.2682 41.1261 38.3841 41.0703C38.5619 40.9846 38.7051 40.9132 38.8309 40.8434C38.9491 40.7785 39.063 40.706 39.1719 40.6262C39.2792 40.5472 39.386 40.4572 39.509 40.3438C39.632 40.2305 39.7715 40.0939 39.9441 39.9212C40.0958 39.7695 40.2238 39.6377 40.3342 39.5178C40.4445 39.3979 40.5375 39.29 40.619 39.1861C40.6967 39.0874 40.7691 38.9847 40.8359 38.8783C40.901 38.7745 40.961 38.6667 41.0221 38.5471C41.1141 38.3671 41.1959 38.2005 41.2692 38.0397C41.3404 37.8847 41.4054 37.727 41.4641 37.5669C41.5219 37.408 41.572 37.2465 41.6142 37.0828C41.6575 36.9143 41.6949 36.7365 41.7272 36.5415C41.7595 36.3465 41.7868 36.1342 41.8105 35.8972C41.8342 35.6602 41.8543 35.3983 41.872 35.104L41.9189 34.116L41.9592 32.8873L41.988 31.5184L41.9991 30.0871L41.9734 27.2759L41.939 26.0168L41.8921 24.9356L41.8336 24.0928C41.8124 23.8582 41.7895 23.6735 41.7652 23.5486C41.7383 23.4106 41.7082 23.2733 41.6751 23.1366C41.6428 23.0037 41.6072 22.8716 41.5685 22.7404C41.5308 22.6125 41.4898 22.4857 41.4457 22.3599C41.402 22.2357 41.3557 22.1141 41.3072 21.9952C41.2588 21.8762 41.2063 21.76 41.1517 21.6463C41.0971 21.5325 41.0399 21.4215 40.9799 21.3131C40.9198 21.2047 40.8572 21.0989 40.7917 20.9958C40.7263 20.8927 40.6582 20.7922 40.5872 20.6944C40.5166 20.5968 40.443 20.5016 40.3665 20.4087C40.2903 20.3163 40.2113 20.2263 40.1295 20.1389C40.0477 20.0516 39.9633 19.9669 39.8762 19.8849C39.7891 19.803 39.6993 19.7236 39.6067 19.6469C39.5138 19.5698 39.4185 19.4958 39.321 19.4247C39.2224 19.3529 39.1217 19.2841 39.0189 19.2184C38.9147 19.1518 38.8086 19.0883 38.7007 19.028C38.5908 18.9667 38.4793 18.9085 38.3661 18.8536C38.1783 18.7623 38.0047 18.6813 37.8342 18.6095C37.6666 18.5382 37.4957 18.4749 37.3222 18.4198C37.1476 18.3648 36.9659 18.3177 36.7659 18.277C36.566 18.2363 36.348 18.2024 36.1012 18.1735C35.8544 18.1447 35.5789 18.1214 35.2637 18.102C34.9486 18.0826 34.5941 18.0674 34.1894 18.0551L32.8139 18.0243L31.073 18.0038L28.8437 17.9901L28.843 17.99ZM30.0007 20.105L33.2155 20.1233L34.4283 20.1466C34.7623 20.156 35.0172 20.167 35.1666 20.1797C35.3611 20.1961 35.5465 20.2166 35.7237 20.2412C35.8939 20.2647 36.0631 20.2939 36.2313 20.3288C36.3928 20.3627 36.5468 20.4011 36.6943 20.4445C36.8417 20.4879 36.9825 20.5365 37.1176 20.5902C37.2527 20.644 37.3819 20.7031 37.5063 20.7679C37.6296 20.8321 37.7495 20.9029 37.8654 20.9797C37.9808 21.0563 38.092 21.1387 38.1999 21.2275C38.3079 21.3163 38.4126 21.4116 38.5148 21.5134C38.6227 21.6208 38.7222 21.7302 38.8139 21.8431C38.9053 21.9553 38.9899 22.0729 39.0672 22.1953C39.1453 22.3194 39.2158 22.4482 39.2781 22.5809C39.3417 22.7163 39.3989 22.8593 39.4503 23.0114C39.5017 23.1634 39.5474 23.325 39.588 23.4976C39.6304 23.6807 39.666 23.8652 39.6946 24.051C39.7253 24.2478 39.7516 24.4578 39.7739 24.6826C39.7962 24.9073 39.8147 25.1471 39.8299 25.4035C39.8421 25.6092 39.8527 25.8807 39.8617 26.2013L39.8842 27.2945L39.9014 29.9723L39.8818 32.6475L39.8583 33.7375L39.8259 34.5303C39.8035 34.9015 39.7798 35.2136 39.7515 35.4852C39.7372 35.6211 39.7219 35.7467 39.7048 35.8646C39.6888 35.976 39.6699 36.0869 39.648 36.1973C39.628 36.298 39.6048 36.398 39.5784 36.4972C39.5531 36.5919 39.5246 36.6857 39.4931 36.7785C39.4613 36.8717 39.4267 36.9639 39.3893 37.055C39.3499 37.1512 39.3082 37.2465 39.2644 37.3408C39.2254 37.4251 39.1844 37.507 39.141 37.5867C39.0981 37.6656 39.0526 37.7431 39.0044 37.819C38.9568 37.8941 38.9068 37.9671 38.8545 38.0377C38.8025 38.1082 38.7479 38.1767 38.691 38.2432C38.6342 38.3095 38.575 38.3736 38.5136 38.4355C38.452 38.4974 38.3882 38.5571 38.3221 38.6148C38.2559 38.6725 38.1873 38.7279 38.1164 38.7812C38.0454 38.8346 37.9719 38.8858 37.896 38.9349C37.8201 38.984 37.7418 39.031 37.661 39.0759C37.5802 39.1208 37.4968 39.1638 37.4111 39.2046C37.3238 39.246 37.2354 39.2849 37.1458 39.321C37.0533 39.3584 36.9597 39.3931 36.8651 39.4252C36.6729 39.4908 36.4701 39.5483 36.2566 39.5979C36.0341 39.6493 35.8096 39.6913 35.5835 39.7238C35.4966 39.7365 35.2969 39.7485 35.0108 39.7595L33.9207 39.7898L30.8299 39.83L27.5949 39.835L26.3245 39.8215L25.4995 39.7958L24.8912 39.7531C24.7023 39.7372 24.5267 39.7195 24.3621 39.6994C24.1975 39.6793 24.0443 39.6569 23.9001 39.6317C23.7634 39.6081 23.6276 39.5799 23.4929 39.5471C23.37 39.5172 23.2484 39.4824 23.1284 39.4427C23.0126 39.4042 22.902 39.3619 22.7943 39.3154C22.6866 39.2689 22.582 39.2179 22.4785 39.1622C22.3749 39.1065 22.2723 39.0461 22.1687 38.9802C22.0905 38.9305 22.0149 38.8802 21.9421 38.8269C21.8694 38.7736 21.7991 38.7205 21.7314 38.6648C21.6637 38.6091 21.5988 38.5518 21.5361 38.4927C21.4738 38.4339 21.4137 38.3729 21.3558 38.3098C21.2981 38.2469 21.243 38.1822 21.1901 38.1151C21.137 38.0478 21.0864 37.9785 21.0384 37.9075C20.9896 37.8353 20.9435 37.7615 20.9002 37.686C20.8563 37.6098 20.8146 37.5311 20.775 37.4499C20.7348 37.3671 20.6972 37.2831 20.6624 37.1979C20.627 37.1111 20.5935 37.0216 20.5619 36.9292C20.4989 36.7442 20.4435 36.5474 20.3954 36.3374C20.3472 36.1275 20.3062 35.9044 20.2714 35.6668C20.2366 35.4292 20.2086 35.1772 20.1863 34.9095C20.1699 34.7122 20.1568 34.405 20.1468 34.0174L20.1259 32.6389L20.1336 29.1248L20.1941 25.7669L20.2403 24.5838L20.2664 24.1928C20.2755 24.0883 20.2849 24.011 20.2945 23.9645C20.3262 23.8117 20.3581 23.6695 20.3911 23.5364C20.4219 23.4108 20.4562 23.2861 20.4939 23.1624C20.5297 23.0457 20.5675 22.9363 20.6079 22.8327C20.6468 22.7324 20.6902 22.6338 20.7379 22.5373C20.7845 22.4435 20.8346 22.3537 20.8889 22.2663C20.9433 22.1788 21.002 22.094 21.066 22.0096C21.13 21.9253 21.1989 21.842 21.2738 21.7575C21.3488 21.6731 21.4298 21.5878 21.5176 21.4999C21.62 21.397 21.7266 21.2983 21.8371 21.2042C21.9414 21.1154 22.0503 21.032 22.1631 20.9544C22.2741 20.8775 22.3879 20.809 22.5064 20.7461C22.625 20.6832 22.7481 20.6264 22.8777 20.5752C23.0073 20.5241 23.1434 20.4783 23.2876 20.4368C23.4391 20.3943 23.5923 20.3581 23.7467 20.3281C23.9092 20.2963 24.0817 20.2685 24.2658 20.2443C24.45 20.2201 24.646 20.1992 24.8555 20.181C25.0016 20.1684 25.2534 20.1572 25.5849 20.1477L26.7915 20.1239L30.0013 20.1043L30.0007 20.105Z" fill="white"/>
</g>
</g>
<defs>
<linearGradient id="paint0_linear_2394_1029" x1="7.5" y1="66.5" x2="56" y2="-2" gradientUnits="userSpaceOnUse">
<stop stop-color="#FED576"/>
<stop offset="0.271" stop-color="#F47133"/>
<stop offset="0.606" stop-color="#BC3081"/>
<stop offset="1" stop-color="#4C63D2"/>
</linearGradient>
</defs>
</svg>
