<svg width="60" height="60" viewBox="0 0 60 60" fill="none" xmlns="http://www.w3.org/2000/svg">
<g id="4">
<circle id="Ellipse" cx="30" cy="30" r="30" fill="#0077B7"/>
<path id="Vector" d="M39.829 18H20.171C18.972 18 18 18.972 18 20.171V39.8289C18 41.028 18.972 42 20.171 42H39.8289C41.028 42 42 41.028 42 39.8289V20.171C42 18.972 41.028 18 39.829 18ZM25.4266 38.7232C25.4266 39.0721 25.1438 39.355 24.7948 39.355H22.1054C21.7565 39.355 21.4737 39.0721 21.4737 38.7232V27.4494C21.4737 27.1005 21.7565 26.8176 22.1054 26.8176H24.7948C25.1438 26.8176 25.4266 27.1005 25.4266 27.4494V38.7232ZM23.4501 25.7549C22.0391 25.7549 20.8952 24.611 20.8952 23.2C20.8952 21.7889 22.0391 20.645 23.4501 20.645C24.8612 20.645 26.0051 21.7889 26.0051 23.2C26.0051 24.611 24.8612 25.7549 23.4501 25.7549ZM39.4813 38.7741C39.4813 39.0949 39.2212 39.355 38.9004 39.355H36.0145C35.6937 39.355 35.4335 39.0949 35.4335 38.7741V33.486C35.4335 32.6972 35.6649 30.0292 33.372 30.0292C31.5934 30.0292 31.2327 31.8553 31.1602 32.6749V38.7741C31.1602 39.0949 30.9002 39.355 30.5793 39.355H27.7882C27.4674 39.355 27.2073 39.0949 27.2073 38.7741V27.3985C27.2073 27.0777 27.4674 26.8176 27.7882 26.8176H30.5793C30.9001 26.8176 31.1602 27.0777 31.1602 27.3985V28.3821C31.8197 27.3924 32.7998 26.6284 34.8866 26.6284C39.5077 26.6284 39.4813 30.9457 39.4813 33.3178V38.7741Z" fill="white"/>
</g>
</svg>
