<svg width="88" height="88" viewBox="0 0 88 88" fill="none" xmlns="http://www.w3.org/2000/svg">
<g id="Icon">
<rect id="Rectangle 229" width="88" height="88" rx="11" fill="#47C409" fill-opacity="0.05"/>
<g id="Group 1">
<circle id="Ellipse 96" opacity="0.15" cx="33" cy="40" r="12" fill="#47C409"/>
<g id="Group 626644">
<path id="Vector" d="M53.084 61.9168C51.2007 61.9168 49.2173 61.4668 47.1673 60.6002C45.1673 59.7502 43.1507 58.5835 41.184 57.1668C39.234 55.7335 37.3507 54.1335 35.5673 52.3835C33.8007 50.6002 32.2007 48.7168 30.784 46.7835C29.3507 44.7835 28.2007 42.7835 27.384 40.8502C26.5173 38.7835 26.084 36.7835 26.084 34.9002C26.084 33.6002 26.3173 32.3668 26.7673 31.2168C27.234 30.0335 27.984 28.9335 29.0007 27.9835C30.284 26.7168 31.7507 26.0835 33.3173 26.0835C33.9673 26.0835 34.634 26.2335 35.2007 26.5002C35.8507 26.8002 36.4007 27.2502 36.8007 27.8502L40.6673 33.3002C41.0173 33.7835 41.284 34.2502 41.4673 34.7168C41.684 35.2168 41.8007 35.7168 41.8007 36.2002C41.8007 36.8335 41.6173 37.4502 41.2673 38.0335C41.0173 38.4835 40.634 38.9668 40.1507 39.4502L39.0173 40.6335C39.034 40.6835 39.0507 40.7168 39.0673 40.7502C39.2673 41.1002 39.6673 41.7002 40.434 42.6002C41.2507 43.5335 42.0173 44.3835 42.784 45.1668C43.7673 46.1335 44.584 46.9002 45.3507 47.5335C46.3007 48.3335 46.9173 48.7335 47.284 48.9168L47.2507 49.0002L48.4673 47.8002C48.984 47.2835 49.484 46.9002 49.9673 46.6502C50.884 46.0835 52.0507 45.9835 53.2173 46.4668C53.6507 46.6502 54.1173 46.9002 54.6173 47.2502L60.1507 51.1835C60.7673 51.6002 61.2173 52.1335 61.484 52.7668C61.734 53.4002 61.8507 53.9835 61.8507 54.5668C61.8507 55.3668 61.6673 56.1668 61.3173 56.9168C60.9673 57.6668 60.534 58.3168 59.984 58.9168C59.034 59.9668 58.0007 60.7168 56.8007 61.2002C55.6507 61.6668 54.4007 61.9168 53.084 61.9168ZM33.3173 28.5835C32.4007 28.5835 31.5507 28.9835 30.734 29.7835C29.9673 30.5002 29.434 31.2835 29.1007 32.1335C28.7507 33.0002 28.584 33.9168 28.584 34.9002C28.584 36.4502 28.9507 38.1335 29.684 39.8668C30.434 41.6335 31.484 43.4668 32.8173 45.3002C34.1507 47.1335 35.6673 48.9168 37.334 50.6002C39.0007 52.2502 40.8007 53.7835 42.6507 55.1335C44.4507 56.4502 46.3007 57.5168 48.134 58.2835C50.984 59.5002 53.6507 59.7835 55.8507 58.8668C56.7007 58.5168 57.4507 57.9835 58.134 57.2168C58.5173 56.8002 58.8173 56.3502 59.0673 55.8168C59.2673 55.4002 59.3673 54.9668 59.3673 54.5335C59.3673 54.2668 59.3173 54.0002 59.184 53.7002C59.134 53.6002 59.034 53.4168 58.7173 53.2002L53.184 49.2668C52.8507 49.0335 52.5507 48.8668 52.2673 48.7502C51.9007 48.6002 51.7507 48.4502 51.184 48.8002C50.8507 48.9668 50.5507 49.2168 50.2173 49.5502L48.9507 50.8002C48.3007 51.4335 47.3007 51.5835 46.534 51.3002L46.084 51.1002C45.4007 50.7335 44.6007 50.1668 43.7173 49.4168C42.9173 48.7335 42.0507 47.9335 41.0007 46.9002C40.184 46.0668 39.3673 45.1835 38.5173 44.2002C37.734 43.2835 37.1673 42.5002 36.8173 41.8502L36.6173 41.3502C36.5173 40.9668 36.484 40.7502 36.484 40.5168C36.484 39.9168 36.7007 39.3835 37.1173 38.9668L38.3673 37.6668C38.7007 37.3335 38.9507 37.0168 39.1173 36.7335C39.2507 36.5168 39.3007 36.3335 39.3007 36.1668C39.3007 36.0335 39.2507 35.8335 39.1673 35.6335C39.0507 35.3668 38.8673 35.0668 38.634 34.7502L34.7673 29.2835C34.6007 29.0502 34.4007 28.8835 34.1507 28.7668C33.884 28.6502 33.6007 28.5835 33.3173 28.5835ZM47.2507 49.0168L46.984 50.1502L47.434 48.9835C47.3507 48.9668 47.284 48.9835 47.2507 49.0168Z" fill="#47C409"/>
</g>
</g>
</g>
</svg>
