<svg width="24" height="25" viewBox="0 0 24 25" fill="none" xmlns="http://www.w3.org/2000/svg">
<g id="WA_Logo">
<g id="Group">
<path id="Vector" fill-rule="evenodd" clip-rule="evenodd" d="M20.5031 4.12065C18.247 1.8727 15.2467 0.634186 12.0501 0.632812C5.46351 0.632812 0.102786 5.96756 0.100142 12.5247C0.0993368 14.6207 0.649482 16.6666 1.69527 18.4702L0 24.6328L6.33477 22.9791C8.08017 23.9265 10.0453 24.4259 12.0452 24.4266H12.0502C18.6361 24.4266 23.9972 19.0912 24 12.534C24.0011 9.35642 22.7592 6.36849 20.5031 4.12065ZM12.0502 22.4182H12.0462C10.264 22.4175 8.51592 21.9409 6.99104 21.0403L6.6283 20.8262L2.86915 21.8075L3.87251 18.1599L3.63636 17.7857C2.64219 16.2121 2.11699 14.3931 2.1178 12.5253C2.11998 7.07529 6.57552 2.64139 12.0542 2.64139C14.707 2.64231 17.2009 3.67177 19.0761 5.5403C20.9513 7.40872 21.9833 9.89215 21.9822 12.5334C21.98 17.9838 17.5245 22.4182 12.0502 22.4182ZM17.4982 15.0149C17.1996 14.8662 15.7317 14.1473 15.458 14.0481C15.1843 13.9491 14.9852 13.8995 14.7862 14.197C14.5872 14.4945 14.0148 15.1637 13.8407 15.3621C13.6665 15.5603 13.4923 15.5853 13.1938 15.4364C12.8951 15.2878 11.9331 14.9739 10.7926 13.9615C9.90502 13.1736 9.30578 12.2005 9.1316 11.9029C8.95742 11.6054 9.11298 11.4446 9.26256 11.2965C9.39684 11.1633 9.56114 10.9493 9.71049 10.7758C9.85984 10.6024 9.90951 10.4783 10.0091 10.28C10.1086 10.0818 10.0589 9.90817 9.98412 9.75954C9.90951 9.61067 9.31234 8.148 9.06354 7.553C8.82117 6.97368 8.57502 7.05206 8.39175 7.0429C8.2178 7.03432 8.01855 7.03238 7.81942 7.03238C7.6204 7.03238 7.29698 7.10675 7.02323 7.40425C6.74959 7.70175 5.97824 8.42067 5.97824 9.88334C5.97824 11.346 7.04806 12.7589 7.19741 12.9573C7.34665 13.1556 9.30291 16.157 12.2981 17.4443C13.0103 17.7505 13.5666 17.9332 14.0002 18.0703C14.7156 18.2965 15.3665 18.2645 15.8809 18.1881C16.4546 18.1027 17.6474 17.4691 17.8962 16.775C18.145 16.0808 18.145 15.4858 18.0704 15.3619C17.9958 15.2381 17.7968 15.1637 17.4982 15.0149Z" fill="white"/>
</g>
</g>
</svg>
