<svg width="97" height="97" viewBox="0 0 97 97" fill="none" xmlns="http://www.w3.org/2000/svg">
<g filter="url(#filter0_d_7456_7040)">
<path d="M74.0313 28.875C74.0313 29.8487 73.2238 30.6562 72.25 30.6562L46.125 30.6562C45.1513 30.6562 44.3437 29.8487 44.3437 28.875C44.3437 27.9013 45.1513 27.0937 46.125 27.0937L72.25 27.0937C73.2238 27.0937 74.0313 27.9012 74.0313 28.875Z" fill="#999999"/>
<path d="M38.4063 28.875C38.4063 29.8487 37.5988 30.6562 36.625 30.6562L24.75 30.6562C23.7763 30.6562 22.9687 29.8487 22.9687 28.875C22.9687 27.9013 23.7762 27.0937 24.75 27.0937L36.625 27.0937C37.5988 27.0937 38.4063 27.9012 38.4063 28.875Z" fill="#999999"/>
<path d="M74.0312 45.5C74.0312 46.4737 73.2238 47.2812 72.25 47.2812L60.375 47.2812C59.4013 47.2812 58.5937 46.4737 58.5937 45.5C58.5937 44.5263 59.4012 43.7187 60.375 43.7187L72.25 43.7187C73.2237 43.7187 74.0312 44.5262 74.0312 45.5Z" fill="#999999"/>
<path d="M52.6563 45.5C52.6563 46.4737 51.8488 47.2812 50.875 47.2812L24.75 47.2812C23.7763 47.2812 22.9687 46.4737 22.9687 45.5C22.9687 44.5263 23.7762 43.7187 24.75 43.7187L50.875 43.7187C51.8488 43.7187 52.6563 44.5262 52.6563 45.5Z" fill="#999999"/>
<path d="M74.0313 62.125C74.0313 63.0987 73.2238 63.9062 72.25 63.9062L46.125 63.9062C45.1513 63.9062 44.3437 63.0987 44.3437 62.125C44.3437 61.1513 45.1513 60.3437 46.125 60.3437L72.25 60.3437C73.2238 60.3437 74.0313 61.1512 74.0313 62.125Z" fill="#999999"/>
<path d="M38.4063 62.125C38.4063 63.0987 37.5988 63.9062 36.625 63.9062L24.75 63.9062C23.7763 63.9062 22.9687 63.0987 22.9687 62.125C22.9687 61.1513 23.7762 60.3437 24.75 60.3437L36.625 60.3437C37.5988 60.3437 38.4063 61.1512 38.4063 62.125Z" fill="#999999"/>
<path d="M47.9062 57.375L47.9062 66.875C47.9062 67.8487 47.0987 68.6562 46.125 68.6562C45.1513 68.6562 44.3437 67.8488 44.3437 66.875L44.3437 57.375C44.3437 56.4013 45.1512 55.5938 46.125 55.5938C47.0987 55.5938 47.9062 56.4013 47.9062 57.375Z" fill="#999999"/>
<path d="M47.9062 24.125L47.9062 33.625C47.9062 34.5987 47.0987 35.4062 46.125 35.4062C45.1513 35.4062 44.3437 34.5987 44.3437 33.625L44.3437 24.125C44.3437 23.1512 45.1512 22.3437 46.125 22.3437C47.0987 22.3437 47.9062 23.1512 47.9062 24.125Z" fill="#999999"/>
<path d="M52.6562 40.75L52.6562 50.25C52.6562 51.2237 51.8487 52.0312 50.875 52.0312C49.9013 52.0312 49.0937 51.2238 49.0937 50.25L49.0937 40.75C49.0937 39.7763 49.9012 38.9688 50.875 38.9688C51.8487 38.9688 52.6562 39.7763 52.6562 40.75Z" fill="#999999"/>
</g>
<defs>
<filter id="filter0_d_7456_7040" x="0" y="0" width="97" height="97" filterUnits="userSpaceOnUse" color-interpolation-filters="sRGB">
<feFlood flood-opacity="0" result="BackgroundImageFix"/>
<feColorMatrix in="SourceAlpha" type="matrix" values="0 0 0 0 0 0 0 0 0 0 0 0 0 0 0 0 0 0 127 0" result="hardAlpha"/>
<feOffset dy="3"/>
<feGaussianBlur stdDeviation="10"/>
<feComposite in2="hardAlpha" operator="out"/>
<feColorMatrix type="matrix" values="0 0 0 0 0 0 0 0 0 0 0 0 0 0 0 0 0 0 0.08 0"/>
<feBlend mode="normal" in2="BackgroundImageFix" result="effect1_dropShadow_7456_7040"/>
<feBlend mode="normal" in="SourceGraphic" in2="effect1_dropShadow_7456_7040" result="shape"/>
</filter>
</defs>
</svg>
