<svg width="138" height="138" viewBox="0 0 138 138" fill="none" xmlns="http://www.w3.org/2000/svg">
<g filter="url(#filter0_d_7317_34292)">
<path d="M102 17H36C27.1634 17 20 24.1634 20 33V99C20 107.837 27.1634 115 36 115H102C110.837 115 118 107.837 118 99V33C118 24.1634 110.837 17 102 17Z" fill="white"/>
</g>
<mask id="mask0_7317_34292" style="mask-type:luminance" maskUnits="userSpaceOnUse" x="20" y="17" width="98" height="98">
<path d="M102 17H36C27.1634 17 20 24.1634 20 33V99C20 107.837 27.1634 115 36 115H102C110.837 115 118 107.837 118 99V33C118 24.1634 110.837 17 102 17Z" fill="white"/>
</mask>
<g mask="url(#mask0_7317_34292)">
<mask id="mask1_7317_34292" style="mask-type:luminance" maskUnits="userSpaceOnUse" x="-1280" y="-791" width="2361" height="1508">
<path d="M1080.21 -791H-1279.21V716.193H1080.21V-791Z" fill="white"/>
</mask>
<g mask="url(#mask1_7317_34292)">
<path d="M121.102 2.97251C123.422 4.14039 126.902 6.84705 129.995 8.40159H130.398C130.755 8.59157 131.153 8.69093 131.558 8.69093C131.962 8.69093 132.361 8.59157 132.718 8.40159C136.971 7.61248 141.611 1.8125 143.142 1.8125C145.075 1.8125 143.931 7.62827 143.931 7.62827L146.638 10.7294C146.638 10.7294 148.216 11.5185 150.118 12.3076C150.118 15.4088 151.278 17.3421 155.531 20.0567C162.877 24.7045 175.637 28.579 179.891 26.6457C180.818 26.0724 181.587 25.2759 182.127 24.3289C182.668 23.3819 182.962 22.3147 182.984 21.2246L186.464 20.8221L191.49 15.7876H196.904L199.61 13.4676L202.704 13.0652L203.864 15.7797L210.437 16.9397L214.69 18.5179L217.397 19.307L218.186 23.1894H220.892L223.599 26.6772L229.012 27.4664L229.415 34.8287V37.1566L226.708 41.8123L225.919 49.9559L227.079 67.7818L232.492 68.5709L232.895 73.6133L227.482 80.2023L227.884 80.6047L234.844 91.0683H239.484V99.5039H242.964C242.964 99.5039 244.124 103.378 242.175 104.152C240.241 105.32 235.215 104.554 234.055 106.866C233.652 108.026 232.477 111.901 231.743 114.615C218.588 115.018 203.516 113.826 201.575 108.8C201.14 107.976 200.466 107.302 199.642 106.866C194.229 102.605 179.914 103.378 178.762 102.21C177.61 101.043 162.909 93.6881 162.522 90.1924C162.12 87.0991 160.21 74.6865 150.536 77.7877C149.221 78.2475 147.93 78.7743 146.669 79.3659L141.643 70.8435C141.643 70.8435 140.483 65.0278 139.323 60.7587C138.163 56.4897 130.429 54.943 130.429 54.943L128.496 48.7407L124.243 46.0261L126.949 44.8661L127.352 38.2771L130.058 35.1838L131.218 31.696L125.032 30.5281L123.864 28.2081L121.931 21.6191L120.352 16.1979L118.774 11.9368C118.774 11.9368 116.454 3.40653 118.774 1.85988C119.511 2.30766 120.291 2.68039 121.102 2.97251Z" fill="#F2F2F2"/>
<path d="M132.639 85.9393L137.279 86.3417L140.759 90.2162H145.012C146.945 93.3174 149.652 97.1919 151.972 101.469C155.202 109.242 160.399 116.041 167.052 121.197L166.649 121.986L172.063 130.516L185.983 132.094L189.849 134.414C191.316 135.396 192.513 136.731 193.329 138.296C194.489 141.011 185.209 153.021 185.209 153.021L169.356 157.677L168.196 158.079L148.09 161.954L137.673 172.031L135.74 170.097L112.54 168.156L111.38 174.745L106.741 176.323C102.101 166.247 94.754 156.596 86.6341 142.218C74.2609 120.518 64.9968 92.9939 58.0211 93.3805H54.9278L54.5254 83.6903L55.3145 82.1121C56.8927 84.0533 61.8877 84.0533 63.4265 84.0533C65.3598 84.0533 66.5198 80.9521 73.1009 78.2376C79.6821 75.5231 72.3118 69.7074 70.3943 68.1528C68.4767 66.5983 71.1834 65.0517 77.7409 64.2783C80.0383 63.8442 82.3645 63.5805 84.7008 63.4892C88.1546 63.3795 91.5893 64.0427 94.754 65.4304C104.188 71.1572 113.233 77.5024 121.828 84.4242L132.639 85.9393Z" fill="#F2F2F2"/>
<path d="M141.517 71.577L146.543 80.1072L146.141 80.5097C142.661 78.9314 138.021 77.0218 137.248 78.1897C136.474 79.3576 134.154 83.6187 132.608 85.552L122.168 84.7629C113.572 77.8445 104.531 71.4995 95.1016 65.7692C91.9361 64.3847 88.5015 63.7242 85.0484 63.8358L81.9551 52.5832C93.5549 45.6075 98.1949 43.6663 98.1949 36.304C98.1949 28.9416 98.5974 28.5549 101.288 26.6137C102.866 25.4458 106.701 22.3525 109.408 20.0247C110.33 19.9369 111.259 20.0751 112.115 20.4271C115.077 21.652 118.204 22.4337 121.395 22.7471L123.328 29.3361L124.488 31.664L130.675 32.8319L129.515 36.3197L126.808 39.4209L126.405 46.0099L123.699 47.1778L127.952 49.8924L129.885 56.0947C129.885 56.0947 137.619 57.673 138.771 61.9105C140.118 64.9939 141.042 68.2456 141.517 71.577Z" fill="#F2F2F2"/>
<path d="M109.747 20.0304C104.752 20.7362 99.8329 21.9039 95.0536 23.5183C90.8003 24.3074 86.9337 27.3928 84.6295 26.2328C82.8039 25.5934 80.867 25.3335 78.9375 25.4692C77.0079 25.6049 75.1265 26.1333 73.4084 27.0219L68.4133 24.6862L69.5733 30.8885L66.8351 31.3147L65.6751 30.9123C65.6727 30.6064 65.6004 30.3051 65.4636 30.0316C65.3269 29.758 65.1293 29.5194 64.886 29.334C62.8826 27.858 60.4765 27.0286 57.9891 26.9567C55.5017 26.8848 53.0516 27.5737 50.9662 28.9315C47.0996 31.6382 46.3262 33.1927 40.913 30.0994C39.0916 28.6087 36.8639 27.7002 34.5195 27.4919C32.175 27.2837 29.8222 27.7853 27.7665 28.9315C23.6047 29.7466 19.2911 29.2081 15.4573 27.3949C11.6236 25.5817 8.47087 22.5889 6.46063 18.8547C4.14066 12.2657 0.274063 10.7111 0.274063 8.0045C0.274063 5.68453 2.59405 -3.62693 -2.0459 -7.11478L1.04738 -10.216L2.62557 -12.9305L1.04738 -16.805L5.30068 -19.125L8.00727 -17.9571H12.6473C12.6473 -17.5547 13.0497 -17.5547 13.0497 -17.168C14.6855 -15.1751 16.6465 -13.473 18.8496 -12.1335C23.1029 -11.3444 31.6095 -8.6457 35.4761 -11.7311C39.3427 -14.8165 41.276 -18.3201 46.6971 -18.3201C54.795 -17.5084 62.7365 -15.5503 70.2835 -12.5044C79.2487 -10.0193 88.7023 -9.88067 97.7365 -12.102C98.3557 -12.6644 98.8876 -13.316 99.3147 -14.0353H108.595L113.621 -10.1607L113.219 -2.79839L117.472 -1.63049L121.725 -0.0523033L120.565 3.04887C120.141 2.85495 119.679 2.75459 119.212 2.75459C118.745 2.75459 118.284 2.85495 117.859 3.04887C115.539 4.62708 117.859 13.1258 117.859 13.1258L119.437 17.3869L121.015 22.8081C117.824 22.4941 114.697 21.7096 111.735 20.4802C111.68 20.0304 110.907 20.0304 109.747 20.0304Z" fill="#F2F2F2"/>
<path d="M82.3255 52.5986C71.1044 59.5743 70.339 60.7342 65.3124 58.8009C64.8423 58.6756 64.4074 58.4434 64.0419 58.1223C63.4926 57.6425 63.1264 56.9872 63.0055 56.268C62.8847 55.5487 63.0167 54.8097 63.3791 54.1768C64.0291 52.4052 65.0891 50.8126 66.4723 49.529C67.2814 48.5645 67.7576 47.3646 67.8301 46.1078C67.9026 44.851 67.5676 43.6044 66.8748 42.5532C65.8866 42.2009 64.8353 42.0611 63.7894 42.1429C65.3894 38.6202 66.0552 34.7449 65.7227 30.8903L66.8827 30.4878L69.5893 30.0853L68.4214 23.883L73.4481 26.2503C76.9709 24.6429 80.956 24.3627 84.6691 25.4612C87.3758 26.6291 91.2424 23.52 95.0853 22.7466C99.9016 21.2642 104.81 20.0991 109.778 19.2588C107.072 21.5788 103.205 24.68 101.659 25.8479C98.9519 27.7812 98.5732 28.1757 98.5732 35.5381C98.5653 43.295 93.9175 45.6229 82.3255 52.5986Z" fill="#F2F2F2"/>
<path d="M82.3018 52.6055L85.3951 63.8581C83.0574 63.9297 80.7295 64.1936 78.4352 64.6472C71.8619 65.8151 69.1553 67.0145 71.0886 68.5296C73.0219 70.0447 80.3685 75.892 73.7952 78.6065C67.222 81.321 66.062 84.4222 64.1287 84.4222C62.5505 84.4222 57.5475 84.4223 56.0088 82.4889L60.6487 73.1854L61.4378 61.5618L61.8694 59.0869C62.7176 57.6384 62.6275 57.6384 63.9858 57.6384C64.4183 58.2367 65.0469 58.6645 65.7621 58.8473C70.3074 60.3545 71.0886 59.5891 82.3018 52.6055Z" fill="#999999"/>
<path d="M69.4944 137.882L-8.22469 137.093V82.0682L-9.3847 80.9081L-10.9629 77.4124L-9.02962 74.3191L-9.43202 69.6634L-5.17873 63.8477C8.35444 69.2767 18.4077 71.9834 21.8955 70.8234C29.0632 67.2208 37.2329 66.1287 45.0952 67.7222C46.2653 68.3135 47.5816 68.5537 48.8852 68.4136C50.1887 68.2736 51.4239 67.7594 52.4418 66.9331C53.6194 71.5259 54.5232 76.1845 55.1484 80.8845C55.1484 81.2869 55.5509 81.6736 55.5509 82.0444L54.7618 83.6227L55.1642 93.3129C50.5243 93.7153 48.2043 92.5238 47.0443 89.825C45.4661 86.3293 37.3778 77.4203 41.6311 87.1105C45.0598 94.5943 49.2035 101.729 54.0042 108.416C57.4684 115.787 64.8544 127.039 69.4944 137.882Z" fill="#F2F2F2"/>
<path d="M66.8204 42.5195C67.5194 43.5684 67.8581 44.8162 67.7855 46.0746C67.7129 47.333 67.2329 48.5336 66.418 49.4952C65.0344 50.7816 63.9745 52.3769 63.3247 54.1509L59.458 53.7485C60.618 50.6473 62.5513 46.3861 63.7113 42.1171C64.7644 42.0303 65.8241 42.1675 66.8204 42.5195Z" fill="#F2F2F2"/>
<path d="M61.0204 61.9018L60.2313 73.5095L55.6071 82.7973C55.4578 82.6456 55.3445 82.4622 55.2757 82.2607C55.2064 82.0607 55.1821 81.8479 55.2047 81.6374C54.5795 76.9374 53.6756 72.2787 52.498 67.6859C54.7236 65.8917 56.3434 63.4564 57.138 60.7103L59.428 54.2002H61.8708L61.0204 61.9018Z" fill="#F2F2F2"/>
<path d="M55.5908 34.7551C55.9933 35.1575 55.5908 35.923 55.1884 36.6884C54.7859 37.0909 54.3993 37.8563 53.6102 38.2666C51.6769 39.4345 50.1302 40.9812 48.1969 42.1412C47.8959 42.1821 47.6177 42.324 47.4078 42.5436C46.8156 42.8612 46.1443 43.0009 45.4745 42.946C44.1365 43.0611 42.7937 42.7871 41.6078 42.1569C41.0027 41.8367 40.5443 41.2954 40.3283 40.6457C40.1122 39.996 40.1551 39.288 40.4479 38.6691C40.8621 38.1499 41.3934 37.7363 41.9983 37.462C42.6031 37.1877 43.2643 37.0605 43.9278 37.0909C45.506 37.0909 47.0211 36.6884 48.9544 36.6884C49.6261 36.7843 50.3101 36.6418 50.8878 36.286L53.2077 35.1181C53.5329 34.85 53.9237 34.6735 54.3399 34.6069C54.7561 34.5403 55.1825 34.586 55.5751 34.7393L55.5908 34.7551Z" fill="#F2F2F2"/>
</g>
<path d="M36 17.5H102C110.56 17.5 117.5 24.4396 117.5 33V99C117.5 107.56 110.56 114.5 102 114.5H36C27.4396 114.5 20.5 107.56 20.5 99V33C20.5 24.4396 27.4396 17.5 36 17.5Z" stroke="#F2F2F2"/>
</g>
<defs>
<filter id="filter0_d_7317_34292" x="0" y="0" width="138" height="138" filterUnits="userSpaceOnUse" color-interpolation-filters="sRGB">
<feFlood flood-opacity="0" result="BackgroundImageFix"/>
<feColorMatrix in="SourceAlpha" type="matrix" values="0 0 0 0 0 0 0 0 0 0 0 0 0 0 0 0 0 0 127 0" result="hardAlpha"/>
<feOffset dy="3"/>
<feGaussianBlur stdDeviation="10"/>
<feComposite in2="hardAlpha" operator="out"/>
<feColorMatrix type="matrix" values="0 0 0 0 0 0 0 0 0 0 0 0 0 0 0 0 0 0 0.08 0"/>
<feBlend mode="normal" in2="BackgroundImageFix" result="effect1_dropShadow_7317_34292"/>
<feBlend mode="normal" in="SourceGraphic" in2="effect1_dropShadow_7317_34292" result="shape"/>
</filter>
</defs>
</svg>
